<svg version="1.1" viewBox="0.0 0.0 960.0 540.0" fill="none" stroke="none" stroke-linecap="square" stroke-miterlimit="10" xmlns:xlink="http://www.w3.org/1999/xlink" xmlns="http://www.w3.org/2000/svg"><clipPath id="g207faa39127_0_0.0"><path d="m0 0l960.0 0l0 540.0l-960.0 0l0 -540.0z" clip-rule="nonzero"/></clipPath><g clip-path="url(#g207faa39127_0_0.0)"><path fill="#ffffff" d="m0 0l960.0 0l0 540.0l-960.0 0z" fill-rule="evenodd"/><path fill="#000000" fill-opacity="0.0" d="m32.72441 14.721785l894.55115 0l0 60.125984l-894.55115 0z" fill-rule="evenodd"/><path fill="#000000" d="m242.85556 83.62578l0 -44.65625l5.90625 0l0 18.328125l23.21875 0l0 -18.328125l5.90625 0l0 44.65625l-5.90625 0l0 -21.046875l-23.21875 0l0 21.046875l-5.90625 0zm66.32214 -10.421875l5.65625 0.703125q-1.328125 4.96875 -4.96875 7.71875q-3.625 2.734375 -9.25 2.734375q-7.109375 0 -11.265625 -4.375q-4.15625 -4.375 -4.15625 -12.265625q0 -8.15625 4.203125 -12.65625q4.203125 -4.515625 10.90625 -4.515625q6.5 0 10.609375 4.421875q4.109375 4.40625 4.109375 12.421875q0 0.484375 -0.03125 1.453125l-24.125 0q0.296875 5.34375 3.0 8.171875q2.71875 2.828125 6.78125 2.828125q3.015625 0 5.140625 -1.578125q2.140625 -1.59375 3.390625 -5.0625zm-18.015625 -8.859375l18.078125 0q-0.375 -4.078125 -2.078125 -6.125q-2.625 -3.171875 -6.796875 -3.171875q-3.78125 0 -6.359375 2.53125q-2.5625 2.53125 -2.84375 6.765625zm9.03125 -22.265625l-3.453125 5.171875l-6.265625 0l6.578125 -8.53125l5.84375 0l6.859375 8.53125l-6.21875 0l-3.34375 -5.171875zm-2.78125 51.453125l0 -6.25l6.234375 0l0 6.25l-6.234375 0zm39.45468 -19.5625l5.421875 -0.859375q0.453125 3.265625 2.53125 5.0q2.09375 1.734375 5.84375 1.734375q3.78125 0 5.609375 -1.53125q1.828125 -1.546875 1.828125 -3.609375q0 -1.859375 -1.625 -2.921875q-1.125 -0.734375 -5.59375 -1.859375q-6.03125 -1.53125 -8.375 -2.640625q-2.328125 -1.109375 -3.53125 -3.078125q-1.203125 -1.96875 -1.203125 -4.34375q0 -2.15625 0.984375 -4.0q1.0 -1.84375 2.703125 -3.0625q1.28125 -0.953125 3.484375 -1.59375q2.21875 -0.65625 4.75 -0.65625q3.796875 0 6.671875 1.09375q2.890625 1.09375 4.25 2.96875q1.375 1.875 1.890625 5.015625l-5.359375 0.71875q-0.359375 -2.484375 -2.109375 -3.890625q-1.75 -1.40625 -4.953125 -1.40625q-3.78125 0 -5.390625 1.25q-1.609375 1.25 -1.609375 2.921875q0 1.078125 0.65625 1.921875q0.671875 0.890625 2.109375 1.46875q0.828125 0.296875 4.84375 1.390625q5.8125 1.5625 8.109375 2.5625q2.3125 0.984375 3.609375 2.875q1.3125 1.875 1.3125 4.6875q0 2.734375 -1.59375 5.15625q-1.59375 2.421875 -4.609375 3.75q-3.015625 1.328125 -6.828125 1.328125q-6.3125 0 -9.625 -2.625q-3.296875 -2.625 -4.203125 -7.765625zm33.414062 -28.703125l0 -6.296875l5.484375 0l0 6.296875l-5.484375 0zm0 38.359375l0 -32.359375l5.484375 0l0 32.359375l-5.484375 0zm13.829956 0l0 -32.359375l4.9375 0l0 4.609375q3.5625 -5.328125 10.296875 -5.328125q2.921875 0 5.375 1.046875q2.453125 1.046875 3.671875 2.765625q1.21875 1.703125 1.703125 4.046875q0.3125 1.515625 0.3125 5.328125l0 19.890625l-5.484375 0l0 -19.6875q0 -3.34375 -0.640625 -5.0q-0.640625 -1.65625 -2.28125 -2.640625q-1.625 -1.0 -3.8125 -1.0q-3.5 0 -6.046875 2.21875q-2.546875 2.21875 -2.546875 8.4375l0 17.671875l-5.484375 0zm34.6987 0l0 -44.65625l5.484375 0l0 16.015625q3.84375 -4.4375 9.6875 -4.4375q3.59375 0 6.234375 1.421875q2.65625 1.40625 3.796875 3.90625q1.15625 2.5 1.15625 7.25l0 20.5l-5.484375 0l0 -20.5q0 -4.109375 -1.78125 -5.984375q-1.78125 -1.875 -5.046875 -1.875q-2.4375 0 -4.59375 1.265625q-2.140625 1.265625 -3.0625 3.4375q-0.90625 2.15625 -0.90625 5.953125l0 17.703125l-5.484375 0zm64.00159 -4.90625l0.796875 4.84375q-2.3125 0.484375 -4.140625 0.484375q-2.984375 0 -4.640625 -0.9375q-1.640625 -0.953125 -2.3125 -2.484375q-0.65625 -1.546875 -0.65625 -6.46875l0 -18.625l-4.03125 0l0 -4.265625l4.03125 0l0 -8.0l5.453125 -3.296875l0 11.296875l5.5 0l0 4.265625l-5.5 0l0 18.921875q0 2.34375 0.28125 3.015625q0.296875 0.671875 0.9375 1.078125q0.65625 0.390625 1.875 0.390625q0.921875 0 2.40625 -0.21875zm5.3653564 4.90625l0 -44.65625l5.484375 0l0 16.015625q3.84375 -4.4375 9.6875 -4.4375q3.59375 0 6.234375 1.421875q2.6562805 1.40625 3.7969055 3.90625q1.15625 2.5 1.15625 7.25l0 20.5l-5.4844055 0l0 -20.5q0 -4.109375 -1.78125 -5.984375q-1.78125 -1.875 -5.046875 -1.875q-2.4375 0 -4.59375 1.265625q-2.140625 1.265625 -3.0625 3.4375q-0.90625 2.15625 -0.90625 5.953125l0 17.703125l-5.484375 0zm55.808136 -3.984375q-3.046875 2.578125 -5.859375 3.65625q-2.8125 1.0625 -6.046875 1.0625q-5.328125 0 -8.203125 -2.609375q-2.859375 -2.609375 -2.859375 -6.65625q0 -2.375 1.078125 -4.34375q1.09375 -1.96875 2.84375 -3.15625q1.75 -1.1875 3.9375 -1.796875q1.625 -0.421875 4.875 -0.8125q6.640625 -0.796875 9.78125 -1.890625q0.03125 -1.125 0.03125 -1.4375q0 -3.34375 -1.546875 -4.71875q-2.109375 -1.859375 -6.25 -1.859375q-3.875 0 -5.71875 1.359375q-1.84375 1.359375 -2.71875 4.796875l-5.359375 -0.734375q0.734375 -3.4375 2.40625 -5.546875q1.671875 -2.125 4.84375 -3.265625q3.171875 -1.140625 7.34375 -1.140625q4.140625 0 6.71875 0.96875q2.59375 0.96875 3.8125 2.453125q1.21875 1.484375 1.703125 3.734375q0.28125 1.390625 0.28125 5.046875l0 7.3125q0 7.65625 0.34375 9.6875q0.359375 2.015625 1.390625 3.875l-5.71875 0q-0.859375 -1.703125 -1.109375 -3.984375zm-0.453125 -12.25q-2.984375 1.21875 -8.953125 2.0625q-3.390625 0.5 -4.796875 1.109375q-1.390625 0.609375 -2.15625 1.78125q-0.75 1.171875 -0.75 2.59375q0 2.203125 1.65625 3.671875q1.65625 1.453125 4.859375 1.453125q3.171875 0 5.625 -1.390625q2.46875 -1.390625 3.640625 -3.796875q0.875 -1.84375 0.875 -5.484375l0 -2.0zm-10.65625 -20.140625l4.046875 -8.53125l7.1875 0l-6.703125 8.53125l-4.53125 0zm24.72992 -1.984375l0 -6.296875l5.484375 0l0 6.296875l-5.484375 0zm0 38.359375l0 -32.359375l5.484375 0l0 32.359375l-5.484375 0zm42.099243 0l0 -39.390625l-14.703125 0l0 -5.265625l35.390625 0l0 5.265625l-14.765625 0l0 39.390625l-5.921875 0zm26.845032 0l0 -44.65625l19.796875 0q5.96875 0 9.078125 1.203125q3.109375 1.203125 4.96875 4.25q1.859375 3.046875 1.859375 6.734375q0 4.75 -3.078125 8.015625q-3.078125 3.25 -9.5 4.140625q2.34375 1.125 3.5625 2.21875q2.59375 2.375 4.90625 5.9375l7.765625 12.15625l-7.4375 0l-5.90625 -9.296875q-2.59375 -4.015625 -4.265625 -6.140625q-1.671875 -2.140625 -3.0 -2.984375q-1.328125 -0.859375 -2.703125 -1.203125q-1.0 -0.203125 -3.28125 -0.203125l-6.859375 0l0 19.828125l-5.90625 0zm5.90625 -24.953125l12.703125 0q4.046875 0 6.328125 -0.828125q2.296875 -0.84375 3.484375 -2.6875q1.1875 -1.84375 1.1875 -4.0q0 -3.171875 -2.296875 -5.203125q-2.296875 -2.046875 -7.265625 -2.046875l-14.140625 0l0 14.765625zm40.05652 24.953125l0 -44.65625l5.921875 0l0 44.65625l-5.921875 0zm12.7716675 0l0 -5.484375l22.875 -28.609375q2.4375 -3.046875 4.640625 -5.296875l-24.921875 0l0 -5.265625l31.984375 0l0 5.265625l-25.078125 30.984375l-2.703125 3.140625l28.515625 0l0 5.265625l-35.3125 0z" fill-rule="nonzero"/><path fill="#f9cb9c" d="m238.64305 400.1811l0 0c0 6.6448364 21.546738 12.031494 48.12599 12.031494c26.579224 0 48.125977 -5.3866577 48.125977 -12.031494l0 101.85828c0 6.644806 -21.546753 12.031494 -48.125977 12.031494c-26.579254 0 -48.12599 -5.386688 -48.12599 -12.031494z" fill-rule="evenodd"/><path fill="#fbdfc3" d="m238.64305 400.1811l0 0c0 -6.644806 21.546738 -12.031494 48.12599 -12.031494c26.579224 0 48.125977 5.386688 48.125977 12.031494l0 0c0 6.6448364 -21.546753 12.031494 -48.125977 12.031494c-26.579254 0 -48.12599 -5.3866577 -48.12599 -12.031494z" fill-rule="evenodd"/><path fill="#000000" fill-opacity="0.0" d="m334.89502 400.1811l0 0c0 6.6448364 -21.546753 12.031494 -48.125977 12.031494c-26.579254 0 -48.12599 -5.3866577 -48.12599 -12.031494l0 0c0 -6.644806 21.546738 -12.031494 48.12599 -12.031494c26.579224 0 48.125977 5.386688 48.125977 12.031494l0 101.85828c0 6.644806 -21.546753 12.031494 -48.125977 12.031494c-26.579254 0 -48.12599 -5.386688 -48.12599 -12.031494l0 -101.85828" fill-rule="evenodd"/><path stroke="#595959" stroke-width="1.0" stroke-linejoin="round" stroke-linecap="butt" d="m334.89502 400.1811l0 0c0 6.6448364 -21.546753 12.031494 -48.125977 12.031494c-26.579254 0 -48.12599 -5.3866577 -48.12599 -12.031494l0 0c0 -6.644806 21.546738 -12.031494 48.12599 -12.031494c26.579224 0 48.125977 5.386688 48.125977 12.031494l0 101.85828c0 6.644806 -21.546753 12.031494 -48.125977 12.031494c-26.579254 0 -48.12599 -5.386688 -48.12599 -12.031494l0 -101.85828" fill-rule="evenodd"/><path fill="#000000" d="m254.77853 442.046l0 -11.78125l-4.40625 0l0 -1.578125l10.578125 0l0 1.578125l-4.40625 0l0 11.78125l-1.765625 0zm7.7865906 0l0 -13.359375l1.640625 0l0 4.796875q1.140625 -1.328125 2.890625 -1.328125q1.078125 0 1.859375 0.421875q0.796875 0.421875 1.140625 1.171875q0.34375 0.75 0.34375 2.171875l0 6.125l-1.640625 0l0 -6.125q0 -1.234375 -0.53125 -1.796875q-0.53125 -0.5625 -1.515625 -0.5625q-0.71875 0 -1.359375 0.390625q-0.640625 0.375 -0.921875 1.015625q-0.265625 0.640625 -0.265625 1.78125l0 5.296875l-1.640625 0zm19.313232 -7.765625l0 -1.90625l1.75 0l0 1.5q0 1.4375 -0.328125 2.0q-0.828125 1.453125 -2.5625 1.640625l0 4.53125l-1.46875 0l0 -1.421875q-1.125 1.640625 -3.0625 1.640625q-0.84375 0 -1.59375 -0.3125q-0.734375 -0.328125 -1.109375 -0.828125q-0.359375 -0.515625 -0.5 -1.234375q-0.109375 -0.484375 -0.109375 -1.53125l0 -5.984375l1.640625 0l0 5.359375q0 1.3125 0.109375 1.734375q0.3125 1.390625 1.890625 1.390625q0.75 0 1.390625 -0.375q0.65625 -0.390625 0.90625 -1.03125q0.265625 -0.65625 0.265625 -1.890625l0 -5.1875l1.640625 0l0 4.4375q1.15625 -0.1875 1.734375 -1.078125q0.25 -0.390625 0.25 -1.453125l-0.84375 0zm11.422424 7.765625l-3.6875 -9.671875l1.734375 0l2.078125 5.796875q0.328125 0.9375 0.625 1.9375q0.203125 -0.765625 0.609375 -1.828125l2.140625 -5.90625l1.6875 0l-3.65625 9.671875l-1.53125 0zm6.640625 -11.46875l0 -1.890625l1.640625 0l0 1.890625l-1.640625 0zm0 11.46875l0 -9.671875l1.640625 0l0 9.671875l-1.640625 0zm10.769806 -3.109375l1.6875 0.203125q-0.40625 1.484375 -1.484375 2.3125q-1.078125 0.8125 -2.765625 0.8125q-2.125 0 -3.375 -1.296875q-1.234375 -1.3125 -1.234375 -3.671875q0 -2.453125 1.25 -3.796875q1.265625 -1.34375 3.265625 -1.34375q1.9375 0 3.15625 1.328125q1.234375 1.3125 1.234375 3.703125q0 0.15625 0 0.4375l-7.21875 0q0.09375 1.59375 0.90625 2.453125q0.8125 0.84375 2.015625 0.84375q0.90625 0 1.546875 -0.46875q0.640625 -0.484375 1.015625 -1.515625zm-5.390625 -2.65625l5.40625 0q-0.109375 -1.21875 -0.625 -1.828125q-0.78125 -0.953125 -2.03125 -0.953125q-1.125 0 -1.90625 0.765625q-0.765625 0.75 -0.84375 2.015625zm2.703125 -6.65625l-1.03125 1.546875l-1.875 0l1.96875 -2.546875l1.734375 0l2.0625 2.546875l-1.859375 0l-1.0 -1.546875zm-0.828125 15.375l0 -1.859375l1.859375 0l0 1.859375l-1.859375 0zm7.2663574 -2.953125l0 -9.671875l1.46875 0l0 1.375q1.0625 -1.59375 3.078125 -1.59375q0.875 0 1.609375 0.3125q0.734375 0.3125 1.09375 0.828125q0.375 0.5 0.515625 1.203125q0.09375 0.453125 0.09375 1.59375l0 5.953125l-1.640625 0l0 -5.890625q0 -1.0 -0.203125 -1.484375q-0.1875 -0.5 -0.671875 -0.796875q-0.484375 -0.296875 -1.140625 -0.296875q-1.046875 0 -1.8125 0.671875q-0.75 0.65625 -0.75 2.515625l0 5.28125l-1.640625 0z" fill-rule="nonzero"/><path fill="#000000" d="m264.61743 462.57724l0.234375 1.453125q-0.6875 0.140625 -1.234375 0.140625q-0.890625 0 -1.390625 -0.28125q-0.484375 -0.28125 -0.6875 -0.734375q-0.203125 -0.46875 -0.203125 -1.9375l0 -5.578125l-1.203125 0l0 -1.265625l1.203125 0l0 -2.390625l1.625 -0.984375l0 3.375l1.65625 0l0 1.265625l-1.65625 0l0 5.671875q0 0.6875 0.078125 0.890625q0.09375 0.203125 0.28125 0.328125q0.203125 0.109375 0.578125 0.109375q0.265625 0 0.71875 -0.0625zm7.9176636 0.28125q-0.921875 0.765625 -1.765625 1.09375q-0.828125 0.3125 -1.796875 0.3125q-1.59375 0 -2.453125 -0.78125q-0.859375 -0.78125 -0.859375 -1.984375q0 -0.71875 0.328125 -1.296875q0.328125 -0.59375 0.84375 -0.9375q0.53125 -0.359375 1.1875 -0.546875q0.46875 -0.125 1.453125 -0.25q1.984375 -0.234375 2.921875 -0.5625q0.015625 -0.34375 0.015625 -0.421875q0 -1.0 -0.46875 -1.421875q-0.625 -0.546875 -1.875 -0.546875q-1.15625 0 -1.703125 0.40625q-0.546875 0.40625 -0.8125 1.421875l-1.609375 -0.21875q0.21875 -1.015625 0.71875 -1.640625q0.5 -0.640625 1.453125 -0.984375q0.953125 -0.34375 2.1875 -0.34375q1.25 0 2.015625 0.296875q0.78125 0.28125 1.140625 0.734375q0.375 0.4375 0.515625 1.109375q0.078125 0.421875 0.078125 1.515625l0 2.1875q0 2.28125 0.109375 2.890625q0.109375 0.59375 0.40625 1.15625l-1.703125 0q-0.265625 -0.515625 -0.328125 -1.1875zm-0.140625 -3.671875q-0.890625 0.375 -2.671875 0.625q-1.015625 0.140625 -1.4375 0.328125q-0.421875 0.1875 -0.65625 0.53125q-0.21875 0.34375 -0.21875 0.78125q0 0.65625 0.5 1.09375q0.5 0.4375 1.453125 0.4375q0.9375 0 1.671875 -0.40625q0.75 -0.421875 1.09375 -1.140625q0.265625 -0.5625 0.265625 -1.640625l0 -0.609375zm-0.890625 -6.015625l-1.3125 0l-2.109375 -2.546875l2.1875 0l1.234375 2.546875zm5.0944824 -0.59375l0 -1.890625l1.640625 0l0 1.890625l-1.640625 0zm0 11.46875l0 -9.671875l1.640625 0l0 9.671875l-1.640625 0zm9.28125 0l0 -13.359375l1.640625 0l0 13.359375l-1.640625 0zm4.191681 -11.46875l0 -1.890625l1.640625 0l0 1.890625l-1.640625 0zm0 11.46875l0 -9.671875l1.640625 0l0 9.671875l-1.640625 0zm10.769836 -3.109375l1.6875 0.203125q-0.40625 1.484375 -1.484375 2.3125q-1.078125 0.8125 -2.765625 0.8125q-2.125 0 -3.375 -1.296875q-1.234375 -1.3125 -1.234375 -3.671875q0 -2.453125 1.25 -3.796875q1.265625 -1.34375 3.265625 -1.34375q1.9375 0 3.15625 1.328125q1.234375 1.3125 1.234375 3.703125q0 0.15625 0 0.4375l-7.21875 0q0.09375 1.59375 0.90625 2.453125q0.8125 0.84375 2.015625 0.84375q0.90625 0 1.546875 -0.46875q0.640625 -0.484375 1.015625 -1.515625zm-5.390625 -2.65625l5.40625 0q-0.109375 -1.21875 -0.625 -1.828125q-0.78125 -0.953125 -2.03125 -0.953125q-1.125 0 -1.90625 0.765625q-0.765625 0.75 -0.84375 2.015625zm2.703125 -6.65625l-1.03125 1.546875l-1.875 0l1.96875 -2.546875l1.734375 0l2.0625 2.546875l-1.859375 0l-1.0 -1.546875zm-0.828125 15.375l0 -1.859375l1.859375 0l0 1.859375l-1.859375 0zm13.594452 -2.953125l0 -1.421875q-1.125 1.640625 -3.0625 1.640625q-0.859375 0 -1.609375 -0.328125q-0.734375 -0.328125 -1.09375 -0.828125q-0.359375 -0.5 -0.5 -1.21875q-0.109375 -0.46875 -0.109375 -1.53125l0 -5.984375l1.640625 0l0 5.359375q0 1.28125 0.109375 1.734375q0.15625 0.640625 0.65625 1.015625q0.5 0.375 1.234375 0.375q0.734375 0 1.375 -0.375q0.65625 -0.390625 0.921875 -1.03125q0.265625 -0.65625 0.265625 -1.890625l0 -5.1875l1.640625 0l0 9.671875l-1.46875 0z" fill-rule="nonzero"/><path fill="#000000" d="m270.88867 486.046l0 -11.78125l-4.40625 0l0 -1.578125l10.578125 0l0 1.578125l-4.40625 0l0 11.78125l-1.765625 0zm8.020996 0l0 -13.359375l5.921875 0q1.78125 0 2.703125 0.359375q0.9375 0.359375 1.484375 1.28125q0.5625 0.90625 0.5625 2.015625q0 1.40625 -0.921875 2.390625q-0.921875 0.96875 -2.84375 1.234375q0.703125 0.34375 1.078125 0.671875q0.765625 0.703125 1.453125 1.765625l2.328125 3.640625l-2.21875 0l-1.765625 -2.78125q-0.78125 -1.203125 -1.28125 -1.828125q-0.5 -0.640625 -0.90625 -0.890625q-0.390625 -0.265625 -0.796875 -0.359375q-0.296875 -0.078125 -0.984375 -0.078125l-2.046875 0l0 5.9375l-1.765625 0zm1.765625 -7.453125l3.796875 0q1.21875 0 1.890625 -0.25q0.6875 -0.265625 1.046875 -0.8125q0.359375 -0.546875 0.359375 -1.1875q0 -0.953125 -0.6875 -1.5625q-0.6875 -0.609375 -2.1875 -0.609375l-4.21875 0l0 4.421875zm11.972931 7.453125l0 -13.359375l1.765625 0l0 13.359375l-1.765625 0zm3.823944 0l0 -1.640625l6.84375 -8.546875q0.71875 -0.921875 1.375 -1.59375l-7.453125 0l0 -1.578125l9.578125 0l0 1.578125l-7.5 9.265625l-0.8125 0.9375l8.53125 0l0 1.578125l-10.5625 0z" fill-rule="nonzero"/><path fill="#00ffff" d="m750.4514 412.0866l0 0c0 -32.093384 26.016846 -58.11023 58.11029 -58.11023c32.093384 0 58.11023 26.016846 58.11023 58.11023c0 32.093414 -26.016846 58.11023 -58.11023 58.11023c-32.093445 0 -58.11029 -26.016815 -58.11029 -58.11023z" fill-rule="evenodd"/><path fill="#00cbcb" d="m783.8917 394.70734c0 -3.343048 2.710083 -6.053131 6.0531616 -6.053131c3.3430786 0 6.0531616 2.710083 6.0531616 6.053131c0 3.3430786 -2.710083 6.0531616 -6.0531616 6.0531616c-3.3430786 0 -6.0531616 -2.710083 -6.0531616 -6.0531616m37.23358 0c0 -3.343048 2.710083 -6.053131 6.0531616 -6.053131c3.3430786 0 6.0531616 2.710083 6.0531616 6.053131c0 3.3430786 -2.710083 6.0531616 -6.0531616 6.0531616c-3.3430786 0 -6.0531616 -2.710083 -6.0531616 -6.0531616" fill-rule="evenodd"/><path fill="#000000" fill-opacity="0.0" d="m777.06555 437.42886q31.496155 21.630981 62.9187 0" fill-rule="evenodd"/><path fill="#000000" fill-opacity="0.0" d="m750.4514 412.0866l0 0c0 -32.093384 26.016846 -58.11023 58.11029 -58.11023c32.093384 0 58.11023 26.016846 58.11023 58.11023c0 32.093414 -26.016846 58.11023 -58.11023 58.11023c-32.093445 0 -58.11029 -26.016815 -58.11029 -58.11023z" fill-rule="evenodd"/><path stroke="#595959" stroke-width="1.0" stroke-linejoin="round" stroke-linecap="butt" d="m783.8917 394.70734c0 -3.343048 2.710083 -6.053131 6.0531616 -6.053131c3.3430786 0 6.0531616 2.710083 6.0531616 6.053131c0 3.3430786 -2.710083 6.0531616 -6.0531616 6.0531616c-3.3430786 0 -6.0531616 -2.710083 -6.0531616 -6.0531616m37.23358 0c0 -3.343048 2.710083 -6.053131 6.0531616 -6.053131c3.3430786 0 6.0531616 2.710083 6.0531616 6.053131c0 3.3430786 -2.710083 6.0531616 -6.0531616 6.0531616c-3.3430786 0 -6.0531616 -2.710083 -6.0531616 -6.0531616" fill-rule="evenodd"/><path stroke="#595959" stroke-width="1.0" stroke-linejoin="round" stroke-linecap="butt" d="m777.06555 437.42886q31.496155 21.630981 62.9187 0" fill-rule="evenodd"/><path stroke="#595959" stroke-width="1.0" stroke-linejoin="round" stroke-linecap="butt" d="m750.4514 412.0866l0 0c0 -32.093384 26.016846 -58.11023 58.11029 -58.11023c32.093384 0 58.11023 26.016846 58.11023 58.11023c0 32.093414 -26.016846 58.11023 -58.11023 58.11023c-32.093445 0 -58.11029 -26.016815 -58.11029 -58.11023z" fill-rule="evenodd"/><path fill="#000000" d="m765.90906 507.0066l0 -6.078125l-1.46875 0l0 -1.203125l1.46875 0l0 -6.078125l4.609375 0q1.546875 0 2.375 0.203125q1.140625 0.25 1.953125 0.953125q1.0625 0.890625 1.578125 2.28125q0.53125 1.390625 0.53125 3.171875q0 2.046875 -0.65625 3.515625q-0.640625 1.46875 -1.546875 2.140625q-0.90625 0.65625 -2.078125 0.9375q-0.640625 0.15625 -1.9375 0.15625l-4.828125 0zm1.765625 -1.578125l2.859375 0q1.328125 0 2.0625 -0.234375q0.75 -0.25 1.1875 -0.6875q0.640625 -0.640625 0.984375 -1.6875q0.359375 -1.0625 0.359375 -2.578125q0 -1.5625 -0.359375 -2.5q-0.34375 -0.953125 -0.90625 -1.515625q-0.5625 -0.5625 -1.265625 -0.78125q-0.6875 -0.21875 -2.109375 -0.21875l-2.8125 0l0 4.5l3.6875 0l0 1.203125l-3.6875 0l0 4.5zm10.894775 -3.265625q0 -2.6875 1.484375 -3.96875q1.25 -1.078125 3.046875 -1.078125q2.0 0 3.265625 1.3125q1.265625 1.296875 1.265625 3.609375q0 1.859375 -0.5625 2.9375q-0.5625 1.0625 -1.640625 1.65625q-1.0625 0.59375 -2.328125 0.59375q-2.03125 0 -3.28125 -1.296875q-1.25 -1.3125 -1.25 -3.765625zm1.6875 0q0 1.859375 0.796875 2.796875q0.8125 0.921875 2.046875 0.921875q1.21875 0 2.03125 -0.921875q0.8125 -0.9375 0.8125 -2.84375q0 -1.796875 -0.8125 -2.71875q-0.8125 -0.921875 -2.03125 -0.921875q-1.234375 0 -2.046875 0.921875q-0.796875 0.90625 -0.796875 2.765625zm2.875 -7.578125l-1.03125 1.546875l-1.875 0l1.96875 -2.546875l1.734375 0l2.0625 2.546875l-1.859375 0l-1.0 -1.546875zm0.28125 -4.21875l2.203125 0l-2.109375 2.546875l-1.328125 0l1.234375 -2.546875zm6.1413574 5.171875l0 -1.890625l1.640625 0l0 1.890625l-1.640625 0zm0 11.46875l0 -9.671875l1.640625 0l0 9.671875l-1.640625 0zm12.90625 -1.46875l0.234375 1.453125q-0.6875 0.140625 -1.234375 0.140625q-0.890625 0 -1.390625 -0.28125q-0.484375 -0.28125 -0.6875 -0.734375q-0.203125 -0.46875 -0.203125 -1.9375l0 -5.578125l-1.203125 0l0 -1.265625l1.203125 0l0 -2.390625l1.625 -0.984375l0 3.375l1.65625 0l0 1.265625l-1.65625 0l0 5.671875q0 0.6875 0.078125 0.890625q0.09375 0.203125 0.28125 0.328125q0.203125 0.109375 0.578125 0.109375q0.265625 0 0.71875 -0.0625zm10.542664 -6.296875l0 -1.90625l1.75 0l0 1.5q0 1.4375 -0.328125 2.0q-0.828125 1.453125 -2.5625 1.640625l0 4.53125l-1.46875 0l0 -1.421875q-1.125 1.640625 -3.0625 1.640625q-0.84375 0 -1.59375 -0.3125q-0.734375 -0.328125 -1.109375 -0.828125q-0.359375 -0.515625 -0.5 -1.234375q-0.109375 -0.484375 -0.109375 -1.53125l0 -5.984375l1.640625 0l0 5.359375q0 1.3125 0.109375 1.734375q0.3125 1.390625 1.890625 1.390625q0.75 0 1.390625 -0.375q0.65625 -0.390625 0.90625 -1.03125q0.265625 -0.65625 0.265625 -1.890625l0 -5.1875l1.640625 0l0 4.4375q1.15625 -0.1875 1.734375 -1.078125q0.25 -0.390625 0.25 -1.453125l-0.84375 0zm4.6297607 2.921875q0 1.796875 0.796875 2.78125q0.765625 0.9375 2.046875 0.9375q1.28125 0 2.03125 -0.9375q0.8125 -0.984375 0.8125 -2.828125q0 -1.734375 -0.828125 -2.71875q-0.765625 -0.921875 -2.015625 -0.921875q-1.28125 0 -2.046875 0.921875q-0.796875 0.984375 -0.796875 2.765625zm7.59375 -3.15625l0 -1.90625l1.75 0l0 1.5q0 1.125 -0.34375 1.734375q-0.4375 0.78125 -1.625 1.4375q0 0.125 0 0.265625q0 3.390625 -2.1875 4.59375q-1.078125 0.59375 -2.34375 0.59375q-2.078125 0 -3.28125 -1.296875q-1.25 -1.359375 -1.25 -3.765625q0 -2.6875 1.484375 -3.96875q1.25 -1.078125 3.046875 -1.078125q2.0 0 3.265625 1.296875q0.953125 1.0 1.1875 2.5625q0.625 -0.375 0.890625 -0.78125q0.265625 -0.421875 0.265625 -1.1875l-0.859375 0zm-5.75 10.953125l0 -1.859375l1.859375 0l0 1.859375l-1.859375 0zm9.312195 -2.953125l0 -9.671875l1.46875 0l0 1.375q1.0625 -1.59375 3.078125 -1.59375q0.875 0 1.609375 0.3125q0.734375 0.3125 1.09375 0.828125q0.375 0.5 0.515625 1.203125q0.09375 0.453125 0.09375 1.59375l0 5.953125l-1.640625 0l0 -5.890625q0 -1.0 -0.203125 -1.484375q-0.1875 -0.5 -0.671875 -0.796875q-0.484375 -0.296875 -1.140625 -0.296875q-1.046875 0 -1.8125 0.671875q-0.75 0.65625 -0.75 2.515625l0 5.28125l-1.640625 0zm10.063232 0.796875l1.59375 0.234375q0.109375 0.75 0.5625 1.078125q0.609375 0.453125 1.671875 0.453125q1.140625 0 1.75 -0.453125q0.625 -0.453125 0.84375 -1.265625q0.125 -0.5 0.109375 -2.109375q-1.0625 1.265625 -2.671875 1.265625q-2.0 0 -3.09375 -1.4375q-1.09375 -1.4375 -1.09375 -3.453125q0 -1.390625 0.5 -2.5625q0.515625 -1.171875 1.453125 -1.796875q0.953125 -0.640625 2.25 -0.640625q1.703125 0 2.8125 1.375l0 -1.15625l1.515625 0l0 8.359375q0 2.265625 -0.46875 3.203125q-0.453125 0.9375 -1.453125 1.484375q-0.984375 0.546875 -2.453125 0.546875q-1.71875 0 -2.796875 -0.78125q-1.0625 -0.765625 -1.03125 -2.34375zm1.359375 -5.8125q0 1.90625 0.75 2.78125q0.765625 0.875 1.90625 0.875q1.125 0 1.890625 -0.859375q0.765625 -0.875 0.765625 -2.734375q0 -1.78125 -0.796875 -2.671875q-0.78125 -0.90625 -1.890625 -0.90625q-1.09375 0 -1.859375 0.890625q-0.765625 0.875 -0.765625 2.625z" fill-rule="nonzero"/><path fill="#000000" d="m772.01843 525.4597l1.609375 0.21875q-0.265625 1.65625 -1.359375 2.609375q-1.078125 0.9375 -2.671875 0.9375q-1.984375 0 -3.1875 -1.296875q-1.203125 -1.296875 -1.203125 -3.71875q0 -1.578125 0.515625 -2.75q0.515625 -1.171875 1.578125 -1.75q1.0625 -0.59375 2.3125 -0.59375q1.578125 0 2.578125 0.796875q1.0 0.796875 1.28125 2.265625l-1.59375 0.234375q-0.234375 -0.96875 -0.8125 -1.453125q-0.578125 -0.5 -1.390625 -0.5q-1.234375 0 -2.015625 0.890625q-0.78125 0.890625 -0.78125 2.8125q0 1.953125 0.75 2.84375q0.75 0.875 1.953125 0.875q0.96875 0 1.609375 -0.59375q0.65625 -0.59375 0.828125 -1.828125zm9.328125 2.359375q-0.921875 0.765625 -1.765625 1.09375q-0.828125 0.3125 -1.796875 0.3125q-1.59375 0 -2.453125 -0.78125q-0.859375 -0.78125 -0.859375 -1.984375q0 -0.71875 0.328125 -1.296875q0.328125 -0.59375 0.84375 -0.9375q0.53125 -0.359375 1.1875 -0.546875q0.46875 -0.125 1.453125 -0.25q1.984375 -0.234375 2.921875 -0.5625q0.015625 -0.34375 0.015625 -0.421875q0 -1.0 -0.46875 -1.421875q-0.625 -0.546875 -1.875 -0.546875q-1.15625 0 -1.703125 0.40625q-0.546875 0.40625 -0.8125 1.421875l-1.609375 -0.21875q0.21875 -1.015625 0.71875 -1.640625q0.5 -0.640625 1.453125 -0.984375q0.953125 -0.34375 2.1875 -0.34375q1.25 0 2.015625 0.296875q0.78125 0.28125 1.140625 0.734375q0.375 0.4375 0.515625 1.109375q0.078125 0.421875 0.078125 1.515625l0 2.1875q0 2.28125 0.109375 2.890625q0.109375 0.59375 0.40625 1.15625l-1.703125 0q-0.265625 -0.515625 -0.328125 -1.1875zm-0.140625 -3.671875q-0.890625 0.375 -2.671875 0.625q-1.015625 0.140625 -1.4375 0.328125q-0.421875 0.1875 -0.65625 0.53125q-0.21875 0.34375 -0.21875 0.78125q0 0.65625 0.5 1.09375q0.5 0.4375 1.453125 0.4375q0.9375 0 1.671875 -0.40625q0.75 -0.421875 1.09375 -1.140625q0.265625 -0.5625 0.265625 -1.640625l0 -0.609375zm-2.25 -7.5625l-1.03125 1.546875l-1.875 0l1.96875 -2.546875l1.734375 0l2.0625 2.546875l-1.859375 0l-1.0 -1.546875zm0.8125 -1.671875l-1.328125 0l-2.09375 -2.546875l2.1875 0l1.234375 2.546875zm5.6412964 14.09375l0 -9.671875l1.46875 0l0 1.375q1.0625 -1.59375 3.078125 -1.59375q0.875 0 1.609375 0.3125q0.734375 0.3125 1.09375 0.828125q0.375 0.5 0.515625 1.203125q0.09375 0.453125 0.09375 1.59375l0 5.953125l-1.640625 0l0 -5.890625q0 -1.0 -0.203125 -1.484375q-0.1875 -0.5 -0.671875 -0.796875q-0.484375 -0.296875 -1.140625 -0.296875q-1.046875 0 -1.8125 0.671875q-0.75 0.65625 -0.75 2.515625l0 5.28125l-1.640625 0zm15.559021 0l0 -13.359375l1.640625 0l0 4.796875q1.140625 -1.328125 2.890625 -1.328125q1.078125 0 1.859375 0.421875q0.796875 0.421875 1.140625 1.171875q0.34375 0.75 0.34375 2.171875l0 6.125l-1.640625 0l0 -6.125q0 -1.234375 -0.53125 -1.796875q-0.53125 -0.5625 -1.515625 -0.5625q-0.71875 0 -1.359375 0.390625q-0.640625 0.375 -0.921875 1.015625q-0.265625 0.640625 -0.265625 1.78125l0 5.296875l-1.640625 0zm9.766357 -4.84375q0 -2.6875 1.484375 -3.96875q1.25 -1.078125 3.046875 -1.078125q2.0 0 3.265625 1.3125q1.265625 1.296875 1.265625 3.609375q0 1.859375 -0.5625 2.9375q-0.5625 1.0625 -1.640625 1.65625q-1.0625 0.59375 -2.328125 0.59375q-2.03125 0 -3.28125 -1.296875q-1.25 -1.3125 -1.25 -3.765625zm1.6875 0q0 1.859375 0.796875 2.796875q0.8125 0.921875 2.046875 0.921875q1.21875 0 2.03125 -0.921875q0.8125 -0.9375 0.8125 -2.84375q0 -1.796875 -0.8125 -2.71875q-0.8125 -0.921875 -2.03125 -0.921875q-1.234375 0 -2.046875 0.921875q-0.796875 0.90625 -0.796875 2.765625zm2.875 -7.578125l-1.03125 1.546875l-1.875 0l1.96875 -2.546875l1.734375 0l2.0625 2.546875l-1.859375 0l-1.0 -1.546875zm-3.078125 -1.671875q-0.015625 -0.921875 0.5 -1.5q0.515625 -0.578125 1.34375 -0.578125q0.578125 0 1.546875 0.5q0.53125 0.265625 0.859375 0.265625q0.546875 0 0.65625 -0.796875l1.1875 0q-0.046875 2.078125 -1.78125 2.078125q-0.578125 0 -1.515625 -0.5q-0.609375 -0.328125 -0.890625 -0.328125q-0.71875 0 -0.6875 0.859375l-1.21875 0zm18.262146 12.625l0.234375 1.453125q-0.6875 0.140625 -1.234375 0.140625q-0.890625 0 -1.390625 -0.28125q-0.484375 -0.28125 -0.6875 -0.734375q-0.203125 -0.46875 -0.203125 -1.9375l0 -5.578125l-1.203125 0l0 -1.265625l1.203125 0l0 -2.390625l1.625 -0.984375l0 3.375l1.65625 0l0 1.265625l-1.65625 0l0 5.671875q0 0.6875 0.078125 0.890625q0.09375 0.203125 0.28125 0.328125q0.203125 0.109375 0.578125 0.109375q0.265625 0 0.71875 -0.0625zm1.5895386 1.46875l0 -9.671875l1.46875 0l0 1.46875q0.5625 -1.03125 1.03125 -1.359375q0.484375 -0.328125 1.0625 -0.328125q0.828125 0 1.6875 0.53125l-0.5625 1.515625q-0.609375 -0.359375 -1.203125 -0.359375q-0.546875 0 -0.96875 0.328125q-0.421875 0.328125 -0.609375 0.890625q-0.28125 0.875 -0.28125 1.921875l0 5.0625l-1.625 0zm7.3064575 -4.84375q0 1.796875 0.796875 2.78125q0.765625 0.9375 2.046875 0.9375q1.28125 0 2.03125 -0.9375q0.8125 -0.984375 0.8125 -2.828125q0 -1.734375 -0.828125 -2.71875q-0.765625 -0.921875 -2.015625 -0.921875q-1.28125 0 -2.046875 0.921875q-0.796875 0.984375 -0.796875 2.765625zm7.59375 -3.15625l0 -1.90625l1.75 0l0 1.5q0 1.125 -0.34375 1.734375q-0.4375 0.78125 -1.625 1.4375q0 0.125 0 0.265625q0 3.390625 -2.1875 4.59375q-1.078125 0.59375 -2.34375 0.59375q-2.078125 0 -3.28125 -1.296875q-1.25 -1.359375 -1.25 -3.765625q0 -2.6875 1.484375 -3.96875q1.25 -1.078125 3.046875 -1.078125q2.0 0 3.265625 1.296875q0.953125 1.0 1.1875 2.5625q0.625 -0.375 0.890625 -0.78125q0.265625 -0.421875 0.265625 -1.1875l-0.859375 0zm-5.75 10.953125l0 -1.859375l1.859375 0l0 1.859375l-1.859375 0z" fill-rule="nonzero"/><defs><radialGradient id="g207faa39127_0_0.1" gradientUnits="userSpaceOnUse" gradientTransform="matrix(9.246046629821846 0.0 0.0 9.246046629821846 0.0 0.0)" spreadMethod="pad" cx="47.443002132275154" cy="34.693391293709574" fx="47.443002132275154" fy="34.693391293709574" r="9.246047019958496"><stop offset="0.0" stop-color="#d4e5f5"/><stop offset="1.0" stop-color="#70a4d5"/></radialGradient></defs><path fill="url(#g207faa39127_0_0.1)" d="m370.16666 287.06363l117.92941 0l0 68.101166c-58.961548 0 -58.961548 26.201904 -117.92941 13.100952zm9.715942 0l0 -8.828918l117.12396 0l0 68.52838c-4.4520874 0 -8.910492 0.4746704 -8.910492 0.4746704l0 -60.174133zm9.132477 -8.828918l0 -8.615295l118.13867 0l0 68.31479c-5.073578 0 -10.147186 0.35601807 -10.147186 0.35601807l0 -60.05551z" fill-rule="evenodd"/><path fill="#000000" fill-opacity="0.0" d="m370.16666 287.06363l117.92941 0l0 68.101166c-58.961548 0 -58.961548 26.201904 -117.92941 13.100952zm9.715942 0l0 -8.828918l117.12396 0l0 68.52838c-4.4520874 0 -8.910492 0.4746704 -8.910492 0.4746704m-99.08099 -69.00305l0 -8.615295l118.13867 0l0 68.31479c-5.073578 0 -10.147186 0.35601807 -10.147186 0.35601807" fill-rule="evenodd"/><path fill="#000000" fill-opacity="0.0" d="m370.16666 368.26575c58.967865 13.100952 58.967865 -13.100952 117.92941 -13.100952l0 -7.9270325c0 0 4.4584045 -0.4746704 8.910492 -0.4746704l0 -8.47287c0 0 5.0736084 -0.35601807 10.147186 -0.35601807l0 -68.31479l-118.13867 0l0 8.615295l-9.132477 0l0 8.828918l-9.715942 0z" fill-rule="evenodd"/><path stroke="#595959" stroke-width="1.0" stroke-linejoin="round" stroke-linecap="butt" d="m370.16666 287.06363l117.92941 0l0 68.101166c-58.961548 0 -58.961548 26.201904 -117.92941 13.100952zm9.715942 0l0 -8.828918l117.12396 0l0 68.52838c-4.4520874 0 -8.910492 0.4746704 -8.910492 0.4746704m-99.08099 -69.00305l0 -8.615295l118.13867 0l0 68.31479c-5.073578 0 -10.147186 0.35601807 -10.147186 0.35601807" fill-rule="evenodd"/><path fill="#000000" d="m379.1354 312.5847l5.125 -13.359375l1.90625 0l5.46875 13.359375l-2.015625 0l-1.546875 -4.046875l-5.59375 0l-1.46875 4.046875l-1.875 0zm3.859375 -5.484375l4.53125 0l-1.40625 -3.703125q-0.625 -1.6875 -0.9375 -2.765625q-0.265625 1.28125 -0.71875 2.546875l-1.46875 3.921875zm2.1875 -8.953125l-1.1875 0.609375l-1.59375 0l1.90625 -1.125l1.765625 0l1.890625 1.125l-1.59375 0l-1.1875 -0.609375zm0.34375 -2.28125l2.0625 0l-2.109375 1.4375l-1.1875 0l1.234375 -1.4375zm7.318573 16.71875l0 -9.671875l1.46875 0l0 1.375q1.0625 -1.59375 3.078125 -1.59375q0.875 0 1.609375 0.3125q0.734375 0.3125 1.09375 0.828125q0.375 0.5 0.515625 1.203125q0.09375 0.453125 0.09375 1.59375l0 5.953125l-1.640625 0l0 -5.890625q0 -1.0 -0.203125 -1.484375q-0.1875 -0.5 -0.671875 -0.796875q-0.484375 -0.296875 -1.140625 -0.296875q-1.046875 0 -1.8125 0.671875q-0.75 0.65625 -0.75 2.515625l0 5.28125l-1.640625 0zm15.559021 3.703125l0 -13.375l1.484375 0l0 1.25q0.53125 -0.734375 1.1875 -1.09375q0.671875 -0.375 1.625 -0.375q1.234375 0 2.171875 0.640625q0.953125 0.625 1.4375 1.796875q0.484375 1.15625 0.484375 2.546875q0 1.484375 -0.53125 2.671875q-0.53125 1.1875 -1.546875 1.828125q-1.015625 0.625 -2.140625 0.625q-0.8125 0 -1.46875 -0.34375q-0.65625 -0.34375 -1.0625 -0.875l0 4.703125l-1.640625 0zm1.484375 -8.484375q0 1.859375 0.75 2.765625q0.765625 0.890625 1.828125 0.890625q1.09375 0 1.875 -0.921875q0.78125 -0.9375 0.78125 -2.875q0 -1.84375 -0.765625 -2.765625q-0.75 -0.921875 -1.8125 -0.921875q-1.046875 0 -1.859375 0.984375q-0.796875 0.96875 -0.796875 2.84375zm8.891357 4.78125l0 -13.359375l1.640625 0l0 4.796875q1.140625 -1.328125 2.890625 -1.328125q1.078125 0 1.859375 0.421875q0.796875 0.421875 1.140625 1.171875q0.34375 0.75 0.34375 2.171875l0 6.125l-1.640625 0l0 -6.125q0 -1.234375 -0.53125 -1.796875q-0.53125 -0.5625 -1.515625 -0.5625q-0.71875 0 -1.359375 0.390625q-0.640625 0.375 -0.921875 1.015625q-0.265625 0.640625 -0.265625 1.78125l0 5.296875l-1.640625 0zm16.688202 -1.1875q-0.921875 0.765625 -1.765625 1.09375q-0.828125 0.3125 -1.796875 0.3125q-1.59375 0 -2.453125 -0.78125q-0.859375 -0.78125 -0.859375 -1.984375q0 -0.71875 0.328125 -1.296875q0.328125 -0.59375 0.84375 -0.9375q0.53125 -0.359375 1.1875 -0.546875q0.46875 -0.125 1.453125 -0.25q1.984375 -0.234375 2.921875 -0.5625q0.015625 -0.34375 0.015625 -0.421875q0 -1.0 -0.46875 -1.421875q-0.625 -0.546875 -1.875 -0.546875q-1.15625 0 -1.703125 0.40625q-0.546875 0.40625 -0.8125 1.421875l-1.609375 -0.21875q0.21875 -1.015625 0.71875 -1.640625q0.5 -0.640625 1.453125 -0.984375q0.953125 -0.34375 2.1875 -0.34375q1.25 0 2.015625 0.296875q0.78125 0.28125 1.140625 0.734375q0.375 0.4375 0.515625 1.109375q0.078125 0.421875 0.078125 1.515625l0 2.1875q0 2.28125 0.109375 2.890625q0.109375 0.59375 0.40625 1.15625l-1.703125 0q-0.265625 -0.515625 -0.328125 -1.1875zm-0.140625 -3.671875q-0.890625 0.375 -2.671875 0.625q-1.015625 0.140625 -1.4375 0.328125q-0.421875 0.1875 -0.65625 0.53125q-0.21875 0.34375 -0.21875 0.78125q0 0.65625 0.5 1.09375q0.5 0.4375 1.453125 0.4375q0.9375 0 1.671875 -0.40625q0.75 -0.421875 1.09375 -1.140625q0.265625 -0.5625 0.265625 -1.640625l0 -0.609375zm-2.25 -7.5625l-1.03125 1.546875l-1.875 0l1.96875 -2.546875l1.734375 0l2.0625 2.546875l-1.859375 0l-1.0 -1.546875zm-0.53125 -2.375q0.53125 -0.046875 0.671875 -0.09375q0.484375 -0.125 0.484375 -0.375q0.015625 -0.21875 -0.25 -0.359375q-0.375 -0.203125 -1.203125 -0.203125q-0.28125 0 -0.859375 0.03125l-0.109375 -0.859375q0.359375 -0.0625 1.3125 -0.0625q1.125 0.015625 1.84375 0.375q0.78125 0.375 0.796875 0.984375q0.03125 0.921875 -1.65625 1.125l0 0.453125l-1.03125 0l0 -1.015625zm6.9851074 14.796875l0 -9.671875l1.46875 0l0 1.359375q0.453125 -0.71875 1.203125 -1.140625q0.765625 -0.4375 1.71875 -0.4375q1.078125 0 1.765625 0.453125q0.6875 0.4375 0.96875 1.234375q1.15625 -1.6875 2.984375 -1.6875q1.453125 0 2.21875 0.796875q0.78125 0.796875 0.78125 2.453125l0 6.640625l-1.640625 0l0 -6.09375q0 -0.984375 -0.15625 -1.40625q-0.15625 -0.4375 -0.578125 -0.703125q-0.421875 -0.265625 -0.984375 -0.265625q-1.015625 0 -1.6875 0.6875q-0.671875 0.671875 -0.671875 2.15625l0 5.625l-1.640625 0l0 -6.28125q0 -1.09375 -0.40625 -1.640625q-0.40625 -0.546875 -1.3125 -0.546875q-0.6875 0 -1.28125 0.359375q-0.59375 0.359375 -0.859375 1.0625q-0.25 0.703125 -0.25 2.03125l0 5.015625l-1.640625 0z" fill-rule="nonzero"/><path fill="#000000" d="m386.71353 331.0378l1.609375 0.21875q-0.265625 1.65625 -1.359375 2.609375q-1.078125 0.9375 -2.671875 0.9375q-1.984375 0 -3.1875 -1.296875q-1.203125 -1.296875 -1.203125 -3.71875q0 -1.578125 0.515625 -2.75q0.515625 -1.171875 1.578125 -1.75q1.0625 -0.59375 2.3125 -0.59375q1.578125 0 2.578125 0.796875q1.0 0.796875 1.28125 2.265625l-1.59375 0.234375q-0.234375 -0.96875 -0.8125 -1.453125q-0.578125 -0.5 -1.390625 -0.5q-1.234375 0 -2.015625 0.890625q-0.78125 0.890625 -0.78125 2.8125q0 1.953125 0.75 2.84375q0.75 0.875 1.953125 0.875q0.96875 0 1.609375 -0.59375q0.65625 -0.59375 0.828125 -1.828125zm9.328125 2.359375q-0.921875 0.765625 -1.765625 1.09375q-0.828125 0.3125 -1.796875 0.3125q-1.59375 0 -2.453125 -0.78125q-0.859375 -0.78125 -0.859375 -1.984375q0 -0.71875 0.328125 -1.296875q0.328125 -0.59375 0.84375 -0.9375q0.53125 -0.359375 1.1875 -0.546875q0.46875 -0.125 1.453125 -0.25q1.984375 -0.234375 2.921875 -0.5625q0.015625 -0.34375 0.015625 -0.421875q0 -1.0 -0.46875 -1.421875q-0.625 -0.546875 -1.875 -0.546875q-1.15625 0 -1.703125 0.40625q-0.546875 0.40625 -0.8125 1.421875l-1.609375 -0.21875q0.21875 -1.015625 0.71875 -1.640625q0.5 -0.640625 1.453125 -0.984375q0.953125 -0.34375 2.1875 -0.34375q1.25 0 2.015625 0.296875q0.78125 0.28125 1.140625 0.734375q0.375 0.4375 0.515625 1.109375q0.078125 0.421875 0.078125 1.515625l0 2.1875q0 2.28125 0.109375 2.890625q0.109375 0.59375 0.40625 1.15625l-1.703125 0q-0.265625 -0.515625 -0.328125 -1.1875zm-0.140625 -3.671875q-0.890625 0.375 -2.671875 0.625q-1.015625 0.140625 -1.4375 0.328125q-0.421875 0.1875 -0.65625 0.53125q-0.21875 0.34375 -0.21875 0.78125q0 0.65625 0.5 1.09375q0.5 0.4375 1.453125 0.4375q0.9375 0 1.671875 -0.40625q0.75 -0.421875 1.09375 -1.140625q0.265625 -0.5625 0.265625 -1.640625l0 -0.609375zm-2.25 -7.5625l-1.03125 1.546875l-1.875 0l1.96875 -2.546875l1.734375 0l2.0625 2.546875l-1.859375 0l-1.0 -1.546875zm-0.984375 15.375l0 -1.859375l1.859375 0l0 1.859375l-1.859375 0zm7.4382324 0.75l0 -13.375l1.484375 0l0 1.25q0.53125 -0.734375 1.1875 -1.09375q0.671875 -0.375 1.625 -0.375q1.234375 0 2.171875 0.640625q0.953125 0.625 1.4375 1.796875q0.484375 1.15625 0.484375 2.546875q0 1.484375 -0.53125 2.671875q-0.53125 1.1875 -1.546875 1.828125q-1.015625 0.625 -2.140625 0.625q-0.8125 0 -1.46875 -0.34375q-0.65625 -0.34375 -1.0625 -0.875l0 4.703125l-1.640625 0zm1.484375 -8.484375q0 1.859375 0.75 2.765625q0.765625 0.890625 1.828125 0.890625q1.09375 0 1.875 -0.921875q0.78125 -0.9375 0.78125 -2.875q0 -1.84375 -0.765625 -2.765625q-0.75 -0.921875 -1.8125 -0.921875q-1.046875 0 -1.859375 0.984375q-0.796875 0.96875 -0.796875 2.84375zm14.074646 4.78125l0 -9.671875l1.46875 0l0 1.375q1.0625 -1.59375 3.078125 -1.59375q0.875 0 1.609375 0.3125q0.734375 0.3125 1.09375 0.828125q0.375 0.5 0.515625 1.203125q0.09375 0.453125 0.09375 1.59375l0 5.953125l-1.640625 0l0 -5.890625q0 -1.0 -0.203125 -1.484375q-0.1875 -0.5 -0.671875 -0.796875q-0.484375 -0.296875 -1.140625 -0.296875q-1.046875 0 -1.8125 0.671875q-0.75 0.65625 -0.75 2.515625l0 5.28125l-1.640625 0zm10.375702 0l0 -13.359375l1.640625 0l0 4.796875q1.140625 -1.328125 2.890625 -1.328125q1.078125 0 1.859375 0.421875q0.796875 0.421875 1.140625 1.171875q0.34375 0.75 0.34375 2.171875l0 6.125l-1.640625 0l0 -6.125q0 -1.234375 -0.53125 -1.796875q-0.53125 -0.5625 -1.515625 -0.5625q-0.71875 0 -1.359375 0.390625q-0.640625 0.375 -0.921875 1.015625q-0.265625 0.640625 -0.265625 1.78125l0 5.296875l-1.640625 0zm16.688232 -1.1875q-0.921875 0.765625 -1.765625 1.09375q-0.828125 0.3125 -1.796875 0.3125q-1.59375 0 -2.453125 -0.78125q-0.859375 -0.78125 -0.859375 -1.984375q0 -0.71875 0.328125 -1.296875q0.328125 -0.59375 0.84375 -0.9375q0.53125 -0.359375 1.1875 -0.546875q0.46875 -0.125 1.453125 -0.25q1.984375 -0.234375 2.921875 -0.5625q0.015625 -0.34375 0.015625 -0.421875q0 -1.0 -0.46875 -1.421875q-0.625 -0.546875 -1.875 -0.546875q-1.15625 0 -1.703125 0.40625q-0.546875 0.40625 -0.8125 1.421875l-1.609375 -0.21875q0.21875 -1.015625 0.71875 -1.640625q0.5 -0.640625 1.453125 -0.984375q0.953125 -0.34375 2.1875 -0.34375q1.25 0 2.015625 0.296875q0.78125 0.28125 1.140625 0.734375q0.375 0.4375 0.515625 1.109375q0.078125 0.421875 0.078125 1.515625l0 2.1875q0 2.28125 0.109375 2.890625q0.109375 0.59375 0.40625 1.15625l-1.703125 0q-0.265625 -0.515625 -0.328125 -1.1875zm-0.140625 -3.671875q-0.890625 0.375 -2.671875 0.625q-1.015625 0.140625 -1.4375 0.328125q-0.421875 0.1875 -0.65625 0.53125q-0.21875 0.34375 -0.21875 0.78125q0 0.65625 0.5 1.09375q0.5 0.4375 1.453125 0.4375q0.9375 0 1.671875 -0.40625q0.75 -0.421875 1.09375 -1.140625q0.265625 -0.5625 0.265625 -1.640625l0 -0.609375zm-2.25 -7.5625l-1.03125 1.546875l-1.875 0l1.96875 -2.546875l1.734375 0l2.0625 2.546875l-1.859375 0l-1.0 -1.546875zm-0.984375 15.375l0 -1.859375l1.859375 0l0 1.859375l-1.859375 0zm11.016327 -4.421875l0.234375 1.453125q-0.6875 0.140625 -1.234375 0.140625q-0.890625 0 -1.390625 -0.28125q-0.484375 -0.28125 -0.6875 -0.734375q-0.203125 -0.46875 -0.203125 -1.9375l0 -5.578125l-1.203125 0l0 -1.265625l1.203125 0l0 -2.390625l1.625 -0.984375l0 3.375l1.65625 0l0 1.265625l-1.65625 0l0 5.671875q0 0.6875 0.078125 0.890625q0.09375 0.203125 0.28125 0.328125q0.203125 0.109375 0.578125 0.109375q0.265625 0 0.71875 -0.0625zm9.475983 1.46875l-3.6875 -9.671875l1.734375 0l2.078125 5.796875q0.328125 0.9375 0.625 1.9375q0.203125 -0.765625 0.609375 -1.828125l2.140625 -5.90625l1.6875 0l-3.65625 9.671875l-1.53125 0zm13.265625 -3.109375l1.6875 0.203125q-0.40625 1.484375 -1.484375 2.3125q-1.078125 0.8125 -2.765625 0.8125q-2.125 0 -3.375 -1.296875q-1.234375 -1.3125 -1.234375 -3.671875q0 -2.453125 1.25 -3.796875q1.265625 -1.34375 3.265625 -1.34375q1.9375 0 3.15625 1.328125q1.234375 1.3125 1.234375 3.703125q0 0.15625 0 0.4375l-7.21875 0q0.09375 1.59375 0.90625 2.453125q0.8125 0.84375 2.015625 0.84375q0.90625 0 1.546875 -0.46875q0.640625 -0.484375 1.015625 -1.515625zm-5.390625 -2.65625l5.40625 0q-0.109375 -1.21875 -0.625 -1.828125q-0.78125 -0.953125 -2.03125 -0.953125q-1.125 0 -1.90625 0.765625q-0.765625 0.75 -0.84375 2.015625zm2.703125 -6.65625l-1.03125 1.546875l-1.875 0l1.96875 -2.546875l1.734375 0l2.0625 2.546875l-1.859375 0l-1.0 -1.546875zm0.8125 -1.671875l-1.328125 0l-2.09375 -2.546875l2.1875 0l1.234375 2.546875z" fill-rule="nonzero"/><path fill="#000000" d="m384.0104 356.5847l0 -11.78125l-4.40625 0l0 -1.578125l10.578125 0l0 1.578125l-4.40625 0l0 11.78125l-1.765625 0zm8.020996 0l0 -13.359375l5.921875 0q1.78125 0 2.703125 0.359375q0.9375 0.359375 1.484375 1.28125q0.5625 0.90625 0.5625 2.015625q0 1.40625 -0.921875 2.390625q-0.921875 0.96875 -2.84375 1.234375q0.703125 0.34375 1.078125 0.671875q0.765625 0.703125 1.453125 1.765625l2.328125 3.640625l-2.21875 0l-1.765625 -2.78125q-0.78125 -1.203125 -1.28125 -1.828125q-0.5 -0.640625 -0.90625 -0.890625q-0.390625 -0.265625 -0.796875 -0.359375q-0.296875 -0.078125 -0.984375 -0.078125l-2.046875 0l0 5.9375l-1.765625 0zm1.765625 -7.453125l3.796875 0q1.21875 0 1.890625 -0.25q0.6875 -0.265625 1.046875 -0.8125q0.359375 -0.546875 0.359375 -1.1875q0 -0.953125 -0.6875 -1.5625q-0.6875 -0.609375 -2.1875 -0.609375l-4.21875 0l0 4.421875zm11.972931 7.453125l0 -13.359375l1.765625 0l0 13.359375l-1.765625 0zm3.823944 0l0 -1.640625l6.84375 -8.546875q0.71875 -0.921875 1.375 -1.59375l-7.453125 0l0 -1.578125l9.578125 0l0 1.578125l-7.5 9.265625l-0.8125 0.9375l8.53125 0l0 1.578125l-10.5625 0z" fill-rule="nonzero"/><path fill="#ffff00" d="m696.59656 160.99475l23.612305 32.717102l-9.739807 3.8582458l29.741333 28.035553l-9.739746 4.681549l36.769043 46.93936l-62.3562 -35.97267l11.892212 -4.9936676l-38.743896 -23.04187l13.88324 -7.1192017l-40.907166 -24.171906z" fill-rule="evenodd"/><path stroke="#595959" stroke-width="1.0" stroke-linejoin="round" stroke-linecap="butt" d="m696.59656 160.99475l23.612305 32.717102l-9.739807 3.8582458l29.741333 28.035553l-9.739746 4.681549l36.769043 46.93936l-62.3562 -35.97267l11.892212 -4.9936676l-38.743896 -23.04187l13.88324 -7.1192017l-40.907166 -24.171906z" fill-rule="evenodd"/><path fill="#000000" d="m661.09894 287.64987l1.765625 0.453125q-0.5625 2.171875 -2.0 3.328125q-1.4375 1.140625 -3.53125 1.140625q-2.15625 0 -3.515625 -0.875q-1.34375 -0.890625 -2.0625 -2.546875q-0.703125 -1.671875 -0.703125 -3.59375q0 -2.078125 0.796875 -3.625q0.796875 -1.5625 2.265625 -2.359375q1.484375 -0.8125 3.25 -0.8125q2.0 0 3.359375 1.015625q1.375 1.015625 1.90625 2.875l-1.734375 0.40625q-0.46875 -1.453125 -1.359375 -2.109375q-0.875 -0.671875 -2.203125 -0.671875q-1.546875 0 -2.578125 0.734375q-1.03125 0.734375 -1.453125 1.984375q-0.421875 1.234375 -0.421875 2.5625q0 1.703125 0.5 2.96875q0.5 1.265625 1.546875 1.90625q1.046875 0.625 2.265625 0.625q1.484375 0 2.515625 -0.859375q1.03125 -0.859375 1.390625 -2.546875zm3.1292114 -0.15625q0 -2.6875 1.484375 -3.96875q1.25 -1.078125 3.046875 -1.078125q2.0 0 3.265625 1.3125q1.265625 1.296875 1.265625 3.609375q0 1.859375 -0.5625 2.9375q-0.5625 1.0625 -1.640625 1.65625q-1.0625 0.59375 -2.328125 0.59375q-2.03125 0 -3.28125 -1.296875q-1.25 -1.3125 -1.25 -3.765625zm1.6875 0q0 1.859375 0.796875 2.796875q0.8125 0.921875 2.046875 0.921875q1.21875 0 2.03125 -0.921875q0.8125 -0.9375 0.8125 -2.84375q0 -1.796875 -0.8125 -2.71875q-0.8125 -0.921875 -2.03125 -0.921875q-1.234375 0 -2.046875 0.921875q-0.796875 0.90625 -0.796875 2.765625zm2.875 -7.578125l-1.03125 1.546875l-1.875 0l1.96875 -2.546875l1.734375 0l2.0625 2.546875l-1.859375 0l-1.0 -1.546875zm6.4225464 12.421875l0 -9.671875l1.46875 0l0 1.375q1.0625 -1.59375 3.078125 -1.59375q0.875 0 1.609375 0.3125q0.734375 0.3125 1.09375 0.828125q0.375 0.5 0.515625 1.203125q0.09375 0.453125 0.09375 1.59375l0 5.953125l-1.640625 0l0 -5.890625q0 -1.0 -0.203125 -1.484375q-0.1875 -0.5 -0.671875 -0.796875q-0.484375 -0.296875 -1.140625 -0.296875q-1.046875 0 -1.8125 0.671875q-0.75 0.65625 -0.75 2.515625l0 5.28125l-1.640625 0zm10.063232 0.796875l1.59375 0.234375q0.109375 0.75 0.5625 1.078125q0.609375 0.453125 1.671875 0.453125q1.140625 0 1.75 -0.453125q0.625 -0.453125 0.84375 -1.265625q0.125 -0.5 0.109375 -2.109375q-1.0625 1.265625 -2.671875 1.265625q-2.0 0 -3.09375 -1.4375q-1.09375 -1.4375 -1.09375 -3.453125q0 -1.390625 0.5 -2.5625q0.515625 -1.171875 1.453125 -1.796875q0.953125 -0.640625 2.25 -0.640625q1.703125 0 2.8125 1.375l0 -1.15625l1.515625 0l0 8.359375q0 2.265625 -0.46875 3.203125q-0.453125 0.9375 -1.453125 1.484375q-0.984375 0.546875 -2.453125 0.546875q-1.71875 0 -2.796875 -0.78125q-1.0625 -0.765625 -1.03125 -2.34375zm1.359375 -5.8125q0 1.90625 0.75 2.78125q0.765625 0.875 1.90625 0.875q1.125 0 1.890625 -0.859375q0.765625 -0.875 0.765625 -2.734375q0 -1.78125 -0.796875 -2.671875q-0.78125 -0.90625 -1.890625 -0.90625q-1.09375 0 -1.859375 0.890625q-0.765625 0.875 -0.765625 2.625zm20.824646 1.46875l1.609375 0.21875q-0.265625 1.65625 -1.359375 2.609375q-1.078125 0.9375 -2.671875 0.9375q-1.984375 0 -3.1875 -1.296875q-1.203125 -1.296875 -1.203125 -3.71875q0 -1.578125 0.515625 -2.75q0.515625 -1.171875 1.578125 -1.75q1.0625 -0.59375 2.3125 -0.59375q1.578125 0 2.578125 0.796875q1.0 0.796875 1.28125 2.265625l-1.59375 0.234375q-0.234375 -0.96875 -0.8125 -1.453125q-0.578125 -0.5 -1.390625 -0.5q-1.234375 0 -2.015625 0.890625q-0.78125 0.890625 -0.78125 2.8125q0 1.953125 0.75 2.84375q0.75 0.875 1.953125 0.875q0.96875 0 1.609375 -0.59375q0.65625 -0.59375 0.828125 -1.828125zm9.34375 3.546875l0 -1.421875q-1.125 1.640625 -3.0625 1.640625q-0.859375 0 -1.609375 -0.328125q-0.734375 -0.328125 -1.09375 -0.828125q-0.359375 -0.5 -0.5 -1.21875q-0.109375 -0.46875 -0.109375 -1.53125l0 -5.984375l1.640625 0l0 5.359375q0 1.28125 0.109375 1.734375q0.15625 0.640625 0.65625 1.015625q0.5 0.375 1.234375 0.375q0.734375 0 1.375 -0.375q0.65625 -0.390625 0.921875 -1.03125q0.265625 -0.65625 0.265625 -1.890625l0 -5.1875l1.640625 0l0 9.671875l-1.46875 0zm-3.6875 2.953125l0 -1.859375l1.859375 0l0 1.859375l-1.859375 0zm12.918396 -2.953125l0 -13.359375l1.640625 0l0 4.796875q1.140625 -1.328125 2.890625 -1.328125q1.078125 0 1.859375 0.421875q0.796875 0.421875 1.140625 1.171875q0.34375 0.75 0.34375 2.171875l0 6.125l-1.640625 0l0 -6.125q0 -1.234375 -0.53125 -1.796875q-0.53125 -0.5625 -1.515625 -0.5625q-0.71875 0 -1.359375 0.390625q-0.640625 0.375 -0.921875 1.015625q-0.265625 0.640625 -0.265625 1.78125l0 5.296875l-1.640625 0zm9.766357 -4.84375q0 -2.6875 1.484375 -3.96875q1.25 -1.078125 3.046875 -1.078125q2.0 0 3.265625 1.3125q1.265625 1.296875 1.265625 3.609375q0 1.859375 -0.5625 2.9375q-0.5625 1.0625 -1.640625 1.65625q-1.0625 0.59375 -2.328125 0.59375q-2.03125 0 -3.28125 -1.296875q-1.25 -1.3125 -1.25 -3.765625zm1.6875 0q0 1.859375 0.796875 2.796875q0.8125 0.921875 2.046875 0.921875q1.21875 0 2.03125 -0.921875q0.8125 -0.9375 0.8125 -2.84375q0 -1.796875 -0.8125 -2.71875q-0.8125 -0.921875 -2.03125 -0.921875q-1.234375 0 -2.046875 0.921875q-0.796875 0.90625 -0.796875 2.765625zm2.875 -7.578125l-1.03125 1.546875l-1.875 0l1.96875 -2.546875l1.734375 0l2.0625 2.546875l-1.859375 0l-1.0 -1.546875zm-3.078125 -1.671875q-0.015625 -0.921875 0.5 -1.5q0.515625 -0.578125 1.34375 -0.578125q0.578125 0 1.546875 0.5q0.53125 0.265625 0.859375 0.265625q0.546875 0 0.65625 -0.796875l1.1875 0q-0.046875 2.078125 -1.78125 2.078125q-0.578125 0 -1.515625 -0.5q-0.609375 -0.328125 -0.890625 -0.328125q-0.71875 0 -0.6875 0.859375l-1.21875 0zm18.262146 12.625l0.234375 1.453125q-0.6875 0.140625 -1.234375 0.140625q-0.890625 0 -1.390625 -0.28125q-0.484375 -0.28125 -0.6875 -0.734375q-0.203125 -0.46875 -0.203125 -1.9375l0 -5.578125l-1.203125 0l0 -1.265625l1.203125 0l0 -2.390625l1.625 -0.984375l0 3.375l1.65625 0l0 1.265625l-1.65625 0l0 5.671875q0 0.6875 0.078125 0.890625q0.09375 0.203125 0.28125 0.328125q0.203125 0.109375 0.578125 0.109375q0.265625 0 0.71875 -0.0625zm1.5895386 1.46875l0 -9.671875l1.46875 0l0 1.46875q0.5625 -1.03125 1.03125 -1.359375q0.484375 -0.328125 1.0625 -0.328125q0.828125 0 1.6875 0.53125l-0.5625 1.515625q-0.609375 -0.359375 -1.203125 -0.359375q-0.546875 0 -0.96875 0.328125q-0.421875 0.328125 -0.609375 0.890625q-0.28125 0.875 -0.28125 1.921875l0 5.0625l-1.625 0zm7.3064575 -4.84375q0 1.796875 0.796875 2.78125q0.765625 0.9375 2.046875 0.9375q1.28125 0 2.03125 -0.9375q0.8125 -0.984375 0.8125 -2.828125q0 -1.734375 -0.828125 -2.71875q-0.765625 -0.921875 -2.015625 -0.921875q-1.28125 0 -2.046875 0.921875q-0.796875 0.984375 -0.796875 2.765625zm7.59375 -3.15625l0 -1.90625l1.75 0l0 1.5q0 1.125 -0.34375 1.734375q-0.4375 0.78125 -1.625 1.4375q0 0.125 0 0.265625q0 3.390625 -2.1875 4.59375q-1.078125 0.59375 -2.34375 0.59375q-2.078125 0 -3.28125 -1.296875q-1.25 -1.359375 -1.25 -3.765625q0 -2.6875 1.484375 -3.96875q1.25 -1.078125 3.046875 -1.078125q2.0 0 3.265625 1.296875q0.953125 1.0 1.1875 2.5625q0.625 -0.375 0.890625 -0.78125q0.265625 -0.421875 0.265625 -1.1875l-0.859375 0zm-5.75 10.953125l0 -1.859375l1.859375 0l0 1.859375l-1.859375 0z" fill-rule="nonzero"/><path fill="#a4c2f4" d="m285.85565 210.6483l-23.44989 8.339325l0 -16.678665zm-17.02417 -41.091476l-10.681732 22.480576l-11.793442 -11.793457zm-41.086075 -17.018768l8.33934 23.449905l-16.67868 0zm-41.091476 17.018768l22.480576 10.687119l-11.793442 11.793457zm-17.018753 41.091476l23.44989 -8.33934l0 16.678665zm17.018753 41.08609l10.687134 -22.47519l11.793442 11.793442zm41.091476 17.024155l-8.33934 -23.449905l16.67868 0zm41.086075 -17.024155l-22.475174 -10.681747l11.793442 -11.793442zm-70.14119 -41.08609l0 0c0 -16.046707 13.008423 -29.05513 29.055115 -29.05513c16.046692 0 29.05513 13.008423 29.05513 29.05513c0 16.046692 -13.008438 29.055115 -29.05513 29.055115c-16.046692 0 -29.055115 -13.008423 -29.055115 -29.055115z" fill-rule="evenodd"/><path stroke="#595959" stroke-width="1.0" stroke-linejoin="round" stroke-linecap="butt" d="m285.85565 210.6483l-23.44989 8.339325l0 -16.678665zm-17.02417 -41.091476l-10.681732 22.480576l-11.793442 -11.793457zm-41.086075 -17.018768l8.33934 23.449905l-16.67868 0zm-41.091476 17.018768l22.480576 10.687119l-11.793442 11.793457zm-17.018753 41.091476l23.44989 -8.33934l0 16.678665zm17.018753 41.08609l10.687134 -22.47519l11.793442 11.793442zm41.091476 17.024155l-8.33934 -23.449905l16.67868 0zm41.086075 -17.024155l-22.475174 -10.681747l11.793442 -11.793442zm-70.14119 -41.08609l0 0c0 -16.046707 13.008423 -29.05513 29.055115 -29.05513c16.046692 0 29.05513 13.008423 29.05513 29.05513c0 16.046692 -13.008438 29.055115 -29.05513 29.055115c-16.046692 0 -29.055115 -13.008423 -29.055115 -29.055115z" fill-rule="evenodd"/><path fill="#000000" d="m172.10246 283.5683l0 -6.078125l-1.46875 0l0 -1.203125l1.46875 0l0 -6.078125l4.609375 0q1.546875 0 2.375 0.203125q1.140625 0.25 1.953125 0.953125q1.0625 0.890625 1.578125 2.28125q0.53125 1.390625 0.53125 3.171875q0 2.046875 -0.65625 3.515625q-0.640625 1.46875 -1.546875 2.140625q-0.90625 0.65625 -2.078125 0.9375q-0.640625 0.15625 -1.9375 0.15625l-4.828125 0zm1.765625 -1.578125l2.859375 0q1.328125 0 2.0625 -0.234375q0.75 -0.25 1.1875 -0.6875q0.640625 -0.640625 0.984375 -1.6875q0.359375 -1.0625 0.359375 -2.578125q0 -1.5625 -0.359375 -2.5q-0.34375 -0.953125 -0.90625 -1.515625q-0.5625 -0.5625 -1.265625 -0.78125q-0.6875 -0.21875 -2.109375 -0.21875l-2.8125 0l0 4.5l3.6875 0l0 1.203125l-3.6875 0l0 4.5zm12.582321 -3.265625q0 1.796875 0.796875 2.78125q0.765625 0.9375 2.046875 0.9375q1.28125 0 2.03125 -0.9375q0.8125 -0.984375 0.8125 -2.828125q0 -1.734375 -0.828125 -2.71875q-0.765625 -0.921875 -2.015625 -0.921875q-1.28125 0 -2.046875 0.921875q-0.796875 0.984375 -0.796875 2.765625zm7.59375 -3.15625l0 -1.90625l1.75 0l0 1.5q0 1.125 -0.34375 1.734375q-0.4375 0.78125 -1.625 1.4375q0 0.125 0 0.265625q0 3.390625 -2.1875 4.59375q-1.078125 0.59375 -2.34375 0.59375q-2.078125 0 -3.28125 -1.296875q-1.25 -1.359375 -1.25 -3.765625q0 -2.6875 1.484375 -3.96875q1.25 -1.078125 3.046875 -1.078125q2.0 0 3.265625 1.296875q0.953125 1.0 1.1875 2.5625q0.625 -0.375 0.890625 -0.78125q0.265625 -0.421875 0.265625 -1.1875l-0.859375 0zm3.5621796 8.0l0 -9.671875l1.46875 0l0 1.375q1.0625 -1.59375 3.078125 -1.59375q0.875 0 1.609375 0.3125q0.734375 0.3125 1.09375 0.828125q0.375 0.5 0.515625 1.203125q0.09375 0.453125 0.09375 1.59375l0 5.953125l-1.640625 0l0 -5.890625q0 -1.0 -0.203125 -1.484375q-0.1875 -0.5 -0.671875 -0.796875q-0.484375 -0.296875 -1.140625 -0.296875q-1.046875 0 -1.8125 0.671875q-0.75 0.65625 -0.75 2.515625l0 5.28125l-1.640625 0zm18.246521 0l-3.6875 -9.671875l1.734375 0l2.078125 5.796875q0.328125 0.9375 0.625 1.9375q0.203125 -0.765625 0.609375 -1.828125l2.140625 -5.90625l1.6875 0l-3.65625 9.671875l-1.53125 0zm6.640625 -11.46875l0 -1.890625l1.640625 0l0 1.890625l-1.640625 0zm0 11.46875l0 -9.671875l1.640625 0l0 9.671875l-1.640625 0zm-0.109375 2.953125l0 -1.859375l1.859375 0l0 1.859375l-1.859375 0zm9.4375 -2.953125l0 -9.671875l1.46875 0l0 1.375q1.0625 -1.59375 3.078125 -1.59375q0.875 0 1.609375 0.3125q0.734375 0.3125 1.09375 0.828125q0.375 0.5 0.515625 1.203125q0.09375 0.453125 0.09375 1.59375l0 5.953125l-1.640625 0l0 -5.890625q0 -1.0 -0.203125 -1.484375q-0.1875 -0.5 -0.671875 -0.796875q-0.484375 -0.296875 -1.140625 -0.296875q-1.046875 0 -1.8125 0.671875q-0.75 0.65625 -0.75 2.515625l0 5.28125l-1.640625 0zm10.063217 0.796875l1.59375 0.234375q0.109375 0.75 0.5625 1.078125q0.609375 0.453125 1.671875 0.453125q1.140625 0 1.75 -0.453125q0.625 -0.453125 0.84375 -1.265625q0.125 -0.5 0.109375 -2.109375q-1.0625 1.265625 -2.671875 1.265625q-2.0 0 -3.09375 -1.4375q-1.09375 -1.4375 -1.09375 -3.453125q0 -1.390625 0.5 -2.5625q0.515625 -1.171875 1.453125 -1.796875q0.953125 -0.640625 2.25 -0.640625q1.703125 0 2.8125 1.375l0 -1.15625l1.515625 0l0 8.359375q0 2.265625 -0.46875 3.203125q-0.453125 0.9375 -1.453125 1.484375q-0.984375 0.546875 -2.453125 0.546875q-1.71875 0 -2.796875 -0.78125q-1.0625 -0.765625 -1.03125 -2.34375zm1.359375 -5.8125q0 1.90625 0.75 2.78125q0.765625 0.875 1.90625 0.875q1.125 0 1.890625 -0.859375q0.765625 -0.875 0.765625 -2.734375q0 -1.78125 -0.796875 -2.671875q-0.78125 -0.90625 -1.890625 -0.90625q-1.09375 0 -1.859375 0.890625q-0.765625 0.875 -0.765625 2.625zm9.328842 5.015625l0 -13.359375l1.640625 0l0 4.796875q1.140625 -1.328125 2.8906403 -1.328125q1.078125 0 1.859375 0.421875q0.796875 0.421875 1.140625 1.171875q0.34375 0.75 0.34375 2.171875l0 6.125l-1.640625 0l0 -6.125q0 -1.234375 -0.53125 -1.796875q-0.53125 -0.5625 -1.515625 -0.5625q-0.71875 0 -1.3593903 0.390625q-0.640625 0.375 -0.921875 1.015625q-0.265625 0.640625 -0.265625 1.78125l0 5.296875l-1.640625 0zm10.375717 -11.46875l0 -1.890625l1.640625 0l0 1.890625l-1.640625 0zm0 11.46875l0 -9.671875l1.640625 0l0 9.671875l-1.640625 0zm10.769836 -3.109375l1.6875 0.203125q-0.40625 1.484375 -1.484375 2.3125q-1.078125 0.8125 -2.765625 0.8125q-2.125 0 -3.375 -1.296875q-1.234375 -1.3125 -1.234375 -3.671875q0 -2.453125 1.25 -3.796875q1.265625 -1.34375 3.265625 -1.34375q1.9375 0 3.15625 1.328125q1.234375 1.3125 1.234375 3.703125q0 0.15625 0 0.4375l-7.21875 0q0.09375 1.59375 0.90625 2.453125q0.8125 0.84375 2.015625 0.84375q0.90625 0 1.546875 -0.46875q0.640625 -0.484375 1.015625 -1.515625zm-5.390625 -2.65625l5.40625 0q-0.109375 -1.21875 -0.625 -1.828125q-0.78125 -0.953125 -2.03125 -0.953125q-1.125 0 -1.90625 0.765625q-0.765625 0.75 -0.84375 2.015625zm2.703125 -6.65625l-1.03125 1.546875l-1.875 0l1.96875 -2.546875l1.734375 0l2.0625 2.546875l-1.859375 0l-1.0 -1.546875zm6.438202 12.421875l0 -9.671875l1.46875 0l0 1.375q1.0625 -1.59375 3.078125 -1.59375q0.875 0 1.609375 0.3125q0.734375 0.3125 1.09375 0.828125q0.375 0.5 0.515625 1.203125q0.09375 0.453125 0.09375 1.59375l0 5.953125l-1.640625 0l0 -5.890625q0 -1.0 -0.203125 -1.484375q-0.1875 -0.5 -0.671875 -0.796875q-0.484375 -0.296875 -1.140625 -0.296875q-1.046875 0 -1.8125 0.671875q-0.75 0.65625 -0.75 2.515625l0 5.28125l-1.640625 0z" fill-rule="nonzero"/><path fill="#000000" d="m184.49748 302.02142l1.609375 0.21875q-0.265625 1.65625 -1.359375 2.609375q-1.078125 0.9375 -2.671875 0.9375q-1.984375 0 -3.1875 -1.296875q-1.203125 -1.296875 -1.203125 -3.71875q0 -1.578125 0.515625 -2.75q0.515625 -1.171875 1.578125 -1.75q1.0625 -0.59375 2.3125 -0.59375q1.578125 0 2.578125 0.796875q1.0 0.796875 1.28125 2.265625l-1.59375 0.234375q-0.234375 -0.96875 -0.8125 -1.453125q-0.578125 -0.5 -1.390625 -0.5q-1.234375 0 -2.015625 0.890625q-0.78125 0.890625 -0.78125 2.8125q0 1.953125 0.75 2.84375q0.75 0.875 1.953125 0.875q0.96875 0 1.609375 -0.59375q0.65625 -0.59375 0.828125 -1.828125zm11.953125 -4.21875l0 -1.90625l1.75 0l0 1.5q0 1.4375 -0.328125 2.0q-0.828125 1.453125 -2.5625 1.640625l0 4.53125l-1.46875 0l0 -1.421875q-1.125 1.640625 -3.0625 1.640625q-0.84375 0 -1.59375 -0.3125q-0.734375 -0.328125 -1.109375 -0.828125q-0.359375 -0.515625 -0.5 -1.234375q-0.109375 -0.484375 -0.109375 -1.53125l0 -5.984375l1.640625 0l0 5.359375q0 1.3125 0.109375 1.734375q0.3125 1.390625 1.890625 1.390625q0.75 0 1.390625 -0.375q0.65625 -0.390625 0.90625 -1.03125q0.265625 -0.65625 0.265625 -1.890625l0 -5.1875l1.640625 0l0 4.4375q1.15625 -0.1875 1.734375 -1.078125q0.25 -0.390625 0.25 -1.453125l-0.84375 0zm-6.046875 -3.109375l1.21875 -2.546875l2.15625 0l-2.015625 2.546875l-1.359375 0zm15.9266205 10.875l0 -1.421875q-1.125 1.640625 -3.0625 1.640625q-0.859375 0 -1.609375 -0.328125q-0.734375 -0.328125 -1.09375 -0.828125q-0.359375 -0.5 -0.5 -1.21875q-0.109375 -0.46875 -0.109375 -1.53125l0 -5.984375l1.640625 0l0 5.359375q0 1.28125 0.109375 1.734375q0.15625 0.640625 0.65625 1.015625q0.5 0.375 1.234375 0.375q0.734375 0 1.375 -0.375q0.65625 -0.390625 0.921875 -1.03125q0.265625 -0.65625 0.265625 -1.890625l0 -5.1875l1.640625 0l0 9.671875l-1.46875 0zm11.918396 0l-3.6875 -9.671875l1.734375 0l2.078125 5.796875q0.328125 0.9375 0.625 1.9375q0.203125 -0.765625 0.609375 -1.828125l2.140625 -5.90625l1.6875 0l-3.65625 9.671875l-1.53125 0zm13.265625 -3.109375l1.6875 0.203125q-0.40625 1.484375 -1.484375 2.3125q-1.078125 0.8125 -2.765625 0.8125q-2.125 0 -3.375 -1.296875q-1.234375 -1.3125 -1.234375 -3.671875q0 -2.453125 1.25 -3.796875q1.265625 -1.34375 3.265625 -1.34375q1.9375 0 3.15625 1.328125q1.234375 1.3125 1.234375 3.703125q0 0.15625 0 0.4375l-7.21875 0q0.09375 1.59375 0.90625 2.453125q0.8125 0.84375 2.015625 0.84375q0.90625 0 1.546875 -0.46875q0.640625 -0.484375 1.015625 -1.515625zm-5.390625 -2.65625l5.40625 0q-0.109375 -1.21875 -0.625 -1.828125q-0.78125 -0.953125 -2.03125 -0.953125q-1.125 0 -1.90625 0.765625q-0.765625 0.75 -0.84375 2.015625zm2.703125 -6.65625l-1.03125 1.546875l-1.875 0l1.96875 -2.546875l1.734375 0l2.0625 2.546875l-1.859375 0l-1.0 -1.546875zm0.8125 -1.671875l-1.328125 0l-2.09375 -2.546875l2.1875 0l1.234375 2.546875zm14.0811615 14.09375l0 -11.78125l-4.40625 0l0 -1.578125l10.578125 0l0 1.578125l-4.40625 0l0 11.78125l-1.765625 0zm8.020981 0l0 -13.359375l5.921875 0q1.78125 0 2.703125 0.359375q0.9375 0.359375 1.484375 1.28125q0.5625 0.90625 0.5625 2.015625q0 1.40625 -0.921875 2.390625q-0.921875 0.96875 -2.84375 1.234375q0.703125 0.34375 1.078125 0.671875q0.765625 0.703125 1.453125 1.765625l2.328125 3.640625l-2.21875 0l-1.765625 -2.78125q-0.78125 -1.203125 -1.28125 -1.828125q-0.5 -0.640625 -0.90625 -0.890625q-0.390625 -0.265625 -0.796875 -0.359375q-0.296875 -0.078125 -0.984375 -0.078125l-2.046875 0l0 5.9375l-1.765625 0zm1.765625 -7.453125l3.796875 0q1.21875 0 1.890625 -0.25q0.6875 -0.265625 1.046875 -0.8125q0.359375 -0.546875 0.359375 -1.1875q0 -0.953125 -0.6875 -1.5625q-0.6875 -0.609375 -2.1875 -0.609375l-4.21875 0l0 4.421875zm11.972961 7.453125l0 -13.359375l1.765625 0l0 13.359375l-1.765625 0zm3.8239136 0l0 -1.640625l6.84375 -8.546875q0.71875 -0.921875 1.375 -1.59375l-7.453125 0l0 -1.578125l9.578125 0l0 1.578125l-7.5 9.265625l-0.8125 0.9375l8.53125 0l0 1.578125l-10.5625 0z" fill-rule="nonzero"/><path fill="#b6d7a8" d="m529.8635 117.46063l0 0c0 4.011673 -3.2521362 7.2637787 -7.263794 7.2637787l0 -7.2637787c0 2.0058365 -1.6260376 3.6318893 -3.631897 3.6318893c-2.0057983 0 -3.631897 -1.6260529 -3.631897 -3.6318893l0 7.2637787l-94.42911 0l0 0c-4.011688 0 -7.263794 3.2521057 -7.263794 7.2637787l0 87.16536c0 4.011673 3.2521057 7.2637787 7.263794 7.2637787c4.0116577 0 7.2637634 -3.2521057 7.2637634 -7.2637787l0 -7.2637787l94.42914 0c4.0116577 0 7.263794 -3.2521057 7.263794 -7.2637787zm-108.956696 21.791336l0 0c4.0116577 0 7.2637634 -3.2521057 7.2637634 -7.2637787c0 -2.005844 -1.6260376 -3.631897 -3.6318665 -3.631897c-2.0058594 0 -3.631897 1.6260529 -3.631897 3.631897z" fill-rule="evenodd"/><path fill="#91ab86" d="m420.90683 139.25197l0 0c4.0116577 0 7.2637634 -3.2521057 7.2637634 -7.2637787c0 -2.005844 -1.6260376 -3.631897 -3.6318665 -3.631897c-2.0058594 0 -3.631897 1.6260529 -3.631897 3.631897zm101.6929 -14.527557c4.0116577 0 7.263794 -3.2521057 7.263794 -7.2637787c0 -4.0116806 -3.2521362 -7.2637787 -7.263794 -7.2637787c-4.0116577 0 -7.263794 3.252098 -7.263794 7.2637787l0 0c0 2.0058365 1.6260986 3.6318893 3.631897 3.6318893c2.0058594 0 3.631897 -1.6260529 3.631897 -3.6318893z" fill-rule="evenodd"/><path fill="#000000" fill-opacity="0.0" d="m413.64304 131.98819c0 -4.011673 3.2521057 -7.2637787 7.263794 -7.2637787l94.42911 0l0 -7.2637787l0 0c0 -4.0116806 3.2521362 -7.2637787 7.263794 -7.2637787c4.0116577 0 7.263794 3.252098 7.263794 7.2637787l0 87.16536c0 4.011673 -3.2521362 7.2637787 -7.263794 7.2637787l-94.42914 0l0 7.2637787c0 4.011673 -3.2521057 7.2637787 -7.2637634 7.2637787c-4.011688 0 -7.263794 -3.2521057 -7.263794 -7.2637787zm101.6929 -7.2637787l7.263794 0c4.0116577 0 7.263794 -3.2521057 7.263794 -7.2637787m-7.263794 7.2637787l0 -7.2637787c0 2.0058365 -1.6260376 3.6318893 -3.631897 3.6318893c-2.0057983 0 -3.631897 -1.6260529 -3.631897 -3.6318893m-94.42911 21.791336l0 -7.2637787c0 -2.005844 1.6260376 -3.631897 3.631897 -3.631897c2.0058289 0 3.6318665 1.6260529 3.6318665 3.631897c0 4.011673 -3.2521057 7.2637787 -7.2637634 7.2637787c-4.011688 0 -7.263794 -3.2521057 -7.263794 -7.2637787m14.527557 0l0 79.90158" fill-rule="evenodd"/><path stroke="#595959" stroke-width="1.0" stroke-linejoin="round" stroke-linecap="butt" d="m413.64304 131.98819c0 -4.011673 3.2521057 -7.2637787 7.263794 -7.2637787l94.42911 0l0 -7.2637787l0 0c0 -4.0116806 3.2521362 -7.2637787 7.263794 -7.2637787c4.0116577 0 7.263794 3.252098 7.263794 7.2637787l0 87.16536c0 4.011673 -3.2521362 7.2637787 -7.263794 7.2637787l-94.42914 0l0 7.2637787c0 4.011673 -3.2521057 7.2637787 -7.2637634 7.2637787c-4.011688 0 -7.263794 -3.2521057 -7.263794 -7.2637787zm101.6929 -7.2637787l7.263794 0c4.0116577 0 7.263794 -3.2521057 7.263794 -7.2637787m-7.263794 7.2637787l0 -7.2637787c0 2.0058365 -1.6260376 3.6318893 -3.631897 3.6318893c-2.0057983 0 -3.631897 -1.6260529 -3.631897 -3.6318893m-94.42911 21.791336l0 -7.2637787c0 -2.005844 1.6260376 -3.631897 3.631897 -3.631897c2.0058289 0 3.6318665 1.6260529 3.6318665 3.631897c0 4.011673 -3.2521057 7.2637787 -7.2637634 7.2637787c-4.011688 0 -7.263794 -3.2521057 -7.263794 -7.2637787m14.527557 0l0 79.90158" fill-rule="evenodd"/><path fill="#000000" d="m449.4532 142.22708l0 -6.078125l-1.46875 0l0 -1.203125l1.46875 0l0 -6.078125l4.609375 0q1.546875 0 2.375 0.203125q1.140625 0.25 1.953125 0.953125q1.0625 0.890625 1.578125 2.28125q0.53125 1.390625 0.53125 3.171875q0 2.046875 -0.65625 3.515625q-0.640625 1.46875 -1.546875 2.140625q-0.90625 0.65625 -2.078125 0.9375q-0.640625 0.15625 -1.9375 0.15625l-4.828125 0zm1.765625 -1.578125l2.859375 0q1.328125 0 2.0625 -0.234375q0.75 -0.25 1.1875 -0.6875q0.640625 -0.640625 0.984375 -1.6875q0.359375 -1.0625 0.359375 -2.578125q0 -1.5625 -0.359375 -2.5q-0.34375 -0.953125 -0.90625 -1.515625q-0.5625 -0.5625 -1.265625 -0.78125q-0.6875 -0.21875 -2.109375 -0.21875l-2.8125 0l0 4.5l3.6875 0l0 1.203125l-3.6875 0l0 4.5zm12.582306 -3.265625q0 1.796875 0.796875 2.78125q0.765625 0.9375 2.046875 0.9375q1.28125 0 2.03125 -0.9375q0.8125 -0.984375 0.8125 -2.828125q0 -1.734375 -0.828125 -2.71875q-0.765625 -0.921875 -2.015625 -0.921875q-1.28125 0 -2.046875 0.921875q-0.796875 0.984375 -0.796875 2.765625zm7.59375 -3.15625l0 -1.90625l1.75 0l0 1.5q0 1.125 -0.34375 1.734375q-0.4375 0.78125 -1.625 1.4375q0 0.125 0 0.265625q0 3.390625 -2.1875 4.59375q-1.078125 0.59375 -2.34375 0.59375q-2.078125 0 -3.28125 -1.296875q-1.25 -1.359375 -1.25 -3.765625q0 -2.6875 1.484375 -3.96875q1.25 -1.078125 3.046875 -1.078125q2.0 0 3.265625 1.296875q0.953125 1.0 1.1875 2.5625q0.625 -0.375 0.890625 -0.78125q0.265625 -0.421875 0.265625 -1.1875l-0.859375 0zm3.5621948 8.0l0 -9.671875l1.46875 0l0 1.375q1.0625 -1.59375 3.078125 -1.59375q0.875 0 1.609375 0.3125q0.734375 0.3125 1.09375 0.828125q0.375 0.5 0.515625 1.203125q0.09375 0.453125 0.09375 1.59375l0 5.953125l-1.640625 0l0 -5.890625q0 -1.0 -0.203125 -1.484375q-0.1875 -0.5 -0.671875 -0.796875q-0.484375 -0.296875 -1.140625 -0.296875q-1.046875 0 -1.8125 0.671875q-0.75 0.65625 -0.75 2.515625l0 5.28125l-1.640625 0zm18.246521 0l-3.6875 -9.671875l1.734375 0l2.078125 5.796875q0.328125 0.9375 0.625 1.9375q0.203125 -0.765625 0.609375 -1.828125l2.140625 -5.90625l1.6875 0l-3.65625 9.671875l-1.53125 0zm6.640625 -11.46875l0 -1.890625l1.640625 0l0 1.890625l-1.640625 0zm0 11.46875l0 -9.671875l1.640625 0l0 9.671875l-1.640625 0zm-0.109375 2.953125l0 -1.859375l1.859375 0l0 1.859375l-1.859375 0z" fill-rule="nonzero"/><path fill="#000000" d="m453.4832 165.02396l1.59375 0.234375q0.109375 0.75 0.5625 1.078125q0.609375 0.453125 1.671875 0.453125q1.140625 0 1.75 -0.453125q0.625 -0.453125 0.84375 -1.265625q0.125 -0.5 0.109375 -2.109375q-1.0625 1.265625 -2.671875 1.265625q-2.0 0 -3.09375 -1.4375q-1.09375 -1.4375 -1.09375 -3.453125q0 -1.390625 0.5 -2.5625q0.515625 -1.171875 1.453125 -1.796875q0.953125 -0.640625 2.25 -0.640625q1.703125 0 2.8125 1.375l0 -1.15625l1.515625 0l0 8.359375q0 2.265625 -0.46875 3.203125q-0.453125 0.9375 -1.453125 1.484375q-0.984375 0.546875 -2.453125 0.546875q-1.71875 0 -2.796875 -0.78125q-1.0625 -0.765625 -1.03125 -2.34375zm1.359375 -5.8125q0 1.90625 0.75 2.78125q0.765625 0.875 1.90625 0.875q1.125 0 1.890625 -0.859375q0.765625 -0.875 0.765625 -2.734375q0 -1.78125 -0.796875 -2.671875q-0.78125 -0.90625 -1.890625 -0.90625q-1.09375 0 -1.859375 0.890625q-0.765625 0.875 -0.765625 2.625zm9.328857 -6.453125l0 -1.890625l1.640625 0l0 1.890625l-1.640625 0zm0 11.46875l0 -9.671875l1.640625 0l0 9.671875l-1.640625 0zm10.457306 -1.1875q-0.921875 0.765625 -1.765625 1.09375q-0.828125 0.3125 -1.796875 0.3125q-1.59375 0 -2.453125 -0.78125q-0.859375 -0.78125 -0.859375 -1.984375q0 -0.71875 0.328125 -1.296875q0.328125 -0.59375 0.84375 -0.9375q0.53125 -0.359375 1.1875 -0.546875q0.46875 -0.125 1.453125 -0.25q1.984375 -0.234375 2.921875 -0.5625q0.015625 -0.34375 0.015625 -0.421875q0 -1.0 -0.46875 -1.421875q-0.625 -0.546875 -1.875 -0.546875q-1.15625 0 -1.703125 0.40625q-0.546875 0.40625 -0.8125 1.421875l-1.609375 -0.21875q0.21875 -1.015625 0.71875 -1.640625q0.5 -0.640625 1.453125 -0.984375q0.953125 -0.34375 2.1875 -0.34375q1.25 0 2.015625 0.296875q0.78125 0.28125 1.140625 0.734375q0.375 0.4375 0.515625 1.109375q0.078125 0.421875 0.078125 1.515625l0 2.1875q0 2.28125 0.109375 2.890625q0.109375 0.59375 0.40625 1.15625l-1.703125 0q-0.265625 -0.515625 -0.328125 -1.1875zm-0.140625 -3.671875q-0.890625 0.375 -2.671875 0.625q-1.015625 0.140625 -1.4375 0.328125q-0.421875 0.1875 -0.65625 0.53125q-0.21875 0.34375 -0.21875 0.78125q0 0.65625 0.5 1.09375q0.5 0.4375 1.453125 0.4375q0.9375 0 1.671875 -0.40625q0.75 -0.421875 1.09375 -1.140625q0.265625 -0.5625 0.265625 -1.640625l0 -0.609375zm-2.578125 -7.109375q0.515625 -0.0625 0.65625 -0.09375q0.484375 -0.171875 0.5 -0.515625q0.015625 -0.21875 -0.25 -0.359375q-0.390625 -0.203125 -1.21875 -0.203125q-0.28125 0 -0.859375 0.03125l-0.09375 -0.921875q0.359375 -0.078125 1.3125 -0.0625q1.125 0 1.828125 0.359375q0.78125 0.375 0.796875 1.0625q0.046875 1.125 -1.65625 1.34375l0 0.453125l-1.015625 0l0 -1.09375zm6.7819824 11.96875l0 -9.671875l1.46875 0l0 1.375q1.0625 -1.59375 3.078125 -1.59375q0.875 0 1.609375 0.3125q0.734375 0.3125 1.09375 0.828125q0.375 0.5 0.515625 1.203125q0.09375 0.453125 0.09375 1.59375l0 5.953125l-1.640625 0l0 -5.890625q0 -1.0 -0.203125 -1.484375q-0.1875 -0.5 -0.671875 -0.796875q-0.484375 -0.296875 -1.140625 -0.296875q-1.046875 0 -1.8125 0.671875q-0.75 0.65625 -0.75 2.515625l0 5.28125l-1.640625 0zm10.063202 0.796875l1.59375 0.234375q0.109375 0.75 0.5625 1.078125q0.609375 0.453125 1.671875 0.453125q1.140625 0 1.75 -0.453125q0.625 -0.453125 0.84375 -1.265625q0.125 -0.5 0.109375 -2.109375q-1.0625 1.265625 -2.671875 1.265625q-2.0 0 -3.09375 -1.4375q-1.09375 -1.4375 -1.09375 -3.453125q0 -1.390625 0.5 -2.5625q0.515625 -1.171875 1.453125 -1.796875q0.953125 -0.640625 2.25 -0.640625q1.703125 0 2.8125 1.375l0 -1.15625l1.515625 0l0 8.359375q0 2.265625 -0.46875 3.203125q-0.453125 0.9375 -1.453125 1.484375q-0.984375 0.546875 -2.453125 0.546875q-1.71875 0 -2.796875 -0.78125q-1.0625 -0.765625 -1.03125 -2.34375zm1.359375 -5.8125q0 1.90625 0.75 2.78125q0.765625 0.875 1.90625 0.875q1.125 0 1.890625 -0.859375q0.765625 -0.875 0.765625 -2.734375q0 -1.78125 -0.796875 -2.671875q-0.78125 -0.90625 -1.890625 -0.90625q-1.09375 0 -1.859375 0.890625q-0.765625 0.875 -0.765625 2.625z" fill-rule="nonzero"/><path fill="#000000" d="m467.8454 186.22708l0 -1.21875q-0.90625 1.4375 -2.703125 1.4375q-1.15625 0 -2.125 -0.640625q-0.96875 -0.640625 -1.5 -1.78125q-0.53125 -1.140625 -0.53125 -2.625q0 -1.453125 0.484375 -2.625q0.484375 -1.1875 1.4375 -1.8125q0.96875 -0.625 2.171875 -0.625q0.875 0 1.546875 0.375q0.6875 0.359375 1.109375 0.953125l0 -4.796875l1.640625 0l0 13.359375l-1.53125 0zm-5.171875 -4.828125q0 1.859375 0.78125 2.78125q0.78125 0.921875 1.84375 0.921875q1.078125 0 1.828125 -0.875q0.75 -0.890625 0.75 -2.6875q0 -1.984375 -0.765625 -2.90625q-0.765625 -0.9375 -1.890625 -0.9375q-1.078125 0 -1.8125 0.890625q-0.734375 0.890625 -0.734375 2.8125zm15.594452 3.640625q-0.921875 0.765625 -1.765625 1.09375q-0.828125 0.3125 -1.796875 0.3125q-1.59375 0 -2.453125 -0.78125q-0.859375 -0.78125 -0.859375 -1.984375q0 -0.71875 0.328125 -1.296875q0.328125 -0.59375 0.84375 -0.9375q0.53125 -0.359375 1.1875 -0.546875q0.46875 -0.125 1.453125 -0.25q1.984375 -0.234375 2.921875 -0.5625q0.015625 -0.34375 0.015625 -0.421875q0 -1.0 -0.46875 -1.421875q-0.625 -0.546875 -1.875 -0.546875q-1.15625 0 -1.703125 0.40625q-0.546875 0.40625 -0.8125 1.421875l-1.609375 -0.21875q0.21875 -1.015625 0.71875 -1.640625q0.5 -0.640625 1.453125 -0.984375q0.953125 -0.34375 2.1875 -0.34375q1.25 0 2.015625 0.296875q0.78125 0.28125 1.140625 0.734375q0.375 0.4375 0.515625 1.109375q0.078125 0.421875 0.078125 1.515625l0 2.1875q0 2.28125 0.109375 2.890625q0.109375 0.59375 0.40625 1.15625l-1.703125 0q-0.265625 -0.515625 -0.328125 -1.1875zm-0.140625 -3.671875q-0.890625 0.375 -2.671875 0.625q-1.015625 0.140625 -1.4375 0.328125q-0.421875 0.1875 -0.65625 0.53125q-0.21875 0.34375 -0.21875 0.78125q0 0.65625 0.5 1.09375q0.5 0.4375 1.453125 0.4375q0.9375 0 1.671875 -0.40625q0.75 -0.421875 1.09375 -1.140625q0.265625 -0.5625 0.265625 -1.640625l0 -0.609375zm-3.234375 7.8125l0 -1.859375l1.859375 0l0 1.859375l-1.859375 0zm7.3601074 0.765625l-0.1875 -1.53125q0.546875 0.140625 0.9375 0.140625q0.546875 0 0.875 -0.1875q0.328125 -0.171875 0.546875 -0.5q0.15625 -0.25 0.5 -1.21875q0.046875 -0.140625 0.140625 -0.40625l-3.671875 -9.6875l1.765625 0l2.015625 5.59375q0.390625 1.078125 0.703125 2.25q0.28125 -1.125 0.671875 -2.203125l2.078125 -5.640625l1.640625 0l-3.6875 9.828125q-0.59375 1.609375 -0.921875 2.203125q-0.4375 0.8125 -1.0 1.1875q-0.5625 0.375 -1.34375 0.375q-0.484375 0 -1.0625 -0.203125z" fill-rule="nonzero"/><path fill="#000000" d="m459.50482 208.22708l0 -11.78125l-4.40625 0l0 -1.578125l10.578125 0l0 1.578125l-4.40625 0l0 11.78125l-1.765625 0zm8.020966 0l0 -13.359375l5.921875 0q1.78125 0 2.703125 0.359375q0.9375 0.359375 1.484375 1.28125q0.5625 0.90625 0.5625 2.015625q0 1.40625 -0.921875 2.390625q-0.921875 0.96875 -2.84375 1.234375q0.703125 0.34375 1.078125 0.671875q0.765625 0.703125 1.453125 1.765625l2.328125 3.640625l-2.21875 0l-1.765625 -2.78125q-0.78125 -1.203125 -1.28125 -1.828125q-0.5 -0.640625 -0.90625 -0.890625q-0.390625 -0.265625 -0.796875 -0.359375q-0.296875 -0.078125 -0.984375 -0.078125l-2.046875 0l0 5.9375l-1.765625 0zm1.765625 -7.453125l3.796875 0q1.21875 0 1.890625 -0.25q0.6875 -0.265625 1.046875 -0.8125q0.359375 -0.546875 0.359375 -1.1875q0 -0.953125 -0.6875 -1.5625q-0.6875 -0.609375 -2.1875 -0.609375l-4.21875 0l0 4.421875zm11.972961 7.453125l0 -13.359375l1.765625 0l0 13.359375l-1.765625 0zm3.8239136 0l0 -1.640625l6.84375 -8.546875q0.71875 -0.921875 1.375 -1.59375l-7.453125 0l0 -1.578125l9.578125 0l0 1.578125l-7.5 9.265625l-0.8125 0.9375l8.53125 0l0 1.578125l-10.5625 0z" fill-rule="nonzero"/><path fill="#ea9999" d="m570.4278 419.6824c24.212646 -67.79526 118.641785 0 0 87.165375c-118.64169 -87.165375 -24.212585 -154.96063 0 -87.165375z" fill-rule="evenodd"/><path stroke="#595959" stroke-width="1.0" stroke-linejoin="round" stroke-linecap="butt" d="m570.4278 419.6824c24.212646 -67.79526 118.641785 0 0 87.165375c-118.64169 -87.165375 -24.212585 -154.96063 0 -87.165375z" fill-rule="evenodd"/><path fill="#000000" d="m570.0898 406.34625l0 -1.890625l1.640625 0l0 1.890625l-1.640625 0zm0 11.46875l0 -9.671875l1.640625 0l0 9.671875l-1.640625 0z" fill-rule="nonzero"/><path fill="#000000" d="m525.7683 439.815l0 -13.359375l1.8125 0l7.015625 10.484375l0 -10.484375l1.6875 0l0 13.359375l-1.8125 0l-7.015625 -10.5l0 10.5l-1.6875 0zm12.9729 0.796875l1.59375 0.234375q0.109375 0.75 0.5625 1.078125q0.609375 0.453125 1.671875 0.453125q1.140625 0 1.75 -0.453125q0.625 -0.453125 0.84375 -1.265625q0.125 -0.5 0.109375 -2.109375q-1.0625 1.265625 -2.671875 1.265625q-2.0 0 -3.09375 -1.4375q-1.09375 -1.4375 -1.09375 -3.453125q0 -1.390625 0.5 -2.5625q0.515625 -1.171875 1.453125 -1.796875q0.953125 -0.640625 2.25 -0.640625q1.703125 0 2.8125 1.375l0 -1.15625l1.515625 0l0 8.359375q0 2.265625 -0.46875 3.203125q-0.453125 0.9375 -1.453125 1.484375q-0.984375 0.546875 -2.453125 0.546875q-1.71875 0 -2.796875 -0.78125q-1.0625 -0.765625 -1.03125 -2.34375zm1.359375 -5.8125q0 1.90625 0.75 2.78125q0.765625 0.875 1.90625 0.875q1.125 0 1.890625 -0.859375q0.765625 -0.875 0.765625 -2.734375q0 -1.78125 -0.796875 -2.671875q-0.78125 -0.90625 -1.890625 -0.90625q-1.09375 0 -1.859375 0.890625q-0.765625 0.875 -0.765625 2.625zm18.266357 -2.75l0 -1.90625l1.75 0l0 1.5q0 1.4375 -0.328125 2.0q-0.828125 1.453125 -2.5625 1.640625l0 4.53125l-1.46875 0l0 -1.421875q-1.125 1.640625 -3.0625 1.640625q-0.84375 0 -1.59375 -0.3125q-0.734375 -0.328125 -1.109375 -0.828125q-0.359375 -0.515625 -0.5 -1.234375q-0.109375 -0.484375 -0.109375 -1.53125l0 -5.984375l1.640625 0l0 5.359375q0 1.3125 0.109375 1.734375q0.3125 1.390625 1.890625 1.390625q0.75 0 1.390625 -0.375q0.65625 -0.390625 0.90625 -1.03125q0.265625 -0.65625 0.265625 -1.890625l0 -5.1875l1.640625 0l0 4.4375q1.15625 -0.1875 1.734375 -1.078125q0.25 -0.390625 0.25 -1.453125l-0.84375 0zm4.6297607 2.921875q0 1.796875 0.796875 2.78125q0.765625 0.9375 2.046875 0.9375q1.28125 0 2.03125 -0.9375q0.8125 -0.984375 0.8125 -2.828125q0 -1.734375 -0.828125 -2.71875q-0.765625 -0.921875 -2.015625 -0.921875q-1.28125 0 -2.046875 0.921875q-0.796875 0.984375 -0.796875 2.765625zm7.59375 -3.15625l0 -1.90625l1.75 0l0 1.5q0 1.125 -0.34375 1.734375q-0.4375 0.78125 -1.625 1.4375q0 0.125 0 0.265625q0 3.390625 -2.1875 4.59375q-1.078125 0.59375 -2.34375 0.59375q-2.078125 0 -3.28125 -1.296875q-1.25 -1.359375 -1.25 -3.765625q0 -2.6875 1.484375 -3.96875q1.25 -1.078125 3.046875 -1.078125q2.0 0 3.265625 1.296875q0.953125 1.0 1.1875 2.5625q0.625 -0.375 0.890625 -0.78125q0.265625 -0.421875 0.265625 -1.1875l-0.859375 0zm-3.65625 -2.875l-1.3125 0l-2.109375 -2.546875l2.1875 0l1.234375 2.546875zm7.218445 -0.59375l0 -1.890625l1.640625 0l0 1.890625l-1.640625 0zm0 11.46875l0 -9.671875l1.640625 0l0 9.671875l-1.640625 0zm9.328125 0l0 -13.359375l1.640625 0l0 4.796875q1.140625 -1.328125 2.890625 -1.328125q1.078125 0 1.859375 0.421875q0.796875 0.421875 1.140625 1.171875q0.34375 0.75 0.34375 2.171875l0 6.125l-1.640625 0l0 -6.125q0 -1.234375 -0.53125 -1.796875q-0.53125 -0.5625 -1.515625 -0.5625q-0.71875 0 -1.359375 0.390625q-0.640625 0.375 -0.921875 1.015625q-0.265625 0.640625 -0.265625 1.78125l0 5.296875l-1.640625 0zm9.766296 -4.84375q0 -2.6875 1.484375 -3.96875q1.25 -1.078125 3.046875 -1.078125q2.0 0 3.265625 1.3125q1.265625 1.296875 1.265625 3.609375q0 1.859375 -0.5625 2.9375q-0.5625 1.0625 -1.640625 1.65625q-1.0625 0.59375 -2.328125 0.59375q-2.03125 0 -3.28125 -1.296875q-1.25 -1.3125 -1.25 -3.765625zm1.6875 0q0 1.859375 0.796875 2.796875q0.8125 0.921875 2.046875 0.921875q1.21875 0 2.03125 -0.921875q0.8125 -0.9375 0.8125 -2.84375q0 -1.796875 -0.8125 -2.71875q-0.8125 -0.921875 -2.03125 -0.921875q-1.234375 0 -2.046875 0.921875q-0.796875 0.90625 -0.796875 2.765625zm1.84375 7.796875l0 -1.859375l1.859375 0l0 1.859375l-1.859375 0zm13.766357 -6.5l1.609375 0.21875q-0.265625 1.65625 -1.359375 2.609375q-1.078125 0.9375 -2.671875 0.9375q-1.984375 0 -3.1875 -1.296875q-1.203125 -1.296875 -1.203125 -3.71875q0 -1.578125 0.515625 -2.75q0.515625 -1.171875 1.578125 -1.75q1.0625 -0.59375 2.3125 -0.59375q1.578125 0 2.578125 0.796875q1.0 0.796875 1.28125 2.265625l-1.59375 0.234375q-0.234375 -0.96875 -0.8125 -1.453125q-0.578125 -0.5 -1.390625 -0.5q-1.234375 0 -2.015625 0.890625q-0.78125 0.890625 -0.78125 2.8125q0 1.953125 0.75 2.84375q0.75 0.875 1.953125 0.875q0.96875 0 1.609375 -0.59375q0.65625 -0.59375 0.828125 -1.828125zm3.4375 3.546875l0 -1.875l1.875 0l0 1.875q0 1.03125 -0.375 1.65625q-0.359375 0.640625 -1.15625 0.984375l-0.453125 -0.703125q0.515625 -0.21875 0.765625 -0.671875q0.25 -0.4375 0.28125 -1.265625l-0.9375 0z" fill-rule="nonzero"/><path fill="#000000" d="m533.7091 460.34625l0.234375 1.453125q-0.6875 0.140625 -1.234375 0.140625q-0.890625 0 -1.390625 -0.28125q-0.484375 -0.28125 -0.6875 -0.734375q-0.203125 -0.46875 -0.203125 -1.9375l0 -5.578125l-1.203125 0l0 -1.265625l1.203125 0l0 -2.390625l1.625 -0.984375l0 3.375l1.65625 0l0 1.265625l-1.65625 0l0 5.671875q0 0.6875 0.078125 0.890625q0.09375 0.203125 0.28125 0.328125q0.203125 0.109375 0.578125 0.109375q0.265625 0 0.71875 -0.0625zm1.6051636 1.46875l0 -13.359375l1.640625 0l0 4.796875q1.140625 -1.328125 2.890625 -1.328125q1.078125 0 1.859375 0.421875q0.796875 0.421875 1.140625 1.171875q0.34375 0.75 0.34375 2.171875l0 6.125l-1.640625 0l0 -6.125q0 -1.234375 -0.53125 -1.796875q-0.53125 -0.5625 -1.515625 -0.5625q-0.71875 0 -1.359375 0.390625q-0.640625 0.375 -0.921875 1.015625q-0.265625 0.640625 -0.265625 1.78125l0 5.296875l-1.640625 0zm19.313232 -7.765625l0 -1.90625l1.75 0l0 1.5q0 1.4375 -0.328125 2.0q-0.828125 1.453125 -2.5625 1.640625l0 4.53125l-1.46875 0l0 -1.421875q-1.125 1.640625 -3.0625 1.640625q-0.84375 0 -1.59375 -0.3125q-0.734375 -0.328125 -1.109375 -0.828125q-0.359375 -0.515625 -0.5 -1.234375q-0.109375 -0.484375 -0.109375 -1.53125l0 -5.984375l1.640625 0l0 5.359375q0 1.3125 0.109375 1.734375q0.3125 1.390625 1.890625 1.390625q0.75 0 1.390625 -0.375q0.65625 -0.390625 0.90625 -1.03125q0.265625 -0.65625 0.265625 -1.890625l0 -5.1875l1.640625 0l0 4.4375q1.15625 -0.1875 1.734375 -1.078125q0.25 -0.390625 0.25 -1.453125l-0.84375 0zm-6.296875 10.71875l0 -1.859375l1.859375 0l0 1.859375l-1.859375 0zm16.16101 -6.5l1.609375 0.21875q-0.265625 1.65625 -1.359375 2.609375q-1.078125 0.9375 -2.671875 0.9375q-1.984375 0 -3.1875 -1.296875q-1.203125 -1.296875 -1.203125 -3.71875q0 -1.578125 0.515625 -2.75q0.515625 -1.171875 1.578125 -1.75q1.0625 -0.59375 2.3125 -0.59375q1.578125 0 2.578125 0.796875q1.0 0.796875 1.28125 2.265625l-1.59375 0.234375q-0.234375 -0.96875 -0.8125 -1.453125q-0.578125 -0.5 -1.390625 -0.5q-1.234375 0 -2.015625 0.890625q-0.78125 0.890625 -0.78125 2.8125q0 1.953125 0.75 2.84375q0.75 0.875 1.953125 0.875q0.96875 0 1.609375 -0.59375q0.65625 -0.59375 0.828125 -1.828125zm8.198914 3.546875l0 -13.359375l1.640625 0l0 4.796875q1.140625 -1.328125 2.890625 -1.328125q1.078125 0 1.859375 0.421875q0.796875 0.421875 1.140625 1.171875q0.34375 0.75 0.34375 2.171875l0 6.125l-1.640625 0l0 -6.125q0 -1.234375 -0.53125 -1.796875q-0.53125 -0.5625 -1.515625 -0.5625q-0.71875 0 -1.359375 0.390625q-0.640625 0.375 -0.921875 1.015625q-0.265625 0.640625 -0.265625 1.78125l0 5.296875l-1.640625 0zm16.688232 -1.1875q-0.921875 0.765625 -1.765625 1.09375q-0.828125 0.3125 -1.796875 0.3125q-1.59375 0 -2.453125 -0.78125q-0.859375 -0.78125 -0.859375 -1.984375q0 -0.71875 0.328125 -1.296875q0.328125 -0.59375 0.84375 -0.9375q0.53125 -0.359375 1.1875 -0.546875q0.46875 -0.125 1.453125 -0.25q1.984375 -0.234375 2.921875 -0.5625q0.015625 -0.34375 0.015625 -0.421875q0 -1.0 -0.46875 -1.421875q-0.625 -0.546875 -1.875 -0.546875q-1.15625 0 -1.703125 0.40625q-0.546875 0.40625 -0.8125 1.421875l-1.609375 -0.21875q0.21875 -1.015625 0.71875 -1.640625q0.5 -0.640625 1.453125 -0.984375q0.953125 -0.34375 2.1875 -0.34375q1.25 0 2.015625 0.296875q0.78125 0.28125 1.140625 0.734375q0.375 0.4375 0.515625 1.109375q0.078125 0.421875 0.078125 1.515625l0 2.1875q0 2.28125 0.109375 2.890625q0.109375 0.59375 0.40625 1.15625l-1.703125 0q-0.265625 -0.515625 -0.328125 -1.1875zm-0.140625 -3.671875q-0.890625 0.375 -2.671875 0.625q-1.015625 0.140625 -1.4375 0.328125q-0.421875 0.1875 -0.65625 0.53125q-0.21875 0.34375 -0.21875 0.78125q0 0.65625 0.5 1.09375q0.5 0.4375 1.453125 0.4375q0.9375 0 1.671875 -0.40625q0.75 -0.421875 1.09375 -1.140625q0.265625 -0.5625 0.265625 -1.640625l0 -0.609375zm-0.890625 -6.015625l-1.3125 0l-2.109375 -2.546875l2.1875 0l1.234375 2.546875zm5.0944214 10.875l0 -9.671875l1.46875 0l0 1.375q1.0625 -1.59375 3.078125 -1.59375q0.875 0 1.609375 0.3125q0.734375 0.3125 1.09375 0.828125q0.375 0.5 0.515625 1.203125q0.09375 0.453125 0.09375 1.59375l0 5.953125l-1.640625 0l0 -5.890625q0 -1.0 -0.203125 -1.484375q-0.1875 -0.5 -0.671875 -0.796875q-0.484375 -0.296875 -1.140625 -0.296875q-1.046875 0 -1.8125 0.671875q-0.75 0.65625 -0.75 2.515625l0 5.28125l-1.640625 0zm10.375732 0l0 -13.359375l1.640625 0l0 4.796875q1.140625 -1.328125 2.890625 -1.328125q1.078125 0 1.859375 0.421875q0.796875 0.421875 1.140625 1.171875q0.34375 0.75 0.34375 2.171875l0 6.125l-1.640625 0l0 -6.125q0 -1.234375 -0.53125 -1.796875q-0.53125 -0.5625 -1.515625 -0.5625q-0.71875 0 -1.359375 0.390625q-0.640625 0.375 -0.921875 1.015625q-0.265625 0.640625 -0.265625 1.78125l0 5.296875l-1.640625 0z" fill-rule="nonzero"/><path fill="#000000" d="m555.0475 483.815l0 -11.78125l-4.40625 0l0 -1.578125l10.578125 0l0 1.578125l-4.40625 0l0 11.78125l-1.765625 0zm8.020935 0l0 -13.359375l5.921875 0q1.78125 0 2.703125 0.359375q0.9375 0.359375 1.484375 1.28125q0.5625 0.90625 0.5625 2.015625q0 1.40625 -0.921875 2.390625q-0.921875 0.96875 -2.84375 1.234375q0.703125 0.34375 1.078125 0.671875q0.765625 0.703125 1.453125 1.765625l2.328125 3.640625l-2.21875 0l-1.765625 -2.78125q-0.78125 -1.203125 -1.28125 -1.828125q-0.5 -0.640625 -0.90625 -0.890625q-0.390625 -0.265625 -0.796875 -0.359375q-0.296875 -0.078125 -0.984375 -0.078125l-2.046875 0l0 5.9375l-1.765625 0zm1.765625 -7.453125l3.796875 0q1.21875 0 1.890625 -0.25q0.6875 -0.265625 1.046875 -0.8125q0.359375 -0.546875 0.359375 -1.1875q0 -0.953125 -0.6875 -1.5625q-0.6875 -0.609375 -2.1875 -0.609375l-4.21875 0l0 4.421875zm11.972961 7.453125l0 -13.359375l1.765625 0l0 13.359375l-1.765625 0zm3.8239136 0l0 -1.640625l6.84375 -8.546875q0.71875 -0.921875 1.375 -1.59375l-7.453125 0l0 -1.578125l9.578125 0l0 1.578125l-7.5 9.265625l-0.8125 0.9375l8.53125 0l0 1.578125l-10.5625 0z" fill-rule="nonzero"/><path fill="#000000" fill-opacity="0.0" d="m471.7533 211.88977c0 18.064423 -5.913391 28.912323 -11.826782 36.12886c-5.913391 7.2165375 -11.826782 10.801712 -11.826782 21.603409" fill-rule="evenodd"/><path stroke="#595959" stroke-width="2.0" stroke-linejoin="round" stroke-linecap="butt" d="m471.7533 211.88977c0 18.064423 -5.913391 28.912308 -11.826782 36.128845c-2.9566956 3.6082764 -5.913391 6.3086853 -8.13092 9.457275c-1.1087646 1.5742798 -2.0327148 3.26062 -2.6795044 5.2284546l-0.042175293 0.13311768" fill-rule="evenodd"/><path fill="#595959" stroke="#595959" stroke-width="2.0" stroke-linecap="butt" d="m449.0739 262.83746l-1.9066467 -2.5460205l1.3480225 6.436493l3.1046448 -5.7971497z" fill-rule="evenodd"/><path fill="#000000" fill-opacity="0.0" d="m285.85565 210.6483c21.07788 0 31.616425 27.559052 42.155792 55.11812c10.539368 27.559052 21.07959 55.118103 42.15915 55.118103" fill-rule="evenodd"/><path stroke="#595959" stroke-width="2.0" stroke-linejoin="round" stroke-linecap="butt" d="m285.85565 210.6483c21.07788 0 31.616425 27.559052 42.155792 55.11812c5.269684 13.7795105 10.539581 27.559052 17.127014 37.893677c3.2936707 5.167328 6.9167786 9.47345 11.033905 12.487701c2.0585632 1.5071411 4.2406616 2.6913147 6.566864 3.4987183c0.14535522 0.050445557 0.2913208 0.09945679 0.43780518 0.14694214l0.21621704 0.06765747" fill-rule="evenodd"/><path fill="#595959" stroke="#595959" stroke-width="2.0" stroke-linecap="butt" d="m363.39325 319.8611l-2.5597534 1.8881226l6.4460754 -1.3012695l-5.7744446 -3.146637z" fill-rule="evenodd"/><path fill="#000000" fill-opacity="0.0" d="m227.7454 268.75854c0 29.847778 14.755905 41.762512 29.511826 59.695587c14.75589 17.933075 29.51181 41.88449 29.51181 83.76895" fill-rule="evenodd"/><path stroke="#595959" stroke-width="3.0" stroke-linejoin="round" stroke-linecap="butt" d="m227.7454 268.75854c0 29.847809 14.755905 41.762512 29.511826 59.695587c7.3779297 8.966553 14.75589 19.437683 20.289368 32.90271c2.7667236 6.7325134 5.0723267 14.2135315 6.686249 22.62918c0.8069763 4.2078247 1.4410095 8.6493225 1.8733215 13.347717c0.108062744 1.1746216 0.20355225 2.3652954 0.2859497 3.5723877c0.020599365 0.3017578 0.040374756 0.60458374 0.05935669 0.90838623l0.007843018 0.13201904" fill-rule="evenodd"/><path fill="#595959" stroke="#595959" stroke-width="3.0" stroke-linecap="butt" d="m286.45932 401.9465l-3.4738464 -3.2705994l3.6514282 9.163483l3.0930176 -9.36673z" fill-rule="evenodd"/><path fill="#000000" fill-opacity="0.0" d="m507.15375 320.884c31.637817 0 63.275574 49.40155 63.275574 98.80313" fill-rule="evenodd"/><path stroke="#595959" stroke-width="1.0" stroke-linejoin="round" stroke-linecap="butt" d="m507.15375 320.884c31.637817 0 63.275574 49.40155 63.275574 98.80313" fill-rule="evenodd"/><path fill="#000000" fill-opacity="0.0" d="m678.0318 213.21835c-53.795288 0 -107.590576 103.22833 -107.590576 206.4567" fill-rule="evenodd"/><path stroke="#595959" stroke-width="1.0" stroke-linejoin="round" stroke-linecap="butt" d="m678.0318 213.21835c-53.795288 0 -107.590576 103.22833 -107.590576 206.4567" fill-rule="evenodd"/><path fill="#000000" fill-opacity="0.0" d="m570.4278 506.84778c0 8.138977 33.83264 21.510864 59.639038 16.277954c25.806458 -5.23291 43.58673 -29.070618 59.639038 -55.52481c16.052368 -26.454163 30.376709 -55.52481 60.753418 -55.52481" fill-rule="evenodd"/><path stroke="#595959" stroke-width="4.0" stroke-linejoin="round" stroke-linecap="butt" d="m570.4278 506.84778c0 8.138977 33.83264 21.510925 59.639038 16.277954c25.806458 -5.23291 43.58673 -29.070618 59.639038 -55.52481c8.026184 -13.227081 15.6203 -27.108307 25.005066 -37.68274c4.692383 -5.287201 9.832397 -9.747711 15.697876 -12.886444c1.4663696 -0.7846985 2.9780273 -1.4867554 4.5394287 -2.0984497c0.39031982 -0.1529541 0.7838135 -0.30020142 1.1803589 -0.44174194c0.19836426 -0.070739746 0.39746094 -0.14004517 0.5973511 -0.20791626l0.19366455 -0.0640564" fill-rule="evenodd"/><path fill="#595959" stroke="#595959" stroke-width="4.0" stroke-linecap="butt" d="m736.91956 414.21957l-3.739624 5.1463623l11.503723 -6.3754883l-12.910461 -2.510498z" fill-rule="evenodd"/><path fill="#000000" fill-opacity="0.0" d="m570.4278 419.6824c0 -26.30774 -42.15857 -51.20334 -73.51636 -52.61548c-31.35785 -1.4121704 -51.914917 20.659088 -73.51642 42.02426c-21.60147 21.365204 -44.247375 42.024292 -88.49475 42.024292" fill-rule="evenodd"/><path stroke="#595959" stroke-width="1.0" stroke-linejoin="round" stroke-linecap="butt" d="m570.4278 419.6824c0 -26.30774 -42.15857 -51.20334 -73.51636 -52.61548c-31.35785 -1.4121704 -51.914917 20.659088 -73.51642 42.02426c-21.60147 21.365204 -44.247375 42.024292 -88.49475 42.024292" fill-rule="evenodd"/><path fill="#000000" fill-opacity="0.0" d="m529.8635 168.30708c20.283447 0 40.566895 125.68504 40.566895 251.37007" fill-rule="evenodd"/><path stroke="#595959" stroke-width="1.0" stroke-linejoin="round" stroke-linecap="butt" d="m529.8635 168.30708c20.283447 0 40.566895 125.68504 40.566895 251.37007" fill-rule="evenodd"/><path fill="#000000" fill-opacity="0.0" d="m683.7113 93.64042l243.6535 0l0 42.015755l-243.6535 0z" fill-rule="evenodd"/><path fill="#000000" d="m697.55505 120.56042l0 -11.78125l-4.40625 0l0 -1.578125l10.578125 0l0 1.578125l-4.40625 0l0 11.78125l-1.765625 0zm8.020935 0l0 -13.359375l5.921875 0q1.78125 0 2.703125 0.359375q0.9375 0.359375 1.484375 1.28125q0.5625 0.90625 0.5625 2.015625q0 1.40625 -0.921875 2.390625q-0.921875 0.96875 -2.84375 1.234375q0.703125 0.34375 1.078125 0.671875q0.765625 0.703125 1.453125 1.765625l2.328125 3.640625l-2.21875 0l-1.765625 -2.78125q-0.78125 -1.203125 -1.28125 -1.828125q-0.5 -0.640625 -0.90625 -0.890625q-0.390625 -0.265625 -0.796875 -0.359375q-0.296875 -0.078125 -0.984375 -0.078125l-2.046875 0l0 5.9375l-1.765625 0zm1.765625 -7.453125l3.796875 0q1.21875 0 1.890625 -0.25q0.6875 -0.265625 1.046875 -0.8125q0.359375 -0.546875 0.359375 -1.1875q0 -0.953125 -0.6875 -1.5625q-0.6875 -0.609375 -2.1875 -0.609375l-4.21875 0l0 4.421875zm11.972961 7.453125l0 -13.359375l1.765625 0l0 13.359375l-1.765625 0zm3.8239136 0l0 -1.640625l6.84375 -8.546875q0.71875 -0.921875 1.375 -1.59375l-7.453125 0l0 -1.578125l9.578125 0l0 1.578125l-7.5 9.265625l-0.8125 0.9375l8.53125 0l0 1.578125l-10.5625 0zm17.048035 -4.296875l1.65625 -0.140625q0.125 1.0 0.546875 1.640625q0.4375 0.640625 1.34375 1.046875q0.921875 0.390625 2.0625 0.390625q1.0 0 1.78125 -0.296875q0.78125 -0.296875 1.15625 -0.8125q0.375 -0.53125 0.375 -1.15625q0 -0.625 -0.375 -1.09375q-0.359375 -0.46875 -1.1875 -0.796875q-0.546875 -0.203125 -2.390625 -0.640625q-1.828125 -0.453125 -2.5625 -0.84375q-0.96875 -0.5 -1.4375 -1.234375q-0.46875 -0.75 -0.46875 -1.671875q0 -1.0 0.578125 -1.875q0.578125 -0.890625 1.671875 -1.34375q1.109375 -0.453125 2.453125 -0.453125q1.484375 0 2.609375 0.484375q1.140625 0.46875 1.75 1.40625q0.609375 0.921875 0.65625 2.09375l-1.6875 0.125q-0.140625 -1.265625 -0.9375 -1.90625q-0.78125 -0.65625 -2.3125 -0.65625q-1.609375 0 -2.34375 0.59375q-0.734375 0.59375 -0.734375 1.421875q0 0.71875 0.53125 1.171875q0.5 0.46875 2.65625 0.96875q2.15625 0.484375 2.953125 0.84375q1.171875 0.53125 1.71875 1.359375q0.5625 0.828125 0.5625 1.90625q0 1.0625 -0.609375 2.015625q-0.609375 0.9375 -1.75 1.46875q-1.140625 0.515625 -2.578125 0.515625q-1.8125 0 -3.046875 -0.53125q-1.21875 -0.53125 -1.921875 -1.59375q-0.6875 -1.0625 -0.71875 -2.40625zm16.412354 2.828125l0.234375 1.453125q-0.6875 0.140625 -1.234375 0.140625q-0.890625 0 -1.390625 -0.28125q-0.484375 -0.28125 -0.6875 -0.734375q-0.203125 -0.46875 -0.203125 -1.9375l0 -5.578125l-1.203125 0l0 -1.265625l1.203125 0l0 -2.390625l1.625 -0.984375l0 3.375l1.65625 0l0 1.265625l-1.65625 0l0 5.671875q0 0.6875 0.078125 0.890625q0.09375 0.203125 0.28125 0.328125q0.203125 0.109375 0.578125 0.109375q0.265625 0 0.71875 -0.0625zm7.9332886 1.46875l0 -1.421875q-1.125 1.640625 -3.0625 1.640625q-0.859375 0 -1.609375 -0.328125q-0.734375 -0.328125 -1.09375 -0.828125q-0.359375 -0.5 -0.5 -1.21875q-0.109375 -0.46875 -0.109375 -1.53125l0 -5.984375l1.640625 0l0 5.359375q0 1.28125 0.109375 1.734375q0.15625 0.640625 0.65625 1.015625q0.5 0.375 1.234375 0.375q0.734375 0 1.375 -0.375q0.65625 -0.390625 0.921875 -1.03125q0.265625 -0.65625 0.265625 -1.890625l0 -5.1875l1.640625 0l0 9.671875l-1.46875 0zm10.313232 0l0 -1.21875q-0.90625 1.4375 -2.703125 1.4375q-1.15625 0 -2.125 -0.640625q-0.96875 -0.640625 -1.5 -1.78125q-0.53125 -1.140625 -0.53125 -2.625q0 -1.453125 0.484375 -2.625q0.484375 -1.1875 1.4375 -1.8125q0.96875 -0.625 2.171875 -0.625q0.875 0 1.546875 0.375q0.6875 0.359375 1.109375 0.953125l0 -4.796875l1.640625 0l0 13.359375l-1.53125 0zm-5.171875 -4.828125q0 1.859375 0.78125 2.78125q0.78125 0.921875 1.84375 0.921875q1.078125 0 1.828125 -0.875q0.75 -0.890625 0.75 -2.6875q0 -1.984375 -0.765625 -2.90625q-0.765625 -0.9375 -1.890625 -0.9375q-1.078125 0 -1.8125 0.890625q-0.734375 0.890625 -0.734375 2.8125zm9.281982 -6.640625l0 -1.890625l1.640625 0l0 1.890625l-1.640625 0zm0 11.46875l0 -9.671875l1.640625 0l0 9.671875l-1.640625 0zm10.769775 -3.109375l1.6875 0.203125q-0.40625 1.484375 -1.484375 2.3125q-1.078125 0.8125 -2.765625 0.8125q-2.125 0 -3.375 -1.296875q-1.234375 -1.3125 -1.234375 -3.671875q0 -2.453125 1.25 -3.796875q1.265625 -1.34375 3.265625 -1.34375q1.9375 0 3.15625 1.328125q1.234375 1.3125 1.234375 3.703125q0 0.15625 0 0.4375l-7.21875 0q0.09375 1.59375 0.90625 2.453125q0.8125 0.84375 2.015625 0.84375q0.90625 0 1.546875 -0.46875q0.640625 -0.484375 1.015625 -1.515625zm-5.390625 -2.65625l5.40625 0q-0.109375 -1.21875 -0.625 -1.828125q-0.78125 -0.953125 -2.03125 -0.953125q-1.125 0 -1.90625 0.765625q-0.765625 0.75 -0.84375 2.015625zm8.485107 2.875l1.625 -0.25q0.125 0.96875 0.75 1.5q0.625 0.515625 1.75 0.515625q1.125 0 1.671875 -0.453125q0.546875 -0.46875 0.546875 -1.09375q0 -0.546875 -0.484375 -0.875q-0.328125 -0.21875 -1.671875 -0.546875q-1.8125 -0.46875 -2.515625 -0.796875q-0.6875 -0.328125 -1.046875 -0.90625q-0.359375 -0.59375 -0.359375 -1.3125q0 -0.640625 0.296875 -1.1875q0.296875 -0.5625 0.8125 -0.921875q0.375 -0.28125 1.03125 -0.46875q0.671875 -0.203125 1.421875 -0.203125q1.140625 0 2.0 0.328125q0.859375 0.328125 1.265625 0.890625q0.421875 0.5625 0.578125 1.5l-1.609375 0.21875q-0.109375 -0.75 -0.640625 -1.171875q-0.515625 -0.421875 -1.46875 -0.421875q-1.140625 0 -1.625 0.375q-0.46875 0.375 -0.46875 0.875q0 0.3125 0.1875 0.578125q0.203125 0.265625 0.640625 0.4375q0.234375 0.09375 1.4375 0.421875q1.75 0.453125 2.4375 0.75q0.6875 0.296875 1.078125 0.859375q0.390625 0.5625 0.390625 1.40625q0 0.828125 -0.484375 1.546875q-0.46875 0.71875 -1.375 1.125q-0.90625 0.390625 -2.046875 0.390625q-1.875 0 -2.875 -0.78125q-0.984375 -0.78125 -1.25 -2.328125zm20.886414 2.890625l-1.640625 0l0 -10.453125q-0.59375 0.5625 -1.5625 1.140625q-0.953125 0.5625 -1.71875 0.84375l0 -1.59375q1.375 -0.640625 2.40625 -1.5625q1.03125 -0.921875 1.453125 -1.78125l1.0625 0l0 13.40625zm12.813232 -1.578125l0 1.578125l-8.828125 0q-0.015625 -0.59375 0.1875 -1.140625q0.34375 -0.90625 1.078125 -1.78125q0.75 -0.875 2.15625 -2.015625q2.171875 -1.78125 2.9375 -2.828125q0.765625 -1.046875 0.765625 -1.96875q0 -0.984375 -0.703125 -1.640625q-0.6875 -0.671875 -1.8125 -0.671875q-1.1875 0 -1.90625 0.71875q-0.703125 0.703125 -0.703125 1.953125l-1.6875 -0.171875q0.171875 -1.890625 1.296875 -2.875q1.140625 -0.984375 3.03125 -0.984375q1.921875 0 3.046875 1.0625q1.125 1.0625 1.125 2.640625q0 0.796875 -0.328125 1.578125q-0.328125 0.78125 -1.09375 1.640625q-0.75 0.84375 -2.53125 2.34375q-1.46875 1.234375 -1.890625 1.6875q-0.421875 0.4375 -0.6875 0.875l6.546875 0zm2.6726074 1.578125l0 -1.875l1.875 0l0 1.875l-1.875 0zm12.886414 -1.578125l0 1.578125l-8.828125 0q-0.015625 -0.59375 0.1875 -1.140625q0.34375 -0.90625 1.078125 -1.78125q0.75 -0.875 2.15625 -2.015625q2.171875 -1.78125 2.9375 -2.828125q0.765625 -1.046875 0.765625 -1.96875q0 -0.984375 -0.703125 -1.640625q-0.6875 -0.671875 -1.8125 -0.671875q-1.1875 0 -1.90625 0.71875q-0.703125 0.703125 -0.703125 1.953125l-1.6875 -0.171875q0.171875 -1.890625 1.296875 -2.875q1.140625 -0.984375 3.03125 -0.984375q1.921875 0 3.046875 1.0625q1.125 1.0625 1.125 2.640625q0 0.796875 -0.328125 1.578125q-0.328125 0.78125 -1.09375 1.640625q-0.75 0.84375 -2.53125 2.34375q-1.46875 1.234375 -1.890625 1.6875q-0.421875 0.4375 -0.6875 0.875l6.546875 0zm2.6726074 1.578125l0 -1.875l1.875 0l0 1.875l-1.875 0zm12.886414 -1.578125l0 1.578125l-8.828125 0q-0.015625 -0.59375 0.1875 -1.140625q0.34375 -0.90625 1.078125 -1.78125q0.75 -0.875 2.15625 -2.015625q2.171875 -1.78125 2.9375 -2.828125q0.765625 -1.046875 0.765625 -1.96875q0 -0.984375 -0.703125 -1.640625q-0.6875 -0.671875 -1.8125 -0.671875q-1.1875 0 -1.90625 0.71875q-0.703125 0.703125 -0.703125 1.953125l-1.6875 -0.171875q0.171875 -1.890625 1.296875 -2.875q1.140625 -0.984375 3.03125 -0.984375q1.921875 0 3.046875 1.0625q1.125 1.0625 1.125 2.640625q0 0.796875 -0.328125 1.578125q-0.328125 0.78125 -1.09375 1.640625q-0.75 0.84375 -2.53125 2.34375q-1.46875 1.234375 -1.890625 1.6875q-0.421875 0.4375 -0.6875 0.875l6.546875 0zm1.7663574 -5.015625q0 -2.359375 0.484375 -3.796875q0.484375 -1.453125 1.4375 -2.234375q0.96875 -0.78125 2.421875 -0.78125q1.078125 0 1.890625 0.4375q0.8125 0.421875 1.328125 1.25q0.53125 0.8125 0.828125 1.984375q0.3125 1.15625 0.3125 3.140625q0 2.359375 -0.484375 3.8125q-0.484375 1.4375 -1.453125 2.234375q-0.953125 0.78125 -2.421875 0.78125q-1.921875 0 -3.03125 -1.390625q-1.3125 -1.671875 -1.3125 -5.4375zm1.671875 0q0 3.296875 0.765625 4.390625q0.78125 1.078125 1.90625 1.078125q1.140625 0 1.90625 -1.09375q0.765625 -1.09375 0.765625 -4.375q0 -3.296875 -0.765625 -4.375q-0.765625 -1.078125 -1.921875 -1.078125q-1.125 0 -1.796875 0.953125q-0.859375 1.21875 -0.859375 4.5zm17.313232 5.015625l0 1.578125l-8.828125 0q-0.015625 -0.59375 0.1875 -1.140625q0.34375 -0.90625 1.078125 -1.78125q0.75 -0.875 2.15625 -2.015625q2.171875 -1.78125 2.9375 -2.828125q0.765625 -1.046875 0.765625 -1.96875q0 -0.984375 -0.703125 -1.640625q-0.6875 -0.671875 -1.8125 -0.671875q-1.1875 0 -1.90625 0.71875q-0.703125 0.703125 -0.703125 1.953125l-1.6875 -0.171875q0.171875 -1.890625 1.296875 -2.875q1.140625 -0.984375 3.03125 -0.984375q1.921875 0 3.046875 1.0625q1.125 1.0625 1.125 2.640625q0 0.796875 -0.328125 1.578125q-0.328125 0.78125 -1.09375 1.640625q-0.75 0.84375 -2.53125 2.34375q-1.46875 1.234375 -1.890625 1.6875q-0.421875 0.4375 -0.6875 0.875l6.546875 0zm1.7662964 -1.953125l1.640625 -0.21875q0.28125 1.40625 0.953125 2.015625q0.6875 0.609375 1.65625 0.609375q1.15625 0 1.953125 -0.796875q0.796875 -0.796875 0.796875 -1.984375q0 -1.125 -0.734375 -1.859375q-0.734375 -0.734375 -1.875 -0.734375q-0.46875 0 -1.15625 0.171875l0.1875 -1.4375q0.15625 0.015625 0.265625 0.015625q1.046875 0 1.875 -0.546875q0.84375 -0.546875 0.84375 -1.671875q0 -0.90625 -0.609375 -1.5q-0.609375 -0.59375 -1.578125 -0.59375q-0.953125 0 -1.59375 0.609375q-0.640625 0.59375 -0.8125 1.796875l-1.640625 -0.296875q0.296875 -1.640625 1.359375 -2.546875q1.0625 -0.90625 2.65625 -0.90625q1.09375 0 2.0 0.46875q0.921875 0.46875 1.40625 1.28125q0.5 0.8125 0.5 1.71875q0 0.859375 -0.46875 1.578125q-0.46875 0.703125 -1.375 1.125q1.1875 0.28125 1.84375 1.140625q0.65625 0.859375 0.65625 2.15625q0 1.734375 -1.28125 2.953125q-1.265625 1.21875 -3.21875 1.21875q-1.765625 0 -2.921875 -1.046875q-1.15625 -1.046875 -1.328125 -2.71875z" fill-rule="nonzero"/></g></svg>