<?xml version="1.0" encoding="UTF-8"?>
<!DOCTYPE svg PUBLIC "-//W3C//DTD SVG 1.1//EN" "http://www.w3.org/Graphics/SVG/1.1/DTD/svg11.dtd">
<svg width="222mm" height="137mm" viewBox="0 0 22200 13700" version="1.1" xmlns="http://www.w3.org/2000/svg" stroke-width="28.222" stroke-linejoin="round" xml:space="preserve">
 <path fill="rgb(114,159,207)" stroke="none" d="M -24,67 L 22126,67 22126,13749 -24,13749 -24,67 Z"/>
 <path fill="none" stroke="rgb(52,101,164)" stroke-linejoin="round" d="M -24,67 L 22126,67 22126,13749 -24,13749 -24,67 Z"/>
 <path fill="rgb(255,255,255)" stroke="none" d="M 11051,13749 L -24,13749 -24,67 22126,67 22126,13749 11051,13749 Z"/>
 <path fill="none" stroke="rgb(179,179,179)" stroke-linejoin="round" d="M 13365,12829 L 5485,12829 5485,988 21245,988 21245,12829 13365,12829 Z"/>
 <path fill="none" stroke="rgb(179,179,179)" stroke-linejoin="round" d="M 5485,987 L 5485,12828"/>
 <path fill="none" stroke="rgb(179,179,179)" stroke-linejoin="round" d="M 7823,987 L 7823,12828"/>
 <path fill="none" stroke="rgb(179,179,179)" stroke-linejoin="round" d="M 10161,987 L 10161,12828"/>
 <path fill="none" stroke="rgb(179,179,179)" stroke-linejoin="round" d="M 12499,987 L 12499,12828"/>
 <path fill="none" stroke="rgb(179,179,179)" stroke-linejoin="round" d="M 14837,987 L 14837,12828"/>
 <path fill="none" stroke="rgb(179,179,179)" stroke-linejoin="round" d="M 17176,987 L 17176,12828"/>
 <path fill="none" stroke="rgb(179,179,179)" stroke-linejoin="round" d="M 19514,987 L 19514,12828"/>
 <path fill="none" stroke="rgb(179,179,179)" stroke-linejoin="round" d="M 5335,12828 L 5485,12828"/>
 <path fill="none" stroke="rgb(179,179,179)" stroke-linejoin="round" d="M 5335,12170 L 5485,12170"/>
 <path fill="none" stroke="rgb(179,179,179)" stroke-linejoin="round" d="M 5335,11512 L 5485,11512"/>
 <path fill="none" stroke="rgb(179,179,179)" stroke-linejoin="round" d="M 5335,10854 L 5485,10854"/>
 <path fill="none" stroke="rgb(179,179,179)" stroke-linejoin="round" d="M 5335,10196 L 5485,10196"/>
 <path fill="none" stroke="rgb(179,179,179)" stroke-linejoin="round" d="M 5335,9538 L 5485,9538"/>
 <path fill="none" stroke="rgb(179,179,179)" stroke-linejoin="round" d="M 5335,8880 L 5485,8880"/>
 <path fill="none" stroke="rgb(179,179,179)" stroke-linejoin="round" d="M 5335,8222 L 5485,8222"/>
 <path fill="none" stroke="rgb(179,179,179)" stroke-linejoin="round" d="M 5335,7564 L 5485,7564"/>
 <path fill="none" stroke="rgb(179,179,179)" stroke-linejoin="round" d="M 5335,6908 L 5485,6908"/>
 <path fill="none" stroke="rgb(179,179,179)" stroke-linejoin="round" d="M 5335,6250 L 5485,6250"/>
 <path fill="none" stroke="rgb(179,179,179)" stroke-linejoin="round" d="M 5335,5592 L 5485,5592"/>
 <path fill="none" stroke="rgb(179,179,179)" stroke-linejoin="round" d="M 5335,4934 L 5485,4934"/>
 <path fill="none" stroke="rgb(179,179,179)" stroke-linejoin="round" d="M 5335,4276 L 5485,4276"/>
 <path fill="none" stroke="rgb(179,179,179)" stroke-linejoin="round" d="M 5335,3618 L 5485,3618"/>
 <path fill="none" stroke="rgb(179,179,179)" stroke-linejoin="round" d="M 5335,2960 L 5485,2960"/>
 <path fill="none" stroke="rgb(179,179,179)" stroke-linejoin="round" d="M 5335,2302 L 5485,2302"/>
 <path fill="none" stroke="rgb(179,179,179)" stroke-linejoin="round" d="M 5335,1644 L 5485,1644"/>
 <path fill="none" stroke="rgb(179,179,179)" stroke-linejoin="round" d="M 5335,987 L 5485,987"/>
 <path fill="none" stroke="rgb(179,179,179)" stroke-linejoin="round" d="M 5485,12828 L 5485,987"/>
 <path fill="none" stroke="rgb(179,179,179)" stroke-linejoin="round" d="M 5485,12978 L 5485,12828"/>
 <path fill="none" stroke="rgb(179,179,179)" stroke-linejoin="round" d="M 7823,12978 L 7823,12828"/>
 <path fill="none" stroke="rgb(179,179,179)" stroke-linejoin="round" d="M 10161,12978 L 10161,12828"/>
 <path fill="none" stroke="rgb(179,179,179)" stroke-linejoin="round" d="M 12499,12978 L 12499,12828"/>
 <path fill="none" stroke="rgb(179,179,179)" stroke-linejoin="round" d="M 14837,12978 L 14837,12828"/>
 <path fill="none" stroke="rgb(179,179,179)" stroke-linejoin="round" d="M 17176,12978 L 17176,12828"/>
 <path fill="none" stroke="rgb(179,179,179)" stroke-linejoin="round" d="M 19514,12978 L 19514,12828"/>
 <path fill="none" stroke="rgb(179,179,179)" stroke-linejoin="round" d="M 5485,12828 L 21245,12828"/>
 <path fill="none" stroke="rgb(179,179,179)" stroke-linejoin="round" d="M 5485,837 L 5485,987"/>
 <path fill="none" stroke="rgb(179,179,179)" stroke-linejoin="round" d="M 7061,837 L 7061,987"/>
 <path fill="none" stroke="rgb(179,179,179)" stroke-linejoin="round" d="M 8637,837 L 8637,987"/>
 <path fill="none" stroke="rgb(179,179,179)" stroke-linejoin="round" d="M 10213,837 L 10213,987"/>
 <path fill="none" stroke="rgb(179,179,179)" stroke-linejoin="round" d="M 11788,837 L 11788,987"/>
 <path fill="none" stroke="rgb(179,179,179)" stroke-linejoin="round" d="M 13364,837 L 13364,987"/>
 <path fill="none" stroke="rgb(179,179,179)" stroke-linejoin="round" d="M 14940,837 L 14940,987"/>
 <path fill="none" stroke="rgb(179,179,179)" stroke-linejoin="round" d="M 16516,837 L 16516,987"/>
 <path fill="none" stroke="rgb(179,179,179)" stroke-linejoin="round" d="M 18092,837 L 18092,987"/>
 <path fill="none" stroke="rgb(179,179,179)" stroke-linejoin="round" d="M 19668,837 L 19668,987"/>
 <path fill="none" stroke="rgb(179,179,179)" stroke-linejoin="round" d="M 21245,837 L 21245,987"/>
 <path fill="none" stroke="rgb(179,179,179)" stroke-linejoin="round" d="M 5485,987 L 21245,987"/>
 <path fill="rgb(0,69,134)" stroke="none" d="M 5485,1480 L 5485,1151 19935,1151 19935,1480 5485,1480 Z"/>
 <path fill="rgb(0,69,134)" stroke="none" d="M 5485,2138 L 5485,1809 19046,1809 19046,2138 5485,2138 Z"/>
 <path fill="rgb(0,69,134)" stroke="none" d="M 5485,2796 L 5485,2467 18953,2467 18953,2796 5485,2796 Z"/>
 <path fill="rgb(0,69,134)" stroke="none" d="M 5485,3454 L 5485,3125 18485,3125 18485,3454 5485,3454 Z"/>
 <path fill="rgb(0,69,134)" stroke="none" d="M 5485,4111 L 5485,3783 17643,3783 17643,4111 5485,4111 Z"/>
 <path fill="rgb(0,69,134)" stroke="none" d="M 5485,4769 L 5485,4440 15913,4440 15913,4769 5485,4769 Z"/>
 <path fill="rgb(0,69,134)" stroke="none" d="M 5485,5427 L 5485,5098 14697,5098 14697,5427 5485,5427 Z"/>
 <path fill="rgb(0,69,134)" stroke="none" d="M 5485,6085 L 5485,5756 14229,5756 14229,6085 5485,6085 Z"/>
 <path fill="rgb(0,69,134)" stroke="none" d="M 5485,6743 L 5485,6414 12966,6414 12966,6743 5485,6743 Z"/>
 <path fill="rgb(0,69,134)" stroke="none" d="M 5485,7400 L 5485,7071 12826,7071 12826,7400 5485,7400 Z"/>
 <path fill="rgb(0,69,134)" stroke="none" d="M 5485,8058 L 5485,7729 12078,7729 12078,8058 5485,8058 Z"/>
 <path fill="rgb(0,69,134)" stroke="none" d="M 5485,8716 L 5485,8387 11704,8387 11704,8716 5485,8716 Z"/>
 <path fill="rgb(0,69,134)" stroke="none" d="M 5485,9374 L 5485,9045 11330,9045 11330,9374 5485,9374 Z"/>
 <path fill="rgb(0,69,134)" stroke="none" d="M 5485,10031 L 5485,9703 10676,9703 10676,10031 5485,10031 Z"/>
 <path fill="rgb(0,69,134)" stroke="none" d="M 5485,10689 L 5485,10360 10536,10360 10536,10689 5485,10689 Z"/>
 <path fill="rgb(0,69,134)" stroke="none" d="M 5485,11347 L 5485,11018 10395,11018 10395,11347 5485,11347 Z"/>
 <path fill="rgb(0,69,134)" stroke="none" d="M 5485,12005 L 5485,11676 10161,11676 10161,12005 5485,12005 Z"/>
 <path fill="rgb(0,69,134)" stroke="none" d="M 5485,12663 L 5485,12334 10021,12334 10021,12663 5485,12663 Z"/>
 <path fill="rgb(255,66,14)" stroke="none" d="M 5485,1480 L 5485,1151 19935,1151 19935,1480 5485,1480 Z"/>
 <path fill="rgb(255,66,14)" stroke="none" d="M 5485,2138 L 5485,1809 19046,1809 19046,2138 5485,2138 Z"/>
 <path fill="rgb(255,66,14)" stroke="none" d="M 5485,2796 L 5485,2467 18953,2467 18953,2796 5485,2796 Z"/>
 <path fill="rgb(255,66,14)" stroke="none" d="M 5485,3454 L 5485,3125 18485,3125 18485,3454 5485,3454 Z"/>
 <path fill="rgb(255,66,14)" stroke="none" d="M 5485,4111 L 5485,3783 17643,3783 17643,4111 5485,4111 Z"/>
 <path fill="rgb(255,66,14)" stroke="none" d="M 5485,4769 L 5485,4440 15913,4440 15913,4769 5485,4769 Z"/>
 <path fill="rgb(255,66,14)" stroke="none" d="M 5485,5427 L 5485,5098 14697,5098 14697,5427 5485,5427 Z"/>
 <path fill="rgb(255,66,14)" stroke="none" d="M 5485,6085 L 5485,5756 14229,5756 14229,6085 5485,6085 Z"/>
 <path fill="rgb(255,66,14)" stroke="none" d="M 5485,6743 L 5485,6414 12966,6414 12966,6743 5485,6743 Z"/>
 <path fill="rgb(255,66,14)" stroke="none" d="M 5485,7400 L 5485,7071 12826,7071 12826,7400 5485,7400 Z"/>
 <path fill="rgb(255,66,14)" stroke="none" d="M 5485,8058 L 5485,7729 12078,7729 12078,8058 5485,8058 Z"/>
 <path fill="rgb(255,66,14)" stroke="none" d="M 5485,8716 L 5485,8387 11704,8387 11704,8716 5485,8716 Z"/>
 <path fill="rgb(255,66,14)" stroke="none" d="M 5485,9374 L 5485,9045 11330,9045 11330,9374 5485,9374 Z"/>
 <path fill="rgb(255,66,14)" stroke="none" d="M 5485,10031 L 5485,9703 10676,9703 10676,10031 5485,10031 Z"/>
 <path fill="rgb(255,66,14)" stroke="none" d="M 5485,10689 L 5485,10360 10536,10360 10536,10689 5485,10689 Z"/>
 <path fill="rgb(255,66,14)" stroke="none" d="M 5485,11347 L 5485,11018 10395,11018 10395,11347 5485,11347 Z"/>
 <path fill="rgb(255,66,14)" stroke="none" d="M 5485,12005 L 5485,11676 10161,11676 10161,12005 5485,12005 Z"/>
 <path fill="rgb(255,66,14)" stroke="none" d="M 5485,12663 L 5485,12334 10021,12334 10021,12663 5485,12663 Z"/>
 <text class="TextShape"><tspan class="TextParagraph" font-family="Arial" font-size="353px" font-weight="400"><tspan class="TextPosition" x="420" y="12620"><tspan fill="rgb(49,54,59)" stroke="none">Law / trend of system evolution</tspan></tspan></tspan></text>
 <text class="TextShape"><tspan class="TextParagraph" font-family="Arial" font-size="353px" font-weight="400"><tspan class="TextPosition" x="3595" y="11962"><tspan fill="rgb(49,54,59)" stroke="none">Necessary</tspan></tspan></tspan></text>
 <text class="TextShape"><tspan class="TextParagraph" font-family="Arial" font-size="353px" font-weight="400"><tspan class="TextPosition" x="3383" y="11304"><tspan fill="rgb(49,54,59)" stroke="none">To introduce</tspan></tspan></tspan></text>
 <text class="TextShape"><tspan class="TextParagraph" font-family="Arial" font-size="353px" font-weight="400"><tspan class="TextPosition" x="3939" y="10646"><tspan fill="rgb(49,54,59)" stroke="none">Oriented</tspan></tspan></tspan></text>
 <text class="TextShape"><tspan class="TextParagraph" font-family="Arial" font-size="353px" font-weight="400"><tspan class="TextPosition" x="3118" y="9988"><tspan fill="rgb(49,54,59)" stroke="none">Self-confident</tspan></tspan></tspan></text>
 <text class="TextShape"><tspan class="TextParagraph" font-family="Arial" font-size="353px" font-weight="400"><tspan class="TextPosition" x="3145" y="9330"><tspan fill="rgb(49,54,59)" stroke="none">Trial and error</tspan></tspan></tspan></text>
 <text class="TextShape"><tspan class="TextParagraph" font-family="Arial" font-size="353px" font-weight="400"><tspan class="TextPosition" x="3674" y="8672"><tspan fill="rgb(49,54,59)" stroke="none">To change</tspan></tspan></tspan></text>
 <text class="TextShape"><tspan class="TextParagraph" font-family="Arial" font-size="353px" font-weight="400"><tspan class="TextPosition" x="3092" y="8014"><tspan fill="rgb(49,54,59)" stroke="none">Psychological</tspan></tspan></tspan></text>
 <text class="TextShape"><tspan class="TextParagraph" font-family="Arial" font-size="353px" font-weight="400"><tspan class="TextPosition" x="605" y="7356"><tspan fill="rgb(49,54,59)" stroke="none">Psychological / system inertia</tspan></tspan></tspan></text>
 <text class="TextShape"><tspan class="TextParagraph" font-family="Arial" font-size="353px" font-weight="400"><tspan class="TextPosition" x="4256" y="6699"><tspan fill="rgb(49,54,59)" stroke="none">Useful</tspan></tspan></tspan></text>
 <text class="TextShape"><tspan class="TextParagraph" font-family="Arial" font-size="353px" font-weight="400"><tspan class="TextPosition" x="2192" y="6041"><tspan fill="rgb(49,54,59)" stroke="none">Formulated problem</tspan></tspan></tspan></text>
 <text class="TextShape"><tspan class="TextParagraph" font-family="Arial" font-size="353px" font-weight="400"><tspan class="TextPosition" x="1478" y="5383"><tspan fill="rgb(49,54,59)" stroke="none">Basic creativity principle</tspan></tspan></tspan></text>
 <text class="TextShape"><tspan class="TextParagraph" font-family="Arial" font-size="353px" font-weight="400"><tspan class="TextPosition" x="3939" y="4725"><tspan fill="rgb(49,54,59)" stroke="none">Thinking</tspan></tspan></tspan></text>
 <text class="TextShape"><tspan class="TextParagraph" font-family="Arial" font-size="353px" font-weight="400"><tspan class="TextPosition" x="4097" y="4067"><tspan fill="rgb(49,54,59)" stroke="none">Method</tspan></tspan></tspan></text>
 <text class="TextShape"><tspan class="TextParagraph" font-family="Arial" font-size="353px" font-weight="400"><tspan class="TextPosition" x="3965" y="3409"><tspan fill="rgb(49,54,59)" stroke="none">To solve</tspan></tspan></tspan></text>
 <text class="TextShape"><tspan class="TextParagraph" font-family="Arial" font-size="353px" font-weight="400"><tspan class="TextPosition" x="3965" y="2751"><tspan fill="rgb(49,54,59)" stroke="none">To apply</tspan></tspan></tspan></text>
 <text class="TextShape"><tspan class="TextParagraph" font-family="Arial" font-size="353px" font-weight="400"><tspan class="TextPosition" x="2801" y="2093"><tspan fill="rgb(49,54,59)" stroke="none">Problem / Issue</tspan></tspan></tspan></text>
 <text class="TextShape"><tspan class="TextParagraph" font-family="Arial" font-size="353px" font-weight="400"><tspan class="TextPosition" x="2245" y="1435"><tspan fill="rgb(49,54,59)" stroke="none">Creative / creativity</tspan></tspan></tspan></text>
 <text class="TextShape"><tspan class="TextParagraph" font-family="Arial" font-size="353px" font-weight="400"><tspan class="TextPosition" x="5392" y="13396"><tspan fill="rgb(49,54,59)" stroke="none">0</tspan></tspan></tspan></text>
 <text class="TextShape"><tspan class="TextParagraph" font-family="Arial" font-size="353px" font-weight="400"><tspan class="TextPosition" x="7638" y="13396"><tspan fill="rgb(49,54,59)" stroke="none">50</tspan></tspan></tspan></text>
 <text class="TextShape"><tspan class="TextParagraph" font-family="Arial" font-size="353px" font-weight="400"><tspan class="TextPosition" x="9883" y="13396"><tspan fill="rgb(49,54,59)" stroke="none">100</tspan></tspan></tspan></text>
 <text class="TextShape"><tspan class="TextParagraph" font-family="Arial" font-size="353px" font-weight="400"><tspan class="TextPosition" x="12222" y="13396"><tspan fill="rgb(49,54,59)" stroke="none">150</tspan></tspan></tspan></text>
 <text class="TextShape"><tspan class="TextParagraph" font-family="Arial" font-size="353px" font-weight="400"><tspan class="TextPosition" x="14560" y="13396"><tspan fill="rgb(49,54,59)" stroke="none">200</tspan></tspan></tspan></text>
 <text class="TextShape"><tspan class="TextParagraph" font-family="Arial" font-size="353px" font-weight="400"><tspan class="TextPosition" x="16899" y="13396"><tspan fill="rgb(49,54,59)" stroke="none">250</tspan></tspan></tspan></text>
 <text class="TextShape"><tspan class="TextParagraph" font-family="Arial" font-size="353px" font-weight="400"><tspan class="TextPosition" x="19237" y="13396"><tspan fill="rgb(49,54,59)" stroke="none">300</tspan></tspan></tspan></text>
 <text class="TextShape"><tspan class="TextParagraph" font-family="Arial" font-size="353px" font-weight="400"><tspan class="TextPosition" x="5233" y="659"><tspan fill="rgb(49,54,59)" stroke="none">0%</tspan></tspan></tspan></text>
 <text class="TextShape"><tspan class="TextParagraph" font-family="Arial" font-size="353px" font-weight="400"><tspan class="TextPosition" x="6717" y="659"><tspan fill="rgb(49,54,59)" stroke="none">10%</tspan></tspan></tspan></text>
 <text class="TextShape"><tspan class="TextParagraph" font-family="Arial" font-size="353px" font-weight="400"><tspan class="TextPosition" x="8293" y="659"><tspan fill="rgb(49,54,59)" stroke="none">20%</tspan></tspan></tspan></text>
 <text class="TextShape"><tspan class="TextParagraph" font-family="Arial" font-size="353px" font-weight="400"><tspan class="TextPosition" x="9869" y="659"><tspan fill="rgb(49,54,59)" stroke="none">30%</tspan></tspan></tspan></text>
 <text class="TextShape"><tspan class="TextParagraph" font-family="Arial" font-size="353px" font-weight="400"><tspan class="TextPosition" x="11445" y="659"><tspan fill="rgb(49,54,59)" stroke="none">40%</tspan></tspan></tspan></text>
 <text class="TextShape"><tspan class="TextParagraph" font-family="Arial" font-size="353px" font-weight="400"><tspan class="TextPosition" x="13021" y="659"><tspan fill="rgb(49,54,59)" stroke="none">50%</tspan></tspan></tspan></text>
 <text class="TextShape"><tspan class="TextParagraph" font-family="Arial" font-size="353px" font-weight="400"><tspan class="TextPosition" x="14597" y="659"><tspan fill="rgb(49,54,59)" stroke="none">60%</tspan></tspan></tspan></text>
 <text class="TextShape"><tspan class="TextParagraph" font-family="Arial" font-size="353px" font-weight="400"><tspan class="TextPosition" x="16173" y="659"><tspan fill="rgb(49,54,59)" stroke="none">70%</tspan></tspan></tspan></text>
 <text class="TextShape"><tspan class="TextParagraph" font-family="Arial" font-size="353px" font-weight="400"><tspan class="TextPosition" x="17749" y="659"><tspan fill="rgb(49,54,59)" stroke="none">80%</tspan></tspan></tspan></text>
 <text class="TextShape"><tspan class="TextParagraph" font-family="Arial" font-size="353px" font-weight="400"><tspan class="TextPosition" x="19325" y="659"><tspan fill="rgb(49,54,59)" stroke="none">90%</tspan></tspan></tspan></text>
 <text class="TextShape"><tspan class="TextParagraph" font-family="Arial" font-size="353px" font-weight="400"><tspan class="TextPosition" x="20809" y="659"><tspan fill="rgb(49,54,59)" stroke="none">100%</tspan></tspan></tspan></text>
 <text class="TextShape"><tspan class="TextParagraph" font-family="Arial" font-size="353px" font-weight="400"><tspan class="TextPosition" x="10121" y="12620"><tspan fill="rgb(49,54,59)" stroke="none">29%</tspan></tspan></tspan></text>
 <text class="TextShape"><tspan class="TextParagraph" font-family="Arial" font-size="353px" font-weight="400"><tspan class="TextPosition" x="10261" y="11962"><tspan fill="rgb(49,54,59)" stroke="none">30%</tspan></tspan></tspan></text>
 <text class="TextShape"><tspan class="TextParagraph" font-family="Arial" font-size="353px" font-weight="400"><tspan class="TextPosition" x="10495" y="11304"><tspan fill="rgb(49,54,59)" stroke="none">31%</tspan></tspan></tspan></text>
 <text class="TextShape"><tspan class="TextParagraph" font-family="Arial" font-size="353px" font-weight="400"><tspan class="TextPosition" x="10636" y="10646"><tspan fill="rgb(49,54,59)" stroke="none">32%</tspan></tspan></tspan></text>
 <text class="TextShape"><tspan class="TextParagraph" font-family="Arial" font-size="353px" font-weight="400"><tspan class="TextPosition" x="10776" y="9988"><tspan fill="rgb(49,54,59)" stroke="none">33%</tspan></tspan></tspan></text>
 <text class="TextShape"><tspan class="TextParagraph" font-family="Arial" font-size="353px" font-weight="400"><tspan class="TextPosition" x="11430" y="9330"><tspan fill="rgb(49,54,59)" stroke="none">37%</tspan></tspan></tspan></text>
 <text class="TextShape"><tspan class="TextParagraph" font-family="Arial" font-size="353px" font-weight="400"><tspan class="TextPosition" x="11804" y="8672"><tspan fill="rgb(49,54,59)" stroke="none">39%</tspan></tspan></tspan></text>
 <text class="TextShape"><tspan class="TextParagraph" font-family="Arial" font-size="353px" font-weight="400"><tspan class="TextPosition" x="12178" y="8014"><tspan fill="rgb(49,54,59)" stroke="none">42%</tspan></tspan></tspan></text>
 <text class="TextShape"><tspan class="TextParagraph" font-family="Arial" font-size="353px" font-weight="400"><tspan class="TextPosition" x="12926" y="7356"><tspan fill="rgb(49,54,59)" stroke="none">47%</tspan></tspan></tspan></text>
 <text class="TextShape"><tspan class="TextParagraph" font-family="Arial" font-size="353px" font-weight="400"><tspan class="TextPosition" x="13066" y="6699"><tspan fill="rgb(49,54,59)" stroke="none">47%</tspan></tspan></tspan></text>
 <text class="TextShape"><tspan class="TextParagraph" font-family="Arial" font-size="353px" font-weight="400"><tspan class="TextPosition" x="14329" y="6041"><tspan fill="rgb(49,54,59)" stroke="none">55%</tspan></tspan></tspan></text>
 <text class="TextShape"><tspan class="TextParagraph" font-family="Arial" font-size="353px" font-weight="400"><tspan class="TextPosition" x="14797" y="5383"><tspan fill="rgb(49,54,59)" stroke="none">58%</tspan></tspan></tspan></text>
 <text class="TextShape"><tspan class="TextParagraph" font-family="Arial" font-size="353px" font-weight="400"><tspan class="TextPosition" x="16013" y="4725"><tspan fill="rgb(49,54,59)" stroke="none">66%</tspan></tspan></tspan></text>
 <text class="TextShape"><tspan class="TextParagraph" font-family="Arial" font-size="353px" font-weight="400"><tspan class="TextPosition" x="17743" y="4067"><tspan fill="rgb(49,54,59)" stroke="none">77%</tspan></tspan></tspan></text>
 <text class="TextShape"><tspan class="TextParagraph" font-family="Arial" font-size="353px" font-weight="400"><tspan class="TextPosition" x="18585" y="3409"><tspan fill="rgb(49,54,59)" stroke="none">82%</tspan></tspan></tspan></text>
 <text class="TextShape"><tspan class="TextParagraph" font-family="Arial" font-size="353px" font-weight="400"><tspan class="TextPosition" x="19053" y="2751"><tspan fill="rgb(49,54,59)" stroke="none">85%</tspan></tspan></tspan></text>
 <text class="TextShape"><tspan class="TextParagraph" font-family="Arial" font-size="353px" font-weight="400"><tspan class="TextPosition" x="19146" y="2093"><tspan fill="rgb(49,54,59)" stroke="none">86%</tspan></tspan></tspan></text>
 <text class="TextShape"><tspan class="TextParagraph" font-family="Arial" font-size="353px" font-weight="400"><tspan class="TextPosition" x="20035" y="1435"><tspan fill="rgb(49,54,59)" stroke="none">92%</tspan></tspan></tspan></text>
</svg>