<?xml version="1.0" encoding="UTF-8"?>
<!DOCTYPE svg PUBLIC "-//W3C//DTD SVG 1.1//EN" "http://www.w3.org/Graphics/SVG/1.1/DTD/svg11.dtd">
<svg width="380mm" height="176mm" viewBox="0 0 38000 17600" version="1.1" xmlns="http://www.w3.org/2000/svg" stroke-width="28.222" stroke-linejoin="round" xml:space="preserve">
 <path fill="rgb(114,159,207)" stroke="none" d="M -1,2 L 37997,2 37997,17574 -1,17574 -1,2 Z"/>
 <path fill="none" stroke="rgb(52,101,164)" stroke-linejoin="round" d="M -1,2 L 37997,2 37997,17574 -1,17574 -1,2 Z"/>
 <path fill="rgb(255,255,255)" stroke="none" d="M 18998,17574 L -1,17574 -1,2 37997,2 37997,17574 18998,17574 Z"/>
 <path fill="none" stroke="rgb(179,179,179)" stroke-linejoin="round" d="M 16783,13126 L 3326,13126 3326,1619 30239,1619 30239,13126 16783,13126 Z"/>
 <path fill="none" stroke="rgb(179,179,179)" stroke-linejoin="round" d="M 30239,13125 L 3326,13125"/>
 <path fill="none" stroke="rgb(179,179,179)" stroke-linejoin="round" d="M 30239,11207 L 3326,11207"/>
 <path fill="none" stroke="rgb(179,179,179)" stroke-linejoin="round" d="M 30239,9289 L 3326,9289"/>
 <path fill="none" stroke="rgb(179,179,179)" stroke-linejoin="round" d="M 30239,7372 L 3326,7372"/>
 <path fill="none" stroke="rgb(179,179,179)" stroke-linejoin="round" d="M 30239,5454 L 3326,5454"/>
 <path fill="none" stroke="rgb(179,179,179)" stroke-linejoin="round" d="M 30239,3536 L 3326,3536"/>
 <path fill="none" stroke="rgb(179,179,179)" stroke-linejoin="round" d="M 30239,1618 L 3326,1618"/>
 <path fill="none" stroke="rgb(179,179,179)" stroke-linejoin="round" d="M 3326,13275 L 3326,13125"/>
 <path fill="none" stroke="rgb(179,179,179)" stroke-linejoin="round" d="M 3911,13275 L 3911,13125"/>
 <path fill="none" stroke="rgb(179,179,179)" stroke-linejoin="round" d="M 4496,13275 L 4496,13125"/>
 <path fill="none" stroke="rgb(179,179,179)" stroke-linejoin="round" d="M 5081,13275 L 5081,13125"/>
 <path fill="none" stroke="rgb(179,179,179)" stroke-linejoin="round" d="M 5666,13275 L 5666,13125"/>
 <path fill="none" stroke="rgb(179,179,179)" stroke-linejoin="round" d="M 6251,13275 L 6251,13125"/>
 <path fill="none" stroke="rgb(179,179,179)" stroke-linejoin="round" d="M 6836,13275 L 6836,13125"/>
 <path fill="none" stroke="rgb(179,179,179)" stroke-linejoin="round" d="M 7421,13275 L 7421,13125"/>
 <path fill="none" stroke="rgb(179,179,179)" stroke-linejoin="round" d="M 8006,13275 L 8006,13125"/>
 <path fill="none" stroke="rgb(179,179,179)" stroke-linejoin="round" d="M 8591,13275 L 8591,13125"/>
 <path fill="none" stroke="rgb(179,179,179)" stroke-linejoin="round" d="M 9176,13275 L 9176,13125"/>
 <path fill="none" stroke="rgb(179,179,179)" stroke-linejoin="round" d="M 9761,13275 L 9761,13125"/>
 <path fill="none" stroke="rgb(179,179,179)" stroke-linejoin="round" d="M 10347,13275 L 10347,13125"/>
 <path fill="none" stroke="rgb(179,179,179)" stroke-linejoin="round" d="M 10932,13275 L 10932,13125"/>
 <path fill="none" stroke="rgb(179,179,179)" stroke-linejoin="round" d="M 11517,13275 L 11517,13125"/>
 <path fill="none" stroke="rgb(179,179,179)" stroke-linejoin="round" d="M 12102,13275 L 12102,13125"/>
 <path fill="none" stroke="rgb(179,179,179)" stroke-linejoin="round" d="M 12687,13275 L 12687,13125"/>
 <path fill="none" stroke="rgb(179,179,179)" stroke-linejoin="round" d="M 13272,13275 L 13272,13125"/>
 <path fill="none" stroke="rgb(179,179,179)" stroke-linejoin="round" d="M 13857,13275 L 13857,13125"/>
 <path fill="none" stroke="rgb(179,179,179)" stroke-linejoin="round" d="M 14442,13275 L 14442,13125"/>
 <path fill="none" stroke="rgb(179,179,179)" stroke-linejoin="round" d="M 15027,13275 L 15027,13125"/>
 <path fill="none" stroke="rgb(179,179,179)" stroke-linejoin="round" d="M 15612,13275 L 15612,13125"/>
 <path fill="none" stroke="rgb(179,179,179)" stroke-linejoin="round" d="M 16197,13275 L 16197,13125"/>
 <path fill="none" stroke="rgb(179,179,179)" stroke-linejoin="round" d="M 16783,13275 L 16783,13125"/>
 <path fill="none" stroke="rgb(179,179,179)" stroke-linejoin="round" d="M 17368,13275 L 17368,13125"/>
 <path fill="none" stroke="rgb(179,179,179)" stroke-linejoin="round" d="M 17953,13275 L 17953,13125"/>
 <path fill="none" stroke="rgb(179,179,179)" stroke-linejoin="round" d="M 18538,13275 L 18538,13125"/>
 <path fill="none" stroke="rgb(179,179,179)" stroke-linejoin="round" d="M 19122,13275 L 19122,13125"/>
 <path fill="none" stroke="rgb(179,179,179)" stroke-linejoin="round" d="M 19707,13275 L 19707,13125"/>
 <path fill="none" stroke="rgb(179,179,179)" stroke-linejoin="round" d="M 20292,13275 L 20292,13125"/>
 <path fill="none" stroke="rgb(179,179,179)" stroke-linejoin="round" d="M 20877,13275 L 20877,13125"/>
 <path fill="none" stroke="rgb(179,179,179)" stroke-linejoin="round" d="M 21462,13275 L 21462,13125"/>
 <path fill="none" stroke="rgb(179,179,179)" stroke-linejoin="round" d="M 22047,13275 L 22047,13125"/>
 <path fill="none" stroke="rgb(179,179,179)" stroke-linejoin="round" d="M 22632,13275 L 22632,13125"/>
 <path fill="none" stroke="rgb(179,179,179)" stroke-linejoin="round" d="M 23217,13275 L 23217,13125"/>
 <path fill="none" stroke="rgb(179,179,179)" stroke-linejoin="round" d="M 23803,13275 L 23803,13125"/>
 <path fill="none" stroke="rgb(179,179,179)" stroke-linejoin="round" d="M 24388,13275 L 24388,13125"/>
 <path fill="none" stroke="rgb(179,179,179)" stroke-linejoin="round" d="M 24973,13275 L 24973,13125"/>
 <path fill="none" stroke="rgb(179,179,179)" stroke-linejoin="round" d="M 25558,13275 L 25558,13125"/>
 <path fill="none" stroke="rgb(179,179,179)" stroke-linejoin="round" d="M 26143,13275 L 26143,13125"/>
 <path fill="none" stroke="rgb(179,179,179)" stroke-linejoin="round" d="M 26728,13275 L 26728,13125"/>
 <path fill="none" stroke="rgb(179,179,179)" stroke-linejoin="round" d="M 27313,13275 L 27313,13125"/>
 <path fill="none" stroke="rgb(179,179,179)" stroke-linejoin="round" d="M 27898,13275 L 27898,13125"/>
 <path fill="none" stroke="rgb(179,179,179)" stroke-linejoin="round" d="M 28483,13275 L 28483,13125"/>
 <path fill="none" stroke="rgb(179,179,179)" stroke-linejoin="round" d="M 29068,13275 L 29068,13125"/>
 <path fill="none" stroke="rgb(179,179,179)" stroke-linejoin="round" d="M 29653,13275 L 29653,13125"/>
 <path fill="none" stroke="rgb(179,179,179)" stroke-linejoin="round" d="M 30239,13275 L 30239,13125"/>
 <path fill="none" stroke="rgb(179,179,179)" stroke-linejoin="round" d="M 3326,13125 L 30239,13125"/>
 <path fill="none" stroke="rgb(179,179,179)" stroke-linejoin="round" d="M 3176,13125 L 3326,13125"/>
 <path fill="none" stroke="rgb(179,179,179)" stroke-linejoin="round" d="M 3176,11207 L 3326,11207"/>
 <path fill="none" stroke="rgb(179,179,179)" stroke-linejoin="round" d="M 3176,9289 L 3326,9289"/>
 <path fill="none" stroke="rgb(179,179,179)" stroke-linejoin="round" d="M 3176,7372 L 3326,7372"/>
 <path fill="none" stroke="rgb(179,179,179)" stroke-linejoin="round" d="M 3176,5454 L 3326,5454"/>
 <path fill="none" stroke="rgb(179,179,179)" stroke-linejoin="round" d="M 3176,3536 L 3326,3536"/>
 <path fill="none" stroke="rgb(179,179,179)" stroke-linejoin="round" d="M 3176,1618 L 3326,1618"/>
 <path fill="none" stroke="rgb(179,179,179)" stroke-linejoin="round" d="M 3326,13125 L 3326,1618"/>
 <path fill="rgb(0,69,134)" stroke="none" d="M 25046,13125 L 25192,13125 25192,12933 25046,12933 25046,13125 Z"/>
 <path fill="rgb(0,69,134)" stroke="none" d="M 22120,13125 L 22267,13125 22267,12933 22120,12933 22120,13125 Z"/>
 <path fill="rgb(0,69,134)" stroke="none" d="M 21535,13125 L 21682,13125 21682,12933 21535,12933 21535,13125 Z"/>
 <path fill="rgb(0,69,134)" stroke="none" d="M 20950,13125 L 21097,13125 21097,12741 20950,12741 20950,13125 Z"/>
 <path fill="rgb(0,69,134)" stroke="none" d="M 19780,13125 L 19926,13125 19926,12549 19780,12549 19780,13125 Z"/>
 <path fill="rgb(0,69,134)" stroke="none" d="M 19195,13125 L 19341,13125 19341,12741 19195,12741 19195,13125 Z"/>
 <path fill="rgb(0,69,134)" stroke="none" d="M 18026,13125 L 18172,13125 18172,11398 18026,11398 18026,13125 Z"/>
 <path fill="rgb(0,69,134)" stroke="none" d="M 16271,13125 L 16417,13125 16417,12741 16271,12741 16271,13125 Z"/>
 <path fill="rgb(0,69,134)" stroke="none" d="M 15685,13125 L 15832,13125 15832,12933 15685,12933 15685,13125 Z"/>
 <path fill="rgb(0,69,134)" stroke="none" d="M 15100,13125 L 15247,13125 15247,12166 15100,12166 15100,13125 Z"/>
 <path fill="rgb(0,69,134)" stroke="none" d="M 14515,13125 L 14662,13125 14662,12549 14515,12549 14515,13125 Z"/>
 <path fill="rgb(0,69,134)" stroke="none" d="M 13930,13125 L 14076,13125 14076,12549 13930,12549 13930,13125 Z"/>
 <path fill="rgb(0,69,134)" stroke="none" d="M 13345,13125 L 13491,13125 13491,12741 13345,12741 13345,13125 Z"/>
 <path fill="rgb(0,69,134)" stroke="none" d="M 12760,13125 L 12906,13125 12906,11590 12760,11590 12760,13125 Z"/>
 <path fill="rgb(0,69,134)" stroke="none" d="M 12175,13125 L 12321,13125 12321,12166 12175,12166 12175,13125 Z"/>
 <path fill="rgb(0,69,134)" stroke="none" d="M 11590,13125 L 11736,13125 11736,11974 11590,11974 11590,13125 Z"/>
 <path fill="rgb(0,69,134)" stroke="none" d="M 10420,13125 L 10566,13125 10566,12741 10420,12741 10420,13125 Z"/>
 <path fill="rgb(0,69,134)" stroke="none" d="M 9835,13125 L 9981,13125 9981,12741 9835,12741 9835,13125 Z"/>
 <path fill="rgb(0,69,134)" stroke="none" d="M 9250,13125 L 9396,13125 9396,10631 9250,10631 9250,13125 Z"/>
 <path fill="rgb(0,69,134)" stroke="none" d="M 8079,13125 L 8226,13125 8226,12549 8079,12549 8079,13125 Z"/>
 <path fill="rgb(0,69,134)" stroke="none" d="M 7494,13125 L 7641,13125 7641,12741 7494,12741 7494,13125 Z"/>
 <path fill="rgb(0,69,134)" stroke="none" d="M 6909,13125 L 7055,13125 7055,11782 6909,11782 6909,13125 Z"/>
 <path fill="rgb(0,69,134)" stroke="none" d="M 6324,13125 L 6470,13125 6470,12549 6324,12549 6324,13125 Z"/>
 <path fill="rgb(0,69,134)" stroke="none" d="M 5739,13125 L 5885,13125 5885,12741 5739,12741 5739,13125 Z"/>
 <path fill="rgb(0,69,134)" stroke="none" d="M 5154,13125 L 5300,13125 5300,12166 5154,12166 5154,13125 Z"/>
 <path fill="rgb(0,69,134)" stroke="none" d="M 4569,13125 L 4715,13125 4715,12357 4569,12357 4569,13125 Z"/>
 <path fill="rgb(0,69,134)" stroke="none" d="M 3984,13125 L 4130,13125 4130,11782 3984,11782 3984,13125 Z"/>
 <path fill="rgb(0,69,134)" stroke="none" d="M 3399,13125 L 3545,13125 3545,11974 3399,11974 3399,13125 Z"/>
 <path fill="rgb(255,66,14)" stroke="none" d="M 25777,13125 L 25923,13125 25923,12741 25777,12741 25777,13125 Z"/>
 <path fill="rgb(255,66,14)" stroke="none" d="M 25192,13125 L 25338,13125 25338,12166 25192,12166 25192,13125 Z"/>
 <path fill="rgb(255,66,14)" stroke="none" d="M 24022,13125 L 24168,13125 24168,12933 24022,12933 24022,13125 Z"/>
 <path fill="rgb(255,66,14)" stroke="none" d="M 21097,13125 L 21243,13125 21243,11974 21097,11974 21097,13125 Z"/>
 <path fill="rgb(255,66,14)" stroke="none" d="M 20511,13125 L 20658,13125 20658,12933 20511,12933 20511,13125 Z"/>
 <path fill="rgb(255,66,14)" stroke="none" d="M 19926,13125 L 20073,13125 20073,11782 19926,11782 19926,13125 Z"/>
 <path fill="rgb(255,66,14)" stroke="none" d="M 19341,13125 L 19488,13125 19488,10823 19341,10823 19341,13125 Z"/>
 <path fill="rgb(255,66,14)" stroke="none" d="M 18757,13125 L 18903,13125 18903,12357 18757,12357 18757,13125 Z"/>
 <path fill="rgb(255,66,14)" stroke="none" d="M 18172,13125 L 18318,13125 18318,10248 18172,10248 18172,13125 Z"/>
 <path fill="rgb(255,66,14)" stroke="none" d="M 17587,13125 L 17733,13125 17733,11974 17587,11974 17587,13125 Z"/>
 <path fill="rgb(255,66,14)" stroke="none" d="M 16417,13125 L 16563,13125 16563,11974 16417,11974 16417,13125 Z"/>
 <path fill="rgb(255,66,14)" stroke="none" d="M 15832,13125 L 15978,13125 15978,12741 15832,12741 15832,13125 Z"/>
 <path fill="rgb(255,66,14)" stroke="none" d="M 15247,13125 L 15393,13125 15393,9864 15247,9864 15247,13125 Z"/>
 <path fill="rgb(255,66,14)" stroke="none" d="M 14662,13125 L 14808,13125 14808,12741 14662,12741 14662,13125 Z"/>
 <path fill="rgb(255,66,14)" stroke="none" d="M 14076,13125 L 14223,13125 14223,11782 14076,11782 14076,13125 Z"/>
 <path fill="rgb(255,66,14)" stroke="none" d="M 13491,13125 L 13638,13125 13638,12741 13491,12741 13491,13125 Z"/>
 <path fill="rgb(255,66,14)" stroke="none" d="M 12906,13125 L 13053,13125 13053,8331 12906,8331 12906,13125 Z"/>
 <path fill="rgb(255,66,14)" stroke="none" d="M 12321,13125 L 12467,13125 12467,10056 12321,10056 12321,13125 Z"/>
 <path fill="rgb(255,66,14)" stroke="none" d="M 11736,13125 L 11882,13125 11882,10056 11736,10056 11736,13125 Z"/>
 <path fill="rgb(255,66,14)" stroke="none" d="M 11151,13125 L 11297,13125 11297,12549 11151,12549 11151,13125 Z"/>
 <path fill="rgb(255,66,14)" stroke="none" d="M 10566,13125 L 10712,13125 10712,11782 10566,11782 10566,13125 Z"/>
 <path fill="rgb(255,66,14)" stroke="none" d="M 9981,13125 L 10127,13125 10127,11398 9981,11398 9981,13125 Z"/>
 <path fill="rgb(255,66,14)" stroke="none" d="M 9396,13125 L 9542,13125 9542,5837 9396,5837 9396,13125 Z"/>
 <path fill="rgb(255,66,14)" stroke="none" d="M 8226,13125 L 8372,13125 8372,12166 8226,12166 8226,13125 Z"/>
 <path fill="rgb(255,66,14)" stroke="none" d="M 7641,13125 L 7787,13125 7787,10631 7641,10631 7641,13125 Z"/>
 <path fill="rgb(255,66,14)" stroke="none" d="M 7055,13125 L 7202,13125 7202,9097 7055,9097 7055,13125 Z"/>
 <path fill="rgb(255,66,14)" stroke="none" d="M 6470,13125 L 6617,13125 6617,11974 6470,11974 6470,13125 Z"/>
 <path fill="rgb(255,66,14)" stroke="none" d="M 5885,13125 L 6032,13125 6032,11974 5885,11974 5885,13125 Z"/>
 <path fill="rgb(255,66,14)" stroke="none" d="M 5300,13125 L 5446,13125 5446,10631 5300,10631 5300,13125 Z"/>
 <path fill="rgb(255,66,14)" stroke="none" d="M 4715,13125 L 4861,13125 4861,12166 4715,12166 4715,13125 Z"/>
 <path fill="rgb(255,66,14)" stroke="none" d="M 4130,13125 L 4276,13125 4276,10248 4130,10248 4130,13125 Z"/>
 <path fill="rgb(255,66,14)" stroke="none" d="M 3545,13125 L 3691,13125 3691,11590 3545,11590 3545,13125 Z"/>
 <path fill="rgb(255,211,32)" stroke="none" d="M 25923,13125 L 26070,13125 26070,12741 25923,12741 25923,13125 Z"/>
 <path fill="rgb(255,211,32)" stroke="none" d="M 25338,13125 L 25485,13125 25485,11974 25338,11974 25338,13125 Z"/>
 <path fill="rgb(255,211,32)" stroke="none" d="M 24168,13125 L 24314,13125 24314,12933 24168,12933 24168,13125 Z"/>
 <path fill="rgb(255,211,32)" stroke="none" d="M 22413,13125 L 22559,13125 22559,12933 22413,12933 22413,13125 Z"/>
 <path fill="rgb(255,211,32)" stroke="none" d="M 21828,13125 L 21974,13125 21974,12933 21828,12933 21828,13125 Z"/>
 <path fill="rgb(255,211,32)" stroke="none" d="M 21243,13125 L 21389,13125 21389,11590 21243,11590 21243,13125 Z"/>
 <path fill="rgb(255,211,32)" stroke="none" d="M 20658,13125 L 20804,13125 20804,12933 20658,12933 20658,13125 Z"/>
 <path fill="rgb(255,211,32)" stroke="none" d="M 20073,13125 L 20219,13125 20219,11207 20073,11207 20073,13125 Z"/>
 <path fill="rgb(255,211,32)" stroke="none" d="M 19488,13125 L 19634,13125 19634,10439 19488,10439 19488,13125 Z"/>
 <path fill="rgb(255,211,32)" stroke="none" d="M 18903,13125 L 19049,13125 19049,12357 18903,12357 18903,13125 Z"/>
 <path fill="rgb(255,211,32)" stroke="none" d="M 18318,13125 L 18465,13125 18465,8522 18318,8522 18318,13125 Z"/>
 <path fill="rgb(255,211,32)" stroke="none" d="M 17733,13125 L 17880,13125 17880,11974 17733,11974 17733,13125 Z"/>
 <path fill="rgb(255,211,32)" stroke="none" d="M 16563,13125 L 16709,13125 16709,11590 16563,11590 16563,13125 Z"/>
 <path fill="rgb(255,211,32)" stroke="none" d="M 15978,13125 L 16124,13125 16124,12549 15978,12549 15978,13125 Z"/>
 <path fill="rgb(255,211,32)" stroke="none" d="M 15393,13125 L 15539,13125 15539,8905 15393,8905 15393,13125 Z"/>
 <path fill="rgb(255,211,32)" stroke="none" d="M 14808,13125 L 14954,13125 14954,12166 14808,12166 14808,13125 Z"/>
 <path fill="rgb(255,211,32)" stroke="none" d="M 14223,13125 L 14369,13125 14369,11207 14223,11207 14223,13125 Z"/>
 <path fill="rgb(255,211,32)" stroke="none" d="M 13638,13125 L 13784,13125 13784,12357 13638,12357 13638,13125 Z"/>
 <path fill="rgb(255,211,32)" stroke="none" d="M 13053,13125 L 13199,13125 13199,6796 13053,6796 13053,13125 Z"/>
 <path fill="rgb(255,211,32)" stroke="none" d="M 12467,13125 L 12614,13125 12614,9097 12467,9097 12467,13125 Z"/>
 <path fill="rgb(255,211,32)" stroke="none" d="M 11882,13125 L 12029,13125 12029,8905 11882,8905 11882,13125 Z"/>
 <path fill="rgb(255,211,32)" stroke="none" d="M 11297,13125 L 11444,13125 11444,12549 11297,12549 11297,13125 Z"/>
 <path fill="rgb(255,211,32)" stroke="none" d="M 10712,13125 L 10858,13125 10858,11398 10712,11398 10712,13125 Z"/>
 <path fill="rgb(255,211,32)" stroke="none" d="M 10127,13125 L 10273,13125 10273,11015 10127,11015 10127,13125 Z"/>
 <path fill="rgb(255,211,32)" stroke="none" d="M 9542,13125 L 9688,13125 9688,3344 9542,3344 9542,13125 Z"/>
 <path fill="rgb(255,211,32)" stroke="none" d="M 8372,13125 L 8518,13125 8518,11590 8372,11590 8372,13125 Z"/>
 <path fill="rgb(255,211,32)" stroke="none" d="M 7787,13125 L 7933,13125 7933,10248 7787,10248 7787,13125 Z"/>
 <path fill="rgb(255,211,32)" stroke="none" d="M 7202,13125 L 7348,13125 7348,7755 7202,7755 7202,13125 Z"/>
 <path fill="rgb(255,211,32)" stroke="none" d="M 6617,13125 L 6763,13125 6763,11398 6617,11398 6617,13125 Z"/>
 <path fill="rgb(255,211,32)" stroke="none" d="M 6032,13125 L 6178,13125 6178,11590 6032,11590 6032,13125 Z"/>
 <path fill="rgb(255,211,32)" stroke="none" d="M 5446,13125 L 5593,13125 5593,9672 5446,9672 5446,13125 Z"/>
 <path fill="rgb(255,211,32)" stroke="none" d="M 4861,13125 L 5008,13125 5008,11398 4861,11398 4861,13125 Z"/>
 <path fill="rgb(255,211,32)" stroke="none" d="M 4276,13125 L 4423,13125 4423,8905 4276,8905 4276,13125 Z"/>
 <path fill="rgb(255,211,32)" stroke="none" d="M 3691,13125 L 3837,13125 3837,10439 3691,10439 3691,13125 Z"/>
 <text class="TextShape" transform="translate(1025,16276) rotate(-44.9) translate(-1025,-16276)"><tspan class="TextParagraph" font-family="Arial, sans-serif" font-size="353px" font-weight="400"><tspan class="TextPosition" x="1025" y="16276"><tspan fill="rgb(49,54,59)" stroke="none">Method of Focal Objects</tspan></tspan></tspan></text>
 <text class="TextShape" transform="translate(918,16968) rotate(-44.9) translate(-918,-16968)"><tspan class="TextParagraph" font-family="Arial, sans-serif" font-size="353px" font-weight="400"><tspan class="TextPosition" x="918" y="16968"><tspan fill="rgb(49,54,59)" stroke="none">Morphological Analysis Method</tspan></tspan></tspan></text>
 <text class="TextShape" transform="translate(2589,15882) rotate(-44.9) translate(-2589,-15882)"><tspan class="TextParagraph" font-family="Arial, sans-serif" font-size="353px" font-weight="400"><tspan class="TextPosition" x="2589" y="15882"><tspan fill="rgb(49,54,59)" stroke="none">Check-listing Method</tspan></tspan></tspan></text>
 <text class="TextShape" transform="translate(3959,15098) rotate(-44.9) translate(-3959,-15098)"><tspan class="TextParagraph" font-family="Arial, sans-serif" font-size="353px" font-weight="400"><tspan class="TextPosition" x="3959" y="15098"><tspan fill="rgb(49,54,59)" stroke="none">Brainstorming</tspan></tspan></tspan></text>
 <text class="TextShape" transform="translate(4955,14686) rotate(-44.9) translate(-4955,-14686)"><tspan class="TextParagraph" font-family="Arial, sans-serif" font-size="353px" font-weight="400"><tspan class="TextPosition" x="4955" y="14686"><tspan fill="rgb(49,54,59)" stroke="none">Synectics</tspan></tspan></tspan></text>
 <text class="TextShape" transform="translate(3914,16312) rotate(-44.9) translate(-3914,-16312)"><tspan class="TextParagraph" font-family="Arial, sans-serif" font-size="353px" font-weight="400"><tspan class="TextPosition" x="3914" y="16312"><tspan fill="rgb(49,54,59)" stroke="none">(11) separation principles</tspan></tspan></tspan></text>
 <text class="TextShape" transform="translate(5752,15060) rotate(-44.9) translate(-5752,-15060)"><tspan class="TextParagraph" font-family="Arial, sans-serif" font-size="353px" font-weight="400"><tspan class="TextPosition" x="5752" y="15060"><tspan fill="rgb(49,54,59)" stroke="none">segmentation</tspan></tspan></tspan></text>
 <text class="TextShape" transform="translate(6731,14666) rotate(-44.9) translate(-6731,-14666)"><tspan class="TextParagraph" font-family="Arial, sans-serif" font-size="353px" font-weight="400"><tspan class="TextPosition" x="6731" y="14666"><tspan fill="rgb(49,54,59)" stroke="none">taking out</tspan></tspan></tspan></text>
 <text class="TextShape" transform="translate(7090,14892) rotate(-44.9) translate(-7090,-14892)"><tspan class="TextParagraph" font-family="Arial, sans-serif" font-size="353px" font-weight="400"><tspan class="TextPosition" x="7090" y="14892"><tspan fill="rgb(49,54,59)" stroke="none">local quality</tspan></tspan></tspan></text>
 <text class="TextShape" transform="translate(7751,14816) rotate(-44.9) translate(-7751,-14816)"><tspan class="TextParagraph" font-family="Arial, sans-serif" font-size="353px" font-weight="400"><tspan class="TextPosition" x="7751" y="14816"><tspan fill="rgb(49,54,59)" stroke="none">asymmetry</tspan></tspan></tspan></text>
 <text class="TextShape" transform="translate(8691,14461) rotate(-44.9) translate(-8691,-14461)"><tspan class="TextParagraph" font-family="Arial, sans-serif" font-size="353px" font-weight="400"><tspan class="TextPosition" x="8691" y="14461"><tspan fill="rgb(49,54,59)" stroke="none">merging</tspan></tspan></tspan></text>
 <text class="TextShape" transform="translate(8903,14835) rotate(-44.9) translate(-8903,-14835)"><tspan class="TextParagraph" font-family="Arial, sans-serif" font-size="353px" font-weight="400"><tspan class="TextPosition" x="8903" y="14835"><tspan fill="rgb(49,54,59)" stroke="none">universality</tspan></tspan></tspan></text>
 <text class="TextShape" transform="translate(9936,14386) rotate(-44.9) translate(-9936,-14386)"><tspan class="TextParagraph" font-family="Arial, sans-serif" font-size="353px" font-weight="400"><tspan class="TextPosition" x="9936" y="14386"><tspan fill="rgb(49,54,59)" stroke="none">nesting</tspan></tspan></tspan></text>
 <text class="TextShape" transform="translate(10147,14760) rotate(-44.9) translate(-10147,-14760)"><tspan class="TextParagraph" font-family="Arial, sans-serif" font-size="353px" font-weight="400"><tspan class="TextPosition" x="10147" y="14760"><tspan fill="rgb(49,54,59)" stroke="none">anti-weight</tspan></tspan></tspan></text>
 <text class="TextShape" transform="translate(9516,15976) rotate(-44.9) translate(-9516,-15976)"><tspan class="TextParagraph" font-family="Arial, sans-serif" font-size="353px" font-weight="400"><tspan class="TextPosition" x="9516" y="15976"><tspan fill="rgb(49,54,59)" stroke="none">preliminary anti-action</tspan></tspan></tspan></text>
 <text class="TextShape" transform="translate(10568,15509) rotate(-44.9) translate(-10568,-15509)"><tspan class="TextParagraph" font-family="Arial, sans-serif" font-size="353px" font-weight="400"><tspan class="TextPosition" x="10568" y="15509"><tspan fill="rgb(49,54,59)" stroke="none">preliminary action</tspan></tspan></tspan></text>
 <text class="TextShape" transform="translate(10630,16032) rotate(-44.9) translate(-10630,-16032)"><tspan class="TextParagraph" font-family="Arial, sans-serif" font-size="353px" font-weight="400"><tspan class="TextPosition" x="10630" y="16032"><tspan fill="rgb(49,54,59)" stroke="none">beforehand cushioning</tspan></tspan></tspan></text>
 <text class="TextShape" transform="translate(12020,15228) rotate(-44.9) translate(-12020,-15228)"><tspan class="TextParagraph" font-family="Arial, sans-serif" font-size="353px" font-weight="400"><tspan class="TextPosition" x="12020" y="15228"><tspan fill="rgb(49,54,59)" stroke="none">equipotentiality</tspan></tspan></tspan></text>
 <text class="TextShape" transform="translate(13241,14592) rotate(-44.9) translate(-13241,-14592)"><tspan class="TextParagraph" font-family="Arial, sans-serif" font-size="353px" font-weight="400"><tspan class="TextPosition" x="13241" y="14592"><tspan fill="rgb(49,54,59)" stroke="none">reversing</tspan></tspan></tspan></text>
 <text class="TextShape" transform="translate(13452,14966) rotate(-44.9) translate(-13452,-14966)"><tspan class="TextParagraph" font-family="Arial, sans-serif" font-size="353px" font-weight="400"><tspan class="TextPosition" x="13452" y="14966"><tspan fill="rgb(49,54,59)" stroke="none">spheroidality</tspan></tspan></tspan></text>
 <text class="TextShape" transform="translate(14355,14648) rotate(-44.9) translate(-14355,-14648)"><tspan class="TextParagraph" font-family="Arial, sans-serif" font-size="353px" font-weight="400"><tspan class="TextPosition" x="14355" y="14648"><tspan fill="rgb(49,54,59)" stroke="none">dynamics</tspan></tspan></tspan></text>
 <text class="TextShape" transform="translate(13013,16576) rotate(-44.9) translate(-13013,-16576)"><tspan class="TextParagraph" font-family="Arial, sans-serif" font-size="353px" font-weight="400"><tspan class="TextPosition" x="13013" y="16576"><tspan fill="rgb(49,54,59)" stroke="none">partial or excessive actions</tspan></tspan></tspan></text>
 <text class="TextShape" transform="translate(13448,16726) rotate(-44.9) translate(-13448,-16726)"><tspan class="TextParagraph" font-family="Arial, sans-serif" font-size="353px" font-weight="400"><tspan class="TextPosition" x="13448" y="16726"><tspan fill="rgb(49,54,59)" stroke="none">change to another dimension</tspan></tspan></tspan></text>
 <text class="TextShape" transform="translate(14931,15828) rotate(-44.9) translate(-14931,-15828)"><tspan class="TextParagraph" font-family="Arial, sans-serif" font-size="353px" font-weight="400"><tspan class="TextPosition" x="14931" y="15828"><tspan fill="rgb(49,54,59)" stroke="none">mechanical vibration</tspan></tspan></tspan></text>
 <text class="TextShape" transform="translate(16171,15172) rotate(-44.9) translate(-16171,-15172)"><tspan class="TextParagraph" font-family="Arial, sans-serif" font-size="353px" font-weight="400"><tspan class="TextPosition" x="16171" y="15172"><tspan fill="rgb(49,54,59)" stroke="none">periodic action</tspan></tspan></tspan></text>
 <text class="TextShape" transform="translate(15410,16519) rotate(-44.9) translate(-15410,-16519)"><tspan class="TextParagraph" font-family="Arial, sans-serif" font-size="353px" font-weight="400"><tspan class="TextPosition" x="15410" y="16519"><tspan fill="rgb(49,54,59)" stroke="none">continuity of useful actions</tspan></tspan></tspan></text>
 <text class="TextShape" transform="translate(18015,14498) rotate(-44.9) translate(-18015,-14498)"><tspan class="TextParagraph" font-family="Arial, sans-serif" font-size="353px" font-weight="400"><tspan class="TextPosition" x="18015" y="14498"><tspan fill="rgb(49,54,59)" stroke="none">skipping</tspan></tspan></tspan></text>
 <text class="TextShape" transform="translate(17366,15733) rotate(-44.9) translate(-17366,-15733)"><tspan class="TextParagraph" font-family="Arial, sans-serif" font-size="353px" font-weight="400"><tspan class="TextPosition" x="17366" y="15733"><tspan fill="rgb(49,54,59)" stroke="none">blessing in disguise</tspan></tspan></tspan></text>
 <text class="TextShape" transform="translate(19091,14592) rotate(-44.9) translate(-19091,-14592)"><tspan class="TextParagraph" font-family="Arial, sans-serif" font-size="353px" font-weight="400"><tspan class="TextPosition" x="19091" y="14592"><tspan fill="rgb(49,54,59)" stroke="none">feedback</tspan></tspan></tspan></text>
 <text class="TextShape" transform="translate(19340,14930) rotate(-44.9) translate(-19340,-14930)"><tspan class="TextParagraph" font-family="Arial, sans-serif" font-size="353px" font-weight="400"><tspan class="TextPosition" x="19340" y="14930"><tspan fill="rgb(49,54,59)" stroke="none">intermediary</tspan></tspan></tspan></text>
 <text class="TextShape" transform="translate(20000,14854) rotate(-44.9) translate(-20000,-14854)"><tspan class="TextParagraph" font-family="Arial, sans-serif" font-size="353px" font-weight="400"><tspan class="TextPosition" x="20000" y="14854"><tspan fill="rgb(49,54,59)" stroke="none">self-service</tspan></tspan></tspan></text>
 <text class="TextShape" transform="translate(20997,14442) rotate(-44.9) translate(-20997,-14442)"><tspan class="TextParagraph" font-family="Arial, sans-serif" font-size="353px" font-weight="400"><tspan class="TextPosition" x="20997" y="14442"><tspan fill="rgb(49,54,59)" stroke="none">copying</tspan></tspan></tspan></text>
 <text class="TextShape" transform="translate(19655,16370) rotate(-44.9) translate(-19655,-16370)"><tspan class="TextParagraph" font-family="Arial, sans-serif" font-size="353px" font-weight="400"><tspan class="TextPosition" x="19655" y="16370"><tspan fill="rgb(49,54,59)" stroke="none">cheap short-living objects</tspan></tspan></tspan></text>
 <text class="TextShape" transform="translate(20502,16108) rotate(-44.9) translate(-20502,-16108)"><tspan class="TextParagraph" font-family="Arial, sans-serif" font-size="353px" font-weight="400"><tspan class="TextPosition" x="20502" y="16108"><tspan fill="rgb(49,54,59)" stroke="none">mechanics substitution</tspan></tspan></tspan></text>
 <text class="TextShape" transform="translate(20694,16500) rotate(-44.9) translate(-20694,-16500)"><tspan class="TextParagraph" font-family="Arial, sans-serif" font-size="353px" font-weight="400"><tspan class="TextPosition" x="20694" y="16500"><tspan fill="rgb(49,54,59)" stroke="none">pneumatics and hydraulics</tspan></tspan></tspan></text>
 <text class="TextShape" transform="translate(21167,16612) rotate(-44.9) translate(-21167,-16612)"><tspan class="TextParagraph" font-family="Arial, sans-serif" font-size="353px" font-weight="400"><tspan class="TextPosition" x="21167" y="16612"><tspan fill="rgb(49,54,59)" stroke="none">flexible shells and thin films</tspan></tspan></tspan></text>
 <text class="TextShape" transform="translate(22968,15396) rotate(-44.9) translate(-22968,-15396)"><tspan class="TextParagraph" font-family="Arial, sans-serif" font-size="353px" font-weight="400"><tspan class="TextPosition" x="22968" y="15396"><tspan fill="rgb(49,54,59)" stroke="none">porous materials</tspan></tspan></tspan></text>
 <text class="TextShape" transform="translate(23965,14984) rotate(-44.9) translate(-23965,-14984)"><tspan class="TextParagraph" font-family="Arial, sans-serif" font-size="353px" font-weight="400"><tspan class="TextPosition" x="23965" y="14984"><tspan fill="rgb(49,54,59)" stroke="none">color change</tspan></tspan></tspan></text>
 <text class="TextShape" transform="translate(24550,14984) rotate(-44.9) translate(-24550,-14984)"><tspan class="TextParagraph" font-family="Arial, sans-serif" font-size="353px" font-weight="400"><tspan class="TextPosition" x="24550" y="14984"><tspan fill="rgb(49,54,59)" stroke="none">homogeneity</tspan></tspan></tspan></text>
 <text class="TextShape" transform="translate(23750,16370) rotate(-44.9) translate(-23750,-16370)"><tspan class="TextParagraph" font-family="Arial, sans-serif" font-size="353px" font-weight="400"><tspan class="TextPosition" x="23750" y="16370"><tspan fill="rgb(49,54,59)" stroke="none">discarding and recovering</tspan></tspan></tspan></text>
 <text class="TextShape" transform="translate(25028,15678) rotate(-44.9) translate(-25028,-15678)"><tspan class="TextParagraph" font-family="Arial, sans-serif" font-size="353px" font-weight="400"><tspan class="TextPosition" x="25028" y="15678"><tspan fill="rgb(49,54,59)" stroke="none">parameter changes</tspan></tspan></tspan></text>
 <text class="TextShape" transform="translate(25838,15452) rotate(-44.9) translate(-25838,-15452)"><tspan class="TextParagraph" font-family="Arial, sans-serif" font-size="353px" font-weight="400"><tspan class="TextPosition" x="25838" y="15452"><tspan fill="rgb(49,54,59)" stroke="none">phase transitions</tspan></tspan></tspan></text>
 <text class="TextShape" transform="translate(26291,15584) rotate(-44.9) translate(-26291,-15584)"><tspan class="TextParagraph" font-family="Arial, sans-serif" font-size="353px" font-weight="400"><tspan class="TextPosition" x="26291" y="15584"><tspan fill="rgb(49,54,59)" stroke="none">thermal expansion</tspan></tspan></tspan></text>
 <text class="TextShape" transform="translate(27193,15266) rotate(-44.9) translate(-27193,-15266)"><tspan class="TextParagraph" font-family="Arial, sans-serif" font-size="353px" font-weight="400"><tspan class="TextPosition" x="27193" y="15266"><tspan fill="rgb(49,54,59)" stroke="none">strong oxidants</tspan></tspan></tspan></text>
 <text class="TextShape" transform="translate(27630,15414) rotate(-44.9) translate(-27630,-15414)"><tspan class="TextParagraph" font-family="Arial, sans-serif" font-size="353px" font-weight="400"><tspan class="TextPosition" x="27630" y="15414"><tspan fill="rgb(49,54,59)" stroke="none">inert atmosphere</tspan></tspan></tspan></text>
 <text class="TextShape" transform="translate(27839,15790) rotate(-44.9) translate(-27839,-15790)"><tspan class="TextParagraph" font-family="Arial, sans-serif" font-size="353px" font-weight="400"><tspan class="TextPosition" x="27839" y="15790"><tspan fill="rgb(49,54,59)" stroke="none">composite materials</tspan></tspan></tspan></text>
 <text class="TextShape"><tspan class="TextParagraph" font-family="Arial, sans-serif" font-size="353px" font-weight="400"><tspan class="TextPosition" x="2891" y="13246"><tspan fill="rgb(49,54,59)" stroke="none">0</tspan></tspan></tspan></text>
 <text class="TextShape"><tspan class="TextParagraph" font-family="Arial, sans-serif" font-size="353px" font-weight="400"><tspan class="TextPosition" x="2706" y="11328"><tspan fill="rgb(49,54,59)" stroke="none">10</tspan></tspan></tspan></text>
 <text class="TextShape"><tspan class="TextParagraph" font-family="Arial, sans-serif" font-size="353px" font-weight="400"><tspan class="TextPosition" x="2706" y="9410"><tspan fill="rgb(49,54,59)" stroke="none">20</tspan></tspan></tspan></text>
 <text class="TextShape"><tspan class="TextParagraph" font-family="Arial, sans-serif" font-size="353px" font-weight="400"><tspan class="TextPosition" x="2706" y="7492"><tspan fill="rgb(49,54,59)" stroke="none">30</tspan></tspan></tspan></text>
 <text class="TextShape"><tspan class="TextParagraph" font-family="Arial, sans-serif" font-size="353px" font-weight="400"><tspan class="TextPosition" x="2706" y="5574"><tspan fill="rgb(49,54,59)" stroke="none">40</tspan></tspan></tspan></text>
 <text class="TextShape"><tspan class="TextParagraph" font-family="Arial, sans-serif" font-size="353px" font-weight="400"><tspan class="TextPosition" x="2706" y="3656"><tspan fill="rgb(49,54,59)" stroke="none">50</tspan></tspan></tspan></text>
 <text class="TextShape"><tspan class="TextParagraph" font-family="Arial, sans-serif" font-size="353px" font-weight="400"><tspan class="TextPosition" x="2706" y="1738"><tspan fill="rgb(49,54,59)" stroke="none">60</tspan></tspan></tspan></text>
 <text class="TextShape"><tspan class="TextParagraph" font-family="Arial, sans-serif" font-size="459px" font-weight="700"><tspan class="TextPosition" x="6708" y="1024"><tspan fill="rgb(255,51,51)" stroke="none">Compare number of technical and non-technical learners per impressed creative thinking techniques, extended plots</tspan></tspan></tspan></text>
 <path fill="rgb(0,69,134)" stroke="none" d="M 31220,8395 L 31114,8395 31114,8184 31325,8184 31325,8395 31220,8395 Z"/>
 <path fill="rgb(255,66,14)" stroke="none" d="M 31220,8892 L 31114,8892 31114,8682 31325,8682 31325,8892 31220,8892 Z"/>
 <path fill="rgb(255,211,32)" stroke="none" d="M 31220,9390 L 31114,9390 31114,9179 31325,9179 31325,9390 31220,9390 Z"/>
 <text class="TextShape"><tspan class="TextParagraph" font-family="Arial, sans-serif" font-size="353px" font-weight="400"><tspan class="TextPosition" x="31425" y="8409"><tspan fill="rgb(49,54,59)" stroke="none">Learners with technical backgrounds</tspan></tspan></tspan></text>
 <text class="TextShape"><tspan class="TextParagraph" font-family="Arial, sans-serif" font-size="353px" font-weight="400"><tspan class="TextPosition" x="31425" y="8906"><tspan fill="rgb(49,54,59)" stroke="none">Learners with non-technical backgrounds</tspan></tspan></tspan></text>
 <text class="TextShape"><tspan class="TextParagraph" font-family="Arial, sans-serif" font-size="353px" font-weight="400"><tspan class="TextPosition" x="31425" y="9404"><tspan fill="rgb(49,54,59)" stroke="none">Total</tspan></tspan></tspan></text>
</svg>