<?xml version="1.0" encoding="UTF-8"?>
<!DOCTYPE svg PUBLIC "-//W3C//DTD SVG 1.1//EN" "http://www.w3.org/Graphics/SVG/1.1/DTD/svg11.dtd">
<svg width="341mm" height="155mm" viewBox="0 0 34100 15500" version="1.1" xmlns="http://www.w3.org/2000/svg" stroke-width="28.222" stroke-linejoin="round" xml:space="preserve">
 <path fill="rgb(255,255,255)" stroke="none" d="M 17065,15505 L 37,15505 37,0 34093,0 34093,15505 17065,15505 Z"/>
 <path fill="none" stroke="rgb(179,179,179)" stroke-linejoin="round" d="M 15164,11098 L 3915,11098 3915,310 26413,310 26413,11098 15164,11098 Z"/>
 <path fill="none" stroke="rgb(179,179,179)" stroke-linejoin="round" d="M 26413,11097 L 3915,11097"/>
 <path fill="none" stroke="rgb(179,179,179)" stroke-linejoin="round" d="M 26413,9898 L 3915,9898"/>
 <path fill="none" stroke="rgb(179,179,179)" stroke-linejoin="round" d="M 26413,8699 L 3915,8699"/>
 <path fill="none" stroke="rgb(179,179,179)" stroke-linejoin="round" d="M 26413,7501 L 3915,7501"/>
 <path fill="none" stroke="rgb(179,179,179)" stroke-linejoin="round" d="M 26413,6302 L 3915,6302"/>
 <path fill="none" stroke="rgb(179,179,179)" stroke-linejoin="round" d="M 26413,5104 L 3915,5104"/>
 <path fill="none" stroke="rgb(179,179,179)" stroke-linejoin="round" d="M 26413,3905 L 3915,3905"/>
 <path fill="none" stroke="rgb(179,179,179)" stroke-linejoin="round" d="M 26413,2706 L 3915,2706"/>
 <path fill="none" stroke="rgb(179,179,179)" stroke-linejoin="round" d="M 26413,1507 L 3915,1507"/>
 <path fill="none" stroke="rgb(179,179,179)" stroke-linejoin="round" d="M 26413,309 L 3915,309"/>
 <path fill="none" stroke="rgb(179,179,179)" stroke-linejoin="round" d="M 3915,11247 L 3915,11097"/>
 <path fill="none" stroke="rgb(179,179,179)" stroke-linejoin="round" d="M 3915,11247 L 3915,11097"/>
 <path fill="none" stroke="rgb(179,179,179)" stroke-linejoin="round" d="M 4852,11247 L 4852,11097"/>
 <path fill="none" stroke="rgb(179,179,179)" stroke-linejoin="round" d="M 4852,11247 L 4852,11097"/>
 <path fill="none" stroke="rgb(179,179,179)" stroke-linejoin="round" d="M 5789,11247 L 5789,11097"/>
 <path fill="none" stroke="rgb(179,179,179)" stroke-linejoin="round" d="M 5789,11247 L 5789,11097"/>
 <path fill="none" stroke="rgb(179,179,179)" stroke-linejoin="round" d="M 6727,11247 L 6727,11097"/>
 <path fill="none" stroke="rgb(179,179,179)" stroke-linejoin="round" d="M 6727,11247 L 6727,11097"/>
 <path fill="none" stroke="rgb(179,179,179)" stroke-linejoin="round" d="M 7664,11247 L 7664,11097"/>
 <path fill="none" stroke="rgb(179,179,179)" stroke-linejoin="round" d="M 7664,11247 L 7664,11097"/>
 <path fill="none" stroke="rgb(179,179,179)" stroke-linejoin="round" d="M 8602,11247 L 8602,11097"/>
 <path fill="none" stroke="rgb(179,179,179)" stroke-linejoin="round" d="M 8602,11247 L 8602,11097"/>
 <path fill="none" stroke="rgb(179,179,179)" stroke-linejoin="round" d="M 9539,11247 L 9539,11097"/>
 <path fill="none" stroke="rgb(179,179,179)" stroke-linejoin="round" d="M 9539,11247 L 9539,11097"/>
 <path fill="none" stroke="rgb(179,179,179)" stroke-linejoin="round" d="M 10477,11247 L 10477,11097"/>
 <path fill="none" stroke="rgb(179,179,179)" stroke-linejoin="round" d="M 10477,11247 L 10477,11097"/>
 <path fill="none" stroke="rgb(179,179,179)" stroke-linejoin="round" d="M 11414,11247 L 11414,11097"/>
 <path fill="none" stroke="rgb(179,179,179)" stroke-linejoin="round" d="M 11414,11247 L 11414,11097"/>
 <path fill="none" stroke="rgb(179,179,179)" stroke-linejoin="round" d="M 12352,11247 L 12352,11097"/>
 <path fill="none" stroke="rgb(179,179,179)" stroke-linejoin="round" d="M 12352,11247 L 12352,11097"/>
 <path fill="none" stroke="rgb(179,179,179)" stroke-linejoin="round" d="M 13289,11247 L 13289,11097"/>
 <path fill="none" stroke="rgb(179,179,179)" stroke-linejoin="round" d="M 13289,11247 L 13289,11097"/>
 <path fill="none" stroke="rgb(179,179,179)" stroke-linejoin="round" d="M 14227,11247 L 14227,11097"/>
 <path fill="none" stroke="rgb(179,179,179)" stroke-linejoin="round" d="M 14227,11247 L 14227,11097"/>
 <path fill="none" stroke="rgb(179,179,179)" stroke-linejoin="round" d="M 15164,11247 L 15164,11097"/>
 <path fill="none" stroke="rgb(179,179,179)" stroke-linejoin="round" d="M 15164,11247 L 15164,11097"/>
 <path fill="none" stroke="rgb(179,179,179)" stroke-linejoin="round" d="M 16101,11247 L 16101,11097"/>
 <path fill="none" stroke="rgb(179,179,179)" stroke-linejoin="round" d="M 16101,11247 L 16101,11097"/>
 <path fill="none" stroke="rgb(179,179,179)" stroke-linejoin="round" d="M 17039,11247 L 17039,11097"/>
 <path fill="none" stroke="rgb(179,179,179)" stroke-linejoin="round" d="M 17039,11247 L 17039,11097"/>
 <path fill="none" stroke="rgb(179,179,179)" stroke-linejoin="round" d="M 17975,11247 L 17975,11097"/>
 <path fill="none" stroke="rgb(179,179,179)" stroke-linejoin="round" d="M 17975,11247 L 17975,11097"/>
 <path fill="none" stroke="rgb(179,179,179)" stroke-linejoin="round" d="M 18913,11247 L 18913,11097"/>
 <path fill="none" stroke="rgb(179,179,179)" stroke-linejoin="round" d="M 18913,11247 L 18913,11097"/>
 <path fill="none" stroke="rgb(179,179,179)" stroke-linejoin="round" d="M 19850,11247 L 19850,11097"/>
 <path fill="none" stroke="rgb(179,179,179)" stroke-linejoin="round" d="M 19850,11247 L 19850,11097"/>
 <path fill="none" stroke="rgb(179,179,179)" stroke-linejoin="round" d="M 20788,11247 L 20788,11097"/>
 <path fill="none" stroke="rgb(179,179,179)" stroke-linejoin="round" d="M 20788,11247 L 20788,11097"/>
 <path fill="none" stroke="rgb(179,179,179)" stroke-linejoin="round" d="M 21725,11247 L 21725,11097"/>
 <path fill="none" stroke="rgb(179,179,179)" stroke-linejoin="round" d="M 21725,11247 L 21725,11097"/>
 <path fill="none" stroke="rgb(179,179,179)" stroke-linejoin="round" d="M 22663,11247 L 22663,11097"/>
 <path fill="none" stroke="rgb(179,179,179)" stroke-linejoin="round" d="M 22663,11247 L 22663,11097"/>
 <path fill="none" stroke="rgb(179,179,179)" stroke-linejoin="round" d="M 23600,11247 L 23600,11097"/>
 <path fill="none" stroke="rgb(179,179,179)" stroke-linejoin="round" d="M 23600,11247 L 23600,11097"/>
 <path fill="none" stroke="rgb(179,179,179)" stroke-linejoin="round" d="M 24538,11247 L 24538,11097"/>
 <path fill="none" stroke="rgb(179,179,179)" stroke-linejoin="round" d="M 24538,11247 L 24538,11097"/>
 <path fill="none" stroke="rgb(179,179,179)" stroke-linejoin="round" d="M 25475,11247 L 25475,11097"/>
 <path fill="none" stroke="rgb(179,179,179)" stroke-linejoin="round" d="M 25475,11247 L 25475,11097"/>
 <path fill="none" stroke="rgb(179,179,179)" stroke-linejoin="round" d="M 26413,11247 L 26413,11097"/>
 <path fill="none" stroke="rgb(179,179,179)" stroke-linejoin="round" d="M 26413,11247 L 26413,11097"/>
 <path fill="none" stroke="rgb(179,179,179)" stroke-linejoin="round" d="M 3915,11097 L 26413,11097"/>
 <path fill="none" stroke="rgb(179,179,179)" stroke-linejoin="round" d="M 3765,11097 L 3915,11097"/>
 <path fill="none" stroke="rgb(179,179,179)" stroke-linejoin="round" d="M 3765,11097 L 3915,11097"/>
 <path fill="none" stroke="rgb(179,179,179)" stroke-linejoin="round" d="M 3765,9898 L 3915,9898"/>
 <path fill="none" stroke="rgb(179,179,179)" stroke-linejoin="round" d="M 3765,9898 L 3915,9898"/>
 <path fill="none" stroke="rgb(179,179,179)" stroke-linejoin="round" d="M 3765,8699 L 3915,8699"/>
 <path fill="none" stroke="rgb(179,179,179)" stroke-linejoin="round" d="M 3765,8699 L 3915,8699"/>
 <path fill="none" stroke="rgb(179,179,179)" stroke-linejoin="round" d="M 3765,7501 L 3915,7501"/>
 <path fill="none" stroke="rgb(179,179,179)" stroke-linejoin="round" d="M 3765,7501 L 3915,7501"/>
 <path fill="none" stroke="rgb(179,179,179)" stroke-linejoin="round" d="M 3765,6302 L 3915,6302"/>
 <path fill="none" stroke="rgb(179,179,179)" stroke-linejoin="round" d="M 3765,6302 L 3915,6302"/>
 <path fill="none" stroke="rgb(179,179,179)" stroke-linejoin="round" d="M 3765,5104 L 3915,5104"/>
 <path fill="none" stroke="rgb(179,179,179)" stroke-linejoin="round" d="M 3765,5104 L 3915,5104"/>
 <path fill="none" stroke="rgb(179,179,179)" stroke-linejoin="round" d="M 3765,3905 L 3915,3905"/>
 <path fill="none" stroke="rgb(179,179,179)" stroke-linejoin="round" d="M 3765,3905 L 3915,3905"/>
 <path fill="none" stroke="rgb(179,179,179)" stroke-linejoin="round" d="M 3765,2706 L 3915,2706"/>
 <path fill="none" stroke="rgb(179,179,179)" stroke-linejoin="round" d="M 3765,2706 L 3915,2706"/>
 <path fill="none" stroke="rgb(179,179,179)" stroke-linejoin="round" d="M 3765,1507 L 3915,1507"/>
 <path fill="none" stroke="rgb(179,179,179)" stroke-linejoin="round" d="M 3765,1507 L 3915,1507"/>
 <path fill="none" stroke="rgb(179,179,179)" stroke-linejoin="round" d="M 3765,309 L 3915,309"/>
 <path fill="none" stroke="rgb(179,179,179)" stroke-linejoin="round" d="M 3765,309 L 3915,309"/>
 <path fill="none" stroke="rgb(179,179,179)" stroke-linejoin="round" d="M 3915,11097 L 3915,309"/>
 <path fill="rgb(0,69,134)" stroke="none" d="M 25592,11097 L 25827,11097 25827,10515 25592,10515 25592,11097 Z"/>
 <path fill="rgb(0,69,134)" stroke="none" d="M 24655,11097 L 24889,11097 24889,9933 24655,9933 24655,11097 Z"/>
 <path fill="rgb(0,69,134)" stroke="none" d="M 23717,11097 L 23952,11097 23952,9351 23717,9351 23717,11097 Z"/>
 <path fill="rgb(0,69,134)" stroke="none" d="M 22780,11097 L 23014,11097 23014,9933 22780,9933 22780,11097 Z"/>
 <path fill="rgb(0,69,134)" stroke="none" d="M 21842,11097 L 22077,11097 22077,5860 21842,5860 21842,11097 Z"/>
 <path fill="rgb(0,69,134)" stroke="none" d="M 19967,11097 L 20202,11097 20202,9933 19967,9933 19967,11097 Z"/>
 <path fill="rgb(0,69,134)" stroke="none" d="M 19030,11097 L 19264,11097 19264,8187 19030,8187 19030,11097 Z"/>
 <path fill="rgb(0,69,134)" stroke="none" d="M 18093,11097 L 18327,11097 18327,9351 18093,9351 18093,11097 Z"/>
 <path fill="rgb(0,69,134)" stroke="none" d="M 17155,11097 L 17389,11097 17389,6442 17155,6442 17155,11097 Z"/>
 <path fill="rgb(0,69,134)" stroke="none" d="M 16219,11097 L 16453,11097 16453,8187 16219,8187 16219,11097 Z"/>
 <path fill="rgb(0,69,134)" stroke="none" d="M 15281,11097 L 15516,11097 15516,7606 15281,7606 15281,11097 Z"/>
 <path fill="rgb(0,69,134)" stroke="none" d="M 14344,11097 L 14578,11097 14578,9933 14344,9933 14344,11097 Z"/>
 <path fill="rgb(0,69,134)" stroke="none" d="M 13406,11097 L 13641,11097 13641,9933 13406,9933 13406,11097 Z"/>
 <path fill="rgb(0,69,134)" stroke="none" d="M 12469,11097 L 12703,11097 12703,3532 12469,3532 12469,11097 Z"/>
 <path fill="rgb(0,69,134)" stroke="none" d="M 11531,11097 L 11766,11097 11766,9351 11531,9351 11531,11097 Z"/>
 <path fill="rgb(0,69,134)" stroke="none" d="M 10594,11097 L 10828,11097 10828,9933 10594,9933 10594,11097 Z"/>
 <path fill="rgb(0,69,134)" stroke="none" d="M 9656,11097 L 9891,11097 9891,7024 9656,7024 9656,11097 Z"/>
 <path fill="rgb(0,69,134)" stroke="none" d="M 8719,11097 L 8953,11097 8953,9351 8719,9351 8719,11097 Z"/>
 <path fill="rgb(0,69,134)" stroke="none" d="M 7782,11097 L 8016,11097 8016,9933 7782,9933 7782,11097 Z"/>
 <path fill="rgb(0,69,134)" stroke="none" d="M 6844,11097 L 7078,11097 7078,8187 6844,8187 6844,11097 Z"/>
 <path fill="rgb(0,69,134)" stroke="none" d="M 5907,11097 L 6141,11097 6141,8769 5907,8769 5907,11097 Z"/>
 <path fill="rgb(0,69,134)" stroke="none" d="M 4969,11097 L 5204,11097 5204,7024 4969,7024 4969,11097 Z"/>
 <path fill="rgb(0,69,134)" stroke="none" d="M 4032,11097 L 4266,11097 4266,7606 4032,7606 4032,11097 Z"/>
 <path fill="rgb(255,66,14)" stroke="none" d="M 25827,11097 L 26061,11097 26061,9816 25827,9816 25827,11097 Z"/>
 <path fill="rgb(255,66,14)" stroke="none" d="M 24889,11097 L 25123,11097 25123,9560 24889,9560 24889,11097 Z"/>
 <path fill="rgb(255,66,14)" stroke="none" d="M 23952,11097 L 24186,11097 24186,9303 23952,9303 23952,11097 Z"/>
 <path fill="rgb(255,66,14)" stroke="none" d="M 23014,11097 L 23249,11097 23249,8023 23014,8023 23014,11097 Z"/>
 <path fill="rgb(255,66,14)" stroke="none" d="M 22077,11097 L 22311,11097 22311,7255 22077,7255 22077,11097 Z"/>
 <path fill="rgb(255,66,14)" stroke="none" d="M 21139,11097 L 21374,11097 21374,9560 21139,9560 21139,11097 Z"/>
 <path fill="rgb(255,66,14)" stroke="none" d="M 20202,11097 L 20436,11097 20436,9560 20202,9560 20202,11097 Z"/>
 <path fill="rgb(255,66,14)" stroke="none" d="M 19264,11097 L 19499,11097 19499,6743 19264,6743 19264,11097 Z"/>
 <path fill="rgb(255,66,14)" stroke="none" d="M 18327,11097 L 18561,11097 18561,9303 18327,9303 18327,11097 Z"/>
 <path fill="rgb(255,66,14)" stroke="none" d="M 17389,11097 L 17624,11097 17624,4694 17389,4694 17389,11097 Z"/>
 <path fill="rgb(255,66,14)" stroke="none" d="M 16453,11097 L 16687,11097 16687,6999 16453,6999 16453,11097 Z"/>
 <path fill="rgb(255,66,14)" stroke="none" d="M 15516,11097 L 15750,11097 15750,6999 15516,6999 15516,11097 Z"/>
 <path fill="rgb(255,66,14)" stroke="none" d="M 14578,11097 L 14812,11097 14812,9303 14578,9303 14578,11097 Z"/>
 <path fill="rgb(255,66,14)" stroke="none" d="M 13641,11097 L 13875,11097 13875,8791 13641,8791 13641,11097 Z"/>
 <path fill="rgb(255,66,14)" stroke="none" d="M 12703,11097 L 12938,11097 12938,1364 12703,1364 12703,11097 Z"/>
 <path fill="rgb(255,66,14)" stroke="none" d="M 11766,11097 L 12000,11097 12000,9816 11766,9816 11766,11097 Z"/>
 <path fill="rgb(255,66,14)" stroke="none" d="M 10828,11097 L 11063,11097 11063,7767 10828,7767 10828,11097 Z"/>
 <path fill="rgb(255,66,14)" stroke="none" d="M 9891,11097 L 10125,11097 10125,5718 9891,5718 9891,11097 Z"/>
 <path fill="rgb(255,66,14)" stroke="none" d="M 8953,11097 L 9188,11097 9188,9560 8953,9560 8953,11097 Z"/>
 <path fill="rgb(255,66,14)" stroke="none" d="M 8016,11097 L 8250,11097 8250,9560 8016,9560 8016,11097 Z"/>
 <path fill="rgb(255,66,14)" stroke="none" d="M 7078,11097 L 7313,11097 7313,7767 7078,7767 7078,11097 Z"/>
 <path fill="rgb(255,66,14)" stroke="none" d="M 6141,11097 L 6375,11097 6375,9816 6141,9816 6141,11097 Z"/>
 <path fill="rgb(255,66,14)" stroke="none" d="M 5204,11097 L 5438,11097 5438,7255 5204,7255 5204,11097 Z"/>
 <path fill="rgb(255,66,14)" stroke="none" d="M 4266,11097 L 4500,11097 4500,9047 4266,9047 4266,11097 Z"/>
 <path fill="rgb(255,211,32)" stroke="none" d="M 26061,11097 L 26295,11097 26295,10029 26061,10029 26061,11097 Z"/>
 <path fill="rgb(255,211,32)" stroke="none" d="M 25123,11097 L 25358,11097 25358,9674 25123,9674 25123,11097 Z"/>
 <path fill="rgb(255,211,32)" stroke="none" d="M 24186,11097 L 24420,11097 24420,9318 24186,9318 24186,11097 Z"/>
 <path fill="rgb(255,211,32)" stroke="none" d="M 23249,11097 L 23483,11097 23483,8606 23249,8606 23249,11097 Z"/>
 <path fill="rgb(255,211,32)" stroke="none" d="M 22311,11097 L 22545,11097 22545,6829 22311,6829 22311,11097 Z"/>
 <path fill="rgb(255,211,32)" stroke="none" d="M 21374,11097 L 21608,11097 21608,10029 21374,10029 21374,11097 Z"/>
 <path fill="rgb(255,211,32)" stroke="none" d="M 20436,11097 L 20671,11097 20671,9674 20436,9674 20436,11097 Z"/>
 <path fill="rgb(255,211,32)" stroke="none" d="M 19499,11097 L 19733,11097 19733,7185 19499,7185 19499,11097 Z"/>
 <path fill="rgb(255,211,32)" stroke="none" d="M 18561,11097 L 18796,11097 18796,9318 18561,9318 18561,11097 Z"/>
 <path fill="rgb(255,211,32)" stroke="none" d="M 17624,11097 L 17858,11097 17858,5228 17624,5228 17624,11097 Z"/>
 <path fill="rgb(255,211,32)" stroke="none" d="M 16687,11097 L 16922,11097 16922,7362 16687,7362 16687,11097 Z"/>
 <path fill="rgb(255,211,32)" stroke="none" d="M 15750,11097 L 15984,11097 15984,7185 15750,7185 15750,11097 Z"/>
 <path fill="rgb(255,211,32)" stroke="none" d="M 14812,11097 L 15047,11097 15047,9496 14812,9496 14812,11097 Z"/>
 <path fill="rgb(255,211,32)" stroke="none" d="M 13875,11097 L 14109,11097 14109,9140 13875,9140 13875,11097 Z"/>
 <path fill="rgb(255,211,32)" stroke="none" d="M 12938,11097 L 13172,11097 13172,2027 12938,2027 12938,11097 Z"/>
 <path fill="rgb(255,211,32)" stroke="none" d="M 12000,11097 L 12234,11097 12234,9674 12000,9674 12000,11097 Z"/>
 <path fill="rgb(255,211,32)" stroke="none" d="M 11063,11097 L 11297,11097 11297,8429 11063,8429 11063,11097 Z"/>
 <path fill="rgb(255,211,32)" stroke="none" d="M 10125,11097 L 10360,11097 10360,6117 10125,6117 10125,11097 Z"/>
 <path fill="rgb(255,211,32)" stroke="none" d="M 9188,11097 L 9422,11097 9422,9496 9188,9496 9188,11097 Z"/>
 <path fill="rgb(255,211,32)" stroke="none" d="M 8250,11097 L 8485,11097 8485,9674 8250,9674 8250,11097 Z"/>
 <path fill="rgb(255,211,32)" stroke="none" d="M 7313,11097 L 7547,11097 7547,7895 7313,7895 7313,11097 Z"/>
 <path fill="rgb(255,211,32)" stroke="none" d="M 6375,11097 L 6610,11097 6610,9496 6375,9496 6375,11097 Z"/>
 <path fill="rgb(255,211,32)" stroke="none" d="M 5438,11097 L 5672,11097 5672,7185 5438,7185 5438,11097 Z"/>
 <path fill="rgb(255,211,32)" stroke="none" d="M 4500,11097 L 4735,11097 4735,8606 4500,8606 4500,11097 Z"/>
 <text class="TextShape" transform="translate(1790,14248) rotate(-44.9) translate(-1790,-14248)"><tspan class="TextParagraph" font-family="Liberation Sans" font-size="353px" font-weight="400"><tspan class="TextPosition" x="1790" y="14248"><tspan fill="rgb(0,0,0)" stroke="none">Method of Focal Objects</tspan></tspan></tspan></text>
 <text class="TextShape" transform="translate(2036,14940) rotate(-44.9) translate(-2036,-14940)"><tspan class="TextParagraph" font-family="Liberation Sans" font-size="353px" font-weight="400"><tspan class="TextPosition" x="2036" y="14940"><tspan fill="rgb(0,0,0)" stroke="none">Morphological Analysis Method</tspan></tspan></tspan></text>
 <text class="TextShape" transform="translate(4059,13854) rotate(-44.9) translate(-4059,-13854)"><tspan class="TextParagraph" font-family="Liberation Sans" font-size="353px" font-weight="400"><tspan class="TextPosition" x="4059" y="13854"><tspan fill="rgb(0,0,0)" stroke="none">Check-listing Method</tspan></tspan></tspan></text>
 <text class="TextShape" transform="translate(5782,13070) rotate(-44.9) translate(-5782,-13070)"><tspan class="TextParagraph" font-family="Liberation Sans" font-size="353px" font-weight="400"><tspan class="TextPosition" x="5782" y="13070"><tspan fill="rgb(0,0,0)" stroke="none">Brainstorming</tspan></tspan></tspan></text>
 <text class="TextShape" transform="translate(7130,12658) rotate(-44.9) translate(-7130,-12658)"><tspan class="TextParagraph" font-family="Liberation Sans" font-size="353px" font-weight="400"><tspan class="TextPosition" x="7130" y="12658"><tspan fill="rgb(0,0,0)" stroke="none">Synectics</tspan></tspan></tspan></text>
 <text class="TextShape" transform="translate(6442,14284) rotate(-44.9) translate(-6442,-14284)"><tspan class="TextParagraph" font-family="Liberation Sans" font-size="353px" font-weight="400"><tspan class="TextPosition" x="6442" y="14284"><tspan fill="rgb(0,0,0)" stroke="none">(11) separation principles</tspan></tspan></tspan></text>
 <text class="TextShape" transform="translate(8631,13032) rotate(-44.9) translate(-8631,-13032)"><tspan class="TextParagraph" font-family="Liberation Sans" font-size="353px" font-weight="400"><tspan class="TextPosition" x="8631" y="13032"><tspan fill="rgb(0,0,0)" stroke="none">segmentation</tspan></tspan></tspan></text>
 <text class="TextShape" transform="translate(9962,12638) rotate(-44.9) translate(-9962,-12638)"><tspan class="TextParagraph" font-family="Liberation Sans" font-size="353px" font-weight="400"><tspan class="TextPosition" x="9962" y="12638"><tspan fill="rgb(0,0,0)" stroke="none">taking out</tspan></tspan></tspan></text>
 <text class="TextShape" transform="translate(10674,12864) rotate(-44.9) translate(-10674,-12864)"><tspan class="TextParagraph" font-family="Liberation Sans" font-size="353px" font-weight="400"><tspan class="TextPosition" x="10674" y="12864"><tspan fill="rgb(0,0,0)" stroke="none">local quality</tspan></tspan></tspan></text>
 <text class="TextShape" transform="translate(12042,12433) rotate(-44.9) translate(-12042,-12433)"><tspan class="TextParagraph" font-family="Liberation Sans" font-size="353px" font-weight="400"><tspan class="TextPosition" x="12042" y="12433"><tspan fill="rgb(0,0,0)" stroke="none">merging</tspan></tspan></tspan></text>
 <text class="TextShape" transform="translate(12607,12807) rotate(-44.9) translate(-12607,-12807)"><tspan class="TextParagraph" font-family="Liberation Sans" font-size="353px" font-weight="400"><tspan class="TextPosition" x="12607" y="12807"><tspan fill="rgb(0,0,0)" stroke="none">universality</tspan></tspan></tspan></text>
 <text class="TextShape" transform="translate(13992,12358) rotate(-44.9) translate(-13992,-12358)"><tspan class="TextParagraph" font-family="Liberation Sans" font-size="353px" font-weight="400"><tspan class="TextPosition" x="13992" y="12358"><tspan fill="rgb(0,0,0)" stroke="none">nesting</tspan></tspan></tspan></text>
 <text class="TextShape" transform="translate(13340,13948) rotate(-44.9) translate(-13340,-13948)"><tspan class="TextParagraph" font-family="Liberation Sans" font-size="353px" font-weight="400"><tspan class="TextPosition" x="13340" y="13948"><tspan fill="rgb(0,0,0)" stroke="none">preliminary anti-action</tspan></tspan></tspan></text>
 <text class="TextShape" transform="translate(14744,13481) rotate(-44.9) translate(-14744,-13481)"><tspan class="TextParagraph" font-family="Liberation Sans" font-size="353px" font-weight="400"><tspan class="TextPosition" x="14744" y="13481"><tspan fill="rgb(0,0,0)" stroke="none">preliminary action</tspan></tspan></tspan></text>
 <text class="TextShape" transform="translate(15159,14004) rotate(-44.9) translate(-15159,-14004)"><tspan class="TextParagraph" font-family="Liberation Sans" font-size="353px" font-weight="400"><tspan class="TextPosition" x="15159" y="14004"><tspan fill="rgb(0,0,0)" stroke="none">beforehand cushioning</tspan></tspan></tspan></text>
 <text class="TextShape" transform="translate(17536,12564) rotate(-44.9) translate(-17536,-12564)"><tspan class="TextParagraph" font-family="Liberation Sans" font-size="353px" font-weight="400"><tspan class="TextPosition" x="17536" y="12564"><tspan fill="rgb(0,0,0)" stroke="none">reversing</tspan></tspan></tspan></text>
 <text class="TextShape" transform="translate(18418,12620) rotate(-44.9) translate(-18418,-12620)"><tspan class="TextParagraph" font-family="Liberation Sans" font-size="353px" font-weight="400"><tspan class="TextPosition" x="18418" y="12620"><tspan fill="rgb(0,0,0)" stroke="none">dynamics</tspan></tspan></tspan></text>
 <text class="TextShape" transform="translate(17278,14698) rotate(-44.9) translate(-17278,-14698)"><tspan class="TextParagraph" font-family="Liberation Sans" font-size="353px" font-weight="400"><tspan class="TextPosition" x="17278" y="14698"><tspan fill="rgb(0,0,0)" stroke="none">change to another dimension</tspan></tspan></tspan></text>
 <text class="TextShape" transform="translate(19768,13144) rotate(-44.9) translate(-19768,-13144)"><tspan class="TextParagraph" font-family="Liberation Sans" font-size="353px" font-weight="400"><tspan class="TextPosition" x="19768" y="13144"><tspan fill="rgb(0,0,0)" stroke="none">periodic action</tspan></tspan></tspan></text>
 <text class="TextShape" transform="translate(19360,14491) rotate(-44.9) translate(-19360,-14491)"><tspan class="TextParagraph" font-family="Liberation Sans" font-size="353px" font-weight="400"><tspan class="TextPosition" x="19360" y="14491"><tspan fill="rgb(0,0,0)" stroke="none">continuity of useful actions</tspan></tspan></tspan></text>
 <text class="TextShape" transform="translate(21083,13705) rotate(-44.9) translate(-21083,-13705)"><tspan class="TextParagraph" font-family="Liberation Sans" font-size="353px" font-weight="400"><tspan class="TextPosition" x="21083" y="13705"><tspan fill="rgb(0,0,0)" stroke="none">blessing in disguise</tspan></tspan></tspan></text>
 <text class="TextShape" transform="translate(23161,12564) rotate(-44.9) translate(-23161,-12564)"><tspan class="TextParagraph" font-family="Liberation Sans" font-size="353px" font-weight="400"><tspan class="TextPosition" x="23161" y="12564"><tspan fill="rgb(0,0,0)" stroke="none">feedback</tspan></tspan></tspan></text>
 <text class="TextShape" transform="translate(23836,12826) rotate(-44.9) translate(-23836,-12826)"><tspan class="TextParagraph" font-family="Liberation Sans" font-size="353px" font-weight="400"><tspan class="TextPosition" x="23836" y="12826"><tspan fill="rgb(0,0,0)" stroke="none">self-service</tspan></tspan></tspan></text>
 <text class="TextShape" transform="translate(24643,12956) rotate(-44.9) translate(-24643,-12956)"><tspan class="TextParagraph" font-family="Liberation Sans" font-size="353px" font-weight="400"><tspan class="TextPosition" x="24643" y="12956"><tspan fill="rgb(0,0,0)" stroke="none">color change</tspan></tspan></tspan></text>
 <text class="TextShape"><tspan class="TextParagraph" font-family="Liberation Sans" font-size="353px" font-weight="400"><tspan class="TextPosition" x="3480" y="11218"><tspan fill="rgb(0,0,0)" stroke="none">0</tspan></tspan></tspan></text>
 <text class="TextShape"><tspan class="TextParagraph" font-family="Liberation Sans" font-size="353px" font-weight="400"><tspan class="TextPosition" x="3480" y="10019"><tspan fill="rgb(0,0,0)" stroke="none">2</tspan></tspan></tspan></text>
 <text class="TextShape"><tspan class="TextParagraph" font-family="Liberation Sans" font-size="353px" font-weight="400"><tspan class="TextPosition" x="3480" y="8820"><tspan fill="rgb(0,0,0)" stroke="none">4</tspan></tspan></tspan></text>
 <text class="TextShape"><tspan class="TextParagraph" font-family="Liberation Sans" font-size="353px" font-weight="400"><tspan class="TextPosition" x="3480" y="7621"><tspan fill="rgb(0,0,0)" stroke="none">6</tspan></tspan></tspan></text>
 <text class="TextShape"><tspan class="TextParagraph" font-family="Liberation Sans" font-size="353px" font-weight="400"><tspan class="TextPosition" x="3480" y="6422"><tspan fill="rgb(0,0,0)" stroke="none">8</tspan></tspan></tspan></text>
 <text class="TextShape"><tspan class="TextParagraph" font-family="Liberation Sans" font-size="353px" font-weight="400"><tspan class="TextPosition" x="3295" y="5224"><tspan fill="rgb(0,0,0)" stroke="none">10</tspan></tspan></tspan></text>
 <text class="TextShape"><tspan class="TextParagraph" font-family="Liberation Sans" font-size="353px" font-weight="400"><tspan class="TextPosition" x="3295" y="4025"><tspan fill="rgb(0,0,0)" stroke="none">12</tspan></tspan></tspan></text>
 <text class="TextShape"><tspan class="TextParagraph" font-family="Liberation Sans" font-size="353px" font-weight="400"><tspan class="TextPosition" x="3295" y="2826"><tspan fill="rgb(0,0,0)" stroke="none">14</tspan></tspan></tspan></text>
 <text class="TextShape"><tspan class="TextParagraph" font-family="Liberation Sans" font-size="353px" font-weight="400"><tspan class="TextPosition" x="3295" y="1627"><tspan fill="rgb(0,0,0)" stroke="none">16</tspan></tspan></tspan></text>
 <text class="TextShape"><tspan class="TextParagraph" font-family="Liberation Sans" font-size="353px" font-weight="400"><tspan class="TextPosition" x="3295" y="429"><tspan fill="rgb(0,0,0)" stroke="none">18</tspan></tspan></tspan></text>
 <path fill="rgb(0,69,134)" stroke="none" d="M 27316,7360 L 27210,7360 27210,7149 27421,7149 27421,7360 27316,7360 Z"/>
 <path fill="rgb(255,66,14)" stroke="none" d="M 27316,7857 L 27210,7857 27210,7647 27421,7647 27421,7857 27316,7857 Z"/>
 <path fill="rgb(255,211,32)" stroke="none" d="M 27316,8355 L 27210,8355 27210,8144 27421,8144 27421,8355 27316,8355 Z"/>
 <text class="TextShape"><tspan class="TextParagraph" font-family="Liberation Sans" font-size="353px" font-weight="400"><tspan class="TextPosition" x="27521" y="7374"><tspan fill="rgb(0,0,0)" stroke="none">Learners with technical backgrounds</tspan></tspan></tspan></text>
 <text class="TextShape"><tspan class="TextParagraph" font-family="Liberation Sans" font-size="353px" font-weight="400"><tspan class="TextPosition" x="27521" y="7871"><tspan fill="rgb(0,0,0)" stroke="none">Learners with non-technical backgrounds</tspan></tspan></tspan></text>
 <text class="TextShape"><tspan class="TextParagraph" font-family="Liberation Sans" font-size="353px" font-weight="400"><tspan class="TextPosition" x="27521" y="8369"><tspan fill="rgb(0,0,0)" stroke="none">Mixed learners</tspan></tspan></tspan></text>
 <text class="TextShape"><tspan class="TextParagraph" font-family="Liberation Sans" font-size="318px" font-weight="400"><tspan class="TextPosition" x="2739" y="744"><tspan fill="rgb(0,0,0)" stroke="none">%</tspan></tspan></tspan></text>
</svg>