<?xml version="1.0" encoding="UTF-8"?>
<!DOCTYPE svg PUBLIC "-//W3C//DTD SVG 1.1//EN" "http://www.w3.org/Graphics/SVG/1.1/DTD/svg11.dtd">
<svg width="384mm" height="216mm" viewBox="0 0 38400 21600" version="1.1" xmlns="http://www.w3.org/2000/svg" stroke-width="28.222" stroke-linejoin="round" xml:space="preserve">
 <path fill="rgb(255,255,255)" stroke="none" d="M 19196,21595 L -1,21595 -1,0 38393,0 38393,21595 19196,21595 Z"/>
 <path fill="none" stroke="rgb(179,179,179)" stroke-linejoin="round" d="M 19081,15927 L 3381,15927 3381,1777 34781,1777 34781,15927 19081,15927 Z"/>
 <path fill="none" stroke="rgb(179,179,179)" stroke-linejoin="round" d="M 34781,15926 L 3381,15926"/>
 <path fill="none" stroke="rgb(179,179,179)" stroke-linejoin="round" d="M 34781,14510 L 3381,14510"/>
 <path fill="none" stroke="rgb(179,179,179)" stroke-linejoin="round" d="M 34781,13095 L 3381,13095"/>
 <path fill="none" stroke="rgb(179,179,179)" stroke-linejoin="round" d="M 34781,11680 L 3381,11680"/>
 <path fill="none" stroke="rgb(179,179,179)" stroke-linejoin="round" d="M 34781,10266 L 3381,10266"/>
 <path fill="none" stroke="rgb(179,179,179)" stroke-linejoin="round" d="M 34781,8851 L 3381,8851"/>
 <path fill="none" stroke="rgb(179,179,179)" stroke-linejoin="round" d="M 34781,7436 L 3381,7436"/>
 <path fill="none" stroke="rgb(179,179,179)" stroke-linejoin="round" d="M 34781,6021 L 3381,6021"/>
 <path fill="none" stroke="rgb(179,179,179)" stroke-linejoin="round" d="M 34781,4606 L 3381,4606"/>
 <path fill="none" stroke="rgb(179,179,179)" stroke-linejoin="round" d="M 34781,3191 L 3381,3191"/>
 <path fill="none" stroke="rgb(179,179,179)" stroke-linejoin="round" d="M 34781,1776 L 3381,1776"/>
 <path fill="none" stroke="rgb(179,179,179)" stroke-linejoin="round" d="M 3381,16076 L 3381,15926"/>
 <path fill="none" stroke="rgb(179,179,179)" stroke-linejoin="round" d="M 3381,16076 L 3381,15926"/>
 <path fill="none" stroke="rgb(179,179,179)" stroke-linejoin="round" d="M 3996,16076 L 3996,15926"/>
 <path fill="none" stroke="rgb(179,179,179)" stroke-linejoin="round" d="M 3996,16076 L 3996,15926"/>
 <path fill="none" stroke="rgb(179,179,179)" stroke-linejoin="round" d="M 4612,16076 L 4612,15926"/>
 <path fill="none" stroke="rgb(179,179,179)" stroke-linejoin="round" d="M 4612,16076 L 4612,15926"/>
 <path fill="none" stroke="rgb(179,179,179)" stroke-linejoin="round" d="M 5228,16076 L 5228,15926"/>
 <path fill="none" stroke="rgb(179,179,179)" stroke-linejoin="round" d="M 5228,16076 L 5228,15926"/>
 <path fill="none" stroke="rgb(179,179,179)" stroke-linejoin="round" d="M 5843,16076 L 5843,15926"/>
 <path fill="none" stroke="rgb(179,179,179)" stroke-linejoin="round" d="M 5843,16076 L 5843,15926"/>
 <path fill="none" stroke="rgb(179,179,179)" stroke-linejoin="round" d="M 6459,16076 L 6459,15926"/>
 <path fill="none" stroke="rgb(179,179,179)" stroke-linejoin="round" d="M 6459,16076 L 6459,15926"/>
 <path fill="none" stroke="rgb(179,179,179)" stroke-linejoin="round" d="M 7075,16076 L 7075,15926"/>
 <path fill="none" stroke="rgb(179,179,179)" stroke-linejoin="round" d="M 7075,16076 L 7075,15926"/>
 <path fill="none" stroke="rgb(179,179,179)" stroke-linejoin="round" d="M 7690,16076 L 7690,15926"/>
 <path fill="none" stroke="rgb(179,179,179)" stroke-linejoin="round" d="M 7690,16076 L 7690,15926"/>
 <path fill="none" stroke="rgb(179,179,179)" stroke-linejoin="round" d="M 8306,16076 L 8306,15926"/>
 <path fill="none" stroke="rgb(179,179,179)" stroke-linejoin="round" d="M 8306,16076 L 8306,15926"/>
 <path fill="none" stroke="rgb(179,179,179)" stroke-linejoin="round" d="M 8922,16076 L 8922,15926"/>
 <path fill="none" stroke="rgb(179,179,179)" stroke-linejoin="round" d="M 8922,16076 L 8922,15926"/>
 <path fill="none" stroke="rgb(179,179,179)" stroke-linejoin="round" d="M 9538,16076 L 9538,15926"/>
 <path fill="none" stroke="rgb(179,179,179)" stroke-linejoin="round" d="M 9538,16076 L 9538,15926"/>
 <path fill="none" stroke="rgb(179,179,179)" stroke-linejoin="round" d="M 10153,16076 L 10153,15926"/>
 <path fill="none" stroke="rgb(179,179,179)" stroke-linejoin="round" d="M 10153,16076 L 10153,15926"/>
 <path fill="none" stroke="rgb(179,179,179)" stroke-linejoin="round" d="M 10769,16076 L 10769,15926"/>
 <path fill="none" stroke="rgb(179,179,179)" stroke-linejoin="round" d="M 10769,16076 L 10769,15926"/>
 <path fill="none" stroke="rgb(179,179,179)" stroke-linejoin="round" d="M 11385,16076 L 11385,15926"/>
 <path fill="none" stroke="rgb(179,179,179)" stroke-linejoin="round" d="M 11385,16076 L 11385,15926"/>
 <path fill="none" stroke="rgb(179,179,179)" stroke-linejoin="round" d="M 12000,16076 L 12000,15926"/>
 <path fill="none" stroke="rgb(179,179,179)" stroke-linejoin="round" d="M 12000,16076 L 12000,15926"/>
 <path fill="none" stroke="rgb(179,179,179)" stroke-linejoin="round" d="M 12616,16076 L 12616,15926"/>
 <path fill="none" stroke="rgb(179,179,179)" stroke-linejoin="round" d="M 12616,16076 L 12616,15926"/>
 <path fill="none" stroke="rgb(179,179,179)" stroke-linejoin="round" d="M 13232,16076 L 13232,15926"/>
 <path fill="none" stroke="rgb(179,179,179)" stroke-linejoin="round" d="M 13232,16076 L 13232,15926"/>
 <path fill="none" stroke="rgb(179,179,179)" stroke-linejoin="round" d="M 13848,16076 L 13848,15926"/>
 <path fill="none" stroke="rgb(179,179,179)" stroke-linejoin="round" d="M 13848,16076 L 13848,15926"/>
 <path fill="none" stroke="rgb(179,179,179)" stroke-linejoin="round" d="M 14463,16076 L 14463,15926"/>
 <path fill="none" stroke="rgb(179,179,179)" stroke-linejoin="round" d="M 14463,16076 L 14463,15926"/>
 <path fill="none" stroke="rgb(179,179,179)" stroke-linejoin="round" d="M 15079,16076 L 15079,15926"/>
 <path fill="none" stroke="rgb(179,179,179)" stroke-linejoin="round" d="M 15079,16076 L 15079,15926"/>
 <path fill="none" stroke="rgb(179,179,179)" stroke-linejoin="round" d="M 15695,16076 L 15695,15926"/>
 <path fill="none" stroke="rgb(179,179,179)" stroke-linejoin="round" d="M 15695,16076 L 15695,15926"/>
 <path fill="none" stroke="rgb(179,179,179)" stroke-linejoin="round" d="M 16310,16076 L 16310,15926"/>
 <path fill="none" stroke="rgb(179,179,179)" stroke-linejoin="round" d="M 16310,16076 L 16310,15926"/>
 <path fill="none" stroke="rgb(179,179,179)" stroke-linejoin="round" d="M 16926,16076 L 16926,15926"/>
 <path fill="none" stroke="rgb(179,179,179)" stroke-linejoin="round" d="M 16926,16076 L 16926,15926"/>
 <path fill="none" stroke="rgb(179,179,179)" stroke-linejoin="round" d="M 17542,16076 L 17542,15926"/>
 <path fill="none" stroke="rgb(179,179,179)" stroke-linejoin="round" d="M 17542,16076 L 17542,15926"/>
 <path fill="none" stroke="rgb(179,179,179)" stroke-linejoin="round" d="M 18157,16076 L 18157,15926"/>
 <path fill="none" stroke="rgb(179,179,179)" stroke-linejoin="round" d="M 18157,16076 L 18157,15926"/>
 <path fill="none" stroke="rgb(179,179,179)" stroke-linejoin="round" d="M 18773,16076 L 18773,15926"/>
 <path fill="none" stroke="rgb(179,179,179)" stroke-linejoin="round" d="M 18773,16076 L 18773,15926"/>
 <path fill="none" stroke="rgb(179,179,179)" stroke-linejoin="round" d="M 19388,16076 L 19388,15926"/>
 <path fill="none" stroke="rgb(179,179,179)" stroke-linejoin="round" d="M 19388,16076 L 19388,15926"/>
 <path fill="none" stroke="rgb(179,179,179)" stroke-linejoin="round" d="M 20004,16076 L 20004,15926"/>
 <path fill="none" stroke="rgb(179,179,179)" stroke-linejoin="round" d="M 20004,16076 L 20004,15926"/>
 <path fill="none" stroke="rgb(179,179,179)" stroke-linejoin="round" d="M 20619,16076 L 20619,15926"/>
 <path fill="none" stroke="rgb(179,179,179)" stroke-linejoin="round" d="M 20619,16076 L 20619,15926"/>
 <path fill="none" stroke="rgb(179,179,179)" stroke-linejoin="round" d="M 21235,16076 L 21235,15926"/>
 <path fill="none" stroke="rgb(179,179,179)" stroke-linejoin="round" d="M 21235,16076 L 21235,15926"/>
 <path fill="none" stroke="rgb(179,179,179)" stroke-linejoin="round" d="M 21851,16076 L 21851,15926"/>
 <path fill="none" stroke="rgb(179,179,179)" stroke-linejoin="round" d="M 21851,16076 L 21851,15926"/>
 <path fill="none" stroke="rgb(179,179,179)" stroke-linejoin="round" d="M 22466,16076 L 22466,15926"/>
 <path fill="none" stroke="rgb(179,179,179)" stroke-linejoin="round" d="M 22466,16076 L 22466,15926"/>
 <path fill="none" stroke="rgb(179,179,179)" stroke-linejoin="round" d="M 23082,16076 L 23082,15926"/>
 <path fill="none" stroke="rgb(179,179,179)" stroke-linejoin="round" d="M 23082,16076 L 23082,15926"/>
 <path fill="none" stroke="rgb(179,179,179)" stroke-linejoin="round" d="M 23698,16076 L 23698,15926"/>
 <path fill="none" stroke="rgb(179,179,179)" stroke-linejoin="round" d="M 23698,16076 L 23698,15926"/>
 <path fill="none" stroke="rgb(179,179,179)" stroke-linejoin="round" d="M 24314,16076 L 24314,15926"/>
 <path fill="none" stroke="rgb(179,179,179)" stroke-linejoin="round" d="M 24314,16076 L 24314,15926"/>
 <path fill="none" stroke="rgb(179,179,179)" stroke-linejoin="round" d="M 24929,16076 L 24929,15926"/>
 <path fill="none" stroke="rgb(179,179,179)" stroke-linejoin="round" d="M 24929,16076 L 24929,15926"/>
 <path fill="none" stroke="rgb(179,179,179)" stroke-linejoin="round" d="M 25545,16076 L 25545,15926"/>
 <path fill="none" stroke="rgb(179,179,179)" stroke-linejoin="round" d="M 25545,16076 L 25545,15926"/>
 <path fill="none" stroke="rgb(179,179,179)" stroke-linejoin="round" d="M 26161,16076 L 26161,15926"/>
 <path fill="none" stroke="rgb(179,179,179)" stroke-linejoin="round" d="M 26161,16076 L 26161,15926"/>
 <path fill="none" stroke="rgb(179,179,179)" stroke-linejoin="round" d="M 26776,16076 L 26776,15926"/>
 <path fill="none" stroke="rgb(179,179,179)" stroke-linejoin="round" d="M 26776,16076 L 26776,15926"/>
 <path fill="none" stroke="rgb(179,179,179)" stroke-linejoin="round" d="M 27392,16076 L 27392,15926"/>
 <path fill="none" stroke="rgb(179,179,179)" stroke-linejoin="round" d="M 27392,16076 L 27392,15926"/>
 <path fill="none" stroke="rgb(179,179,179)" stroke-linejoin="round" d="M 28008,16076 L 28008,15926"/>
 <path fill="none" stroke="rgb(179,179,179)" stroke-linejoin="round" d="M 28008,16076 L 28008,15926"/>
 <path fill="none" stroke="rgb(179,179,179)" stroke-linejoin="round" d="M 28623,16076 L 28623,15926"/>
 <path fill="none" stroke="rgb(179,179,179)" stroke-linejoin="round" d="M 28623,16076 L 28623,15926"/>
 <path fill="none" stroke="rgb(179,179,179)" stroke-linejoin="round" d="M 29239,16076 L 29239,15926"/>
 <path fill="none" stroke="rgb(179,179,179)" stroke-linejoin="round" d="M 29239,16076 L 29239,15926"/>
 <path fill="none" stroke="rgb(179,179,179)" stroke-linejoin="round" d="M 29855,16076 L 29855,15926"/>
 <path fill="none" stroke="rgb(179,179,179)" stroke-linejoin="round" d="M 29855,16076 L 29855,15926"/>
 <path fill="none" stroke="rgb(179,179,179)" stroke-linejoin="round" d="M 30471,16076 L 30471,15926"/>
 <path fill="none" stroke="rgb(179,179,179)" stroke-linejoin="round" d="M 30471,16076 L 30471,15926"/>
 <path fill="none" stroke="rgb(179,179,179)" stroke-linejoin="round" d="M 31086,16076 L 31086,15926"/>
 <path fill="none" stroke="rgb(179,179,179)" stroke-linejoin="round" d="M 31086,16076 L 31086,15926"/>
 <path fill="none" stroke="rgb(179,179,179)" stroke-linejoin="round" d="M 31702,16076 L 31702,15926"/>
 <path fill="none" stroke="rgb(179,179,179)" stroke-linejoin="round" d="M 31702,16076 L 31702,15926"/>
 <path fill="none" stroke="rgb(179,179,179)" stroke-linejoin="round" d="M 32318,16076 L 32318,15926"/>
 <path fill="none" stroke="rgb(179,179,179)" stroke-linejoin="round" d="M 32318,16076 L 32318,15926"/>
 <path fill="none" stroke="rgb(179,179,179)" stroke-linejoin="round" d="M 32933,16076 L 32933,15926"/>
 <path fill="none" stroke="rgb(179,179,179)" stroke-linejoin="round" d="M 32933,16076 L 32933,15926"/>
 <path fill="none" stroke="rgb(179,179,179)" stroke-linejoin="round" d="M 33549,16076 L 33549,15926"/>
 <path fill="none" stroke="rgb(179,179,179)" stroke-linejoin="round" d="M 33549,16076 L 33549,15926"/>
 <path fill="none" stroke="rgb(179,179,179)" stroke-linejoin="round" d="M 34165,16076 L 34165,15926"/>
 <path fill="none" stroke="rgb(179,179,179)" stroke-linejoin="round" d="M 34165,16076 L 34165,15926"/>
 <path fill="none" stroke="rgb(179,179,179)" stroke-linejoin="round" d="M 34781,16076 L 34781,15926"/>
 <path fill="none" stroke="rgb(179,179,179)" stroke-linejoin="round" d="M 34781,16076 L 34781,15926"/>
 <path fill="none" stroke="rgb(179,179,179)" stroke-linejoin="round" d="M 3381,15926 L 34781,15926"/>
 <path fill="none" stroke="rgb(179,179,179)" stroke-linejoin="round" d="M 3231,15926 L 3381,15926"/>
 <path fill="none" stroke="rgb(179,179,179)" stroke-linejoin="round" d="M 3231,15926 L 3381,15926"/>
 <path fill="none" stroke="rgb(179,179,179)" stroke-linejoin="round" d="M 3231,14510 L 3381,14510"/>
 <path fill="none" stroke="rgb(179,179,179)" stroke-linejoin="round" d="M 3231,14510 L 3381,14510"/>
 <path fill="none" stroke="rgb(179,179,179)" stroke-linejoin="round" d="M 3231,13095 L 3381,13095"/>
 <path fill="none" stroke="rgb(179,179,179)" stroke-linejoin="round" d="M 3231,13095 L 3381,13095"/>
 <path fill="none" stroke="rgb(179,179,179)" stroke-linejoin="round" d="M 3231,11680 L 3381,11680"/>
 <path fill="none" stroke="rgb(179,179,179)" stroke-linejoin="round" d="M 3231,11680 L 3381,11680"/>
 <path fill="none" stroke="rgb(179,179,179)" stroke-linejoin="round" d="M 3231,10266 L 3381,10266"/>
 <path fill="none" stroke="rgb(179,179,179)" stroke-linejoin="round" d="M 3231,10266 L 3381,10266"/>
 <path fill="none" stroke="rgb(179,179,179)" stroke-linejoin="round" d="M 3231,8851 L 3381,8851"/>
 <path fill="none" stroke="rgb(179,179,179)" stroke-linejoin="round" d="M 3231,8851 L 3381,8851"/>
 <path fill="none" stroke="rgb(179,179,179)" stroke-linejoin="round" d="M 3231,7436 L 3381,7436"/>
 <path fill="none" stroke="rgb(179,179,179)" stroke-linejoin="round" d="M 3231,7436 L 3381,7436"/>
 <path fill="none" stroke="rgb(179,179,179)" stroke-linejoin="round" d="M 3231,6021 L 3381,6021"/>
 <path fill="none" stroke="rgb(179,179,179)" stroke-linejoin="round" d="M 3231,6021 L 3381,6021"/>
 <path fill="none" stroke="rgb(179,179,179)" stroke-linejoin="round" d="M 3231,4606 L 3381,4606"/>
 <path fill="none" stroke="rgb(179,179,179)" stroke-linejoin="round" d="M 3231,4606 L 3381,4606"/>
 <path fill="none" stroke="rgb(179,179,179)" stroke-linejoin="round" d="M 3231,3191 L 3381,3191"/>
 <path fill="none" stroke="rgb(179,179,179)" stroke-linejoin="round" d="M 3231,3191 L 3381,3191"/>
 <path fill="none" stroke="rgb(179,179,179)" stroke-linejoin="round" d="M 3231,1776 L 3381,1776"/>
 <path fill="none" stroke="rgb(179,179,179)" stroke-linejoin="round" d="M 3231,1776 L 3381,1776"/>
 <path fill="none" stroke="rgb(179,179,179)" stroke-linejoin="round" d="M 3381,15926 L 3381,1776"/>
 <path fill="rgb(0,69,134)" stroke="none" d="M 34319,15926 L 34627,15926 34627,11600 34319,11600 34319,15926 Z"/>
 <path fill="rgb(0,69,134)" stroke="none" d="M 33703,15926 L 34011,15926 34011,11443 33703,11443 33703,15926 Z"/>
 <path fill="rgb(0,69,134)" stroke="none" d="M 33087,15926 L 33395,15926 33395,11616 33087,11616 33087,15926 Z"/>
 <path fill="rgb(0,69,134)" stroke="none" d="M 32472,15926 L 32779,15926 32779,11465 32472,11465 32472,15926 Z"/>
 <path fill="rgb(0,69,134)" stroke="none" d="M 31856,15926 L 32164,15926 32164,11882 31856,11882 31856,15926 Z"/>
 <path fill="rgb(0,69,134)" stroke="none" d="M 26315,15926 L 26622,15926 26622,13567 26315,13567 26315,15926 Z"/>
 <path fill="rgb(0,69,134)" stroke="none" d="M 23236,15926 L 23544,15926 23544,1776 23236,1776 23236,15926 Z"/>
 <path fill="rgb(0,69,134)" stroke="none" d="M 22620,15926 L 22928,15926 22928,1776 22620,1776 22620,15926 Z"/>
 <path fill="rgb(0,69,134)" stroke="none" d="M 22005,15926 L 22312,15926 22312,12388 22005,12388 22005,15926 Z"/>
 <path fill="rgb(0,69,134)" stroke="none" d="M 20773,15926 L 21081,15926 21081,11680 20773,11680 20773,15926 Z"/>
 <path fill="rgb(0,69,134)" stroke="none" d="M 20157,15926 L 20465,15926 20465,13904 20157,13904 20157,15926 Z"/>
 <path fill="rgb(0,69,134)" stroke="none" d="M 18927,15926 L 19234,15926 19234,10620 18927,10620 18927,15926 Z"/>
 <path fill="rgb(0,69,134)" stroke="none" d="M 17080,15926 L 17388,15926 17388,12388 17080,12388 17080,15926 Z"/>
 <path fill="rgb(0,69,134)" stroke="none" d="M 16464,15926 L 16772,15926 16772,11209 16464,11209 16464,15926 Z"/>
 <path fill="rgb(0,69,134)" stroke="none" d="M 15849,15926 L 16156,15926 16156,12709 15849,12709 15849,15926 Z"/>
 <path fill="rgb(0,69,134)" stroke="none" d="M 15233,15926 L 15541,15926 15541,7436 15233,7436 15233,15926 Z"/>
 <path fill="rgb(0,69,134)" stroke="none" d="M 14617,15926 L 14925,15926 14925,11680 14617,11680 14617,15926 Z"/>
 <path fill="rgb(0,69,134)" stroke="none" d="M 14001,15926 L 14309,15926 14309,8851 14001,8851 14001,15926 Z"/>
 <path fill="rgb(0,69,134)" stroke="none" d="M 13386,15926 L 13694,15926 13694,12495 13386,12495 13386,15926 Z"/>
 <path fill="rgb(0,69,134)" stroke="none" d="M 12770,15926 L 13078,15926 13078,12556 12770,12556 12770,15926 Z"/>
 <path fill="rgb(0,69,134)" stroke="none" d="M 12154,15926 L 12462,15926 12462,12066 12154,12066 12154,15926 Z"/>
 <path fill="rgb(0,69,134)" stroke="none" d="M 10923,15926 L 11231,15926 11231,12781 10923,12781 10923,15926 Z"/>
 <path fill="rgb(0,69,134)" stroke="none" d="M 10307,15926 L 10615,15926 10615,13353 10307,13353 10307,15926 Z"/>
 <path fill="rgb(0,69,134)" stroke="none" d="M 9691,15926 L 9999,15926 9999,12318 9691,12318 9691,15926 Z"/>
 <path fill="rgb(0,69,134)" stroke="none" d="M 8460,15926 L 8768,15926 8768,10620 8460,10620 8460,15926 Z"/>
 <path fill="rgb(0,69,134)" stroke="none" d="M 7844,15926 L 8152,15926 8152,14039 7844,14039 7844,15926 Z"/>
 <path fill="rgb(0,69,134)" stroke="none" d="M 7229,15926 L 7537,15926 7537,12388 7229,12388 7229,15926 Z"/>
 <path fill="rgb(0,69,134)" stroke="none" d="M 6613,15926 L 6921,15926 6921,11209 6613,11209 6613,15926 Z"/>
 <path fill="rgb(0,69,134)" stroke="none" d="M 5997,15926 L 6305,15926 6305,12388 5997,12388 5997,15926 Z"/>
 <path fill="rgb(0,69,134)" stroke="none" d="M 5382,15926 L 5689,15926 5689,11995 5382,11995 5382,15926 Z"/>
 <path fill="rgb(0,69,134)" stroke="none" d="M 4766,15926 L 5074,15926 5074,9637 4766,9637 4766,15926 Z"/>
 <path fill="rgb(0,69,134)" stroke="none" d="M 4150,15926 L 4458,15926 4458,11423 4150,11423 4150,15926 Z"/>
 <path fill="rgb(0,69,134)" stroke="none" d="M 3534,15926 L 3842,15926 3842,9862 3534,9862 3534,15926 Z"/>
 <path fill="rgb(255,66,14)" stroke="none" d="M 34319,11600 L 34627,11600 34627,1776 34319,1776 34319,11600 Z"/>
 <path fill="rgb(255,66,14)" stroke="none" d="M 33703,11443 L 34011,11443 34011,1776 33703,1776 33703,11443 Z"/>
 <path fill="rgb(255,66,14)" stroke="none" d="M 33087,11616 L 33395,11616 33395,1776 33087,1776 33087,11616 Z"/>
 <path fill="rgb(255,66,14)" stroke="none" d="M 32472,11465 L 32779,11465 32779,1776 32472,1776 32472,11465 Z"/>
 <path fill="rgb(255,66,14)" stroke="none" d="M 31856,11882 L 32164,11882 32164,1776 31856,1776 31856,11882 Z"/>
 <path fill="rgb(255,66,14)" stroke="none" d="M 26930,15926 L 27238,15926 27238,1776 26930,1776 26930,15926 Z"/>
 <path fill="rgb(255,66,14)" stroke="none" d="M 26315,13567 L 26622,13567 26622,1776 26315,1776 26315,13567 Z"/>
 <path fill="rgb(255,66,14)" stroke="none" d="M 25083,15926 L 25391,15926 25391,1776 25083,1776 25083,15926 Z"/>
 <path fill="rgb(255,66,14)" stroke="none" d="M 22005,12388 L 22312,12388 22312,1776 22005,1776 22005,12388 Z"/>
 <path fill="rgb(255,66,14)" stroke="none" d="M 21389,15926 L 21697,15926 21697,1776 21389,1776 21389,15926 Z"/>
 <path fill="rgb(255,66,14)" stroke="none" d="M 20773,11680 L 21081,11680 21081,1776 20773,1776 20773,11680 Z"/>
 <path fill="rgb(255,66,14)" stroke="none" d="M 20157,13904 L 20465,13904 20465,1776 20157,1776 20157,13904 Z"/>
 <path fill="rgb(255,66,14)" stroke="none" d="M 19542,15926 L 19850,15926 19850,1776 19542,1776 19542,15926 Z"/>
 <path fill="rgb(255,66,14)" stroke="none" d="M 18927,10620 L 19234,10620 19234,1776 18927,1776 18927,10620 Z"/>
 <path fill="rgb(255,66,14)" stroke="none" d="M 18311,15926 L 18619,15926 18619,1776 18311,1776 18311,15926 Z"/>
 <path fill="rgb(255,66,14)" stroke="none" d="M 17080,12388 L 17388,12388 17388,1776 17080,1776 17080,12388 Z"/>
 <path fill="rgb(255,66,14)" stroke="none" d="M 16464,11209 L 16772,11209 16772,1776 16464,1776 16464,11209 Z"/>
 <path fill="rgb(255,66,14)" stroke="none" d="M 15849,12709 L 16156,12709 16156,1776 15849,1776 15849,12709 Z"/>
 <path fill="rgb(255,66,14)" stroke="none" d="M 15233,7436 L 15541,7436 15541,1776 15233,1776 15233,7436 Z"/>
 <path fill="rgb(255,66,14)" stroke="none" d="M 14617,11680 L 14925,11680 14925,1776 14617,1776 14617,11680 Z"/>
 <path fill="rgb(255,66,14)" stroke="none" d="M 14001,8851 L 14309,8851 14309,1776 14001,1776 14001,8851 Z"/>
 <path fill="rgb(255,66,14)" stroke="none" d="M 13386,12495 L 13694,12495 13694,1776 13386,1776 13386,12495 Z"/>
 <path fill="rgb(255,66,14)" stroke="none" d="M 12770,12556 L 13078,12556 13078,1776 12770,1776 12770,12556 Z"/>
 <path fill="rgb(255,66,14)" stroke="none" d="M 12154,12066 L 12462,12066 12462,1776 12154,1776 12154,12066 Z"/>
 <path fill="rgb(255,66,14)" stroke="none" d="M 11539,15926 L 11846,15926 11846,1776 11539,1776 11539,15926 Z"/>
 <path fill="rgb(255,66,14)" stroke="none" d="M 10923,12781 L 11231,12781 11231,1776 10923,1776 10923,12781 Z"/>
 <path fill="rgb(255,66,14)" stroke="none" d="M 10307,13353 L 10615,13353 10615,1776 10307,1776 10307,13353 Z"/>
 <path fill="rgb(255,66,14)" stroke="none" d="M 9691,12318 L 9999,12318 9999,1776 9691,1776 9691,12318 Z"/>
 <path fill="rgb(255,66,14)" stroke="none" d="M 8460,10620 L 8768,10620 8768,1776 8460,1776 8460,10620 Z"/>
 <path fill="rgb(255,66,14)" stroke="none" d="M 7844,14039 L 8152,14039 8152,1776 7844,1776 7844,14039 Z"/>
 <path fill="rgb(255,66,14)" stroke="none" d="M 7229,12388 L 7537,12388 7537,1776 7229,1776 7229,12388 Z"/>
 <path fill="rgb(255,66,14)" stroke="none" d="M 6613,11209 L 6921,11209 6921,1776 6613,1776 6613,11209 Z"/>
 <path fill="rgb(255,66,14)" stroke="none" d="M 5997,12388 L 6305,12388 6305,1776 5997,1776 5997,12388 Z"/>
 <path fill="rgb(255,66,14)" stroke="none" d="M 5382,11995 L 5689,11995 5689,1776 5382,1776 5382,11995 Z"/>
 <path fill="rgb(255,66,14)" stroke="none" d="M 4766,9637 L 5074,9637 5074,1776 4766,1776 4766,9637 Z"/>
 <path fill="rgb(255,66,14)" stroke="none" d="M 4150,11423 L 4458,11423 4458,1776 4150,1776 4150,11423 Z"/>
 <path fill="rgb(255,66,14)" stroke="none" d="M 3534,9862 L 3842,9862 3842,1776 3534,1776 3534,9862 Z"/>
 <text class="TextShape" transform="translate(1095,19077) rotate(-44.9) translate(-1095,-19077)"><tspan class="TextParagraph" font-family="Liberation Sans" font-size="353px" font-weight="400"><tspan class="TextPosition" x="1095" y="19077"><tspan fill="rgb(0,0,0)" stroke="none">Method of Focal Objects</tspan></tspan></tspan></text>
 <text class="TextShape" transform="translate(1019,19769) rotate(-44.9) translate(-1019,-19769)"><tspan class="TextParagraph" font-family="Liberation Sans" font-size="353px" font-weight="400"><tspan class="TextPosition" x="1019" y="19769"><tspan fill="rgb(0,0,0)" stroke="none">Morphological Analysis Method</tspan></tspan></tspan></text>
 <text class="TextShape" transform="translate(2721,18683) rotate(-44.9) translate(-2721,-18683)"><tspan class="TextParagraph" font-family="Liberation Sans" font-size="353px" font-weight="400"><tspan class="TextPosition" x="2721" y="18683"><tspan fill="rgb(0,0,0)" stroke="none">Check-listing Method</tspan></tspan></tspan></text>
 <text class="TextShape" transform="translate(4121,17899) rotate(-44.9) translate(-4121,-17899)"><tspan class="TextParagraph" font-family="Liberation Sans" font-size="353px" font-weight="400"><tspan class="TextPosition" x="4121" y="17899"><tspan fill="rgb(0,0,0)" stroke="none">Brainstorming</tspan></tspan></tspan></text>
 <text class="TextShape" transform="translate(2080,20555) rotate(-44.9) translate(-2080,-20555)"><tspan class="TextParagraph" font-family="Liberation Sans" font-size="353px" font-weight="400"><tspan class="TextPosition" x="2080" y="20555"><tspan fill="rgb(0,0,0)" stroke="none">Synectics (method of using analogies)</tspan></tspan></tspan></text>
 <text class="TextShape" transform="translate(4138,19113) rotate(-44.9) translate(-4138,-19113)"><tspan class="TextParagraph" font-family="Liberation Sans" font-size="353px" font-weight="400"><tspan class="TextPosition" x="4138" y="19113"><tspan fill="rgb(0,0,0)" stroke="none">(11) separation principles</tspan></tspan></tspan></text>
 <text class="TextShape" transform="translate(6006,17861) rotate(-44.9) translate(-6006,-17861)"><tspan class="TextParagraph" font-family="Liberation Sans" font-size="353px" font-weight="400"><tspan class="TextPosition" x="6006" y="17861"><tspan fill="rgb(0,0,0)" stroke="none">segmentation</tspan></tspan></tspan></text>
 <text class="TextShape" transform="translate(7015,17467) rotate(-44.9) translate(-7015,-17467)"><tspan class="TextParagraph" font-family="Liberation Sans" font-size="353px" font-weight="400"><tspan class="TextPosition" x="7015" y="17467"><tspan fill="rgb(0,0,0)" stroke="none">taking out</tspan></tspan></tspan></text>
 <text class="TextShape" transform="translate(7405,17693) rotate(-44.9) translate(-7405,-17693)"><tspan class="TextParagraph" font-family="Liberation Sans" font-size="353px" font-weight="400"><tspan class="TextPosition" x="7405" y="17693"><tspan fill="rgb(0,0,0)" stroke="none">local quality</tspan></tspan></tspan></text>
 <text class="TextShape" transform="translate(8097,17617) rotate(-44.9) translate(-8097,-17617)"><tspan class="TextParagraph" font-family="Liberation Sans" font-size="353px" font-weight="400"><tspan class="TextPosition" x="8097" y="17617"><tspan fill="rgb(0,0,0)" stroke="none">asymmetry</tspan></tspan></tspan></text>
 <text class="TextShape" transform="translate(9067,17262) rotate(-44.9) translate(-9067,-17262)"><tspan class="TextParagraph" font-family="Liberation Sans" font-size="353px" font-weight="400"><tspan class="TextPosition" x="9067" y="17262"><tspan fill="rgb(0,0,0)" stroke="none">merging</tspan></tspan></tspan></text>
 <text class="TextShape" transform="translate(9310,17636) rotate(-44.9) translate(-9310,-17636)"><tspan class="TextParagraph" font-family="Liberation Sans" font-size="353px" font-weight="400"><tspan class="TextPosition" x="9310" y="17636"><tspan fill="rgb(0,0,0)" stroke="none">universality</tspan></tspan></tspan></text>
 <text class="TextShape" transform="translate(10374,17187) rotate(-44.9) translate(-10374,-17187)"><tspan class="TextParagraph" font-family="Liberation Sans" font-size="353px" font-weight="400"><tspan class="TextPosition" x="10374" y="17187"><tspan fill="rgb(0,0,0)" stroke="none">nesting</tspan></tspan></tspan></text>
 <text class="TextShape" transform="translate(10616,17561) rotate(-44.9) translate(-10616,-17561)"><tspan class="TextParagraph" font-family="Liberation Sans" font-size="353px" font-weight="400"><tspan class="TextPosition" x="10616" y="17561"><tspan fill="rgb(0,0,0)" stroke="none">anti-weight</tspan></tspan></tspan></text>
 <text class="TextShape" transform="translate(10015,18777) rotate(-44.9) translate(-10015,-18777)"><tspan class="TextParagraph" font-family="Liberation Sans" font-size="353px" font-weight="400"><tspan class="TextPosition" x="10015" y="18777"><tspan fill="rgb(0,0,0)" stroke="none">preliminary anti-action</tspan></tspan></tspan></text>
 <text class="TextShape" transform="translate(11098,18310) rotate(-44.9) translate(-11098,-18310)"><tspan class="TextParagraph" font-family="Liberation Sans" font-size="353px" font-weight="400"><tspan class="TextPosition" x="11098" y="18310"><tspan fill="rgb(0,0,0)" stroke="none">preliminary action</tspan></tspan></tspan></text>
 <text class="TextShape" transform="translate(11191,18833) rotate(-44.9) translate(-11191,-18833)"><tspan class="TextParagraph" font-family="Liberation Sans" font-size="353px" font-weight="400"><tspan class="TextPosition" x="11191" y="18833"><tspan fill="rgb(0,0,0)" stroke="none">beforehand cushioning</tspan></tspan></tspan></text>
 <text class="TextShape" transform="translate(12610,18029) rotate(-44.9) translate(-12610,-18029)"><tspan class="TextParagraph" font-family="Liberation Sans" font-size="353px" font-weight="400"><tspan class="TextPosition" x="12610" y="18029"><tspan fill="rgb(0,0,0)" stroke="none">equipotentiality</tspan></tspan></tspan></text>
 <text class="TextShape" transform="translate(13862,17393) rotate(-44.9) translate(-13862,-17393)"><tspan class="TextParagraph" font-family="Liberation Sans" font-size="353px" font-weight="400"><tspan class="TextPosition" x="13862" y="17393"><tspan fill="rgb(0,0,0)" stroke="none">reversing</tspan></tspan></tspan></text>
 <text class="TextShape" transform="translate(14104,17767) rotate(-44.9) translate(-14104,-17767)"><tspan class="TextParagraph" font-family="Liberation Sans" font-size="353px" font-weight="400"><tspan class="TextPosition" x="14104" y="17767"><tspan fill="rgb(0,0,0)" stroke="none">spheroidality</tspan></tspan></tspan></text>
 <text class="TextShape" transform="translate(15037,17449) rotate(-44.9) translate(-15037,-17449)"><tspan class="TextParagraph" font-family="Liberation Sans" font-size="353px" font-weight="400"><tspan class="TextPosition" x="15037" y="17449"><tspan fill="rgb(0,0,0)" stroke="none">dynamics</tspan></tspan></tspan></text>
 <text class="TextShape" transform="translate(13726,19377) rotate(-44.9) translate(-13726,-19377)"><tspan class="TextParagraph" font-family="Liberation Sans" font-size="353px" font-weight="400"><tspan class="TextPosition" x="13726" y="19377"><tspan fill="rgb(0,0,0)" stroke="none">partial or excessive actions</tspan></tspan></tspan></text>
 <text class="TextShape" transform="translate(14192,19527) rotate(-44.9) translate(-14192,-19527)"><tspan class="TextParagraph" font-family="Liberation Sans" font-size="353px" font-weight="400"><tspan class="TextPosition" x="14192" y="19527"><tspan fill="rgb(0,0,0)" stroke="none">change to another dimension</tspan></tspan></tspan></text>
 <text class="TextShape" transform="translate(15706,18629) rotate(-44.9) translate(-15706,-18629)"><tspan class="TextParagraph" font-family="Liberation Sans" font-size="353px" font-weight="400"><tspan class="TextPosition" x="15706" y="18629"><tspan fill="rgb(0,0,0)" stroke="none">mechanical vibration</tspan></tspan></tspan></text>
 <text class="TextShape" transform="translate(16976,17973) rotate(-44.9) translate(-16976,-17973)"><tspan class="TextParagraph" font-family="Liberation Sans" font-size="353px" font-weight="400"><tspan class="TextPosition" x="16976" y="17973"><tspan fill="rgb(0,0,0)" stroke="none">periodic action</tspan></tspan></tspan></text>
 <text class="TextShape" transform="translate(16246,19320) rotate(-44.9) translate(-16246,-19320)"><tspan class="TextParagraph" font-family="Liberation Sans" font-size="353px" font-weight="400"><tspan class="TextPosition" x="16246" y="19320"><tspan fill="rgb(0,0,0)" stroke="none">continuity of useful actions</tspan></tspan></tspan></text>
 <text class="TextShape" transform="translate(18882,17299) rotate(-44.9) translate(-18882,-17299)"><tspan class="TextParagraph" font-family="Liberation Sans" font-size="353px" font-weight="400"><tspan class="TextPosition" x="18882" y="17299"><tspan fill="rgb(0,0,0)" stroke="none">skipping</tspan></tspan></tspan></text>
 <text class="TextShape" transform="translate(18263,18534) rotate(-44.9) translate(-18263,-18534)"><tspan class="TextParagraph" font-family="Liberation Sans" font-size="353px" font-weight="400"><tspan class="TextPosition" x="18263" y="18534"><tspan fill="rgb(0,0,0)" stroke="none">blessing in disguise</tspan></tspan></tspan></text>
 <text class="TextShape" transform="translate(20019,17393) rotate(-44.9) translate(-20019,-17393)"><tspan class="TextParagraph" font-family="Liberation Sans" font-size="353px" font-weight="400"><tspan class="TextPosition" x="20019" y="17393"><tspan fill="rgb(0,0,0)" stroke="none">feedback</tspan></tspan></tspan></text>
 <text class="TextShape" transform="translate(20298,17731) rotate(-44.9) translate(-20298,-17731)"><tspan class="TextParagraph" font-family="Liberation Sans" font-size="353px" font-weight="400"><tspan class="TextPosition" x="20298" y="17731"><tspan fill="rgb(0,0,0)" stroke="none">intermediary</tspan></tspan></tspan></text>
 <text class="TextShape" transform="translate(20989,17655) rotate(-44.9) translate(-20989,-17655)"><tspan class="TextParagraph" font-family="Liberation Sans" font-size="353px" font-weight="400"><tspan class="TextPosition" x="20989" y="17655"><tspan fill="rgb(0,0,0)" stroke="none">self-service</tspan></tspan></tspan></text>
 <text class="TextShape" transform="translate(22016,17243) rotate(-44.9) translate(-22016,-17243)"><tspan class="TextParagraph" font-family="Liberation Sans" font-size="353px" font-weight="400"><tspan class="TextPosition" x="22016" y="17243"><tspan fill="rgb(0,0,0)" stroke="none">copying</tspan></tspan></tspan></text>
 <text class="TextShape" transform="translate(20705,19171) rotate(-44.9) translate(-20705,-19171)"><tspan class="TextParagraph" font-family="Liberation Sans" font-size="353px" font-weight="400"><tspan class="TextPosition" x="20705" y="19171"><tspan fill="rgb(0,0,0)" stroke="none">cheap short-living objects</tspan></tspan></tspan></text>
 <text class="TextShape" transform="translate(21583,18909) rotate(-44.9) translate(-21583,-18909)"><tspan class="TextParagraph" font-family="Liberation Sans" font-size="353px" font-weight="400"><tspan class="TextPosition" x="21583" y="18909"><tspan fill="rgb(0,0,0)" stroke="none">mechanics substitution</tspan></tspan></tspan></text>
 <text class="TextShape" transform="translate(21805,19301) rotate(-44.9) translate(-21805,-19301)"><tspan class="TextParagraph" font-family="Liberation Sans" font-size="353px" font-weight="400"><tspan class="TextPosition" x="21805" y="19301"><tspan fill="rgb(0,0,0)" stroke="none">pneumatics and hydraulics</tspan></tspan></tspan></text>
 <text class="TextShape" transform="translate(22309,19413) rotate(-44.9) translate(-22309,-19413)"><tspan class="TextParagraph" font-family="Liberation Sans" font-size="353px" font-weight="400"><tspan class="TextPosition" x="22309" y="19413"><tspan fill="rgb(0,0,0)" stroke="none">flexible shells and thin films</tspan></tspan></tspan></text>
 <text class="TextShape" transform="translate(24141,18197) rotate(-44.9) translate(-24141,-18197)"><tspan class="TextParagraph" font-family="Liberation Sans" font-size="353px" font-weight="400"><tspan class="TextPosition" x="24141" y="18197"><tspan fill="rgb(0,0,0)" stroke="none">porous materials</tspan></tspan></tspan></text>
 <text class="TextShape" transform="translate(25168,17785) rotate(-44.9) translate(-25168,-17785)"><tspan class="TextParagraph" font-family="Liberation Sans" font-size="353px" font-weight="400"><tspan class="TextPosition" x="25168" y="17785"><tspan fill="rgb(0,0,0)" stroke="none">color change</tspan></tspan></tspan></text>
 <text class="TextShape" transform="translate(25784,17785) rotate(-44.9) translate(-25784,-17785)"><tspan class="TextParagraph" font-family="Liberation Sans" font-size="353px" font-weight="400"><tspan class="TextPosition" x="25784" y="17785"><tspan fill="rgb(0,0,0)" stroke="none">homogeneity</tspan></tspan></tspan></text>
 <text class="TextShape" transform="translate(25015,19171) rotate(-44.9) translate(-25015,-19171)"><tspan class="TextParagraph" font-family="Liberation Sans" font-size="353px" font-weight="400"><tspan class="TextPosition" x="25015" y="19171"><tspan fill="rgb(0,0,0)" stroke="none">discarding and recovering</tspan></tspan></tspan></text>
 <text class="TextShape" transform="translate(26323,18479) rotate(-44.9) translate(-26323,-18479)"><tspan class="TextParagraph" font-family="Liberation Sans" font-size="353px" font-weight="400"><tspan class="TextPosition" x="26323" y="18479"><tspan fill="rgb(0,0,0)" stroke="none">parameter changes</tspan></tspan></tspan></text>
 <text class="TextShape" transform="translate(27163,18253) rotate(-44.9) translate(-27163,-18253)"><tspan class="TextParagraph" font-family="Liberation Sans" font-size="353px" font-weight="400"><tspan class="TextPosition" x="27163" y="18253"><tspan fill="rgb(0,0,0)" stroke="none">phase transitions</tspan></tspan></tspan></text>
 <text class="TextShape" transform="translate(27646,18385) rotate(-44.9) translate(-27646,-18385)"><tspan class="TextParagraph" font-family="Liberation Sans" font-size="353px" font-weight="400"><tspan class="TextPosition" x="27646" y="18385"><tspan fill="rgb(0,0,0)" stroke="none">thermal expansion</tspan></tspan></tspan></text>
 <text class="TextShape" transform="translate(28580,18067) rotate(-44.9) translate(-28580,-18067)"><tspan class="TextParagraph" font-family="Liberation Sans" font-size="353px" font-weight="400"><tspan class="TextPosition" x="28580" y="18067"><tspan fill="rgb(0,0,0)" stroke="none">strong oxidants</tspan></tspan></tspan></text>
 <text class="TextShape" transform="translate(29047,18215) rotate(-44.9) translate(-29047,-18215)"><tspan class="TextParagraph" font-family="Liberation Sans" font-size="353px" font-weight="400"><tspan class="TextPosition" x="29047" y="18215"><tspan fill="rgb(0,0,0)" stroke="none">inert atmosphere</tspan></tspan></tspan></text>
 <text class="TextShape" transform="translate(29287,18591) rotate(-44.9) translate(-29287,-18591)"><tspan class="TextParagraph" font-family="Liberation Sans" font-size="353px" font-weight="400"><tspan class="TextPosition" x="29287" y="18591"><tspan fill="rgb(0,0,0)" stroke="none">composite materials</tspan></tspan></tspan></text>
 <text class="TextShape" transform="translate(27585,20909) rotate(-44.9) translate(-27585,-20909)"><tspan class="TextParagraph" font-family="Liberation Sans" font-size="353px" font-weight="400"><tspan class="TextPosition" x="27585" y="20909"><tspan fill="rgb(0,0,0)" stroke="none">Methods of activating creativitive thinking</tspan></tspan></tspan></text>
 <text class="TextShape" transform="translate(29453,19657) rotate(-44.9) translate(-29453,-19657)"><tspan class="TextParagraph" font-family="Liberation Sans" font-size="353px" font-weight="400"><tspan class="TextPosition" x="29453" y="19657"><tspan fill="rgb(0,0,0)" stroke="none">combine non-TRIZ techniques</tspan></tspan></tspan></text>
 <text class="TextShape" transform="translate(30087,19638) rotate(-44.9) translate(-30087,-19638)"><tspan class="TextParagraph" font-family="Liberation Sans" font-size="353px" font-weight="400"><tspan class="TextPosition" x="30087" y="19638"><tspan fill="rgb(0,0,0)" stroke="none">(40) basic creativity principles</tspan></tspan></tspan></text>
 <text class="TextShape" transform="translate(31171,19171) rotate(-44.9) translate(-31171,-19171)"><tspan class="TextParagraph" font-family="Liberation Sans" font-size="353px" font-weight="400"><tspan class="TextPosition" x="31171" y="19171"><tspan fill="rgb(0,0,0)" stroke="none">combine TRIZ techniques</tspan></tspan></tspan></text>
 <text class="TextShape" transform="translate(32498,18459) rotate(-44.9) translate(-32498,-18459)"><tspan class="TextParagraph" font-family="Liberation Sans" font-size="353px" font-weight="400"><tspan class="TextPosition" x="32498" y="18459"><tspan fill="rgb(0,0,0)" stroke="none">Number of learners</tspan></tspan></tspan></text>
 <text class="TextShape"><tspan class="TextParagraph" font-family="Liberation Sans" font-size="353px" font-weight="400"><tspan class="TextPosition" x="2152" y="16047"><tspan fill="rgb(0,0,0)" stroke="none">0.00%</tspan></tspan></tspan></text>
 <text class="TextShape"><tspan class="TextParagraph" font-family="Liberation Sans" font-size="353px" font-weight="400"><tspan class="TextPosition" x="1967" y="14631"><tspan fill="rgb(0,0,0)" stroke="none">10.00%</tspan></tspan></tspan></text>
 <text class="TextShape"><tspan class="TextParagraph" font-family="Liberation Sans" font-size="353px" font-weight="400"><tspan class="TextPosition" x="1967" y="13216"><tspan fill="rgb(0,0,0)" stroke="none">20.00%</tspan></tspan></tspan></text>
 <text class="TextShape"><tspan class="TextParagraph" font-family="Liberation Sans" font-size="353px" font-weight="400"><tspan class="TextPosition" x="1967" y="11801"><tspan fill="rgb(0,0,0)" stroke="none">30.00%</tspan></tspan></tspan></text>
 <text class="TextShape"><tspan class="TextParagraph" font-family="Liberation Sans" font-size="353px" font-weight="400"><tspan class="TextPosition" x="1967" y="10386"><tspan fill="rgb(0,0,0)" stroke="none">40.00%</tspan></tspan></tspan></text>
 <text class="TextShape"><tspan class="TextParagraph" font-family="Liberation Sans" font-size="353px" font-weight="400"><tspan class="TextPosition" x="1967" y="8971"><tspan fill="rgb(0,0,0)" stroke="none">50.00%</tspan></tspan></tspan></text>
 <text class="TextShape"><tspan class="TextParagraph" font-family="Liberation Sans" font-size="353px" font-weight="400"><tspan class="TextPosition" x="1967" y="7556"><tspan fill="rgb(0,0,0)" stroke="none">60.00%</tspan></tspan></tspan></text>
 <text class="TextShape"><tspan class="TextParagraph" font-family="Liberation Sans" font-size="353px" font-weight="400"><tspan class="TextPosition" x="1967" y="6141"><tspan fill="rgb(0,0,0)" stroke="none">70.00%</tspan></tspan></tspan></text>
 <text class="TextShape"><tspan class="TextParagraph" font-family="Liberation Sans" font-size="353px" font-weight="400"><tspan class="TextPosition" x="1967" y="4726"><tspan fill="rgb(0,0,0)" stroke="none">80.00%</tspan></tspan></tspan></text>
 <text class="TextShape"><tspan class="TextParagraph" font-family="Liberation Sans" font-size="353px" font-weight="400"><tspan class="TextPosition" x="1967" y="3311"><tspan fill="rgb(0,0,0)" stroke="none">90.00%</tspan></tspan></tspan></text>
 <text class="TextShape"><tspan class="TextParagraph" font-family="Liberation Sans" font-size="353px" font-weight="400"><tspan class="TextPosition" x="1782" y="1896"><tspan fill="rgb(0,0,0)" stroke="none">100.00%</tspan></tspan></tspan></text>
 <text class="TextShape"><tspan class="TextParagraph" font-family="Liberation Sans" font-size="459px" font-weight="700"><tspan class="TextPosition" x="8903" y="1102"><tspan fill="rgb(255,51,51)" stroke="none">Compare ratio of technical and non-technical learners per impressed creative thinking techniques</tspan></tspan></tspan></text>
 <path fill="rgb(0,69,134)" stroke="none" d="M 35770,11151 L 35664,11151 35664,10940 35875,10940 35875,11151 35770,11151 Z"/>
 <path fill="rgb(255,66,14)" stroke="none" d="M 35770,10654 L 35664,10654 35664,10443 35875,10443 35875,10654 35770,10654 Z"/>
 <text class="TextShape"><tspan class="TextParagraph" font-family="Liberation Sans" font-size="353px" font-weight="400"><tspan class="TextPosition" x="35975" y="10668"><tspan fill="rgb(0,0,0)" stroke="none">Non-technical</tspan></tspan></tspan></text>
 <text class="TextShape"><tspan class="TextParagraph" font-family="Liberation Sans" font-size="353px" font-weight="400"><tspan class="TextPosition" x="35975" y="11165"><tspan fill="rgb(0,0,0)" stroke="none">Technical</tspan></tspan></tspan></text>
</svg>