<?xml version="1.0" encoding="UTF-8"?>
<!DOCTYPE svg PUBLIC "-//W3C//DTD SVG 1.1//EN" "http://www.w3.org/Graphics/SVG/1.1/DTD/svg11.dtd">
<svg width="291mm" height="156mm" viewBox="0 0 29100 15600" version="1.1" xmlns="http://www.w3.org/2000/svg" stroke-width="28.222" stroke-linejoin="round" xml:space="preserve">
 <path fill="rgb(114,159,207)" stroke="none" d="M -1,1 L 29128,1 29128,15647 -1,15647 -1,1 Z"/>
 <path fill="none" stroke="rgb(52,101,164)" stroke-linejoin="round" d="M -1,1 L 29128,1 29128,15647 -1,15647 -1,1 Z"/>
 <path fill="rgb(255,255,255)" stroke="none" d="M 14564,15647 L -1,15647 -1,1 29128,1 29128,15647 14564,15647 Z"/>
 <path fill="none" stroke="rgb(179,179,179)" stroke-linejoin="round" d="M 12368,10098 L 3188,10098 3188,1540 21547,1540 21547,10098 12368,10098 Z"/>
 <path fill="none" stroke="rgb(179,179,179)" stroke-linejoin="round" d="M 21547,10097 L 3188,10097"/>
 <path fill="none" stroke="rgb(179,179,179)" stroke-linejoin="round" d="M 21547,9241 L 3188,9241"/>
 <path fill="none" stroke="rgb(179,179,179)" stroke-linejoin="round" d="M 21547,8385 L 3188,8385"/>
 <path fill="none" stroke="rgb(179,179,179)" stroke-linejoin="round" d="M 21547,7530 L 3188,7530"/>
 <path fill="none" stroke="rgb(179,179,179)" stroke-linejoin="round" d="M 21547,6674 L 3188,6674"/>
 <path fill="none" stroke="rgb(179,179,179)" stroke-linejoin="round" d="M 21547,5818 L 3188,5818"/>
 <path fill="none" stroke="rgb(179,179,179)" stroke-linejoin="round" d="M 21547,4962 L 3188,4962"/>
 <path fill="none" stroke="rgb(179,179,179)" stroke-linejoin="round" d="M 21547,4106 L 3188,4106"/>
 <path fill="none" stroke="rgb(179,179,179)" stroke-linejoin="round" d="M 21547,3250 L 3188,3250"/>
 <path fill="none" stroke="rgb(179,179,179)" stroke-linejoin="round" d="M 21547,2394 L 3188,2394"/>
 <path fill="none" stroke="rgb(179,179,179)" stroke-linejoin="round" d="M 21547,1539 L 3188,1539"/>
 <path fill="none" stroke="rgb(179,179,179)" stroke-linejoin="round" d="M 3188,10247 L 3188,10097"/>
 <path fill="none" stroke="rgb(179,179,179)" stroke-linejoin="round" d="M 3821,10247 L 3821,10097"/>
 <path fill="none" stroke="rgb(179,179,179)" stroke-linejoin="round" d="M 4454,10247 L 4454,10097"/>
 <path fill="none" stroke="rgb(179,179,179)" stroke-linejoin="round" d="M 5087,10247 L 5087,10097"/>
 <path fill="none" stroke="rgb(179,179,179)" stroke-linejoin="round" d="M 5720,10247 L 5720,10097"/>
 <path fill="none" stroke="rgb(179,179,179)" stroke-linejoin="round" d="M 6353,10247 L 6353,10097"/>
 <path fill="none" stroke="rgb(179,179,179)" stroke-linejoin="round" d="M 6986,10247 L 6986,10097"/>
 <path fill="none" stroke="rgb(179,179,179)" stroke-linejoin="round" d="M 7619,10247 L 7619,10097"/>
 <path fill="none" stroke="rgb(179,179,179)" stroke-linejoin="round" d="M 8252,10247 L 8252,10097"/>
 <path fill="none" stroke="rgb(179,179,179)" stroke-linejoin="round" d="M 8885,10247 L 8885,10097"/>
 <path fill="none" stroke="rgb(179,179,179)" stroke-linejoin="round" d="M 9519,10247 L 9519,10097"/>
 <path fill="none" stroke="rgb(179,179,179)" stroke-linejoin="round" d="M 10152,10247 L 10152,10097"/>
 <path fill="none" stroke="rgb(179,179,179)" stroke-linejoin="round" d="M 10785,10247 L 10785,10097"/>
 <path fill="none" stroke="rgb(179,179,179)" stroke-linejoin="round" d="M 11418,10247 L 11418,10097"/>
 <path fill="none" stroke="rgb(179,179,179)" stroke-linejoin="round" d="M 12051,10247 L 12051,10097"/>
 <path fill="none" stroke="rgb(179,179,179)" stroke-linejoin="round" d="M 12684,10247 L 12684,10097"/>
 <path fill="none" stroke="rgb(179,179,179)" stroke-linejoin="round" d="M 13317,10247 L 13317,10097"/>
 <path fill="none" stroke="rgb(179,179,179)" stroke-linejoin="round" d="M 13950,10247 L 13950,10097"/>
 <path fill="none" stroke="rgb(179,179,179)" stroke-linejoin="round" d="M 14582,10247 L 14582,10097"/>
 <path fill="none" stroke="rgb(179,179,179)" stroke-linejoin="round" d="M 15215,10247 L 15215,10097"/>
 <path fill="none" stroke="rgb(179,179,179)" stroke-linejoin="round" d="M 15849,10247 L 15849,10097"/>
 <path fill="none" stroke="rgb(179,179,179)" stroke-linejoin="round" d="M 16482,10247 L 16482,10097"/>
 <path fill="none" stroke="rgb(179,179,179)" stroke-linejoin="round" d="M 17115,10247 L 17115,10097"/>
 <path fill="none" stroke="rgb(179,179,179)" stroke-linejoin="round" d="M 17748,10247 L 17748,10097"/>
 <path fill="none" stroke="rgb(179,179,179)" stroke-linejoin="round" d="M 18381,10247 L 18381,10097"/>
 <path fill="none" stroke="rgb(179,179,179)" stroke-linejoin="round" d="M 19014,10247 L 19014,10097"/>
 <path fill="none" stroke="rgb(179,179,179)" stroke-linejoin="round" d="M 19647,10247 L 19647,10097"/>
 <path fill="none" stroke="rgb(179,179,179)" stroke-linejoin="round" d="M 20280,10247 L 20280,10097"/>
 <path fill="none" stroke="rgb(179,179,179)" stroke-linejoin="round" d="M 20913,10247 L 20913,10097"/>
 <path fill="none" stroke="rgb(179,179,179)" stroke-linejoin="round" d="M 21547,10247 L 21547,10097"/>
 <path fill="none" stroke="rgb(179,179,179)" stroke-linejoin="round" d="M 3188,10097 L 21547,10097"/>
 <path fill="none" stroke="rgb(179,179,179)" stroke-linejoin="round" d="M 3038,10097 L 3188,10097"/>
 <path fill="none" stroke="rgb(179,179,179)" stroke-linejoin="round" d="M 3038,9241 L 3188,9241"/>
 <path fill="none" stroke="rgb(179,179,179)" stroke-linejoin="round" d="M 3038,8385 L 3188,8385"/>
 <path fill="none" stroke="rgb(179,179,179)" stroke-linejoin="round" d="M 3038,7530 L 3188,7530"/>
 <path fill="none" stroke="rgb(179,179,179)" stroke-linejoin="round" d="M 3038,6674 L 3188,6674"/>
 <path fill="none" stroke="rgb(179,179,179)" stroke-linejoin="round" d="M 3038,5818 L 3188,5818"/>
 <path fill="none" stroke="rgb(179,179,179)" stroke-linejoin="round" d="M 3038,4962 L 3188,4962"/>
 <path fill="none" stroke="rgb(179,179,179)" stroke-linejoin="round" d="M 3038,4106 L 3188,4106"/>
 <path fill="none" stroke="rgb(179,179,179)" stroke-linejoin="round" d="M 3038,3250 L 3188,3250"/>
 <path fill="none" stroke="rgb(179,179,179)" stroke-linejoin="round" d="M 3038,2394 L 3188,2394"/>
 <path fill="none" stroke="rgb(179,179,179)" stroke-linejoin="round" d="M 3038,1539 L 3188,1539"/>
 <path fill="none" stroke="rgb(179,179,179)" stroke-linejoin="round" d="M 3188,10097 L 3188,1539"/>
 <path fill="rgb(0,69,134)" stroke="none" d="M 21072,10097 L 21388,10097 21388,7482 21072,7482 21072,10097 Z"/>
 <path fill="rgb(0,69,134)" stroke="none" d="M 20439,10097 L 20755,10097 20755,7387 20439,7387 20439,10097 Z"/>
 <path fill="rgb(0,69,134)" stroke="none" d="M 19805,10097 L 20122,10097 20122,7491 19805,7491 19805,10097 Z"/>
 <path fill="rgb(0,69,134)" stroke="none" d="M 19172,10097 L 19489,10097 19489,7400 19172,7400 19172,10097 Z"/>
 <path fill="rgb(0,69,134)" stroke="none" d="M 18539,10097 L 18856,10097 18856,7652 18539,7652 18539,10097 Z"/>
 <path fill="rgb(0,69,134)" stroke="none" d="M 17906,10097 L 18223,10097 18223,8670 17906,8670 17906,10097 Z"/>
 <path fill="rgb(0,69,134)" stroke="none" d="M 17273,10097 L 17590,10097 17590,7957 17273,7957 17273,10097 Z"/>
 <path fill="rgb(0,69,134)" stroke="none" d="M 16640,10097 L 16957,10097 16957,7530 16640,7530 16640,10097 Z"/>
 <path fill="rgb(0,69,134)" stroke="none" d="M 16007,10097 L 16323,10097 16323,8874 16007,8874 16007,10097 Z"/>
 <path fill="rgb(0,69,134)" stroke="none" d="M 15374,10097 L 15690,10097 15690,6888 15374,6888 15374,10097 Z"/>
 <path fill="rgb(0,69,134)" stroke="none" d="M 14109,10097 L 14425,10097 14425,7957 14109,7957 14109,10097 Z"/>
 <path fill="rgb(0,69,134)" stroke="none" d="M 13475,10097 L 13792,10097 13792,8151 13475,8151 13475,10097 Z"/>
 <path fill="rgb(0,69,134)" stroke="none" d="M 12842,10097 L 13159,10097 13159,7530 12842,7530 12842,10097 Z"/>
 <path fill="rgb(0,69,134)" stroke="none" d="M 12209,10097 L 12526,10097 12526,8022 12209,8022 12209,10097 Z"/>
 <path fill="rgb(0,69,134)" stroke="none" d="M 11576,10097 L 11893,10097 11893,8059 11576,8059 11576,10097 Z"/>
 <path fill="rgb(0,69,134)" stroke="none" d="M 10943,10097 L 11260,10097 11260,7763 10943,7763 10943,10097 Z"/>
 <path fill="rgb(0,69,134)" stroke="none" d="M 10310,10097 L 10626,10097 10626,8195 10310,8195 10310,10097 Z"/>
 <path fill="rgb(0,69,134)" stroke="none" d="M 9677,10097 L 9993,10097 9993,8540 9677,8540 9677,10097 Z"/>
 <path fill="rgb(0,69,134)" stroke="none" d="M 9044,10097 L 9360,10097 9360,7915 9044,7915 9044,10097 Z"/>
 <path fill="rgb(0,69,134)" stroke="none" d="M 8411,10097 L 8727,10097 8727,6888 8411,6888 8411,10097 Z"/>
 <path fill="rgb(0,69,134)" stroke="none" d="M 7778,10097 L 8094,10097 8094,8955 7778,8955 7778,10097 Z"/>
 <path fill="rgb(0,69,134)" stroke="none" d="M 7144,10097 L 7461,10097 7461,7957 7144,7957 7144,10097 Z"/>
 <path fill="rgb(0,69,134)" stroke="none" d="M 6511,10097 L 6828,10097 6828,7245 6511,7245 6511,10097 Z"/>
 <path fill="rgb(0,69,134)" stroke="none" d="M 5878,10097 L 6195,10097 6195,7957 5878,7957 5878,10097 Z"/>
 <path fill="rgb(0,69,134)" stroke="none" d="M 5245,10097 L 5562,10097 5562,7720 5245,7720 5245,10097 Z"/>
 <path fill="rgb(0,69,134)" stroke="none" d="M 4612,10097 L 4929,10097 4929,6294 4612,6294 4612,10097 Z"/>
 <path fill="rgb(0,69,134)" stroke="none" d="M 3979,10097 L 4295,10097 4295,7374 3979,7374 3979,10097 Z"/>
 <path fill="rgb(0,69,134)" stroke="none" d="M 3346,10097 L 3662,10097 3662,6429 3346,6429 3346,10097 Z"/>
 <path fill="rgb(255,66,14)" stroke="none" d="M 21072,7482 L 21388,7482 21388,1539 21072,1539 21072,7482 Z"/>
 <path fill="rgb(255,66,14)" stroke="none" d="M 20439,7387 L 20755,7387 20755,1539 20439,1539 20439,7387 Z"/>
 <path fill="rgb(255,66,14)" stroke="none" d="M 19805,7491 L 20122,7491 20122,1539 19805,1539 19805,7491 Z"/>
 <path fill="rgb(255,66,14)" stroke="none" d="M 19172,7400 L 19489,7400 19489,1539 19172,1539 19172,7400 Z"/>
 <path fill="rgb(255,66,14)" stroke="none" d="M 18539,7652 L 18856,7652 18856,1539 18539,1539 18539,7652 Z"/>
 <path fill="rgb(255,66,14)" stroke="none" d="M 17906,8670 L 18223,8670 18223,1539 17906,1539 17906,8670 Z"/>
 <path fill="rgb(255,66,14)" stroke="none" d="M 17273,7957 L 17590,7957 17590,1539 17273,1539 17273,7957 Z"/>
 <path fill="rgb(255,66,14)" stroke="none" d="M 16640,7530 L 16957,7530 16957,1539 16640,1539 16640,7530 Z"/>
 <path fill="rgb(255,66,14)" stroke="none" d="M 16007,8874 L 16323,8874 16323,1539 16007,1539 16007,8874 Z"/>
 <path fill="rgb(255,66,14)" stroke="none" d="M 15374,6888 L 15690,6888 15690,1539 15374,1539 15374,6888 Z"/>
 <path fill="rgb(255,66,14)" stroke="none" d="M 14741,10097 L 15057,10097 15057,1539 14741,1539 14741,10097 Z"/>
 <path fill="rgb(255,66,14)" stroke="none" d="M 14109,7957 L 14425,7957 14425,1539 14109,1539 14109,7957 Z"/>
 <path fill="rgb(255,66,14)" stroke="none" d="M 13475,8151 L 13792,8151 13792,1539 13475,1539 13475,8151 Z"/>
 <path fill="rgb(255,66,14)" stroke="none" d="M 12842,7530 L 13159,7530 13159,1539 12842,1539 12842,7530 Z"/>
 <path fill="rgb(255,66,14)" stroke="none" d="M 12209,8022 L 12526,8022 12526,1539 12209,1539 12209,8022 Z"/>
 <path fill="rgb(255,66,14)" stroke="none" d="M 11576,8059 L 11893,8059 11893,1539 11576,1539 11576,8059 Z"/>
 <path fill="rgb(255,66,14)" stroke="none" d="M 10943,7763 L 11260,7763 11260,1539 10943,1539 10943,7763 Z"/>
 <path fill="rgb(255,66,14)" stroke="none" d="M 10310,8195 L 10626,8195 10626,1539 10310,1539 10310,8195 Z"/>
 <path fill="rgb(255,66,14)" stroke="none" d="M 9677,8540 L 9993,8540 9993,1539 9677,1539 9677,8540 Z"/>
 <path fill="rgb(255,66,14)" stroke="none" d="M 9044,7915 L 9360,7915 9360,1539 9044,1539 9044,7915 Z"/>
 <path fill="rgb(255,66,14)" stroke="none" d="M 8411,6888 L 8727,6888 8727,1539 8411,1539 8411,6888 Z"/>
 <path fill="rgb(255,66,14)" stroke="none" d="M 7778,8955 L 8094,8955 8094,1539 7778,1539 7778,8955 Z"/>
 <path fill="rgb(255,66,14)" stroke="none" d="M 7144,7957 L 7461,7957 7461,1539 7144,1539 7144,7957 Z"/>
 <path fill="rgb(255,66,14)" stroke="none" d="M 6511,7245 L 6828,7245 6828,1539 6511,1539 6511,7245 Z"/>
 <path fill="rgb(255,66,14)" stroke="none" d="M 5878,7957 L 6195,7957 6195,1539 5878,1539 5878,7957 Z"/>
 <path fill="rgb(255,66,14)" stroke="none" d="M 5245,7720 L 5562,7720 5562,1539 5245,1539 5245,7720 Z"/>
 <path fill="rgb(255,66,14)" stroke="none" d="M 4612,6294 L 4929,6294 4929,1539 4612,1539 4612,6294 Z"/>
 <path fill="rgb(255,66,14)" stroke="none" d="M 3979,7374 L 4295,7374 4295,1539 3979,1539 3979,7374 Z"/>
 <path fill="rgb(255,66,14)" stroke="none" d="M 3346,6429 L 3662,6429 3662,1539 3346,1539 3346,6429 Z"/>
 <text class="TextShape" transform="translate(911,13248) rotate(-44.9) translate(-911,-13248)"><tspan class="TextParagraph" font-family="Arial, sans-serif" font-size="353px" font-weight="400"><tspan class="TextPosition" x="911" y="13248"><tspan fill="rgb(49,54,59)" stroke="none">Method of Focal Objects</tspan></tspan></tspan></text>
 <text class="TextShape" transform="translate(852,13940) rotate(-44.9) translate(-852,-13940)"><tspan class="TextParagraph" font-family="Arial, sans-serif" font-size="353px" font-weight="400"><tspan class="TextPosition" x="852" y="13940"><tspan fill="rgb(49,54,59)" stroke="none">Morphological Analysis Method</tspan></tspan></tspan></text>
 <text class="TextShape" transform="translate(2571,12854) rotate(-44.9) translate(-2571,-12854)"><tspan class="TextParagraph" font-family="Arial, sans-serif" font-size="353px" font-weight="400"><tspan class="TextPosition" x="2571" y="12854"><tspan fill="rgb(49,54,59)" stroke="none">Check-listing Method</tspan></tspan></tspan></text>
 <text class="TextShape" transform="translate(3989,12070) rotate(-44.9) translate(-3989,-12070)"><tspan class="TextParagraph" font-family="Arial, sans-serif" font-size="353px" font-weight="400"><tspan class="TextPosition" x="3989" y="12070"><tspan fill="rgb(49,54,59)" stroke="none">Brainstorming</tspan></tspan></tspan></text>
 <text class="TextShape" transform="translate(1965,14726) rotate(-44.9) translate(-1965,-14726)"><tspan class="TextParagraph" font-family="Arial, sans-serif" font-size="353px" font-weight="400"><tspan class="TextPosition" x="1965" y="14726"><tspan fill="rgb(49,54,59)" stroke="none">Synectics (method of using analogies)</tspan></tspan></tspan></text>
 <text class="TextShape" transform="translate(4041,13284) rotate(-44.9) translate(-4041,-13284)"><tspan class="TextParagraph" font-family="Arial, sans-serif" font-size="353px" font-weight="400"><tspan class="TextPosition" x="4041" y="13284"><tspan fill="rgb(49,54,59)" stroke="none">(11) separation principles</tspan></tspan></tspan></text>
 <text class="TextShape" transform="translate(5926,12032) rotate(-44.9) translate(-5926,-12032)"><tspan class="TextParagraph" font-family="Arial, sans-serif" font-size="353px" font-weight="400"><tspan class="TextPosition" x="5926" y="12032"><tspan fill="rgb(49,54,59)" stroke="none">segmentation</tspan></tspan></tspan></text>
 <text class="TextShape" transform="translate(6953,11638) rotate(-44.9) translate(-6953,-11638)"><tspan class="TextParagraph" font-family="Arial, sans-serif" font-size="353px" font-weight="400"><tspan class="TextPosition" x="6953" y="11638"><tspan fill="rgb(49,54,59)" stroke="none">taking out</tspan></tspan></tspan></text>
 <text class="TextShape" transform="translate(7360,11864) rotate(-44.9) translate(-7360,-11864)"><tspan class="TextParagraph" font-family="Arial, sans-serif" font-size="353px" font-weight="400"><tspan class="TextPosition" x="7360" y="11864"><tspan fill="rgb(49,54,59)" stroke="none">local quality</tspan></tspan></tspan></text>
 <text class="TextShape" transform="translate(8424,11433) rotate(-44.9) translate(-8424,-11433)"><tspan class="TextParagraph" font-family="Arial, sans-serif" font-size="353px" font-weight="400"><tspan class="TextPosition" x="8424" y="11433"><tspan fill="rgb(49,54,59)" stroke="none">merging</tspan></tspan></tspan></text>
 <text class="TextShape" transform="translate(8684,11807) rotate(-44.9) translate(-8684,-11807)"><tspan class="TextParagraph" font-family="Arial, sans-serif" font-size="353px" font-weight="400"><tspan class="TextPosition" x="8684" y="11807"><tspan fill="rgb(49,54,59)" stroke="none">universality</tspan></tspan></tspan></text>
 <text class="TextShape" transform="translate(9765,11358) rotate(-44.9) translate(-9765,-11358)"><tspan class="TextParagraph" font-family="Arial, sans-serif" font-size="353px" font-weight="400"><tspan class="TextPosition" x="9765" y="11358"><tspan fill="rgb(49,54,59)" stroke="none">nesting</tspan></tspan></tspan></text>
 <text class="TextShape" transform="translate(8808,12948) rotate(-44.9) translate(-8808,-12948)"><tspan class="TextParagraph" font-family="Arial, sans-serif" font-size="353px" font-weight="400"><tspan class="TextPosition" x="8808" y="12948"><tspan fill="rgb(49,54,59)" stroke="none">preliminary anti-action</tspan></tspan></tspan></text>
 <text class="TextShape" transform="translate(9908,12481) rotate(-44.9) translate(-9908,-12481)"><tspan class="TextParagraph" font-family="Arial, sans-serif" font-size="353px" font-weight="400"><tspan class="TextPosition" x="9908" y="12481"><tspan fill="rgb(49,54,59)" stroke="none">preliminary action</tspan></tspan></tspan></text>
 <text class="TextShape" transform="translate(10019,13004) rotate(-44.9) translate(-10019,-13004)"><tspan class="TextParagraph" font-family="Arial, sans-serif" font-size="353px" font-weight="400"><tspan class="TextPosition" x="10019" y="13004"><tspan fill="rgb(49,54,59)" stroke="none">beforehand cushioning</tspan></tspan></tspan></text>
 <text class="TextShape" transform="translate(12092,11564) rotate(-44.9) translate(-12092,-11564)"><tspan class="TextParagraph" font-family="Arial, sans-serif" font-size="353px" font-weight="400"><tspan class="TextPosition" x="12092" y="11564"><tspan fill="rgb(49,54,59)" stroke="none">reversing</tspan></tspan></tspan></text>
 <text class="TextShape" transform="translate(12669,11620) rotate(-44.9) translate(-12669,-11620)"><tspan class="TextParagraph" font-family="Arial, sans-serif" font-size="353px" font-weight="400"><tspan class="TextPosition" x="12669" y="11620"><tspan fill="rgb(49,54,59)" stroke="none">dynamics</tspan></tspan></tspan></text>
 <text class="TextShape" transform="translate(11225,13698) rotate(-44.9) translate(-11225,-13698)"><tspan class="TextParagraph" font-family="Arial, sans-serif" font-size="353px" font-weight="400"><tspan class="TextPosition" x="11225" y="13698"><tspan fill="rgb(49,54,59)" stroke="none">change to another dimension</tspan></tspan></tspan></text>
 <text class="TextShape" transform="translate(13411,12144) rotate(-44.9) translate(-13411,-12144)"><tspan class="TextParagraph" font-family="Arial, sans-serif" font-size="353px" font-weight="400"><tspan class="TextPosition" x="13411" y="12144"><tspan fill="rgb(49,54,59)" stroke="none">periodic action</tspan></tspan></tspan></text>
 <text class="TextShape" transform="translate(12698,13491) rotate(-44.9) translate(-12698,-13491)"><tspan class="TextParagraph" font-family="Arial, sans-serif" font-size="353px" font-weight="400"><tspan class="TextPosition" x="12698" y="13491"><tspan fill="rgb(49,54,59)" stroke="none">continuity of useful actions</tspan></tspan></tspan></text>
 <text class="TextShape" transform="translate(14117,12705) rotate(-44.9) translate(-14117,-12705)"><tspan class="TextParagraph" font-family="Arial, sans-serif" font-size="353px" font-weight="400"><tspan class="TextPosition" x="14117" y="12705"><tspan fill="rgb(49,54,59)" stroke="none">blessing in disguise</tspan></tspan></tspan></text>
 <text class="TextShape" transform="translate(15890,11564) rotate(-44.9) translate(-15890,-11564)"><tspan class="TextParagraph" font-family="Arial, sans-serif" font-size="353px" font-weight="400"><tspan class="TextPosition" x="15890" y="11564"><tspan fill="rgb(49,54,59)" stroke="none">feedback</tspan></tspan></tspan></text>
 <text class="TextShape" transform="translate(16261,11826) rotate(-44.9) translate(-16261,-11826)"><tspan class="TextParagraph" font-family="Arial, sans-serif" font-size="353px" font-weight="400"><tspan class="TextPosition" x="16261" y="11826"><tspan fill="rgb(49,54,59)" stroke="none">self-service</tspan></tspan></tspan></text>
 <text class="TextShape" transform="translate(16764,11956) rotate(-44.9) translate(-16764,-11956)"><tspan class="TextParagraph" font-family="Arial, sans-serif" font-size="353px" font-weight="400"><tspan class="TextPosition" x="16764" y="11956"><tspan fill="rgb(49,54,59)" stroke="none">color change</tspan></tspan></tspan></text>
 <text class="TextShape" transform="translate(14274,15080) rotate(-44.9) translate(-14274,-15080)"><tspan class="TextParagraph" font-family="Arial, sans-serif" font-size="353px" font-weight="400"><tspan class="TextPosition" x="14274" y="15080"><tspan fill="rgb(49,54,59)" stroke="none">Methods of activating creativitive thinking</tspan></tspan></tspan></text>
 <text class="TextShape" transform="translate(16159,13828) rotate(-44.9) translate(-16159,-13828)"><tspan class="TextParagraph" font-family="Arial, sans-serif" font-size="353px" font-weight="400"><tspan class="TextPosition" x="16159" y="13828"><tspan fill="rgb(49,54,59)" stroke="none">combine non-TRIZ techniques</tspan></tspan></tspan></text>
 <text class="TextShape" transform="translate(16811,13809) rotate(-44.9) translate(-16811,-13809)"><tspan class="TextParagraph" font-family="Arial, sans-serif" font-size="353px" font-weight="400"><tspan class="TextPosition" x="16811" y="13809"><tspan fill="rgb(49,54,59)" stroke="none">(40) basic creativity principles</tspan></tspan></tspan></text>
 <text class="TextShape" transform="translate(17912,13342) rotate(-44.9) translate(-17912,-13342)"><tspan class="TextParagraph" font-family="Arial, sans-serif" font-size="353px" font-weight="400"><tspan class="TextPosition" x="17912" y="13342"><tspan fill="rgb(49,54,59)" stroke="none">combine TRIZ techniques</tspan></tspan></tspan></text>
 <text class="TextShape" transform="translate(19256,12630) rotate(-44.9) translate(-19256,-12630)"><tspan class="TextParagraph" font-family="Arial, sans-serif" font-size="353px" font-weight="400"><tspan class="TextPosition" x="19256" y="12630"><tspan fill="rgb(49,54,59)" stroke="none">Number of learners</tspan></tspan></tspan></text>
 <text class="TextShape"><tspan class="TextParagraph" font-family="Arial, sans-serif" font-size="353px" font-weight="400"><tspan class="TextPosition" x="1959" y="10218"><tspan fill="rgb(49,54,59)" stroke="none">0.00%</tspan></tspan></tspan></text>
 <text class="TextShape"><tspan class="TextParagraph" font-family="Arial, sans-serif" font-size="353px" font-weight="400"><tspan class="TextPosition" x="1774" y="9362"><tspan fill="rgb(49,54,59)" stroke="none">10.00%</tspan></tspan></tspan></text>
 <text class="TextShape"><tspan class="TextParagraph" font-family="Arial, sans-serif" font-size="353px" font-weight="400"><tspan class="TextPosition" x="1774" y="8506"><tspan fill="rgb(49,54,59)" stroke="none">20.00%</tspan></tspan></tspan></text>
 <text class="TextShape"><tspan class="TextParagraph" font-family="Arial, sans-serif" font-size="353px" font-weight="400"><tspan class="TextPosition" x="1774" y="7650"><tspan fill="rgb(49,54,59)" stroke="none">30.00%</tspan></tspan></tspan></text>
 <text class="TextShape"><tspan class="TextParagraph" font-family="Arial, sans-serif" font-size="353px" font-weight="400"><tspan class="TextPosition" x="1774" y="6794"><tspan fill="rgb(49,54,59)" stroke="none">40.00%</tspan></tspan></tspan></text>
 <text class="TextShape"><tspan class="TextParagraph" font-family="Arial, sans-serif" font-size="353px" font-weight="400"><tspan class="TextPosition" x="1774" y="5938"><tspan fill="rgb(49,54,59)" stroke="none">50.00%</tspan></tspan></tspan></text>
 <text class="TextShape"><tspan class="TextParagraph" font-family="Arial, sans-serif" font-size="353px" font-weight="400"><tspan class="TextPosition" x="1774" y="5082"><tspan fill="rgb(49,54,59)" stroke="none">60.00%</tspan></tspan></tspan></text>
 <text class="TextShape"><tspan class="TextParagraph" font-family="Arial, sans-serif" font-size="353px" font-weight="400"><tspan class="TextPosition" x="1774" y="4226"><tspan fill="rgb(49,54,59)" stroke="none">70.00%</tspan></tspan></tspan></text>
 <text class="TextShape"><tspan class="TextParagraph" font-family="Arial, sans-serif" font-size="353px" font-weight="400"><tspan class="TextPosition" x="1774" y="3370"><tspan fill="rgb(49,54,59)" stroke="none">80.00%</tspan></tspan></tspan></text>
 <text class="TextShape"><tspan class="TextParagraph" font-family="Arial, sans-serif" font-size="353px" font-weight="400"><tspan class="TextPosition" x="1774" y="2514"><tspan fill="rgb(49,54,59)" stroke="none">90.00%</tspan></tspan></tspan></text>
 <text class="TextShape"><tspan class="TextParagraph" font-family="Arial, sans-serif" font-size="353px" font-weight="400"><tspan class="TextPosition" x="1589" y="1659"><tspan fill="rgb(49,54,59)" stroke="none">100.00%</tspan></tspan></tspan></text>
 <text class="TextShape"><tspan class="TextParagraph" font-family="Arial, sans-serif" font-size="459px" font-weight="700"><tspan class="TextPosition" x="4549" y="984"><tspan fill="rgb(49,54,59)" stroke="none">Compare ratio technical and non-technical learners per impressed creative thinking techniques</tspan></tspan></tspan></text>
 <path fill="rgb(0,69,134)" stroke="none" d="M 22351,8177 L 22245,8177 22245,7966 22456,7966 22456,8177 22351,8177 Z"/>
 <path fill="rgb(255,66,14)" stroke="none" d="M 22351,7680 L 22245,7680 22245,7469 22456,7469 22456,7680 22351,7680 Z"/>
 <text class="TextShape"><tspan class="TextParagraph" font-family="Arial, sans-serif" font-size="353px" font-weight="400"><tspan class="TextPosition" x="22556" y="7694"><tspan fill="rgb(49,54,59)" stroke="none">Learners with non-technical backgrounds</tspan></tspan></tspan></text>
 <text class="TextShape"><tspan class="TextParagraph" font-family="Arial, sans-serif" font-size="353px" font-weight="400"><tspan class="TextPosition" x="22556" y="8191"><tspan fill="rgb(49,54,59)" stroke="none">Learners with technical backgrounds</tspan></tspan></tspan></text>
</svg>