<?xml version="1.0" encoding="UTF-8"?>
<!DOCTYPE svg PUBLIC "-//W3C//DTD SVG 1.1//EN" "http://www.w3.org/Graphics/SVG/1.1/DTD/svg11.dtd">
<svg width="292mm" height="149mm" viewBox="0 0 29200 14900" version="1.1" xmlns="http://www.w3.org/2000/svg" stroke-width="28.222" stroke-linejoin="round" xml:space="preserve">
 <path fill="rgb(114,159,207)" stroke="none" d="M -1,1 L 29189,1 29189,14900 -1,14900 -1,1 Z"/>
 <path fill="none" stroke="rgb(52,101,164)" stroke-linejoin="round" d="M -1,1 L 29189,1 29189,14900 -1,14900 -1,1 Z"/>
 <path fill="rgb(255,255,255)" stroke="none" d="M 14594,14900 L -1,14900 -1,1 29189,1 29189,14900 14594,14900 Z"/>
 <path fill="none" stroke="rgb(179,179,179)" stroke-linejoin="round" d="M 14064,13955 L 6707,13955 6707,1512 21420,1512 21420,13955 14064,13955 Z"/>
 <path fill="none" stroke="rgb(179,179,179)" stroke-linejoin="round" d="M 6707,1511 L 6707,13954"/>
 <path fill="none" stroke="rgb(179,179,179)" stroke-linejoin="round" d="M 9159,1511 L 9159,13954"/>
 <path fill="none" stroke="rgb(179,179,179)" stroke-linejoin="round" d="M 11611,1511 L 11611,13954"/>
 <path fill="none" stroke="rgb(179,179,179)" stroke-linejoin="round" d="M 14064,1511 L 14064,13954"/>
 <path fill="none" stroke="rgb(179,179,179)" stroke-linejoin="round" d="M 16515,1511 L 16515,13954"/>
 <path fill="none" stroke="rgb(179,179,179)" stroke-linejoin="round" d="M 18967,1511 L 18967,13954"/>
 <path fill="none" stroke="rgb(179,179,179)" stroke-linejoin="round" d="M 21420,1511 L 21420,13954"/>
 <path fill="none" stroke="rgb(179,179,179)" stroke-linejoin="round" d="M 6557,13954 L 6707,13954"/>
 <path fill="none" stroke="rgb(179,179,179)" stroke-linejoin="round" d="M 6557,13435 L 6707,13435"/>
 <path fill="none" stroke="rgb(179,179,179)" stroke-linejoin="round" d="M 6557,12917 L 6707,12917"/>
 <path fill="none" stroke="rgb(179,179,179)" stroke-linejoin="round" d="M 6557,12398 L 6707,12398"/>
 <path fill="none" stroke="rgb(179,179,179)" stroke-linejoin="round" d="M 6557,11880 L 6707,11880"/>
 <path fill="none" stroke="rgb(179,179,179)" stroke-linejoin="round" d="M 6557,11361 L 6707,11361"/>
 <path fill="none" stroke="rgb(179,179,179)" stroke-linejoin="round" d="M 6557,10843 L 6707,10843"/>
 <path fill="none" stroke="rgb(179,179,179)" stroke-linejoin="round" d="M 6557,10324 L 6707,10324"/>
 <path fill="none" stroke="rgb(179,179,179)" stroke-linejoin="round" d="M 6557,9806 L 6707,9806"/>
 <path fill="none" stroke="rgb(179,179,179)" stroke-linejoin="round" d="M 6557,9287 L 6707,9287"/>
 <path fill="none" stroke="rgb(179,179,179)" stroke-linejoin="round" d="M 6557,8769 L 6707,8769"/>
 <path fill="none" stroke="rgb(179,179,179)" stroke-linejoin="round" d="M 6557,8250 L 6707,8250"/>
 <path fill="none" stroke="rgb(179,179,179)" stroke-linejoin="round" d="M 6557,7732 L 6707,7732"/>
 <path fill="none" stroke="rgb(179,179,179)" stroke-linejoin="round" d="M 6557,7214 L 6707,7214"/>
 <path fill="none" stroke="rgb(179,179,179)" stroke-linejoin="round" d="M 6557,6696 L 6707,6696"/>
 <path fill="none" stroke="rgb(179,179,179)" stroke-linejoin="round" d="M 6557,6177 L 6707,6177"/>
 <path fill="none" stroke="rgb(179,179,179)" stroke-linejoin="round" d="M 6557,5659 L 6707,5659"/>
 <path fill="none" stroke="rgb(179,179,179)" stroke-linejoin="round" d="M 6557,5140 L 6707,5140"/>
 <path fill="none" stroke="rgb(179,179,179)" stroke-linejoin="round" d="M 6557,4622 L 6707,4622"/>
 <path fill="none" stroke="rgb(179,179,179)" stroke-linejoin="round" d="M 6557,4103 L 6707,4103"/>
 <path fill="none" stroke="rgb(179,179,179)" stroke-linejoin="round" d="M 6557,3585 L 6707,3585"/>
 <path fill="none" stroke="rgb(179,179,179)" stroke-linejoin="round" d="M 6557,3066 L 6707,3066"/>
 <path fill="none" stroke="rgb(179,179,179)" stroke-linejoin="round" d="M 6557,2548 L 6707,2548"/>
 <path fill="none" stroke="rgb(179,179,179)" stroke-linejoin="round" d="M 6557,2029 L 6707,2029"/>
 <path fill="none" stroke="rgb(179,179,179)" stroke-linejoin="round" d="M 6557,1511 L 6707,1511"/>
 <path fill="none" stroke="rgb(179,179,179)" stroke-linejoin="round" d="M 6707,13954 L 6707,1511"/>
 <path fill="none" stroke="rgb(179,179,179)" stroke-linejoin="round" d="M 6707,14104 L 6707,13954"/>
 <path fill="none" stroke="rgb(179,179,179)" stroke-linejoin="round" d="M 9159,14104 L 9159,13954"/>
 <path fill="none" stroke="rgb(179,179,179)" stroke-linejoin="round" d="M 11611,14104 L 11611,13954"/>
 <path fill="none" stroke="rgb(179,179,179)" stroke-linejoin="round" d="M 14064,14104 L 14064,13954"/>
 <path fill="none" stroke="rgb(179,179,179)" stroke-linejoin="round" d="M 16515,14104 L 16515,13954"/>
 <path fill="none" stroke="rgb(179,179,179)" stroke-linejoin="round" d="M 18967,14104 L 18967,13954"/>
 <path fill="none" stroke="rgb(179,179,179)" stroke-linejoin="round" d="M 21420,14104 L 21420,13954"/>
 <path fill="none" stroke="rgb(179,179,179)" stroke-linejoin="round" d="M 6707,13954 L 21420,13954"/>
 <path fill="rgb(0,69,134)" stroke="none" d="M 6707,1964 L 6707,1835 6952,1835 6952,1964 6707,1964 Z"/>
 <path fill="rgb(0,69,134)" stroke="none" d="M 6707,2483 L 6707,2353 7197,2353 7197,2483 6707,2483 Z"/>
 <path fill="rgb(0,69,134)" stroke="none" d="M 6707,3001 L 6707,2872 7442,2872 7442,3001 6707,3001 Z"/>
 <path fill="rgb(0,69,134)" stroke="none" d="M 6707,3520 L 6707,3390 7197,3390 7197,3520 6707,3520 Z"/>
 <path fill="rgb(0,69,134)" stroke="none" d="M 6707,4038 L 6707,3909 8914,3909 8914,4038 6707,4038 Z"/>
 <path fill="rgb(0,69,134)" stroke="none" d="M 6707,5075 L 6707,4946 7197,4946 7197,5075 6707,5075 Z"/>
 <path fill="rgb(0,69,134)" stroke="none" d="M 6707,5594 L 6707,5464 7933,5464 7933,5594 6707,5594 Z"/>
 <path fill="rgb(0,69,134)" stroke="none" d="M 6707,6112 L 6707,5983 7442,5983 7442,6112 6707,6112 Z"/>
 <path fill="rgb(0,69,134)" stroke="none" d="M 6707,6631 L 6707,6501 8668,6501 8668,6631 6707,6631 Z"/>
 <path fill="rgb(0,69,134)" stroke="none" d="M 6707,7149 L 6707,7020 7933,7020 7933,7149 6707,7149 Z"/>
 <path fill="rgb(0,69,134)" stroke="none" d="M 6707,7667 L 6707,7537 8178,7537 8178,7667 6707,7667 Z"/>
 <path fill="rgb(0,69,134)" stroke="none" d="M 6707,8185 L 6707,8056 7197,8056 7197,8185 6707,8185 Z"/>
 <path fill="rgb(0,69,134)" stroke="none" d="M 6707,8704 L 6707,8574 7197,8574 7197,8704 6707,8704 Z"/>
 <path fill="rgb(0,69,134)" stroke="none" d="M 6707,9222 L 6707,9093 9895,9093 9895,9222 6707,9222 Z"/>
 <path fill="rgb(0,69,134)" stroke="none" d="M 6707,9741 L 6707,9611 7442,9611 7442,9741 6707,9741 Z"/>
 <path fill="rgb(0,69,134)" stroke="none" d="M 6707,10259 L 6707,10130 7197,10130 7197,10259 6707,10259 Z"/>
 <path fill="rgb(0,69,134)" stroke="none" d="M 6707,10778 L 6707,10648 8423,10648 8423,10778 6707,10778 Z"/>
 <path fill="rgb(0,69,134)" stroke="none" d="M 6707,11296 L 6707,11167 7442,11167 7442,11296 6707,11296 Z"/>
 <path fill="rgb(0,69,134)" stroke="none" d="M 6707,11815 L 6707,11685 7197,11685 7197,11815 6707,11815 Z"/>
 <path fill="rgb(0,69,134)" stroke="none" d="M 6707,12333 L 6707,12204 7933,12204 7933,12333 6707,12333 Z"/>
 <path fill="rgb(0,69,134)" stroke="none" d="M 6707,12852 L 6707,12722 7687,12722 7687,12852 6707,12852 Z"/>
 <path fill="rgb(0,69,134)" stroke="none" d="M 6707,13370 L 6707,13241 8423,13241 8423,13370 6707,13370 Z"/>
 <path fill="rgb(0,69,134)" stroke="none" d="M 6707,13889 L 6707,13759 8178,13759 8178,13889 6707,13889 Z"/>
 <path fill="rgb(255,66,14)" stroke="none" d="M 6707,1835 L 6707,1705 7933,1705 7933,1835 6707,1835 Z"/>
 <path fill="rgb(255,66,14)" stroke="none" d="M 6707,2353 L 6707,2223 8178,2223 8178,2353 6707,2353 Z"/>
 <path fill="rgb(255,66,14)" stroke="none" d="M 6707,2872 L 6707,2742 8423,2742 8423,2872 6707,2872 Z"/>
 <path fill="rgb(255,66,14)" stroke="none" d="M 6707,3390 L 6707,3260 9649,3260 9649,3390 6707,3390 Z"/>
 <path fill="rgb(255,66,14)" stroke="none" d="M 6707,3909 L 6707,3779 10385,3779 10385,3909 6707,3909 Z"/>
 <path fill="rgb(255,66,14)" stroke="none" d="M 6707,4427 L 6707,4297 8178,4297 8178,4427 6707,4427 Z"/>
 <path fill="rgb(255,66,14)" stroke="none" d="M 6707,4946 L 6707,4816 8178,4816 8178,4946 6707,4946 Z"/>
 <path fill="rgb(255,66,14)" stroke="none" d="M 6707,5464 L 6707,5334 10875,5334 10875,5464 6707,5464 Z"/>
 <path fill="rgb(255,66,14)" stroke="none" d="M 6707,5983 L 6707,5853 8423,5853 8423,5983 6707,5983 Z"/>
 <path fill="rgb(255,66,14)" stroke="none" d="M 6707,6501 L 6707,6371 12837,6371 12837,6501 6707,6501 Z"/>
 <path fill="rgb(255,66,14)" stroke="none" d="M 6707,7020 L 6707,6890 10630,6890 10630,7020 6707,7020 Z"/>
 <path fill="rgb(255,66,14)" stroke="none" d="M 6707,7537 L 6707,7408 10630,7408 10630,7537 6707,7537 Z"/>
 <path fill="rgb(255,66,14)" stroke="none" d="M 6707,8056 L 6707,7926 8423,7926 8423,8056 6707,8056 Z"/>
 <path fill="rgb(255,66,14)" stroke="none" d="M 6707,8574 L 6707,8444 8914,8444 8914,8574 6707,8574 Z"/>
 <path fill="rgb(255,66,14)" stroke="none" d="M 6707,9093 L 6707,8963 16024,8963 16024,9093 6707,9093 Z"/>
 <path fill="rgb(255,66,14)" stroke="none" d="M 6707,9611 L 6707,9481 7933,9481 7933,9611 6707,9611 Z"/>
 <path fill="rgb(255,66,14)" stroke="none" d="M 6707,10130 L 6707,10000 9895,10000 9895,10130 6707,10130 Z"/>
 <path fill="rgb(255,66,14)" stroke="none" d="M 6707,10648 L 6707,10518 11856,10518 11856,10648 6707,10648 Z"/>
 <path fill="rgb(255,66,14)" stroke="none" d="M 6707,11167 L 6707,11037 8178,11037 8178,11167 6707,11167 Z"/>
 <path fill="rgb(255,66,14)" stroke="none" d="M 6707,11685 L 6707,11555 8178,11555 8178,11685 6707,11685 Z"/>
 <path fill="rgb(255,66,14)" stroke="none" d="M 6707,12204 L 6707,12074 9895,12074 9895,12204 6707,12204 Z"/>
 <path fill="rgb(255,66,14)" stroke="none" d="M 6707,12722 L 6707,12592 7933,12592 7933,12722 6707,12722 Z"/>
 <path fill="rgb(255,66,14)" stroke="none" d="M 6707,13241 L 6707,13111 10385,13111 10385,13241 6707,13241 Z"/>
 <path fill="rgb(255,66,14)" stroke="none" d="M 6707,13759 L 6707,13629 8668,13629 8668,13759 6707,13759 Z"/>
 <path fill="rgb(255,211,32)" stroke="none" d="M 6707,1705 L 6707,1575 8178,1575 8178,1705 6707,1705 Z"/>
 <path fill="rgb(255,211,32)" stroke="none" d="M 6707,2223 L 6707,2094 8668,2094 8668,2223 6707,2223 Z"/>
 <path fill="rgb(255,211,32)" stroke="none" d="M 6707,2742 L 6707,2612 9159,2612 9159,2742 6707,2742 Z"/>
 <path fill="rgb(255,211,32)" stroke="none" d="M 6707,3260 L 6707,3131 10140,3131 10140,3260 6707,3260 Z"/>
 <path fill="rgb(255,211,32)" stroke="none" d="M 6707,3779 L 6707,3649 12592,3649 12592,3779 6707,3779 Z"/>
 <path fill="rgb(255,211,32)" stroke="none" d="M 6707,4297 L 6707,4168 8178,4168 8178,4297 6707,4297 Z"/>
 <path fill="rgb(255,211,32)" stroke="none" d="M 6707,4816 L 6707,4686 8668,4686 8668,4816 6707,4816 Z"/>
 <path fill="rgb(255,211,32)" stroke="none" d="M 6707,5334 L 6707,5205 12102,5205 12102,5334 6707,5334 Z"/>
 <path fill="rgb(255,211,32)" stroke="none" d="M 6707,5853 L 6707,5723 9159,5723 9159,5853 6707,5853 Z"/>
 <path fill="rgb(255,211,32)" stroke="none" d="M 6707,6371 L 6707,6242 14798,6242 14798,6371 6707,6371 Z"/>
 <path fill="rgb(255,211,32)" stroke="none" d="M 6707,6890 L 6707,6760 11856,6760 11856,6890 6707,6890 Z"/>
 <path fill="rgb(255,211,32)" stroke="none" d="M 6707,7408 L 6707,7279 12102,7279 12102,7408 6707,7408 Z"/>
 <path fill="rgb(255,211,32)" stroke="none" d="M 6707,7926 L 6707,7796 8914,7796 8914,7926 6707,7926 Z"/>
 <path fill="rgb(255,211,32)" stroke="none" d="M 6707,8444 L 6707,8315 9404,8315 9404,8444 6707,8444 Z"/>
 <path fill="rgb(255,211,32)" stroke="none" d="M 6707,8963 L 6707,8833 19212,8833 19212,8963 6707,8963 Z"/>
 <path fill="rgb(255,211,32)" stroke="none" d="M 6707,9481 L 6707,9352 8668,9352 8668,9481 6707,9481 Z"/>
 <path fill="rgb(255,211,32)" stroke="none" d="M 6707,10000 L 6707,9870 10385,9870 10385,10000 6707,10000 Z"/>
 <path fill="rgb(255,211,32)" stroke="none" d="M 6707,10518 L 6707,10389 13573,10389 13573,10518 6707,10518 Z"/>
 <path fill="rgb(255,211,32)" stroke="none" d="M 6707,11037 L 6707,10907 8914,10907 8914,11037 6707,11037 Z"/>
 <path fill="rgb(255,211,32)" stroke="none" d="M 6707,11555 L 6707,11426 8668,11426 8668,11555 6707,11555 Z"/>
 <path fill="rgb(255,211,32)" stroke="none" d="M 6707,12074 L 6707,11944 11121,11944 11121,12074 6707,12074 Z"/>
 <path fill="rgb(255,211,32)" stroke="none" d="M 6707,12592 L 6707,12463 8914,12463 8914,12592 6707,12592 Z"/>
 <path fill="rgb(255,211,32)" stroke="none" d="M 6707,13111 L 6707,12981 12102,12981 12102,13111 6707,13111 Z"/>
 <path fill="rgb(255,211,32)" stroke="none" d="M 6707,13629 L 6707,13500 10140,13500 10140,13629 6707,13629 Z"/>
 <text class="TextShape"><tspan class="TextParagraph" font-family="Arial" font-size="353px" font-weight="400"><tspan class="TextPosition" x="2673" y="13815"><tspan fill="rgb(49,54,59)" stroke="none">Method of Focal Objects</tspan></tspan></tspan></text>
 <text class="TextShape"><tspan class="TextParagraph" font-family="Arial" font-size="353px" font-weight="400"><tspan class="TextPosition" x="1694" y="13297"><tspan fill="rgb(49,54,59)" stroke="none">Morphological Analysis Method</tspan></tspan></tspan></text>
 <text class="TextShape"><tspan class="TextParagraph" font-family="Arial" font-size="353px" font-weight="400"><tspan class="TextPosition" x="3229" y="12778"><tspan fill="rgb(49,54,59)" stroke="none">Check-listing Method</tspan></tspan></tspan></text>
 <text class="TextShape"><tspan class="TextParagraph" font-family="Arial" font-size="353px" font-weight="400"><tspan class="TextPosition" x="4340" y="12260"><tspan fill="rgb(49,54,59)" stroke="none">Brainstorming</tspan></tspan></tspan></text>
 <text class="TextShape"><tspan class="TextParagraph" font-family="Arial" font-size="353px" font-weight="400"><tspan class="TextPosition" x="583" y="11741"><tspan fill="rgb(49,54,59)" stroke="none">Synectics (method of using analogies)</tspan></tspan></tspan></text>
 <text class="TextShape"><tspan class="TextParagraph" font-family="Arial" font-size="353px" font-weight="400"><tspan class="TextPosition" x="2621" y="11223"><tspan fill="rgb(49,54,59)" stroke="none">(11) separation principles</tspan></tspan></tspan></text>
 <text class="TextShape"><tspan class="TextParagraph" font-family="Arial" font-size="353px" font-weight="400"><tspan class="TextPosition" x="4393" y="10704"><tspan fill="rgb(49,54,59)" stroke="none">segmentation</tspan></tspan></tspan></text>
 <text class="TextShape"><tspan class="TextParagraph" font-family="Arial" font-size="353px" font-weight="400"><tspan class="TextPosition" x="4949" y="10186"><tspan fill="rgb(49,54,59)" stroke="none">taking out</tspan></tspan></tspan></text>
 <text class="TextShape"><tspan class="TextParagraph" font-family="Arial" font-size="353px" font-weight="400"><tspan class="TextPosition" x="4631" y="9667"><tspan fill="rgb(49,54,59)" stroke="none">local quality</tspan></tspan></tspan></text>
 <text class="TextShape"><tspan class="TextParagraph" font-family="Arial" font-size="353px" font-weight="400"><tspan class="TextPosition" x="5240" y="9149"><tspan fill="rgb(49,54,59)" stroke="none">merging</tspan></tspan></tspan></text>
 <text class="TextShape"><tspan class="TextParagraph" font-family="Arial" font-size="353px" font-weight="400"><tspan class="TextPosition" x="4711" y="8630"><tspan fill="rgb(49,54,59)" stroke="none">universality</tspan></tspan></tspan></text>
 <text class="TextShape"><tspan class="TextParagraph" font-family="Arial" font-size="353px" font-weight="400"><tspan class="TextPosition" x="5346" y="8112"><tspan fill="rgb(49,54,59)" stroke="none">nesting</tspan></tspan></tspan></text>
 <text class="TextShape"><tspan class="TextParagraph" font-family="Arial" font-size="353px" font-weight="400"><tspan class="TextPosition" x="3097" y="7593"><tspan fill="rgb(49,54,59)" stroke="none">preliminary anti-action</tspan></tspan></tspan></text>
 <text class="TextShape"><tspan class="TextParagraph" font-family="Arial" font-size="353px" font-weight="400"><tspan class="TextPosition" x="3758" y="7075"><tspan fill="rgb(49,54,59)" stroke="none">preliminary action</tspan></tspan></tspan></text>
 <text class="TextShape"><tspan class="TextParagraph" font-family="Arial" font-size="353px" font-weight="400"><tspan class="TextPosition" x="3017" y="6556"><tspan fill="rgb(49,54,59)" stroke="none">beforehand cushioning</tspan></tspan></tspan></text>
 <text class="TextShape"><tspan class="TextParagraph" font-family="Arial" font-size="353px" font-weight="400"><tspan class="TextPosition" x="5055" y="6038"><tspan fill="rgb(49,54,59)" stroke="none">reversing</tspan></tspan></tspan></text>
 <text class="TextShape"><tspan class="TextParagraph" font-family="Arial" font-size="353px" font-weight="400"><tspan class="TextPosition" x="4975" y="5519"><tspan fill="rgb(49,54,59)" stroke="none">dynamics</tspan></tspan></tspan></text>
 <text class="TextShape"><tspan class="TextParagraph" font-family="Arial" font-size="353px" font-weight="400"><tspan class="TextPosition" x="2038" y="5001"><tspan fill="rgb(49,54,59)" stroke="none">change to another dimension</tspan></tspan></tspan></text>
 <text class="TextShape"><tspan class="TextParagraph" font-family="Arial" font-size="353px" font-weight="400"><tspan class="TextPosition" x="4234" y="4482"><tspan fill="rgb(49,54,59)" stroke="none">periodic action</tspan></tspan></tspan></text>
 <text class="TextShape"><tspan class="TextParagraph" font-family="Arial" font-size="353px" font-weight="400"><tspan class="TextPosition" x="2329" y="3964"><tspan fill="rgb(49,54,59)" stroke="none">continuity of useful actions</tspan></tspan></tspan></text>
 <text class="TextShape"><tspan class="TextParagraph" font-family="Arial" font-size="353px" font-weight="400"><tspan class="TextPosition" x="3441" y="3445"><tspan fill="rgb(49,54,59)" stroke="none">blessing in disguise</tspan></tspan></tspan></text>
 <text class="TextShape"><tspan class="TextParagraph" font-family="Arial" font-size="353px" font-weight="400"><tspan class="TextPosition" x="5055" y="2927"><tspan fill="rgb(49,54,59)" stroke="none">feedback</tspan></tspan></tspan></text>
 <text class="TextShape"><tspan class="TextParagraph" font-family="Arial" font-size="353px" font-weight="400"><tspan class="TextPosition" x="4684" y="2408"><tspan fill="rgb(49,54,59)" stroke="none">self-service</tspan></tspan></tspan></text>
 <text class="TextShape"><tspan class="TextParagraph" font-family="Arial" font-size="353px" font-weight="400"><tspan class="TextPosition" x="4499" y="1890"><tspan fill="rgb(49,54,59)" stroke="none">color change</tspan></tspan></tspan></text>
 <text class="TextShape"><tspan class="TextParagraph" font-family="Arial" font-size="353px" font-weight="400"><tspan class="TextPosition" x="6614" y="14522"><tspan fill="rgb(49,54,59)" stroke="none">0</tspan></tspan></tspan></text>
 <text class="TextShape"><tspan class="TextParagraph" font-family="Arial" font-size="353px" font-weight="400"><tspan class="TextPosition" x="8974" y="14522"><tspan fill="rgb(49,54,59)" stroke="none">10</tspan></tspan></tspan></text>
 <text class="TextShape"><tspan class="TextParagraph" font-family="Arial" font-size="353px" font-weight="400"><tspan class="TextPosition" x="11426" y="14522"><tspan fill="rgb(49,54,59)" stroke="none">20</tspan></tspan></tspan></text>
 <text class="TextShape"><tspan class="TextParagraph" font-family="Arial" font-size="353px" font-weight="400"><tspan class="TextPosition" x="13879" y="14522"><tspan fill="rgb(49,54,59)" stroke="none">30</tspan></tspan></tspan></text>
 <text class="TextShape"><tspan class="TextParagraph" font-family="Arial" font-size="353px" font-weight="400"><tspan class="TextPosition" x="16331" y="14522"><tspan fill="rgb(49,54,59)" stroke="none">40</tspan></tspan></tspan></text>
 <text class="TextShape"><tspan class="TextParagraph" font-family="Arial" font-size="353px" font-weight="400"><tspan class="TextPosition" x="18783" y="14522"><tspan fill="rgb(49,54,59)" stroke="none">50</tspan></tspan></tspan></text>
 <text class="TextShape"><tspan class="TextParagraph" font-family="Arial" font-size="353px" font-weight="400"><tspan class="TextPosition" x="21236" y="14522"><tspan fill="rgb(49,54,59)" stroke="none">60</tspan></tspan></tspan></text>
 <text class="TextShape"><tspan class="TextParagraph" font-family="Arial" font-size="459px" font-weight="700"><tspan class="TextPosition" x="3984" y="970"><tspan fill="rgb(49,54,59)" stroke="none">Compare number of technical and non-technical learners per impressed creative thinking techniques</tspan></tspan></tspan></text>
 <path fill="rgb(0,69,134)" stroke="none" d="M 22412,7058 L 22306,7058 22306,6847 22517,6847 22517,7058 22412,7058 Z"/>
 <path fill="rgb(255,66,14)" stroke="none" d="M 22412,7555 L 22306,7555 22306,7345 22517,7345 22517,7555 22412,7555 Z"/>
 <path fill="rgb(255,211,32)" stroke="none" d="M 22412,8053 L 22306,8053 22306,7842 22517,7842 22517,8053 22412,8053 Z"/>
 <text class="TextShape"><tspan class="TextParagraph" font-family="Arial" font-size="353px" font-weight="400"><tspan class="TextPosition" x="22617" y="7072"><tspan fill="rgb(49,54,59)" stroke="none">Learners with technical backgrounds</tspan></tspan></tspan></text>
 <text class="TextShape"><tspan class="TextParagraph" font-family="Arial" font-size="353px" font-weight="400"><tspan class="TextPosition" x="22617" y="7569"><tspan fill="rgb(49,54,59)" stroke="none">Learners with non-technical backgrounds</tspan></tspan></tspan></text>
 <text class="TextShape"><tspan class="TextParagraph" font-family="Arial" font-size="353px" font-weight="400"><tspan class="TextPosition" x="22617" y="8067"><tspan fill="rgb(49,54,59)" stroke="none">Total</tspan></tspan></tspan></text>
</svg>