<?xml version="1.0" encoding="UTF-8"?>
<!DOCTYPE svg PUBLIC "-//W3C//DTD SVG 1.1//EN" "http://www.w3.org/Graphics/SVG/1.1/DTD/svg11.dtd">
<svg width="219mm" height="112mm" viewBox="0 0 21900 11200" version="1.1" xmlns="http://www.w3.org/2000/svg" stroke-width="28.222" stroke-linejoin="round" xml:space="preserve">
 <path fill="rgb(255,255,255)" stroke="none" d="M 10932,11222 L 0,11222 0,0 21864,0 21864,11222 10932,11222 Z"/>
 <path fill="none" stroke="rgb(179,179,179)" stroke-linejoin="round" d="M 10866,7480 L 1244,7480 1244,224 20487,224 20487,7480 10866,7480 Z"/>
 <path fill="none" stroke="rgb(179,179,179)" stroke-linejoin="round" d="M 20487,7479 L 1244,7479"/>
 <path fill="none" stroke="rgb(179,179,179)" stroke-linejoin="round" d="M 20487,6027 L 1244,6027"/>
 <path fill="none" stroke="rgb(179,179,179)" stroke-linejoin="round" d="M 20487,4577 L 1244,4577"/>
 <path fill="none" stroke="rgb(179,179,179)" stroke-linejoin="round" d="M 20487,3125 L 1244,3125"/>
 <path fill="none" stroke="rgb(179,179,179)" stroke-linejoin="round" d="M 20487,1674 L 1244,1674"/>
 <path fill="none" stroke="rgb(179,179,179)" stroke-linejoin="round" d="M 20487,223 L 1244,223"/>
 <path fill="none" stroke="rgb(179,179,179)" stroke-linejoin="round" d="M 1244,7629 L 1244,7479"/>
 <path fill="none" stroke="rgb(179,179,179)" stroke-linejoin="round" d="M 1244,7629 L 1244,7479"/>
 <path fill="none" stroke="rgb(179,179,179)" stroke-linejoin="round" d="M 2206,7629 L 2206,7479"/>
 <path fill="none" stroke="rgb(179,179,179)" stroke-linejoin="round" d="M 2206,7629 L 2206,7479"/>
 <path fill="none" stroke="rgb(179,179,179)" stroke-linejoin="round" d="M 3168,7629 L 3168,7479"/>
 <path fill="none" stroke="rgb(179,179,179)" stroke-linejoin="round" d="M 3168,7629 L 3168,7479"/>
 <path fill="none" stroke="rgb(179,179,179)" stroke-linejoin="round" d="M 4130,7629 L 4130,7479"/>
 <path fill="none" stroke="rgb(179,179,179)" stroke-linejoin="round" d="M 4130,7629 L 4130,7479"/>
 <path fill="none" stroke="rgb(179,179,179)" stroke-linejoin="round" d="M 5092,7629 L 5092,7479"/>
 <path fill="none" stroke="rgb(179,179,179)" stroke-linejoin="round" d="M 5092,7629 L 5092,7479"/>
 <path fill="none" stroke="rgb(179,179,179)" stroke-linejoin="round" d="M 6055,7629 L 6055,7479"/>
 <path fill="none" stroke="rgb(179,179,179)" stroke-linejoin="round" d="M 6055,7629 L 6055,7479"/>
 <path fill="none" stroke="rgb(179,179,179)" stroke-linejoin="round" d="M 7017,7629 L 7017,7479"/>
 <path fill="none" stroke="rgb(179,179,179)" stroke-linejoin="round" d="M 7017,7629 L 7017,7479"/>
 <path fill="none" stroke="rgb(179,179,179)" stroke-linejoin="round" d="M 7979,7629 L 7979,7479"/>
 <path fill="none" stroke="rgb(179,179,179)" stroke-linejoin="round" d="M 7979,7629 L 7979,7479"/>
 <path fill="none" stroke="rgb(179,179,179)" stroke-linejoin="round" d="M 8941,7629 L 8941,7479"/>
 <path fill="none" stroke="rgb(179,179,179)" stroke-linejoin="round" d="M 8941,7629 L 8941,7479"/>
 <path fill="none" stroke="rgb(179,179,179)" stroke-linejoin="round" d="M 9903,7629 L 9903,7479"/>
 <path fill="none" stroke="rgb(179,179,179)" stroke-linejoin="round" d="M 9903,7629 L 9903,7479"/>
 <path fill="none" stroke="rgb(179,179,179)" stroke-linejoin="round" d="M 10866,7629 L 10866,7479"/>
 <path fill="none" stroke="rgb(179,179,179)" stroke-linejoin="round" d="M 10866,7629 L 10866,7479"/>
 <path fill="none" stroke="rgb(179,179,179)" stroke-linejoin="round" d="M 11827,7629 L 11827,7479"/>
 <path fill="none" stroke="rgb(179,179,179)" stroke-linejoin="round" d="M 11827,7629 L 11827,7479"/>
 <path fill="none" stroke="rgb(179,179,179)" stroke-linejoin="round" d="M 12789,7629 L 12789,7479"/>
 <path fill="none" stroke="rgb(179,179,179)" stroke-linejoin="round" d="M 12789,7629 L 12789,7479"/>
 <path fill="none" stroke="rgb(179,179,179)" stroke-linejoin="round" d="M 13751,7629 L 13751,7479"/>
 <path fill="none" stroke="rgb(179,179,179)" stroke-linejoin="round" d="M 13751,7629 L 13751,7479"/>
 <path fill="none" stroke="rgb(179,179,179)" stroke-linejoin="round" d="M 14713,7629 L 14713,7479"/>
 <path fill="none" stroke="rgb(179,179,179)" stroke-linejoin="round" d="M 14713,7629 L 14713,7479"/>
 <path fill="none" stroke="rgb(179,179,179)" stroke-linejoin="round" d="M 15676,7629 L 15676,7479"/>
 <path fill="none" stroke="rgb(179,179,179)" stroke-linejoin="round" d="M 15676,7629 L 15676,7479"/>
 <path fill="none" stroke="rgb(179,179,179)" stroke-linejoin="round" d="M 16638,7629 L 16638,7479"/>
 <path fill="none" stroke="rgb(179,179,179)" stroke-linejoin="round" d="M 16638,7629 L 16638,7479"/>
 <path fill="none" stroke="rgb(179,179,179)" stroke-linejoin="round" d="M 17600,7629 L 17600,7479"/>
 <path fill="none" stroke="rgb(179,179,179)" stroke-linejoin="round" d="M 17600,7629 L 17600,7479"/>
 <path fill="none" stroke="rgb(179,179,179)" stroke-linejoin="round" d="M 18562,7629 L 18562,7479"/>
 <path fill="none" stroke="rgb(179,179,179)" stroke-linejoin="round" d="M 18562,7629 L 18562,7479"/>
 <path fill="none" stroke="rgb(179,179,179)" stroke-linejoin="round" d="M 19524,7629 L 19524,7479"/>
 <path fill="none" stroke="rgb(179,179,179)" stroke-linejoin="round" d="M 19524,7629 L 19524,7479"/>
 <path fill="none" stroke="rgb(179,179,179)" stroke-linejoin="round" d="M 20487,7629 L 20487,7479"/>
 <path fill="none" stroke="rgb(179,179,179)" stroke-linejoin="round" d="M 20487,7629 L 20487,7479"/>
 <path fill="none" stroke="rgb(179,179,179)" stroke-linejoin="round" d="M 1244,7479 L 20487,7479"/>
 <path fill="none" stroke="rgb(179,179,179)" stroke-linejoin="round" d="M 1094,7479 L 1244,7479"/>
 <path fill="none" stroke="rgb(179,179,179)" stroke-linejoin="round" d="M 1094,7479 L 1244,7479"/>
 <path fill="none" stroke="rgb(179,179,179)" stroke-linejoin="round" d="M 1094,6027 L 1244,6027"/>
 <path fill="none" stroke="rgb(179,179,179)" stroke-linejoin="round" d="M 1094,6027 L 1244,6027"/>
 <path fill="none" stroke="rgb(179,179,179)" stroke-linejoin="round" d="M 1094,4577 L 1244,4577"/>
 <path fill="none" stroke="rgb(179,179,179)" stroke-linejoin="round" d="M 1094,4577 L 1244,4577"/>
 <path fill="none" stroke="rgb(179,179,179)" stroke-linejoin="round" d="M 1094,3125 L 1244,3125"/>
 <path fill="none" stroke="rgb(179,179,179)" stroke-linejoin="round" d="M 1094,3125 L 1244,3125"/>
 <path fill="none" stroke="rgb(179,179,179)" stroke-linejoin="round" d="M 1094,1674 L 1244,1674"/>
 <path fill="none" stroke="rgb(179,179,179)" stroke-linejoin="round" d="M 1094,1674 L 1244,1674"/>
 <path fill="none" stroke="rgb(179,179,179)" stroke-linejoin="round" d="M 1094,223 L 1244,223"/>
 <path fill="none" stroke="rgb(179,179,179)" stroke-linejoin="round" d="M 1094,223 L 1244,223"/>
 <path fill="none" stroke="rgb(179,179,179)" stroke-linejoin="round" d="M 1244,7479 L 1244,223"/>
 <path fill="none" stroke="rgb(179,179,179)" stroke-linejoin="round" d="M 20637,7479 L 20487,7479"/>
 <path fill="none" stroke="rgb(179,179,179)" stroke-linejoin="round" d="M 20637,7479 L 20487,7479"/>
 <path fill="none" stroke="rgb(179,179,179)" stroke-linejoin="round" d="M 20637,6442 L 20487,6442"/>
 <path fill="none" stroke="rgb(179,179,179)" stroke-linejoin="round" d="M 20637,6442 L 20487,6442"/>
 <path fill="none" stroke="rgb(179,179,179)" stroke-linejoin="round" d="M 20637,5406 L 20487,5406"/>
 <path fill="none" stroke="rgb(179,179,179)" stroke-linejoin="round" d="M 20637,5406 L 20487,5406"/>
 <path fill="none" stroke="rgb(179,179,179)" stroke-linejoin="round" d="M 20637,4369 L 20487,4369"/>
 <path fill="none" stroke="rgb(179,179,179)" stroke-linejoin="round" d="M 20637,4369 L 20487,4369"/>
 <path fill="none" stroke="rgb(179,179,179)" stroke-linejoin="round" d="M 20637,3333 L 20487,3333"/>
 <path fill="none" stroke="rgb(179,179,179)" stroke-linejoin="round" d="M 20637,3333 L 20487,3333"/>
 <path fill="none" stroke="rgb(179,179,179)" stroke-linejoin="round" d="M 20637,2296 L 20487,2296"/>
 <path fill="none" stroke="rgb(179,179,179)" stroke-linejoin="round" d="M 20637,2296 L 20487,2296"/>
 <path fill="none" stroke="rgb(179,179,179)" stroke-linejoin="round" d="M 20637,1259 L 20487,1259"/>
 <path fill="none" stroke="rgb(179,179,179)" stroke-linejoin="round" d="M 20637,1259 L 20487,1259"/>
 <path fill="none" stroke="rgb(179,179,179)" stroke-linejoin="round" d="M 20637,222 L 20487,222"/>
 <path fill="none" stroke="rgb(179,179,179)" stroke-linejoin="round" d="M 20637,222 L 20487,222"/>
 <path fill="none" stroke="rgb(179,179,179)" stroke-linejoin="round" d="M 20487,7479 L 20487,223"/>
 <path fill="rgb(0,69,134)" stroke="none" d="M 19765,7479 L 20246,7479 20246,7101 19765,7101 19765,7479 Z"/>
 <path fill="rgb(0,69,134)" stroke="none" d="M 18803,7479 L 19284,7479 19284,1761 18803,1761 18803,7479 Z"/>
 <path fill="rgb(0,69,134)" stroke="none" d="M 17840,7479 L 18322,7479 18322,7217 17840,7217 17840,7479 Z"/>
 <path fill="rgb(0,69,134)" stroke="none" d="M 16878,7479 L 17359,7479 17359,7275 16878,7275 16878,7479 Z"/>
 <path fill="rgb(0,69,134)" stroke="none" d="M 15916,7479 L 16397,7479 16397,7391 15916,7391 15916,7479 Z"/>
 <path fill="rgb(0,69,134)" stroke="none" d="M 14954,7479 L 15435,7479 15435,5419 14954,5419 14954,7479 Z"/>
 <path fill="rgb(0,69,134)" stroke="none" d="M 13992,7479 L 14473,7479 14473,5940 13992,5940 13992,7479 Z"/>
 <path fill="rgb(0,69,134)" stroke="none" d="M 13029,7479 L 13511,7479 13511,6463 13029,6463 13029,7479 Z"/>
 <path fill="rgb(0,69,134)" stroke="none" d="M 12067,7479 L 12548,7479 12548,6811 12067,6811 12067,7479 Z"/>
 <path fill="rgb(0,69,134)" stroke="none" d="M 11105,7479 L 11586,7479 11586,2138 11105,2138 11105,7479 Z"/>
 <path fill="rgb(0,69,134)" stroke="none" d="M 10144,7479 L 10625,7479 10625,7101 10144,7101 10144,7479 Z"/>
 <path fill="rgb(0,69,134)" stroke="none" d="M 9182,7479 L 9663,7479 9663,6869 9182,6869 9182,7479 Z"/>
 <path fill="rgb(0,69,134)" stroke="none" d="M 8219,7479 L 8701,7479 8701,6114 8219,6114 8219,7479 Z"/>
 <path fill="rgb(0,69,134)" stroke="none" d="M 7257,7479 L 7738,7479 7738,5911 7257,5911 7257,7479 Z"/>
 <path fill="rgb(0,69,134)" stroke="none" d="M 6295,7479 L 6776,7479 6776,6724 6295,6724 6295,7479 Z"/>
 <path fill="rgb(0,69,134)" stroke="none" d="M 5333,7479 L 5814,7479 5814,3822 5333,3822 5333,7479 Z"/>
 <path fill="rgb(0,69,134)" stroke="none" d="M 4371,7479 L 4852,7479 4852,4664 4371,4664 4371,7479 Z"/>
 <path fill="rgb(0,69,134)" stroke="none" d="M 3408,7479 L 3890,7479 3890,4344 3408,4344 3408,7479 Z"/>
 <path fill="rgb(0,69,134)" stroke="none" d="M 2446,7479 L 2927,7479 2927,6608 2446,6608 2446,7479 Z"/>
 <path fill="rgb(0,69,134)" stroke="none" d="M 1484,7479 L 1965,7479 1965,5882 1484,5882 1484,7479 Z"/>
 <path fill="rgb(255,66,14)" stroke="none" d="M 19765,7479 L 20246,7479 20246,7079 19765,7079 19765,7479 Z"/>
 <path fill="rgb(255,66,14)" stroke="none" d="M 18803,7479 L 19284,7479 19284,1419 18803,1419 18803,7479 Z"/>
 <path fill="rgb(255,66,14)" stroke="none" d="M 17840,7479 L 18322,7479 18322,7202 17840,7202 17840,7479 Z"/>
 <path fill="rgb(255,66,14)" stroke="none" d="M 16878,7479 L 17359,7479 17359,7263 16878,7263 16878,7479 Z"/>
 <path fill="rgb(255,66,14)" stroke="none" d="M 15916,7479 L 16397,7479 16397,7386 15916,7386 15916,7479 Z"/>
 <path fill="rgb(255,66,14)" stroke="none" d="M 14954,7479 L 15435,7479 15435,5295 14954,5295 14954,7479 Z"/>
 <path fill="rgb(255,66,14)" stroke="none" d="M 13992,7479 L 14473,7479 14473,5848 13992,5848 13992,7479 Z"/>
 <path fill="rgb(255,66,14)" stroke="none" d="M 13029,7479 L 13511,7479 13511,6402 13029,6402 13029,7479 Z"/>
 <path fill="rgb(255,66,14)" stroke="none" d="M 12067,7479 L 12548,7479 12548,6771 12067,6771 12067,7479 Z"/>
 <path fill="rgb(255,66,14)" stroke="none" d="M 11105,7479 L 11586,7479 11586,1819 11105,1819 11105,7479 Z"/>
 <path fill="rgb(255,66,14)" stroke="none" d="M 10144,7479 L 10625,7479 10625,7079 10144,7079 10144,7479 Z"/>
 <path fill="rgb(255,66,14)" stroke="none" d="M 9182,7479 L 9663,7479 9663,6832 9182,6832 9182,7479 Z"/>
 <path fill="rgb(255,66,14)" stroke="none" d="M 8219,7479 L 8701,7479 8701,6033 8219,6033 8219,7479 Z"/>
 <path fill="rgb(255,66,14)" stroke="none" d="M 7257,7479 L 7738,7479 7738,5817 7257,5817 7257,7479 Z"/>
 <path fill="rgb(255,66,14)" stroke="none" d="M 6295,7479 L 6776,7479 6776,6679 6295,6679 6295,7479 Z"/>
 <path fill="rgb(255,66,14)" stroke="none" d="M 5333,7479 L 5814,7479 5814,3603 5333,3603 5333,7479 Z"/>
 <path fill="rgb(255,66,14)" stroke="none" d="M 4371,7479 L 4852,7479 4852,4495 4371,4495 4371,7479 Z"/>
 <path fill="rgb(255,66,14)" stroke="none" d="M 3408,7479 L 3890,7479 3890,4157 3408,4157 3408,7479 Z"/>
 <path fill="rgb(255,66,14)" stroke="none" d="M 2446,7479 L 2927,7479 2927,6556 2446,6556 2446,7479 Z"/>
 <path fill="rgb(255,66,14)" stroke="none" d="M 1484,7479 L 1965,7479 1965,5787 1484,5787 1484,7479 Z"/>
 <text class="TextShape" transform="translate(1265,8497) rotate(-44.9) translate(-1265,-8497)"><tspan class="TextParagraph" font-family="Liberation Sans, sans-serif" font-size="353px" font-weight="400"><tspan class="TextPosition" x="1265" y="8497"><tspan fill="rgb(0,0,0)" stroke="none">TRIZ</tspan></tspan></tspan></text>
 <text class="TextShape" transform="translate(2208,8516) rotate(-44.9) translate(-2208,-8516)"><tspan class="TextParagraph" font-family="Liberation Sans, sans-serif" font-size="353px" font-weight="400"><tspan class="TextPosition" x="2208" y="8516"><tspan fill="rgb(0,0,0)" stroke="none">ARIZ</tspan></tspan></tspan></text>
 <text class="TextShape" transform="translate(2816,8870) rotate(-44.9) translate(-2816,-8870)"><tspan class="TextParagraph" font-family="Liberation Sans, sans-serif" font-size="353px" font-weight="400"><tspan class="TextPosition" x="2816" y="8870"><tspan fill="rgb(0,0,0)" stroke="none">Oriented</tspan></tspan></tspan></text>
 <text class="TextShape" transform="translate(1925,10724) rotate(-44.9) translate(-1925,-10724)"><tspan class="TextParagraph" font-family="Liberation Sans, sans-serif" font-size="353px" font-weight="400"><tspan class="TextPosition" x="1925" y="10724"><tspan fill="rgb(0,0,0)" stroke="none">Laws of system evolution</tspan></tspan></tspan></text>
 <text class="TextShape" transform="translate(4178,9432) rotate(-44.9) translate(-4178,-9432)"><tspan class="TextParagraph" font-family="Liberation Sans, sans-serif" font-size="353px" font-weight="400"><tspan class="TextPosition" x="4178" y="9432"><tspan fill="rgb(0,0,0)" stroke="none">Trial and error</tspan></tspan></tspan></text>
 <text class="TextShape" transform="translate(5553,9020) rotate(-44.9) translate(-5553,-9020)"><tspan class="TextParagraph" font-family="Liberation Sans, sans-serif" font-size="353px" font-weight="400"><tspan class="TextPosition" x="5553" y="9020"><tspan fill="rgb(0,0,0)" stroke="none">Dialectics</tspan></tspan></tspan></text>
 <text class="TextShape" transform="translate(5822,9713) rotate(-44.9) translate(-5822,-9713)"><tspan class="TextParagraph" font-family="Liberation Sans, sans-serif" font-size="353px" font-weight="400"><tspan class="TextPosition" x="5822" y="9713"><tspan fill="rgb(0,0,0)" stroke="none">System thinking</tspan></tspan></tspan></text>
 <text class="TextShape" transform="translate(7963,8534) rotate(-44.9) translate(-7963,-8534)"><tspan class="TextParagraph" font-family="Liberation Sans, sans-serif" font-size="353px" font-weight="400"><tspan class="TextPosition" x="7963" y="8534"><tspan fill="rgb(0,0,0)" stroke="none">Logic</tspan></tspan></tspan></text>
 <text class="TextShape" transform="translate(8719,8740) rotate(-44.9) translate(-8719,-8740)"><tspan class="TextParagraph" font-family="Liberation Sans, sans-serif" font-size="353px" font-weight="400"><tspan class="TextPosition" x="8719" y="8740"><tspan fill="rgb(0,0,0)" stroke="none">Ideality</tspan></tspan></tspan></text>
 <text class="TextShape" transform="translate(8577,9844) rotate(-44.9) translate(-8577,-9844)"><tspan class="TextParagraph" font-family="Liberation Sans, sans-serif" font-size="353px" font-weight="400"><tspan class="TextPosition" x="8577" y="9844"><tspan fill="rgb(0,0,0)" stroke="none">Problem situation</tspan></tspan></tspan></text>
 <text class="TextShape" transform="translate(10588,8796) rotate(-44.9) translate(-10588,-8796)"><tspan class="TextParagraph" font-family="Liberation Sans, sans-serif" font-size="353px" font-weight="400"><tspan class="TextPosition" x="10588" y="8796"><tspan fill="rgb(0,0,0)" stroke="none">System</tspan></tspan></tspan></text>
 <text class="TextShape" transform="translate(11456,8890) rotate(-44.9) translate(-11456,-8890)"><tspan class="TextParagraph" font-family="Liberation Sans, sans-serif" font-size="353px" font-weight="400"><tspan class="TextPosition" x="11456" y="8890"><tspan fill="rgb(0,0,0)" stroke="none">Function</tspan></tspan></tspan></text>
 <text class="TextShape" transform="translate(12194,9114) rotate(-44.9) translate(-12194,-9114)"><tspan class="TextParagraph" font-family="Liberation Sans, sans-serif" font-size="353px" font-weight="400"><tspan class="TextPosition" x="12194" y="9114"><tspan fill="rgb(0,0,0)" stroke="none">Resources</tspan></tspan></tspan></text>
 <text class="TextShape" transform="translate(12520,9750) rotate(-44.9) translate(-12520,-9750)"><tspan class="TextParagraph" font-family="Liberation Sans, sans-serif" font-size="353px" font-weight="400"><tspan class="TextPosition" x="12520" y="9750"><tspan fill="rgb(0,0,0)" stroke="none">System operator</tspan></tspan></tspan></text>
 <text class="TextShape" transform="translate(13856,9376) rotate(-44.9) translate(-13856,-9376)"><tspan class="TextParagraph" font-family="Liberation Sans, sans-serif" font-size="353px" font-weight="400"><tspan class="TextPosition" x="13856" y="9376"><tspan fill="rgb(0,0,0)" stroke="none">Contradiction</tspan></tspan></tspan></text>
 <text class="TextShape" transform="translate(14781,9414) rotate(-44.9) translate(-14781,-9414)"><tspan class="TextParagraph" font-family="Liberation Sans, sans-serif" font-size="353px" font-weight="400"><tspan class="TextPosition" x="14781" y="9414"><tspan fill="rgb(0,0,0)" stroke="none">Maxi problem</tspan></tspan></tspan></text>
 <text class="TextShape" transform="translate(15818,9338) rotate(-44.9) translate(-15818,-9338)"><tspan class="TextParagraph" font-family="Liberation Sans, sans-serif" font-size="353px" font-weight="400"><tspan class="TextPosition" x="15818" y="9338"><tspan fill="rgb(0,0,0)" stroke="none">Mini problem</tspan></tspan></tspan></text>
 <text class="TextShape" transform="translate(15900,10218) rotate(-44.9) translate(-15900,-10218)"><tspan class="TextParagraph" font-family="Liberation Sans, sans-serif" font-size="353px" font-weight="400"><tspan class="TextPosition" x="15900" y="10218"><tspan fill="rgb(0,0,0)" stroke="none">Separation principles</tspan></tspan></tspan></text>
 <text class="TextShape" transform="translate(16338,10742) rotate(-44.9) translate(-16338,-10742)"><tspan class="TextParagraph" font-family="Liberation Sans, sans-serif" font-size="353px" font-weight="400"><tspan class="TextPosition" x="16338" y="10742"><tspan fill="rgb(0,0,0)" stroke="none">Basic creativity principles</tspan></tspan></tspan></text>
 <text class="TextShape" transform="translate(18329,9713) rotate(-44.9) translate(-18329,-9713)"><tspan class="TextParagraph" font-family="Liberation Sans, sans-serif" font-size="353px" font-weight="400"><tspan class="TextPosition" x="18329" y="9713"><tspan fill="rgb(0,0,0)" stroke="none">Optimal solution</tspan></tspan></tspan></text>
 <text class="TextShape"><tspan class="TextParagraph" font-family="Liberation Sans, sans-serif" font-size="353px" font-weight="400"><tspan class="TextPosition" x="809" y="7600"><tspan fill="rgb(0,0,0)" stroke="none">0</tspan></tspan></tspan></text>
 <text class="TextShape"><tspan class="TextParagraph" font-family="Liberation Sans, sans-serif" font-size="353px" font-weight="400"><tspan class="TextPosition" x="624" y="6148"><tspan fill="rgb(0,0,0)" stroke="none">50</tspan></tspan></tspan></text>
 <text class="TextShape"><tspan class="TextParagraph" font-family="Liberation Sans, sans-serif" font-size="353px" font-weight="400"><tspan class="TextPosition" x="438" y="4697"><tspan fill="rgb(0,0,0)" stroke="none">100</tspan></tspan></tspan></text>
 <text class="TextShape"><tspan class="TextParagraph" font-family="Liberation Sans, sans-serif" font-size="353px" font-weight="400"><tspan class="TextPosition" x="438" y="3245"><tspan fill="rgb(0,0,0)" stroke="none">150</tspan></tspan></tspan></text>
 <text class="TextShape"><tspan class="TextParagraph" font-family="Liberation Sans, sans-serif" font-size="353px" font-weight="400"><tspan class="TextPosition" x="438" y="1794"><tspan fill="rgb(0,0,0)" stroke="none">200</tspan></tspan></tspan></text>
 <text class="TextShape"><tspan class="TextParagraph" font-family="Liberation Sans, sans-serif" font-size="353px" font-weight="400"><tspan class="TextPosition" x="438" y="343"><tspan fill="rgb(0,0,0)" stroke="none">250</tspan></tspan></tspan></text>
 <text class="TextShape"><tspan class="TextParagraph" font-family="Liberation Sans, sans-serif" font-size="353px" font-weight="400"><tspan class="TextPosition" x="20737" y="7600"><tspan fill="rgb(0,0,0)" stroke="none">0%</tspan></tspan></tspan></text>
 <text class="TextShape"><tspan class="TextParagraph" font-family="Liberation Sans, sans-serif" font-size="353px" font-weight="400"><tspan class="TextPosition" x="20737" y="6563"><tspan fill="rgb(0,0,0)" stroke="none">10%</tspan></tspan></tspan></text>
 <text class="TextShape"><tspan class="TextParagraph" font-family="Liberation Sans, sans-serif" font-size="353px" font-weight="400"><tspan class="TextPosition" x="20737" y="5526"><tspan fill="rgb(0,0,0)" stroke="none">20%</tspan></tspan></tspan></text>
 <text class="TextShape"><tspan class="TextParagraph" font-family="Liberation Sans, sans-serif" font-size="353px" font-weight="400"><tspan class="TextPosition" x="20737" y="4489"><tspan fill="rgb(0,0,0)" stroke="none">30%</tspan></tspan></tspan></text>
 <text class="TextShape"><tspan class="TextParagraph" font-family="Liberation Sans, sans-serif" font-size="353px" font-weight="400"><tspan class="TextPosition" x="20737" y="3453"><tspan fill="rgb(0,0,0)" stroke="none">40%</tspan></tspan></tspan></text>
 <text class="TextShape"><tspan class="TextParagraph" font-family="Liberation Sans, sans-serif" font-size="353px" font-weight="400"><tspan class="TextPosition" x="20737" y="2416"><tspan fill="rgb(0,0,0)" stroke="none">50%</tspan></tspan></tspan></text>
 <text class="TextShape"><tspan class="TextParagraph" font-family="Liberation Sans, sans-serif" font-size="353px" font-weight="400"><tspan class="TextPosition" x="20737" y="1379"><tspan fill="rgb(0,0,0)" stroke="none">60%</tspan></tspan></tspan></text>
 <text class="TextShape"><tspan class="TextParagraph" font-family="Liberation Sans, sans-serif" font-size="353px" font-weight="400"><tspan class="TextPosition" x="20737" y="342"><tspan fill="rgb(0,0,0)" stroke="none">70%</tspan></tspan></tspan></text>
</svg>