<?xml version="1.0" encoding="UTF-8"?>
<!DOCTYPE svg PUBLIC "-//W3C//DTD SVG 1.1//EN" "http://www.w3.org/Graphics/SVG/1.1/DTD/svg11.dtd">
<svg width="219mm" height="62mm" viewBox="0 0 21900 6200" version="1.1" xmlns="http://www.w3.org/2000/svg" stroke-width="28.222" stroke-linejoin="round" xml:space="preserve">
 <path fill="rgb(255,255,255)" stroke="none" d="M 10996,6174 L 43,6174 43,0 21948,0 21948,6174 10996,6174 Z"/>
 <path fill="none" stroke="rgb(179,179,179)" stroke-linejoin="round" d="M 10670,5404 L 7108,5404 7108,123 14231,123 14231,5404 10670,5404 Z"/>
 <path fill="none" stroke="rgb(179,179,179)" stroke-linejoin="round" d="M 7108,122 L 7108,5403"/>
 <path fill="none" stroke="rgb(179,179,179)" stroke-linejoin="round" d="M 7998,122 L 7998,5403"/>
 <path fill="none" stroke="rgb(179,179,179)" stroke-linejoin="round" d="M 8889,122 L 8889,5403"/>
 <path fill="none" stroke="rgb(179,179,179)" stroke-linejoin="round" d="M 9779,122 L 9779,5403"/>
 <path fill="none" stroke="rgb(179,179,179)" stroke-linejoin="round" d="M 10670,122 L 10670,5403"/>
 <path fill="none" stroke="rgb(179,179,179)" stroke-linejoin="round" d="M 11559,122 L 11559,5403"/>
 <path fill="none" stroke="rgb(179,179,179)" stroke-linejoin="round" d="M 12450,122 L 12450,5403"/>
 <path fill="none" stroke="rgb(179,179,179)" stroke-linejoin="round" d="M 13340,122 L 13340,5403"/>
 <path fill="none" stroke="rgb(179,179,179)" stroke-linejoin="round" d="M 14231,122 L 14231,5403"/>
 <path fill="none" stroke="rgb(179,179,179)" stroke-linejoin="round" d="M 6958,5403 L 7108,5403"/>
 <path fill="none" stroke="rgb(179,179,179)" stroke-linejoin="round" d="M 6958,5403 L 7108,5403"/>
 <path fill="none" stroke="rgb(179,179,179)" stroke-linejoin="round" d="M 6958,4082 L 7108,4082"/>
 <path fill="none" stroke="rgb(179,179,179)" stroke-linejoin="round" d="M 6958,4082 L 7108,4082"/>
 <path fill="none" stroke="rgb(179,179,179)" stroke-linejoin="round" d="M 6958,2763 L 7108,2763"/>
 <path fill="none" stroke="rgb(179,179,179)" stroke-linejoin="round" d="M 6958,2763 L 7108,2763"/>
 <path fill="none" stroke="rgb(179,179,179)" stroke-linejoin="round" d="M 6958,1442 L 7108,1442"/>
 <path fill="none" stroke="rgb(179,179,179)" stroke-linejoin="round" d="M 6958,1442 L 7108,1442"/>
 <path fill="none" stroke="rgb(179,179,179)" stroke-linejoin="round" d="M 6958,122 L 7108,122"/>
 <path fill="none" stroke="rgb(179,179,179)" stroke-linejoin="round" d="M 6958,122 L 7108,122"/>
 <path fill="none" stroke="rgb(179,179,179)" stroke-linejoin="round" d="M 7108,5403 L 7108,122"/>
 <path fill="none" stroke="rgb(179,179,179)" stroke-linejoin="round" d="M 7108,5553 L 7108,5403"/>
 <path fill="none" stroke="rgb(179,179,179)" stroke-linejoin="round" d="M 7108,5553 L 7108,5403"/>
 <path fill="none" stroke="rgb(179,179,179)" stroke-linejoin="round" d="M 7998,5553 L 7998,5403"/>
 <path fill="none" stroke="rgb(179,179,179)" stroke-linejoin="round" d="M 7998,5553 L 7998,5403"/>
 <path fill="none" stroke="rgb(179,179,179)" stroke-linejoin="round" d="M 8889,5553 L 8889,5403"/>
 <path fill="none" stroke="rgb(179,179,179)" stroke-linejoin="round" d="M 8889,5553 L 8889,5403"/>
 <path fill="none" stroke="rgb(179,179,179)" stroke-linejoin="round" d="M 9779,5553 L 9779,5403"/>
 <path fill="none" stroke="rgb(179,179,179)" stroke-linejoin="round" d="M 9779,5553 L 9779,5403"/>
 <path fill="none" stroke="rgb(179,179,179)" stroke-linejoin="round" d="M 10670,5553 L 10670,5403"/>
 <path fill="none" stroke="rgb(179,179,179)" stroke-linejoin="round" d="M 10670,5553 L 10670,5403"/>
 <path fill="none" stroke="rgb(179,179,179)" stroke-linejoin="round" d="M 11559,5553 L 11559,5403"/>
 <path fill="none" stroke="rgb(179,179,179)" stroke-linejoin="round" d="M 11559,5553 L 11559,5403"/>
 <path fill="none" stroke="rgb(179,179,179)" stroke-linejoin="round" d="M 12450,5553 L 12450,5403"/>
 <path fill="none" stroke="rgb(179,179,179)" stroke-linejoin="round" d="M 12450,5553 L 12450,5403"/>
 <path fill="none" stroke="rgb(179,179,179)" stroke-linejoin="round" d="M 13340,5553 L 13340,5403"/>
 <path fill="none" stroke="rgb(179,179,179)" stroke-linejoin="round" d="M 13340,5553 L 13340,5403"/>
 <path fill="none" stroke="rgb(179,179,179)" stroke-linejoin="round" d="M 14231,5553 L 14231,5403"/>
 <path fill="none" stroke="rgb(179,179,179)" stroke-linejoin="round" d="M 14231,5553 L 14231,5403"/>
 <path fill="none" stroke="rgb(179,179,179)" stroke-linejoin="round" d="M 7108,5403 L 14231,5403"/>
 <path fill="rgb(0,69,134)" stroke="none" d="M 7108,1222 L 7108,782 10224,782 10224,1222 7108,1222 Z"/>
 <path fill="rgb(0,69,134)" stroke="none" d="M 7108,2542 L 7108,2102 9779,2102 9779,2542 7108,2542 Z"/>
 <path fill="rgb(0,69,134)" stroke="none" d="M 7108,3862 L 7108,3422 8399,3422 8399,3862 7108,3862 Z"/>
 <path fill="rgb(0,69,134)" stroke="none" d="M 7108,5182 L 7108,4742 7998,4742 7998,5182 7108,5182 Z"/>
 <path fill="rgb(255,66,14)" stroke="none" d="M 7108,782 L 7108,342 13830,342 13830,782 7108,782 Z"/>
 <path fill="rgb(255,66,14)" stroke="none" d="M 7108,2102 L 7108,1662 13206,1662 13206,2102 7108,2102 Z"/>
 <path fill="rgb(255,66,14)" stroke="none" d="M 7108,3422 L 7108,2983 9913,2983 9913,3422 7108,3422 Z"/>
 <path fill="rgb(255,66,14)" stroke="none" d="M 7108,4742 L 7108,4302 9334,4302 9334,4742 7108,4742 Z"/>
 <text class="TextShape"><tspan class="TextParagraph" font-family="Liberation Sans" font-size="353px" font-weight="400"><tspan class="TextPosition" x="482" y="4863"><tspan fill="rgb(0,0,0)" stroke="none">Methods of activating creativitive thinking</tspan></tspan></tspan></text>
 <text class="TextShape"><tspan class="TextParagraph" font-family="Liberation Sans" font-size="353px" font-weight="400"><tspan class="TextPosition" x="2016" y="3543"><tspan fill="rgb(0,0,0)" stroke="none">Combined non-TRIZ techniques</tspan></tspan></tspan></text>
 <text class="TextShape"><tspan class="TextParagraph" font-family="Liberation Sans" font-size="353px" font-weight="400"><tspan class="TextPosition" x="2228" y="2222"><tspan fill="rgb(0,0,0)" stroke="none">(40) Basic creativity principles</tspan></tspan></tspan></text>
 <text class="TextShape"><tspan class="TextParagraph" font-family="Liberation Sans" font-size="353px" font-weight="400"><tspan class="TextPosition" x="2704" y="902"><tspan fill="rgb(0,0,0)" stroke="none">Combined TRIZ techniques</tspan></tspan></tspan></text>
 <text class="TextShape"><tspan class="TextParagraph" font-family="Liberation Sans" font-size="353px" font-weight="400"><tspan class="TextPosition" x="7015" y="5971"><tspan fill="rgb(0,0,0)" stroke="none">0</tspan></tspan></tspan></text>
 <text class="TextShape"><tspan class="TextParagraph" font-family="Liberation Sans" font-size="353px" font-weight="400"><tspan class="TextPosition" x="7813" y="5971"><tspan fill="rgb(0,0,0)" stroke="none">20</tspan></tspan></tspan></text>
 <text class="TextShape"><tspan class="TextParagraph" font-family="Liberation Sans" font-size="353px" font-weight="400"><tspan class="TextPosition" x="8704" y="5971"><tspan fill="rgb(0,0,0)" stroke="none">40</tspan></tspan></tspan></text>
 <text class="TextShape"><tspan class="TextParagraph" font-family="Liberation Sans" font-size="353px" font-weight="400"><tspan class="TextPosition" x="9594" y="5971"><tspan fill="rgb(0,0,0)" stroke="none">60</tspan></tspan></tspan></text>
 <text class="TextShape"><tspan class="TextParagraph" font-family="Liberation Sans" font-size="353px" font-weight="400"><tspan class="TextPosition" x="10485" y="5971"><tspan fill="rgb(0,0,0)" stroke="none">80</tspan></tspan></tspan></text>
 <text class="TextShape"><tspan class="TextParagraph" font-family="Liberation Sans" font-size="353px" font-weight="400"><tspan class="TextPosition" x="11282" y="5971"><tspan fill="rgb(0,0,0)" stroke="none">100</tspan></tspan></tspan></text>
 <text class="TextShape"><tspan class="TextParagraph" font-family="Liberation Sans" font-size="353px" font-weight="400"><tspan class="TextPosition" x="12173" y="5971"><tspan fill="rgb(0,0,0)" stroke="none">120</tspan></tspan></tspan></text>
 <text class="TextShape"><tspan class="TextParagraph" font-family="Liberation Sans" font-size="353px" font-weight="400"><tspan class="TextPosition" x="13063" y="5971"><tspan fill="rgb(0,0,0)" stroke="none">140</tspan></tspan></tspan></text>
 <text class="TextShape"><tspan class="TextParagraph" font-family="Liberation Sans" font-size="353px" font-weight="400"><tspan class="TextPosition" x="13954" y="5971"><tspan fill="rgb(0,0,0)" stroke="none">160</tspan></tspan></tspan></text>
 <path fill="rgb(0,69,134)" stroke="none" d="M 15171,2943 L 15065,2943 15065,2732 15276,2732 15276,2943 15171,2943 Z"/>
 <path fill="rgb(255,66,14)" stroke="none" d="M 15171,3440 L 15065,3440 15065,3229 15276,3229 15276,3440 15171,3440 Z"/>
 <text class="TextShape"><tspan class="TextParagraph" font-family="Liberation Sans" font-size="353px" font-weight="400"><tspan class="TextPosition" x="15376" y="2957"><tspan fill="rgb(0,0,0)" stroke="none">Learners with technical backgrounds</tspan></tspan></tspan></text>
 <text class="TextShape"><tspan class="TextParagraph" font-family="Liberation Sans" font-size="353px" font-weight="400"><tspan class="TextPosition" x="15376" y="3454"><tspan fill="rgb(0,0,0)" stroke="none">Learners with non-technical backgrounds</tspan></tspan></tspan></text>
</svg>